#define copy_width 16
#define copy_height 16
static char copy_bits[] = {
   0x00, 0x00, 0xc0, 0x03, 0x66, 0x06, 0x66, 0x06, 0xff, 0xff, 0x01, 0xc0,
   0xc3, 0x83, 0xe1, 0xc7, 0x33, 0x8c, 0x31, 0xcc, 0x33, 0x8c, 0x31, 0xcc,
   0xe3, 0x87, 0xc1, 0xc3, 0x03, 0x80, 0xff, 0xff};
