#define edit_width 16
#define edit_height 16
static char edit_bits[] = {
   0x00, 0x00, 0x00, 0x08, 0x00, 0x04, 0x00, 0x02, 0x00, 0x41, 0x80, 0x20,
   0x40, 0x10, 0x20, 0x08, 0x10, 0x04, 0x38, 0x02, 0x48, 0x01, 0xc4, 0x00,
   0x6c, 0x00, 0x1e, 0x00, 0x06, 0x00, 0x00, 0x00};
