#define file_doc_width 16
#define file_doc_height 16
static char file_doc_bits[] = {
  0x00, 0x00, 0xfc, 0x07, 0x04, 0x0a, 0x04, 0x12, 0x04, 0x22, 0x04, 0x3e,
  0x04, 0x20, 0x04, 0x20, 0x04, 0x20, 0x04, 0x20, 0x04, 0x20, 0x04, 0x20,
  0x04, 0x20, 0x04, 0x20, 0x04, 0x20, 0xfc, 0x3f, };
