#define folder_width 16
#define folder_height 16
static char folder_bits[] = {
   0x80, 0x2b, 0x70, 0x3d, 0xac, 0x26, 0xfc, 0x21, 0x04, 0x21, 0x74, 0x21,
   0x54, 0x21, 0x54, 0x21, 0x74, 0x21, 0x04, 0x21, 0x24, 0x21, 0x74, 0x21,
   0x24, 0x21, 0x04, 0x19, 0x04, 0x07, 0xfc, 0x01};
