#define home_width 16
#define home_height 16
static char home_bits[] = {
   0x00, 0x00, 0x00, 0x00, 0x38, 0x03, 0xb8, 0x06, 0x68, 0x0d, 0xa8, 0x1a,
   0x58, 0x35, 0xa8, 0x6a, 0xfc, 0xff, 0x08, 0x40, 0xe8, 0x5e, 0xa8, 0x5e,
   0xa8, 0x5a, 0xe8, 0x5e, 0x08, 0x5e, 0xf8, 0x7f};
