#define info_width 16
#define info_height 16
static char info_bits[] = {
   0x00, 0x00, 0x80, 0x03, 0xc0, 0x07, 0xc0, 0x07, 0x80, 0x03, 0x00, 0x00,
   0xf0, 0x07, 0xf0, 0x07, 0xc0, 0x07, 0xc0, 0x07, 0xc0, 0x07, 0xc0, 0x07,
   0xc0, 0x07, 0xf0, 0x1f, 0xf0, 0x1f, 0x00, 0x00};
