#define move_width 16
#define move_height 16
static char move_bits[] = {
   0x00, 0x00, 0x45, 0xc0, 0x40, 0x60, 0xc4, 0x50, 0xc0, 0x78, 0xf4, 0x09,
   0xf0, 0x09, 0xf4, 0x0b, 0xf0, 0x0b, 0xf4, 0x09, 0xf0, 0x09, 0xc4, 0x08,
   0xc0, 0x08, 0x45, 0xf8, 0x40, 0x00, 0x00, 0x00};
