#define printer16_width 16
#define printer16_height 16
static char printer16_bits[] = {
   0xfc, 0x0f, 0x04, 0x14, 0x04, 0x24, 0xf4, 0x3f, 0x04, 0x20, 0xf4, 0x23,
   0x04, 0x20, 0xf4, 0x27, 0x04, 0x20, 0xff, 0xff, 0x01, 0x80, 0x55, 0x80,
   0x01, 0x80, 0x01, 0x80, 0x01, 0x80, 0xff, 0xff};
