#define shell_width 16
#define shell_height 16
static char shell_bits[] = {
   0x00, 0x00, 0x80, 0x03, 0xc0, 0x07, 0xc0, 0x07, 0xc0, 0x07, 0xc0, 0x07,
   0xc0, 0x07, 0xc0, 0x07, 0xc0, 0x07, 0x80, 0x03, 0x00, 0x00, 0x80, 0x03,
   0xc0, 0x07, 0xc0, 0x07, 0x80, 0x03, 0x00, 0x00};
