#define tools_width 32
#define tools_height 32
static char tools_bits[] = {
   0x00, 0x00, 0x00, 0x00, 0x00, 0x00, 0x00, 0x00, 0x00, 0x00, 0x00, 0x00,
   0x00, 0x00, 0x00, 0x00, 0x00, 0x30, 0x00, 0x00, 0x00, 0x30, 0x00, 0x00,
   0x00, 0x78, 0x3e, 0x00, 0x00, 0x78, 0x7f, 0x00, 0x00, 0x30, 0xf8, 0x00,
   0x00, 0x78, 0xf0, 0x01, 0x00, 0x78, 0xe0, 0x03, 0x00, 0xcc, 0xd0, 0x07,
   0x00, 0xcc, 0x88, 0x0f, 0x00, 0xb6, 0x45, 0x0f, 0xc0, 0xff, 0x23, 0x3e,
   0x00, 0x33, 0x11, 0x18, 0x00, 0x83, 0x08, 0x08, 0x80, 0x41, 0x04, 0x00,
   0x80, 0xe1, 0x07, 0x00, 0xc0, 0xf0, 0x0d, 0x00, 0xc0, 0xf8, 0x0c, 0x00,
   0x60, 0x7c, 0x18, 0x00, 0x70, 0x3e, 0x38, 0x00, 0x30, 0x1f, 0x30, 0x00,
   0x80, 0x0f, 0x00, 0x00, 0xc0, 0x07, 0x00, 0x00, 0xe0, 0x03, 0x00, 0x00,
   0xc0, 0x01, 0x00, 0x00, 0x80, 0x00, 0x00, 0x00, 0x00, 0x00, 0x00, 0x00,
   0x00, 0x00, 0x00, 0x00, 0x00, 0x00, 0x00, 0x00};
