#define trash_width 16
#define trash_height 16
static char trash_bits[] = {
   0x00, 0x00, 0xc0, 0x03, 0x60, 0x06, 0xfc, 0x3f, 0x08, 0x10, 0xa8, 0x1a,
   0xa8, 0x1a, 0xa8, 0x1a, 0xa8, 0x1a, 0xa8, 0x1a, 0xa8, 0x1a, 0xa8, 0x1a,
   0xa8, 0x1a, 0x08, 0x10, 0xf8, 0x1f, 0x00, 0x00};
