/* XPM */
static char *magick[] = {
/* columns rows colors chars-per-pixel */
"16 16 3 1",
"  c Gray100",
". c Gray0",
"X c #e000e0000000",
/* pixels */
"                ",
"                ",
"                ",
"          .     ",
" ..       .     ",
" ..      .      ",
" ..      ..     ",
" ..  . ..... .  ",
" ..  . ...     .",
" ..  . ......X .",
" ..  .....   .X.",
"..............X.",
" .. . ......X. .",
"... . ..... X ..",
" .... ......X...",
"................"
};
