/* XPM */
static char * BallotBox_xpm[] = {
"48 48 15 1",
" 	c None",
".	c grey64",
"X	c grey76",
"o	c grey51",
"O	c white",
"+	c brown4",
"@	c firebrick3",
"#	c grey89",
"$	c orange3",
"%	c grey39",
"&	c grey26",
"*	c grey13",
"=	c grey7",
"-	c goldenrod1",
";	c grey4",
"                      ..                        ",
"                     .X  .oo.           ..      ",
"                    .XOO +@++oo        .XX.     ",
"                  ..#OOOO$$##$++oo     .#o# ....",
"                ..XOOOOOO###O$$$$++oo .X oXOOOX.",
"                o#O#+#oXOOo #$$$$$$o++%&oo#OO%%X",
"                %*OXX+#OO#X%X+$$$$$$$$++&*%.&o  ",
"               o++*O#XOO#X#&X*=+$$$$$$$$$++*o   ",
"             .++$$$&O#Xo#X.&%=o*o$$$$$$$$XX&o   ",
"            o+$$X#X*.#o#Xo&==%#OOXO#$$$$--$*o   ",
"          o+$$$ .OO.*o .%*;*% .X%.O-$$$-X$$*o   ",
"        .++$$$$$+*%X%=%%&;&oX%#* #$$$$-$$$$*o   ",
"       o+$$$$$$+***%X*;*=&%XOOoXo*&$X-$$$$$*o   ",
"     o++$$$$$$$$$+;*%.;;;;;;&OO#+o$--$$$$$+=....",
"    o*+$$$$$$$$$$$o=;=;;;;***&O$$$-X$$$$@**&X##.",
"    %***+$$$$$$$$$-+;;=;+$$+*+$$$-$$$$$+**%#XX#.",
"    %;++**+$$$$$$$$Xo;&$$$$$+$$X-$$$$$+*;=&&&=% ",
"    %;++++*++$$$$$$$$$$$$$$$$$-X$$$$@++$+++;    ",
"    %;+++++**+$$$$$$$$$$$$$$$-$$$$$+*+$$$++*    ",
"    %;;*+++++**+$$$$$$$$$$$$-$@@$$+*++@$$$+*    ",
"     ;;;;++++++**+$$$$$$$$X-$@@@@+;;*##$$$+*    ",
"     ;;;;;*++++++**+$$$$$-X@@@@++;;*oO#$$$+*    ",
"   oo;;%%*;;*+++++&**+$$-$+++@+*;;*.##$$$$+*    ",
"  .oooO#&&&;;;++++++&**$$+++++*;;%X+O$$$$$+;    ",
"  ..XOOOX.&%&;;*++++++*+++++&*;*&&%o*+$$@+;%    ",
"    .%XO% X%;;*;;*++++*+++++++++++++@@$@*;%..   ",
"     %; OoX;;*++*;;+++*+++++++++++@@@@+*=%..    ",
"     %;;o#X;++++++*;*+*+++++++++++@@@+*=%o.     ",
"     %;+*+o&+++++++&;;;*+++++++++++oo**%o.      ",
"     %;++**++++++++++*;&++++++++++* Oooo..      ",
"    .%;++++&++++++++&**++++++++++* #OO#......   ",
"   ..%;*++++&+++&&&&&+*++++++++*&.#O#OOOO#XX... ",
"  ..o%;;;*+*&+&&&+++++*++++++&&.XX&o&XXOOOOOO.. ",
"  ..o%&;;;;*.o&+++++++*++++++*X#O%o&X&#O*OOO#o. ",
"   .o%&&*;;.X.%&++++++*+++++;;=*#X.X&OO&XOOO... ",
"   ..oo%&**O#X.%&+*****&++++*;;*;oO&OO%.OOOXo.  ",
"  ....o%&*X#X##.%+*****+++++*;&&*=*XO..XOOOo..  ",
"..o**=*&oOOO&X###.****;++++**%%%&&*;oOo.OO.o.   ",
".oo#OOOOOO.o#&.#O*;***;+++**%o.o%%&*=*XOO.o..   ",
"o%&oOO.XOXXX%X%O ;;;**;++;&o.....o%&&*=.o%o.    ",
"o%&&.OO%.#&%..O#%*=;;;;*;&o..   ..o%%&&%%o.     ",
".%&&& OO.%#.#OOo%%&&=;;;&o..     ...o%%oo..     ",
".o%&*&.OOX.OO#.ooo%&&&&%o..        ......       ",
"..o%&&*%#O#OX%o....o%%oo..           ..         ",
" ..o%%&*& #.%o.. .......                        ",
"  ...o%&&&%%o..                                 ",
"    ..o%%%%o..                                  ",
"     ..ooo..                                    "};
