/* XPM */
static char * HalfClockwithPersonIconLettersTM_xpm[] = {
"48 48 19 2",
"  	c grey39",
". 	c grey4",
"X 	c white",
"o 	c grey7",
"O 	c grey13",
"+ 	c brown4",
"@ 	c grey26",
"# 	c orange3",
"$ 	c grey51",
"% 	c grey76",
"& 	c grey64",
"* 	c grey89",
"= 	c blue4",
"- 	c yellow4",
"; 	c blue3",
": 	c firebrick3",
"> 	c turquoise4",
", 	c cyan3",
"< 	c cyan1",
"                                                                                                ",
"  . . . . . . . . . . . . . . . . . . . . . . . . . . . . . . . . . . . . . . . . . . . . . . X ",
"  . o O O O O . o O . . . . . . . . . . . . . o . o . X X X X X X X X X X X X X X X X X X X X X ",
"  . O O O O O o o O O + O . . . . . . . o . o o o o . X X X X X X X X X X X X X X X X X X X X X ",
"  . o o O . o O @ + # # # $ O . . o . o o o o o o o . X X X X X X X X X X X X X X X X X X X X X ",
"  .   $   % & + o @ . # # # % $ . o o o o o o o O O . X X X X X X X X X X X X X X X X X X X X X ",
"  . @ @   X X * * % @ . @ # % % & o o O o O O O O O . X $ . . . . . $ . . & X X X X X & . . X X ",
"  . O O . @   $ * X X $ O O # # # # o . O O O O O O . X . X X . X X . X . O X X X X X O . X X X ",
"  .   $ $ % &   @ $ X X *   O # # & % o . O O = = = . X X X X . X X X X . . & X X X & . . X X X ",
"  . O $ $ X X X %     & X X + O # # # & . o o o = = . X X X X . X X X X . & . X X X . & . X X X ",
"  . . @ $ X X & @ & &   $ X X $ O # # &   O + @ = = . X X X X . X X X X . X O & X & O X . X X X ",
"  . @   $ X X   $ $ * % $ & X X + O # $ - o + @ o = . X X X X . X X X X . X & . X . & X . X X X ",
"  . $ $ $ X X X   @ & X *     X X O + # & @ O O o = . X X X X . X X X X . X X O & O X X . X X X ",
"  . $ $ $ X X X   * X X X %   % X % O # # # O o = = . X X X * . * X X % . % X & . & X % . % X X ",
"  . $ $ $ X X X X X X X *   @ @ * X + @ # & $ = . = . X X X . . . X X . . . X X O X X . . . X X ",
"  . $ $ $ X X X X X X X &   @   $ X & O # # $ o = = . X X X X X X X X X X X X X X X X X X X X X ",
"  . $ $ $ X X X X X X X X &   O   * X O + - & O = = . X X X X X X X X X X X X X X X X X X X X X ",
"  . $ $ $ X X X X X X X X $ $ X @ & X $ O # &   O = . X X X X X X X X X X X X X X X X X X X X X ",
"  . $ $ $ X X X X X X X X * % $ $ $ X % O - & & . = . X X X X X X X X X X X X X X X X X X X X X ",
"  . $ $ $ X X X * & $ $ O @ & X & @ X * O # - # . = . . . . . . . . . . . . . . . . . . . . . X ",
"  . $ $ $ * & $ & & & $ * X X X * @ * X O + & $ O = = ; ; ; ; = O o . . . . . . . . . . . . . X ",
"  . @ @ @ & & $ $ & * X X X   $ X @ % X O + # & O = = ; ; ; ; = O o . . . . . . . . . . . . . X ",
"  . @ o @ $ % X X X X X X X   O   O % * O @ & - O = = ; ; ; ; = O o . o . . . o . . . o . . . X ",
"  . o @ @ X X X X X X X X X     @ @ % X O + # # O o = ; ; ; ; = O O o O o O o O o O o O o O o X ",
"  .   @   & * * X X X X X X X % * @ * X O @ # & O O = ; ; ; ; = = = = O = O = O = O = O = O = X ",
"  . $ $ @ $   $ X X X X X X X X % O X * . + # + o o = ; ; ; ; = = = = = = = = = = @ = = = = = X ",
"  . $ $ $ $   @ & X X X X X X X &   X % o : # - o O = ; ; ; ; > > > > > > > > > > > > > > > > X ",
"  . $ $ $ %     $ * X X * & X X   $ X   O + # + o O = ; ; > ; > > > > > > > > > > > > > > > > X ",
"  . $ $ $ X X * &   X X O & X * O * X O O + # @ o O = ; > > > > > > > > > @ . . @ > , > , > , X ",
"  . $ $ $ X X X X * * X   $ o &   X % O + + # O o = = > > > > > > > > , > . . . . , , , , , , X ",
"  . $ $ $ X X X X X X X *   @ @ % X + O + + + . o = @ > > > > > , > , , , . . . . , , , , , , X ",
"  . $ $ $ X X X * X X X X % $ $ X % . + + : O . O @ = > > > > , , , , , ,   . .   , , , , , , X ",
"  . $ $ $ X X % % X X X X $   * X O O + + @ o o O = > > , , , , , , , , , , , , , , , , , , , X ",
"  .   $ $ X X @     X X & $ % X + O + + + O . . O @ > , > , , , , , , , . . . . . . , , , , , X ",
"  . o $ $ X X   $   * $   % X $ O O + + @ . . O @ = , , , , , , , , , , . . . . . . , , , , , X ",
"  . @ $ $ X X * $ $ $   * X & O O + + O . . o O =   , , , , , , , , , , . . . . . . , , , , , X ",
"  . O   $ X X &   @ & X X   O + + + O . . o O = > , , , , , , , , , , , . . . . . . < , < * < X ",
"  . @ O @ $ @   $ * X * O O + + O O . . o O =     , , , , , , , , , , , . . . . . . * X * X * X ",
"  . . @ O $ % * X *   O O O + O O o . o O O   > , , , , , , , , , , , * . . . . . . X X X * X X ",
"  . $ $ $ X * % @ O O + + O O O . . . . O @ @ , , , , , , , , < , , * * * . . . . X * X * X * X ",
"  .       O O O O @ O O O O O . . o o O @   > , , @   @       , , * * * * . . . . * X * X * X X ",
"  . . . O O O + O O O O . . . . o o O O =   , , , , , , , , , , * * * * * . . . . X * X * X * X ",
"  . O . + O O O O O O . . o . O o O O = > , , , , > >                   $ . . . . * X * X * X X ",
"  . . . O O O O . . . . o . o o O O = @ @ , , , , , > > >                 . . . . X X X * X * X ",
"  . . . o . . . . o o o o O O = = =   > , , , , , , , , , , < * * % &   $ . . . . * X * X * X X ",
"  . . . . . . . . . o o O O = = = = > > > , , , , , , , , , , * * * * * * * * X * * * * * * * X ",
"  . . . . . . . . o o = = = = = = > > > , , , , , , , , , , < * * * * * X * X * X * X * X * * X ",
"X X X X X X X X X X X X X X X X X X X X X X X X X X X X X X X X X X X X X X X X X X X X X X X X "};
