/* XPM */
static char * comet_xpm[] = {
"48 48 11 1",
" 	c black",
".	c yellow1",
"X	c DarkOrange1",
"o	c goldenrod1",
"O	c white",
"+	c red1",
"@	c grey89",
"#	c blue3",
"$	c blue1",
"%	c cyan1",
"&	c grey4",
"                                                ",
"                                         .      ",
"                                        X..     ",
"                   X                     X   X  ",
"            o     ...                        O  ",
"           XXo     .                            ",
"            X                +  +               ",
"                            ++++++++            ",
"                         +++++++++++++          ",
"                        +++++++++++++++      X  ",
"                 @@    +++++########++++    ..X ",
"   o                  +++$$$$$$$$$$$##++++   o  ",
"  o.o        o        +++$$$$$%%%%$$$$#+++      ",
" o...o      X.X       +++$$$%%%O%%%%%$++++      ",
"  o.o&       o      XX++$$$%%OOOOO%%%$$#+++     ",
"   o                 X+$$$$%%O%%OOO%O%$#+++     ",
"                    XX+$$$$%O%%O%OOO%%$#+++     ",
"                   XX++$$$%%%%O%O%OO%%$#++++    ",
"                   XXX+$$$%%%O%O%%OO%O$#+++     ",
"                 XXX++$$$$$%%O%%%OO%%%$#&++     ",
"                 XXXX+$$$$$%%%OO%O%%%$$#++++    ",
"       o         ooX++$$$$$$%%%%%%%$%$$#+++     ",
"      X.o       ooXXX+$$$$$$$%$%%$%%$$++++      ",
"       X       oooXX++$$$$$$$$$$$$$$$$$+++      ",
"              XooXXXX+$$$$$$$$$$$$$$$$+++       ",
"              XooXXXXX+$$$$$$$$$$$$$++++     o  ",
"    X         XoooXXXX+++$$$$$$$+$+++++     o@o ",
"   @Oo        oooXXXXXX++$$$$$$+++++++       @  ",
"    o        ooooooXXXXXX++++++XXXXX            ",
"            oooooooXXXXXXX+X+X+XXXX             ",
"           XooooooXXXXXXXXXXXXXXX        o      ",
"          &ooooXoooooXXXXXoooXXXX       XXo     ",
"         &&ooXoXoooooooXoXoXXXX          o      ",
"         &ooXoooooooooooooooXX                  ",
"     X  &&.&XXooooXoooooooX                     ",
"    .XX   .&ooooXoXoooXXXX       X              ",
"     .     ..ooX&ooooX          X.o             ",
"          o&X.&Xo X@             o              ",
"         X.&Xo&Xo  @                            ",
"        .X&oo oo                                ",
"         XXooo&                                 ",
"         oooo&&                     X           ",
"        o&&&&&     .X              XO           ",
"       o&&&        X                $           ",
"      &&&                                       ",
"   X.&&     XO                          oo      ",
"    X        @                                  ",
"                                                "};
