/* XPM */
static char * DarkForest_xpm[] = {
"48 48 16 1",
" 	c None",
".	c blue3",
"X	c white",
"o	c grey89",
"O	c grey76",
"+	c yellow4",
"@	c grey64",
"#	c grey26",
"$	c blue4",
"%	c grey4",
"&	c grey13",
"*	c grey51",
"=	c grey39",
"-	c turquoise4",
";	c yellow3",
":	c magenta4",
"                                                ",
"                                                ",
"..........XXXXXXXXXXXXXXXXXXXXXoXooOoOoOOO+O+@# ",
"..........XXXXXXXXXXXXXXXXXXXXXXXXXoOoOoOOOOO+$ ",
".........XXXXXXXXXXXXXXXXXXXXXXXXooooOoOOOOOOO# ",
".........XXXXXXXXXXXXXXXXXXXXXX%&XooooOoOoOOOO$ ",
"........*XXXXXXXXXXXXXXXXXXXXX=%%&XooooOoOOO+O$ ",
"........@XXXXXXXXXXXXXXXXXXX&&%%%&XoooOoOoOOOO# ",
"......-.@XXXXXXXXXXXXXXXXX&%%%%%%&oooooOoOO;OO# ",
"...-....XXXXXXXXXXXXXXXXX&#%%%%%%=oXXoOoOoOOOO$ ",
"$.#.-.=.XXXXXXXXXXXXXXXXXXX%%%%%%XXooooOoOOOOO# ",
".$.$.$.=XXXXXXXXXXXXXXXXXX%%%%%%&XXoXoooOoOOOO$ ",
"=.=.#.#.XXXXXXXXXXXXXXXXXX%%%%%&oXoooooOoOOOO+$ ",
".$.#.$.=XXXXXXXXXXXXXXXXX%%%%%%XXXoXXoOoOoOoOO# ",
"#.#.=.#.XXXXXXXXXXXXXXXX&%%%%%%%XoXooooOoOoOOO# ",
".#.#.#.#XXXXXXXXXXXXXX#%%%%%%%%%%XXoooOoOoOOOO# ",
"##=###=#XXXXXXXXXXXXX%%%%%%%%%%%%XoooooOoOOOO+$ ",
"#..#.$.$XXXXXXXXXXXX%%%%%%%%%%%%%XXoooOoOoOoOO$ ",
"########XXXXXXXXXXX%%%%%%%%%%%%%%oXooooOoOOOO+$ ",
"#.##.#.#@XXXXXXXXX%%%%%%%%%%%%%%%=XoOoOoOoOOOO# ",
"###$###$@oXXXXXXXX%%%%%%%%%%%%%%%%oooOoOoOO;OO$ ",
"##.###.#:XoXXXXXX%%%%%%%%%%%%%%@%%ooooOoOoOOOO# ",
"#$#:#$###XXXXXXXX%%%%%%%%%%%O%%@%%ooOOoOOOOOOO# ",
"##$$##$$#ooXoXXX#%%%%%%%%%%%O%%@%%Ooo%%%%OOOOO$ ",
"$##$#$##$*ooXXoX%%%%%%%%%%%%O&%@%%%%%%%%%%OOOO# ",
"#$##$###$#ooXooX%%%%%%%%%%%OO&%%%%%%%%%%%%OOOO$ ",
"$#$#$#$#$#:o@oXo%%%%%%%%%%%%%%%%%%%%%%%%%%OOOO# ",
"#$#$#$#$$#$=o%%@%%%%%%%%%%%%%%%%%%%%%%%%%%OOOO$ ",
"#$#$$$#$#$#$=o%%%%%%%%%%%%%%%%%%%%%%%%%%%%OO+O# ",
"$#$#$#$#$#$#$oo%%%&%%%%%%%%%%%%%%%%%%%%%%%OOO+$ ",
"###&#&#&###&#&oOo%%%%%%%%%%%%%%%%%%%%%%%%%OO+@$ ",
"######&#&#&#&&%%%%%%%%%%%%%%%%%%%%%%%%%%%%OOO+$ ",
"#&#&&###&$%%%%%%%%%%%%%%%%%%%%%%%%%%%%%%%%+O@O$ ",
"#######&%%%%%%%%%%%%%%%%%%%%%%%%%%%%%%%%%%@OO@$ ",
"&###%%%%%%%%%%%%%%%%%%%%%%%%%%%%%%%%%%%%%%+O+=$ ",
"#&%%%%%%%%%%%%%%%%%%%%%%%%%%%%%%%%%%%%%%%%O@=## ",
"%%%%%%%%%%%%%%%%%%%%%%%%%%%%%%%%%%%%%%%%%%&#&&$ ",
"%%%%%%%%%%%%%%%%%%%%%%%%%%%%%%%%%%%%%%%%%%&##&$ ",
"%%%%%%%%%%%%%%%%%%%%%%%%%%%%%%%%%%%%%%%%%&&&&&$ ",
"%%%%%%%%%%%%%%%%%%%%%%%%%%%%%%%%%%%%%%%%&&#&#&$ ",
"%%%%%%%%%%%%%%%%%%%%%%%%%%%%%%%%%%%%%%%%&&&&&&$ ",
"%%%%%%%%%%%%%%%%%%%%%%%%%%%%%%%%%%%%%%%%#&&&#&$ ",
"%%%%%%%%%%%%%%%%%%%%%%%%%%%%%%%%%%%%%%%&&&&&&&$ ",
"%%%%%%%%%%%%%%%%%%%%%%%%%%%%%%%%%%%%%%%&&&&&&&$ ",
"%%%%%%%%%%%%%%%%%%%%%%%%%%%%%%%%%%%%%%%&&&&&&&# ",
"%%%%%%%%%%%%%%%%%%%%%%%%%%%%%%%%%%%%%%%&&&&&&&$ ",
"%%%%%%%%%%%%%%%%%%%%%%%%%%%%%%%%%%%%%%%%%%%%%%  ",
"                                                "};
