/* XPM */
static char * DiskFloppy_xpm[] = {
"48 48 12 1",
" 	c None",
".	c grey89",
"X	c magenta4",
"o	c grey76",
"O	c grey26",
"+	c grey64",
"@	c grey13",
"#	c blue4",
"$	c grey4",
"%	c grey39",
"&	c grey51",
"*	c grey7",
"                                                ",
"   ....Xoooo                     O+......@      ",
"  .O#O#$#%#% .ooo++&&++++++++++++@+O@@@@@@$     ",
"  .#O#O$O#O% oo++++&+++++o$$$$O+o*+@@@@@@@@$    ",
"  .O#O#$O%#% oo++&&+++++oo$OOO oo@+O@@@@@@@@$$  ",
"  .#O#O$%#O# o+++&+++++ooo$OOO oo*+@@@@@@@@@$$$ ",
"  .O#O#$#%#% ++&&+++++oooo$OOO oo@+@@@@@@@@@$$$ ",
"  .OO#O$O#O% ++&+++++ooooo$OOO oo*+@@@@@@@@@$$$ ",
"  .O###$O%#% &&+++++oooooo$OOO oo@+@@@@@@@@@$$$ ",
"  .#O#O$%#O# &+++++ooooooo$OOO oo*+@@@@@@@@@$$$ ",
"  .##O#$#%#% +++++oooooooo$OOO oo@+@@@@@@@*@$$$ ",
"  .#O#O$O#O% ++++ooooooooo$OOO oo*+@@@@@@@@@$$$ ",
"  .O#O#$O%#% +++ooooooooooO    oo@+@@@@@*@*@$$$ ",
"  .#O#O$%#O# ++oooooooooooooooooo*+@@@@@@@@*$$$ ",
"  .O#OO$#%#%+@*@*@*@*@*@*@*@*@*@*@+@@@*@*@*@$$$ ",
"  .#O#OO$+++++++++++++++++++++++++@@@@@@@*@@$$$ ",
"  .OOOOO@OOO@O@O@O@O@@@@@@@@@@@@@@@@*@*@*@*@$$$ ",
"  .#O#OOOOOOOOO@O@@@@@@@@@@@@@@@@@@@@@@*@*@*$$$ ",
"  .OOO@O@O@O@O@O@O@@@@@@@@@@@@@@@@*@*@*@*@**$$$ ",
"  .OOOOOOOOO@@@@@@@@@@@@@@@@@@@@@@@@@*@@@*@*$$$ ",
"  .O@OOO@$$$$$$$$$$$$$$$$$$$$$$$$$$$$$*@***@$$$ ",
"  .OOOOO$#O#%#O#%#O#%#O#%#O#%#O#%#O#%#+*@*@*$$$ ",
"  .O@O@$#%#%#%#%#%#%#%#%#%#%#%#%#%#%#%#+****$$$ ",
"  .OOOO$O#Oo.......................oO#O+@*@*$$$ ",
"  .O@O@$O%o.........................o%#+****$$$ ",
"  .OOO@$%#...........................#O+@***$$$ ",
"  .O@O@$#%...........................%#+****$$$ ",
"  .O@@@$O#...........................#O+****$$$ ",
"  .O@O@$O%...........................%#+****$$$ ",
"  .@O@@$%#...........................#O+****$$$ ",
"  .O@O@$#%...........................%#+****$$$ ",
"  .@@@@$O#...........................#O+$***$$$ ",
"  .O@@@$O%...........................%#+****$$$ ",
"  .@@@@$%#...........................#O+**$*$$$ ",
"  .@@@@$#%...........................%#+****$$$ ",
"  .@@@@$O#...........................#O+$*$*$$$ ",
"  .@@@@$O%...........................%#+***$$$$ ",
"  .@@@@$%#...........................#O+$*$*$$$ ",
"  .@@@@$#%...........................%#+*$*$$$$ ",
"  .@@@@$O#...........................#O+$$$$$$$ ",
"  .@@@@$O%...........................%#+*$*$$$$ ",
"  .@@@@$%#...........................#O+$*$$$$$ ",
"  .@@@*$#%...........................%#+*$$$$$$ ",
"  .@@@@$O#...........................#O+$$$$$$$ ",
"  +@$$$$$O&&X&&&X&&&X&&&X&&&X&&&X&&&X%#O$$$$$$$ ",
"    $$$$$$$$$$$$$$$$$$$$$$$$$$$$$$$$$$$$$$$$$$$ ",
"     $$$$$$$$$$$$$$$$$$$$$$$$$$$$$$$$$$$$$$$$$$ ",
"                                                "};
