/* XPM */
static char * DocumentWithBitmap_xpm[] = {
"48 48 16 2",
"  	c None",
". 	c grey26",
"X 	c white",
"o 	c grey4",
"O 	c grey13",
"+ 	c blue4",
"@ 	c cyan3",
"# 	c blue3",
"$ 	c magenta4",
"% 	c turquoise4",
"& 	c grey64",
"* 	c grey51",
"= 	c grey39",
"- 	c yellow4",
"; 	c orange3",
": 	c grey7",
"                                                                                                ",
"                                                                                                ",
"    . . . . . . . . . . . . . . . . . . . . . . . . . . . . . . . . . . . . . . . . .           ",
"    . X X X X X X X X X X X X X X X X X X X X X X X X X X X X X X X X X X X X X X X o O         ",
"    . X X X X X X X X X X X X X X X X X X X X X X X X X X X X X X X X X X X X X X X o O .       ",
"    . X X X X X X X X X X X X X X X X X X X X X X X X X X X X X X X X X X X X X X X o O .       ",
"    . X X X X X X X X X X X X X X X X X X X X X X X X X X X X X X X X X X X X X X X o O .       ",
"    . X X X + + @ + @ + + + X + @ + + + @ + + + @ + + + @ @ + + + X X X X X X X X X o O .       ",
"    . X X X X X X X X X X X X X X X X X X X X X X X X X X X X X X X X X X X X X X X o O .       ",
"    . X X X X X X X X X X X X X X X X X X X X X X X X X X X X X X X X X X X X X X X o O .       ",
"    . X X X X X X # # # # # # # # # # X # # # # # # # # X # # # # X # # # X X X X X o O .       ",
"    . X X X X X X X X X X X X X X X X X X X X X X X X X X X X X X X X X X X X X X X o O .       ",
"    . X X X X X X # # # # # # # # # # # # # X # # # # # X # # # # X # # # X X X X X o O .       ",
"    . X X X X X X X X X X X X X X X X X X X X X X X X X X X X X X X X X X X X X X X o O .       ",
"    . X X X X X X # # # X # # # # # # X # # # # X # # # X X # # # # X # # X X X X X o O .       ",
"    . X X X X X X X X X X X X X X X X X X X X X X X X X X X X X X X X X X X X X X X o O .       ",
"    . X X X X X X $ # $ # X # $ # X # $ X X # # $ # $ # $ # $ # X # $ # $ X X X X X o O .       ",
"    . X X X X X X X X X X X X X X X X X X X X X X X X X X X X X X X X X X X X X X X o O .       ",
"    . X X X X X X $ $ $ $ $ X $ $ $ $ $ X $ $ $ $ $ $ $ $ $ $ X $ $ $ $ $ X X X X X o O .       ",
"    . X X X X X X X X X X X X X X X X X X X X X X X X X X X X X X X X X X X X X X X o O .       ",
"    . X X X X X X + $ + $ + $ + $ + X + $ + $ $ X $ + $ + $ X $ + $ X $ + X X X X X o O .       ",
"    . X X X X X X X X X X X X X X X X X X X X X X X X X X X X X X X X X X X X X X X o O .       ",
"    . X X X X X X X X X X X X X X X X X X X X X X X X X X X X X X X X X X X X X X X o O .       ",
"    . X X X X X X X X X X X X X X X X X X X X X X X X X X X X X X X X X X X X X X X o O .       ",
"    . X X X X X X X X X X X X X X X X X X X X X X X X X X X X X X X X X X X X X X X o O .       ",
"    . X X X X X X X X X X X X X X X X X X X X X X X X X X X X X X X X X X X X X X X o O .       ",
"    . X X X X X X + $ + + + + + + + + + + + + X X X X X X X X X X X X X X X X X X X o O .       ",
"    . X X X X X X + + + + + + + + + + + + + + X X X X X X X X X X X X X X X X X X X o O .       ",
"    . X X X X X X # % % # + # # # % # + % % + X X X X X X X X X X X X X X X X X X X o O .       ",
"    . X X X X X X # # # . . # # % % + # # + + X X X X X X X X X X X X X X X X X X X o O .       ",
"    . X X X X X X % % % % % % % % % % % % % % X X X X X X X X X X X X X X X X X X X o O .       ",
"    . X X X X X X & & * * * & * * * * = * % % X X X X X X X X X X X X X X X X X X X o O .       ",
"    . X X X X X X * * & & * * * * * * * * * * X X X X X X X X X X X X X X X X X X X o O .       ",
"    . X X X X X X = = = = = * * * * & * * * * X X X X X X X X X X X X X X X X X X X o O .       ",
"    . X X X X X X * * - = - - * ; ; ; ; - - & X X X X X X X X X X X X X X X X X X X o O .       ",
"    . X X X X X X X X X X X X X X X X X X X X X X X X X X X X X X X X X X X X X X X o O .       ",
"    . X X X X X X X X X X X X X X X X X X X X X X X X X X X X X X X X X X X X X X X o O .       ",
"    . X X X X X X : : : : : X : : : : : : : : : : : : X : : : : : : X : : X X X X X o O .       ",
"    . X X X X X X X X X X X X X X X X X X X X X X X X X X X X X X X X X X X X X X X o O .       ",
"    . X X X X X X X X X X X X X X X X X X X X X X X X X X X X X X X X X X X X X X X o O .       ",
"    . X X X X X X X X X X X X X X X X X X X X X X X X X X X X X X X X X X X X X X X o O .       ",
"    . X X X X X X X X X X X X X X X X X X X X X X X X X X X X X X X X X X X X X X X o O .       ",
"    . o o o o o o o o o o o o o o o o o o o o o o o o o o o o o o o o o o o o o o o o O .       ",
"      O O O O O O O O O O O O O O O O O O O O O O O O O O O O O O O O O O O O O O O O O .       ",
"        . . . . . . . . . . . . . . . . . . . . . . . . . . . . . . . . . . . . . . . . .       ",
"                                                                                                ",
"                                                                                                ",
"                                                                                                "};
