/* XPM */
static char * PencilOverDesktopPublishingDocumentLetterW_xpm[] = {
"48 48 26 2",
"  	c grey51",
". 	c grey4",
"X 	c white",
"o 	c grey64",
"O 	c cyan3",
"+ 	c grey7",
"@ 	c grey39",
"# 	c grey26",
"$ 	c grey13",
"% 	c ForestGreen",
"& 	c grey76",
"* 	c turquoise4",
"= 	c yellow4",
"- 	c grey89",
"; 	c magenta3",
": 	c blue3",
"> 	c magenta4",
", 	c blue4",
"< 	c brown4",
"1 	c blue1",
"2 	c cyan1",
"3 	c orange3",
"4 	c goldenrod1",
"5 	c DarkOrange1",
"6 	c red1",
"7 	c firebrick3",
"                                                                                                ",
"  . . . . . . . . . . . . . . . . . . . . . . . . . . . . . . . . . . . . . . . . . . . . . . X ",
"  .     o   o O + o o o o o o o o o     @ # $ + $ $ $ $ $ $ $ $ $ # $ # # # # # # # # # # # # X ",
"  . %   o o o O $ o o o o o o o o o o o   @ # $ + $ # $ # $ # # # # # # # # # # # # # # # # # X ",
"  . o % o o o O + o o o o & & & o o o o o   @ # $ + $ # $ # $ # # # # # # # # # # # # # # # # X ",
"  . O O O O O O O O O O O O O O O O O O O O O * # $ . $ # # # # # # # # # # # # # # # # % # % X ",
"  . + $ $ $ + O $ $ + $ $ $ + $ $ $ + $ + . + . + . + . # # # # # # & X o % & X o # % & & % # X ",
"  . o o o o o O $ & & & & & & & & & & & & o o o o @ # $ $ # # # # # # X o # % X # # % o % # % X ",
"  . o o o o o O + & & & & & & & & & & & & & o o o o @ # $ + # # # # # = & # # X o % # % # % % X ",
"  . o o o & & O $ & & & & & & & & & & & & & & & o o o @ # $ $ # # # # # X % % & X % % % % % % X ",
"  . o & & & & O $ & & & & & & & & - & & & & & & & & o o @ # $ + # # # # & = o % X % o % % % % X ",
"  . o & & & & O $ & & & & & & & & & - & - & & & & & & o o @ # # $ # % # % X % % % & % % % % % X ",
"  . & & & & & O + & & & & - ; ; ; : ; : & ; : ; : ; : & > > , $ $ + # % # X   % % X % % % % % X ",
"  . & & & & & O $ & & & - - - - - - - - - - - - - & & & & o o @ # $ $ % % o % % % - % % % % . X ",
"  . & & & & & O $ - & - & - ; : ; : ; : ; - ; : : ; ; : ; > > > , $ $ + % % % % % % % % % . + X ",
"  . & & & & & O $ & - - - - - - - - - - - - - - - - - - & & & o o @ # # $ % % % % % % % . + $ X ",
"  . & & & & & O $ - - - - - ; : ; - # < # # # < # # # < # & ; > > > , # + + % % % % % . + $ $ X ",
"  . & & & & & O $ - - - - - - - - - # : : : : : : : : : @ - & & & o o @ # $ $ % % % . + $ $ # X ",
"  . & & & - & O $ - - - - - ; : ; - # 1 1 1 1 1 1 1 1 1 # - > > & > , , $ $ + + % + + $ $ # @ X ",
"  . & & & & - O $ - - - - - X - - - @ : : : : : : : : : @ - - - - & & o o @ # # . + $ $ # @ @ X ",
"  . & & & - - O $ - - - - - > > > X # O O O O O O O O O # - > > > > & > , > $ # $ $ $ # @ @   X ",
"  . & & - - - O $ - - - X - X X X X # 2 2 2 2 2 2 2 2 2 @ - - - - - - & & o o @ # # # @     o X ",
"  . & & & - - O $ - - - - X ; > > X # - - - - - - - - - # - > > > > > > , > , o   @ @     o o X ",
"  . & - - - - O $ - X - X X X X X X @ % % % % % % % % % @ - X - - - - - & & & o o       o o o X ",
"  . & - & - - O $ - - X X X ; ; ; X # < # # # < # # # < # X ; : ; - ; ; : : : & o o o o o o o X ",
"  . & & - - - O $ - X X X X X X X X X X X X X X X X X X X X X - - - - - - & & & & & & o & & & X ",
"  + & - - - - O $ X X X X X ; : ; ; ; : ; ; ; X ; ; ; : ; : ; : - : ; : : ; ; & & & & & & & & X ",
"  + - - - - - O $ - X X X X X X X X X X X X X X X X X X X X X - X - - - - - - - & & & & & & & X ",
"  + & - - - - O $ X X X X X : : ; ; X ; ; ; ; ; ; X ; ; ; ; ; ; ; ; ; ; ; : ; - & & & & & & & X ",
"  + - - - - - O $ X X X X X X X X X X X X X X - X - - - - - - - - - - - - - - & & & & & & & & X ",
"  . & - - - - O $ X X X X X : ; < & & - & & & - o & & & & & & & & & & & o & o & & & & & & & & X ",
"  . - - - - - O $ X X X - & 3 & & - 4 - 4 - 4 - 4 - 4 - 4 - 4 - 4 - 4 - 4 - 4 - 4 - 4 - 4 - 4 X ",
"  . & - - - - O # - & & & - - - & & 3 4 3 5 3 4 3 5 3 4 3 5 3 4 3 5 3 4 3 5 3 4 3 5 3 4 3 5 3 X ",
"  . - - - & & & - - - & & & 3 3 3 5 5 5 5 5 5 5 5 5 5 5 5 5 5 5 5 5 5 5 5 5 5 5 5 5 5 5 5 5 5 X ",
"  . &       @ @ < 3 3 3 3 3 3 3 3 5 6 5 5 5 6 5 5 5 6 5 5 5 6 5 5 5 6 5 5 5 6 5 5 5 6 5 5 5 6 X ",
"  . & &   # $ + < < < < < < 3 7 5 5 5 5 5 5 5 5 5 5 5 5 5 5 5 5 5 5 5 5 5 5 5 5 5 5 5 5 5 5 5 X ",
"  . & - - - - * + # $ < < < < < 7 7 7 7 7 7 7 7 7 7 7 7 7 7 7 7 7 7 7 7 7 7 7 7 7 7 7 7 7 7 7 X ",
"  . & & - - - O $ o @ # $ $ $ $ < < < < < < < < < < < < < < < < < < < < < < < < < < < < < < < X ",
"  . & & & - & O +   @ # # $ + . + $ < < < < < < < < < < < < < < < < < < < < < < < < < < < < < X ",
"  . & & - - - O $   @ @ # # $ $ $ + $ $ $ + $ + $ + $ + $ + $ + $ + $ + $ + $ + $ + $ + $ + $ X ",
"  . & & & - & O + o     @ @ $ $ $ + + + + + + + + + + $ + + + + + + + + + + + $ + + + + + + + X ",
"  . & & & & - O $ & & o o     @ @ @ # # # # $ $ $ $ $ $ $ $ $ $ $ $ $ $ $ $ $ $ $ $ $ $ $ $ $ X ",
"  . & & & - & O $ - & & & & > > , , , , @ $ $ $ # $ $ $ $ # $ $ $ # $ $ $ $ $ # # # # # # # # X ",
"  . & & & & & O $ - - - - - - & & & & o o       @   @   @ @ @ @ @ @ @ @ @ @ @ @ @ @ @ @ @ @ @ X ",
"  . & & & & & O $ - - - - - - - - - & & & & o o o o o o o o o o o o o o o o o o   o           X ",
"  . & & & & & O $ & - - - - - - - - - - - & & & & & & & & & & & & & & o & o o o o o o o o o o X ",
"  . o & & & & O $ - & - - - - - - - - - - - - - - - - - - - - - & - & & & & & & & & & & & & o X ",
"X X X X X X X X X X X X X X X X X X X X X X X X X X X X X X X X X X X X X X X X X X X X X X X X "};
