/* XPM */
static char * edit_xpm[] = {
"48 48 15 1",
" 	s None	c None",
".	c grey76",
"X	c grey64",
"o	c brown4",
"O	c grey13",
"+	c grey39",
"@	c grey4",
"#	c grey89",
"$	c grey26",
"%	c grey51",
"&	c yellow4",
"*	c yellow3",
"=	c grey7",
"-	c orange3",
";	c white",
"                      ..                        ",
"                    ..XoO+           oo@X       ",
"          .#XX     #.o$OOO           ooO        ",
"         .#X.+   ..+$$O$%OO          +$$        ",
"         #XO.%$$ $@OO$&##X$O        $+O         ",
"         .X+++++$$$OOO.###%O$X     X$+O         ",
"          .%+++$$OOOOO+###.+O$X    X*$+         ",
"         ..%+$$OOOOO=+.#.#..$O$    *&OX         ",
"       .#X%$$OOOOO=$.#.X.#...$O$   *&O          ",
"     ..&oX$OOOOOO$X##XX.##... $O+ &*$+          ",
"   ..&ooo+OOOOOOX###########..XOO+*&OX          ",
" ..&oooo&+OOOO%##############. %OO*o$           ",
"#-ooooo&.XO=+#########..#####...%&*O            ",
"##&oo&.;;;$#;;#######X.XX##......*&@X           ",
"X#&oo%;;;;;;#.#####.%....#.......*+@OX          ",
" .;-o$.;;;;X#X.####X#..##XX.....#&OOO$          ",
"  .#&o$#;;%%%.###%..X##.XXX.....*&=XOO$         ",
"   #.oo$;;;X;;#X.#XX##..XXXX....*o+XXOO$        ",
"   .;-oo+;;;.X#.#.X..XX%X..XX..*&OXXX%O@+       ",
"    .#&o$X;;#XX#XX#XX....X%X%. *&O..XX+O@       ",
"     ##ooO.;;# X...%%..X+%X..X.*o+..XXX$O@      ",
"     X;-ooO;;;XX..XX.%.X%...XX*&OX.XXXXX$O@X    ",
"      .#&o$%;;#%%.X#XX%XX#.X.X*&$...XXXXXOOOX   ",
"       ##ooOX;##%X#X%X%##X.+%.*$%....XXXXXOOO   ",
"       X#-ooO###..XX.##.XX% X*&O......XXXX%O@OX ",
"        .;-oo$###X%#.#.X%.XX.*o$......XXXXX$@@$ ",
"         .#ooO%###.##X..XXX.#*O%.....XXXX%O@@=  ",
"          #&ooO.###XXX%.%XX.*&=....XXXXXXO@@@X  ",
"          .;-$$O###XXX.X.X..*++....XXXX%O@@@    ",
"           .#o$$$###+..XX#.-&OX....XXX%@@@@     ",
"            ##o$OX##.%X###.-oO. ....X+@@@@      ",
"            X#-$$O.##.####.-OX ...X+O@@@@       ",
"             .#&$OO#######.&+..%+OO=@@@@        ",
"              .#o$O+######.$%$OO$%O@O@@         ",
"               #-$$OX####%%O$%X..$@O@@          ",
"               .#&$$O.####.... .$@O@@           ",
"                .#o$OO####.....O@O@@            ",
"                 #.$$O+###...X=@O@@             ",
"                 X#-$$OX##..X@@O@@              ",
"                  .#o$O=.#.%=@O@@               ",
"                   ##$$OO#%@OO@@+               ",
"                   X#-$O@O@OOO@                 ",
"                    .#&OO@OOO@                  ",
"                     .#o$OO@@                   ",
"                      #&$OO@                    ",
"                      .#%O@                     ",
"                       .#O+                     ",
"                        .X                      "};
