/* XPM */
static char * Equation_xpm[] = {
"48 48 18 1",
" 	c None",
".	c white",
"X	c grey4",
"o	c grey64",
"O	c grey51",
"+	c grey26",
"@	c grey13",
"#	c grey39",
"$	c blue1",
"%	c yellow4",
"&	c grey89",
"*	c orange3",
"=	c goldenrod1",
"-	c grey76",
";	c grey7",
":	c yellow3",
">	c blue4",
",	c blue3",
"                                                ",
"                                               .",
"  ..............................................",
"  ..............................................",
"  ..............................................",
"  ..............................................",
"  ....................XXX...........X...........",
"  ..ooooooooooooo.....X....XXX.XX..X............",
"  ..OXXX+@+@+@@XX@....X.....X..X................",
"  ...+XX#......o@X....X.....XXX.................",
"  ....@XXo......oX....X....X..X.................",
"  $$$$$XXX$$$$$$$X$$$$X$$$$X$$X$$$$$$$$$$$$$$$$.",
"  ......XX@...........X...XX.XXX..X.............",
"  ......oXX@..........X...........XXXX..........",
"  .......#XX#.........X..........XXX.X..........",
"  ........@XXo........X..........XX.X......XXX#.",
"  .........XX#........X..XXXXXXXXXXXXXX.%X......",
"  .........X+.........X................O+@......",
"  ........X+..........X.....XXXXX...&O+**@......",
"  .......X@...........X......X....&#@%=@#@.%....",
"  ......@@........X...X......XX.o@+-&=*;*@oo%...",
"  .....@X........#X...X.....X.X%+*&.:=X%*@OOo%..",
"  ....@XOoooooo%+X#...X.....X..@*=&&=++**X##%%..",
"  ...@XXXXXXXXXXXXo...X....XXXX@*:.:%X=*#@+#%%..",
"  ..@XXXXXXXXXXXXX....X.......o#=:&=X%**#@+#%%..",
"  $$$$$$$$$$$$$$$$$$$$XXX$$$$$@*:&:#@**#+@@@>$$.",
"  ............................@*&&#X%*#+@X@#Oo..",
"  ....X.....X................&+=::*+*#+@XX+#O%..",
"  .........X.................%*&&=***#+XX@##O%..",
"  ...XX.XXXXXXXXX............@=::***#+XX@+##Oo..",
"  ....X...X..X..X...........&@:&=**#+XX@++##%%..",
"  ...XX.XXXXXX.X............%#:=**#+@X@++##O%...",
"  ...X..XX...X.XX...........O%:=*#+@X@++##Oo....",
"  ........................%@X%=**+@X@++##Oo%....",
"  .......................#++=#+*+@X@++##Oo%.....",
"  ......................+>+%##*@XX@++##Oo%......",
"  .....................#>$$@#*@@XX++##Oo%.......",
"  .....................@$$-$$;+@XX@##Oo%........",
"  ....................@,$$-$$>XXXX+##%%.........",
"  $$$$$$$$$$$$$$$$$$$$>$$-$$,@;@;X@@>>$$$$$$$$$.",
"  ...................@,$--$$>;;@>X+#O%..........",
"  ..................%>$$-$$>@;@@>@##%%..........",
"  ..................@$$-$$,>;;@>;@##%%..........",
"  .................#,$$-$$>@;@>@++##%...........",
"  .................@$$-$$,>;;@>X++#O%...........",
"  ................@,$$-$$>;;@>@++##%%...........",
"  ...............%>$$-$$,@;@@>@+##O%............",
"................................................"};
