/* XPM */
static char * Files_xpm[] = {
"48 48 8 1",
" 	c None",
".	c white",
"X	c grey4",
"o	c grey26",
"O	c grey64",
"+	c grey39",
"@	c grey51",
"#	c grey13",
"                                                ",
"                                                ",
"                                                ",
"   .........................X                   ",
"   .........................X                   ",
"   .........................X                   ",
"   ...XXooXXoOooXXOOXo......Xo..............X   ",
"   .........................Xo..............Xo  ",
"   ...XOXoXXoXooXXoXXXoo....XO.OOOOOOOOO....Xo  ",
"   .........................X+..........X...Xo  ",
"   ...XooXXXoXXoXOXooXXo....X+..........X@..Xo  ",
"   .........................X+..........X@..Xo  ",
"   ...XXXXOXooXXoXOXoXoO....XXOOXo......X@..Xo  ",
"   .........................X+..........X@..Xo  ",
"   ...XXooXXoOooXXOOXo......XXoXXXoo....X@..Xo  ",
"   .........................X@..........X@..Xo  ",
"   ...XOXoXXoXooXXoXXXoo....X+XooXXo....X@..Xo  ",
"   .........................X@..........X@..Xo  ",
"   ...XooXXXoXXoXOXooXXo....XXOXoXoO....X@..X+  ",
"   .........................X@..........X@..X+  ",
"   ...XXXXOXooXXoXOXoXoO....X+XXoXoX....X@..Xo  ",
"   .........................X@..........X@..Xo  ",
"   ...XXooXXoOooXXOOXo......XXXXXooO....X@..Xo  ",
"   .........................X@..........X@..Xo  ",
"   ...XOXoXXoXooXXoXXXoo....XXOXoXXX....X@..X+  ",
"   .........................X@..........XO..Xo  ",
"   ...XooXXXoXXoXOXooXXo....XXoXXoXO....XO..Xo  ",
"   .........................X@..........XO..Xo  ",
"   ...XXXXOXooXXoXOXoXoO....X#oXOXo.....XO..Xo  ",
"   .........................X@..........XO..Xo  ",
"   ...XXXXXXXXXXXXXXX.......X+XoXXOo....XO..Xo  ",
"   .........................X@..........XO..Xo  ",
"   .........................X+XOXXX.....XO..Xo  ",
"   .........................X+..........XO..Xo  ",
"   .........................XXXXoXo.....XO..X+  ",
"  oXXXXXXXXXXXXXXXXXXXXXXXXXX@..........XO..Xo  ",
"   ##########O+@@@XXXX#X+X#+XXOXOXX.....XO..Xo  ",
"   oooooooooo...........................XO..Xo  ",
"            @...........................XXXXXo  ",
"            @...........................Xooooo  ",
"             ...........................Xo      ",
"              oXXXXXXXXXXXXXXXXXXXXXXXXXXo      ",
"                oooooooooooooooooooooooooo      ",
"                                                ",
"                                                ",
"                                                ",
"                                                ",
"                                                "};
