/* XPM */
static char * DiskHammer_xpm[] = {
"48 48 13 2",
"  	c None",
". 	c grey89",
"X 	c magenta4",
"o 	c grey76",
"O 	c white",
"+ 	c grey39",
"@ 	c grey64",
"# 	c grey13",
"$ 	c grey26",
"% 	c blue4",
"& 	c grey4",
"* 	c grey51",
"= 	c grey7",
"                                                                                                ",
"      . . . . X o o o o O O O O O O O O O O O O O O O O O O O O O + @ . . . . . . #             ",
"    . $ % $ % & % + % + O . o o @ @ @ * * + & & + O O O @ @ @ @ @ # @ $ # $ # # # # &           ",
"    . % $ % $ & + % + + O o o @ @ @ @ * @ @ @ @ @ & & + O O O @ o # @ # $ # $ # $ # $ &         ",
"    . $ % $ % & $ + % + O o @ @ @ * * + $ + @ @ @ o & & & + @ O O # @ $ # # # # # # # # & +     ",
"    . % $ % $ & + % + % O @ @ @ @ * @ + + + + + * o & + + & + @ O O @ # + # # # $ # # # & + +   ",
"    . $ % $ % & % + % + O @ @ * * @ @ @ @ + + + $ $ = + + + & + + @ + + @ O O # # # # # & + +   ",
"    . $ $ % $ & + % + + O @ @ * @ @ @ @ @ @ o o o + # $ + + O & + + + @ O O O + # # # # & + +   ",
"    . $ % % % & $ + % + O * * @ @ @ @ @ @ o o o o o & $ $ $ O o & + @ O O O @ + # # # # & + +   ",
"    . % $ % $ & + % + % O * @ @ @ @ @ @ o o o o o o & + $ $   o + @ O O @ @ O + # # # # & + +   ",
"    . % % $ % & % + % + O @ @ @ @ @ @ o o o o o o o & + + + O o @ O O @ + + @ O + # # # & + +   ",
"    . % $ % $ & + % + + O @ @ @ @ @ o o o o o o o o & + + + O @ O O @ + & & + @ O + # # & + +   ",
"    . $ % $ % & $ + % + O @ @ @ @ o o o o o o o o o + O O O @ O O @ + & & & & + @ O + + + + +   ",
"    . % $ % $ & + % + % O @ @ @ o o o o o o o o o o o o o @ O O @ + & @ # # # & + + @ O O @ +   ",
"    . $ % $ $ & % + % + @ # # # # # # # # # # # # # # # + @ O @ + & @ # # = = & + + @ O O O @ + ",
"    . % $ % $ $ & @ @ @ @ @ @ @ @ @ @ @ @ @ @ @ @ @ + + @ @ @ @ & @ # = # = # & + + @ @ @ O O & ",
"    . $ $ $ $ $ $ $ $ $ $ $ # $ # $ # $ # # # $ # + + O @ + + & @ # = # = = = + & + + @ @ @ &   ",
"    . % $ % $ % $ $ $ $ $ $ $ # $ # $ # $ # $ # + + @ @ @ + & + # # # = # # # # & & + + @ & +   ",
"    . $ $ $ $ $ # $ # $ # $ # $ # $ # # # # # + + @ @ + + & + # # = = = # = = = # & & + & + +   ",
"    . $ $ $ $ $ $ $ $ $ $ # $ # $ # $ # $ # + + @ @ + + & & # = # = # = # = # = # # & & & + +   ",
"    . $ $ $ $ $ $ & & & & & & & & & & & & + + @ @ + + & & & = # = = = # = = = # = = = # & + +   ",
"    . $ $ $ $ $ & % + % + % + % + % + % + + @ @ + + & & + $ $ # $ $ $ # $ $ $ = # # # = & + +   ",
"    . $ # $ # & % + % + % + % + % + % + + @ @ + + & & + $ $ $ $ $ + % + $ $ # # = = = = & + +   ",
"    . $ $ $ $ & + % + % + % + % + % + + @ @ + + & & + $ $ $ $ $ + % + % + # $ + # = # = & + +   ",
"    . $ # $ # & $ + % + % + % + % + + @ @ + + & & + $ $ $ $ $ + % + % + % + # + = = = = & + +   ",
"    . $ $ $ $ & + % + % + % + % + + @ @ + + & & + $ $ $ $ $ + % + % + % + % + @ # = = = & + +   ",
"    . $ # $ # & % + % + % + % + + @ @ + + & & + $ $ $ $ $ + % + % + % + % + % @ = = = = & + +   ",
"    . $ $ # $ & + % + % + % + + @ @ + + & & + $ $ $ $ $ + % + % + % + % + % + @ = = = = & + +   ",
"    . $ # $ # & $ + % + % + O @ @ + + & & + $ $ $ $ $ + % + % + % + % + % + % @ = = = = & + +   ",
"    . # $ # $ & + % + @ + + + O @ + & & + $ $ $ $ $ + % + % + % + % + % + % + @ = = = = & + +   ",
"    . $ # $ # & % + @ + @ + + + & & & + $ $ $ $ $ + % + % + % + % + % + % + % @ = = = = & + +   ",
"    . # $ # $ & + @ + O @ @ + & & & + $ $ $ $ $ + % + % + % + % + % + % + % + @ & = = = & + +   ",
"    . $ # # # & @ + + + O @ + & & + $ $ $ $ $ + % + % + % + % + % + % + % + % @ = = = = & + +   ",
"    . # $ # $ @ + @ + + + & & + + $ $ $ $ $ + % + % + % + % + % + % + % + % + @ = = & = & + +   ",
"    . # # # @ + O @ @ + & & & + $ $ $ $ $ + % + % + % + % + % + % + % + % + % @ = = = = & + +   ",
"    . # $ @ + + + O @ + & & + $ $ $ $ $ + % + % + % + % + % + % + % + % + % + @ & = & = & + +   ",
"    . # @ + @ + + + & & + + $ $ $ $ $ + % + % + % + % + % + % + % + % + % + % @ = = = & & + +   ",
"    . @ + O @ @ + & & & + $ $ $ $ $ + % + % + % + % + % + % + % + % + % + % + @ & = & = & + +   ",
"    @ + + + O @ + & & + $ $ $ $ $ + % + % + % + % + % + % + % + % + % + % + % @ = & = & & + +   ",
"  @ + @ + + + & & + + $ $ $ $ $ + % + % + % + % + % + % + % + % + % + % + % + @ & & & & & + +   ",
"  + + @ @ + & & & + $ $ $ $ $ + % + % + % + % + % + % + % + % + % + % + % + % @ = & = & & + +   ",
"* + @ @ + + & & + $ $ $ $ $ + % + % + % + % + % + % + % + % + % + % + % + % + @ & = & & & + +   ",
"* + @ + + & + & $ $ $ $ $ + % + % + % + % + % + % + % + % + % + % + % + % + % @ = & & & & + +   ",
"* & + & & & # = & # $ $ + % + % + % + % + % + % + % + % + % + % + % + % + % + & & & & & & + +   ",
"  + & & + & = # = & & & & & & & & & & & & & & & & & & & & & & & & & & & & & & & & & & & + + +   ",
"        + + + + + + + + + + + + + + + + + + + + + + + + + + + + + + + + + + + + + + + + + + +   ",
"          + + + + + + + + + + + + + + + + + + + + + + + + + + + + + + + + + + + + + + + + + +   ",
"          + + +                                                                                 "};
