/* XPM */
static char * FileFolders_xpm[] = {
"48 48 13 2",
"  	c None",
". 	c white",
"X 	c grey64",
"o 	c grey4",
"O 	c grey51",
"+ 	c yellow4",
"@ 	c orange3",
"# 	c grey39",
"$ 	c grey76",
"% 	c grey26",
"& 	c grey13",
"* 	c brown4",
"= 	c grey89",
"                                                      . . . . X o                               ",
"                                              . . . . X X O + O o                               ",
"                  . . . . o           . . . . X X @ @ @ O @ @ @ o   .                           ",
"          . . . . X X O + o   . . . . X X O + O + O + O + O @ . . O O #   . o                   ",
"          . @ @ @ @ @ @ @ o X X @ @ @ @ @ @ @ @ @ @ @ @ . . . @ @ . . . . X o                   ",
"        . . + O + O + O + O + O + O + O + O + $ . . . . + . . . . X X O + O o                   ",
"  . . . . X @ + @ + @ + @ + @ . . . . o . . . . @ . . . . X X @ O @ @ @ O @ o   .               ",
". . X O + O + O + O + . . . . X X O + o + . . . . X X O + O + O + O + O @ . . O + #   . o       ",
". + O + O + O + O + O . @ @ @ @ @ @ @ o X X @ @ @ @ @ @ @ @ @ @ @ @ . . . @ @ . . . . X o       ",
". O + # + O + O + $ . . + O + O + O + O + O + O + O + O + $ . . . . + . . . . X X O + O o       ",
". O # # # O # . . . . X @ + @ + @ + @ + @ . . . . o . . . . @ . . . . X X @ @ @ O @ @ @ o   .   ",
". # # # # # . . X O + O + O + O + . . . . X X O + o + . . . . X X O + O + O + O + O @ . . O O # ",
". # # # # # . + O + O + O + O + O . @ @ @ @ @ @ @ o X X @ @ @ @ @ @ @ @ @ @ @ @ . . . @ @ @ # # ",
". # # # # # . # + O + # + O + $ . . + O + O + O + O + O + O + O + O + $ . . . . + @ + # # # # o ",
". # % # % # . # # O # # # . . . . X @ + @ + @ + @ + @ + @ + @ @ . . . . @ + O O # # # # # # # o ",
". # # # % O . # # # # # . . X O + O + O + O + O + O + $ . . . . + @ + O O # O # # # # # # # & # ",
". # % % % @ . # # # # # . + O + O + O + O + O + @ . . . @ @ O + # + # + # # # # # # # # * # o O ",
". # % % % @ . # # # # # . O + # + O + O + $ . . . @ + O + O + O + # O # O # # # # # # # # # o O ",
". % % % % . . # % # % # . O # # # O # . . . @ @ O + O + O + * + # O # # # # # # # # * # # % o   ",
". % % % % . . # # % % O . # # # # # . @ O # + O O O O O + O + # O # O # # # # # # # # # # % o X ",
". & % % % . . # % % % @ . # # # # # . + @ + O + O @ O + * + # + # # # # # # # # * # # # % & o   ",
". & & & % . . # % % % @ . # # # # # . # + O + O O O + O + # O # O # # # # # # # # # # # # o #   ",
". % & & & . . % % % % . . # % # % # . + O + O + O + * + # O # # # # # # # # * # # # % # % o O   ",
". % & & # . . % % % % . . # # # % O . O O O O O + O + # O # O # # # # # # # # # # # # # % o O   ",
". % & & % . . & % % % . . # % % % @ . + O @ O + * + # + # # # # # # # # * # # # % # % # & o     ",
". % o & + . . & & & % . . # % % % @ . O O O + O + # O # O # # # # # # # # # # # # % # % & o     ",
". # o & O . . % & & & . . % % % % . @ + O + * + # O # # # # # # # # * # # # % # % # % % o #     ",
". % o & + . . % & & # . . % % % % . + O + O + # O # O # # # # # # # # # # # # # # % # % o #     ",
". % o o @ . . % & & # . . & % % % . @ + * + # O # # # # # # # # * # # # % # % # % % % % o O     ",
"  % o o . + . % o & + . . & & & % . + O + # O # # # # # # # # # # # # # # % # % # % % & o O     ",
"= % o # . + . # o & @ . . % & & & . * + # O # # # # # # # # * # # # % # % # % % % % % & o O     ",
"  O o # . O . % o & + . . % & & # . + # O # O # # # # # # # # # # # # # # % # % % % % & o O X X ",
"$ + o # . # . % o o @ . . % & & % . # O # # # # # # # # * # # # % # % # % % % % % % % o o O O X ",
"$ O o X . # = % o o . O . % o & + . O # # # # # # # # # # # # # # % # % % % % % % % & o # # O O ",
"  O o X . # = % o # . + . # o & O . # # # # # # # # * # # # % # % # % % % % % % & o o # # O O O ",
"  O o X . # = O o # . + . % o & + . O # # # # # # # # # # # # # # % % % % % & o o # # # # O O X ",
"  O o . # # X + o # . # . % o o @ . # # # # # # * # # # % # % # % % % % & o o # # # # O O O O X ",
"  O o . # # $ O o X . # = % o o . + # # # # # # # # # # # % # % % % % o o # # # # O O O O X X X ",
"    o . # o o O o X . # = % o # . + # # # # * # # # % # % # % % % o o # # # # O O O O X X X X   ",
"    o o o # # O o X . # = O o # . O # # # # # # # # # # # % % o o # # # # O O O O O X X X X X   ",
"    O O # O O O o . # # X + o # . # # # * # # # % # % # % o o # # # # O O O O O O X X X X X     ",
"      X X X X O o . # # $ O o X . # # # # # # % # % # o o # # # # O O O O O O X X X X X X       ",
"              X o . % o o O o X . # * # # # % # % o o # # O O O O O O O O X X X X               ",
"                o o o # # O o X . # # # # # # o o # # # O O O O O X O X X X X X X               ",
"                O O O O O O o . # # # # % o o # # # # O O O O X X X X X X X X                   ",
"                  X X X X O o . # # # o o # # # # O O O O X X X X X X X X X                     ",
"                          X o . # o o # # O O O O O X X X X                                     ",
"                            o o o # O O O X X X X X                                             "};
