/* XPM */
static char * DeskGlobe_xpm[] = {
"48 48 16 2",
"  	c None",
". 	c brown4",
"X 	c grey13",
"o 	c orange3",
"O 	c grey51",
"+ 	c grey39",
"@ 	c grey26",
"# 	c grey76",
"$ 	c grey89",
"% 	c white",
"& 	c cyan1",
"* 	c cyan3",
"= 	c grey64",
"- 	c yellow4",
"; 	c ForestGreen",
": 	c turquoise4",
"                                              . X                                               ",
"                                              . X                                               ",
"                                            . o . X                                             ",
"                                        O + + + @ @ @ O                                         ",
"                                      # # # $ # $ # # O O O                                     ",
"                                  # % % % & * * = # # # = = = O                                 ",
"                              # % % $ $ * * * * # $ # # = = = O O                               ",
"                            # % % $ $ * * * * * # # # = = = = O O +                             ",
"                          # % % = $ * * * * * # # # = = = = = O O O +                           ",
"                        = % % $ % $ * * * * * * # = = = = = = O O O + +                         ",
"                      = % % % % % * * * * * * = = O - O O = = O O + + + @                       ",
"                      # % % % % % $ * * * # # = O - ; - ; - O + + + + + + +                     ",
"                    = % % % # = % $ * * # # = - - - - + + + + + + @ + + + +                     ",
"                  : # & % % # $ $ # * # # # O + - O ; + + + + + @ @ + + + + @                   ",
"                  : * & & * * $ $ # # # = O - O = O - + + + ; ; @ @ + @ + ; @                   ",
"                : * & & * * $ $ # # # # = - O - O O + + + ; @ @ + + @ + + + + @                 ",
"                : * & & * & $ * # O # # # O O O O O + + + @ ; @ @ + + + + + + @                 ",
"              + * * * * * * * # O O = $ # O O O O O ; + @ @ + + + + + + + + + + @               ",
"          . . + * * * * * * * # = O O O O + + + - + + + @ + + + + + + + + + + + @ @ @           ",
"      . . o o @ * * * * * * : # # O O ; + + + + + + + + + + + @ + + + + + + - + @ @ @ @ @       ",
"    @ . o o . @ * * * * * : : : : O ; - - + + + + + + @ + + + @ - + + + + + + + X @ . . . @     ",
"    . o o . . @ * * * : : : : O O O - - + + + + + + + + + + + + + + + + + + + + @ @ . . . .     ",
"    . o o . . . : : * : : : : : - - O : O : + + : + + + + + + + + + + + + + @ @ @ . . . . @     ",
"    . . o o o . . . : : : : + : + + + + : : + + + + @ @ + + + + @ + + + + + X . . . . . . X     ",
"      @ . . o o o . . o o + + + + @ + + @ + @ + + + + + + + + + + @ . . . . . . . . . @ @ X     ",
"        @ . . . o o o o o o o o o o o o o o o o o o o o o o o o . . . . . . . . . . @ X X       ",
"            @ . . . . . . . . . . . . . . . . . . . . . . . . . . . . . . . @ . . @ X X         ",
"                + @ . . . . . . . . . . . . . . . . . . . . . . . . . . @ . . . X X             ",
"                  + + + @ @ . @ @ . . . . . . . . . . . . . . . @ @ . + @ + @ X                 ",
"                    + : + + + + @ @ @ @ @ @ @ @ @ @ @ @ @ @ @ @ @ + + + + @                     ",
"                      + : + + + + + + + + + + + + + + + + + + + + + + + @                       ",
"                        + : + + + + + + + + + + - + + + + @ + + + + + +                         ",
"                          @ + + + @ + + + + + + + + + + + + + @ + + +                           ",
"                            + : + : + + : + + + + + + + + + + @ + @                             ",
"                              + + + : + + + + + + + + + + + + + @                               ",
"                                  @ @ + + + + + + + + @ @ @ @ @                                 ",
"                                    . . . o . . @ . . . X X X                                   ",
"                                o . . . . o . . @ . . . X @ X X @                               ",
"                              . o o o . . o . . @ @ . . X X X X X @                             ",
"                            . o o o o . @ o . . @ @ @ @ X X X X X X @                           ",
"                          . o o o o o o . X . . . @ @ X X X X X X X X @                         ",
"                          . o o o o o . . . X @ @ @ @ @ X X X X X X X @                         ",
"                          . . o o o o o . . . @ @ @ @ @ X X X X X X @ @                         ",
"                          @ . . . o o o o . . . @ @ @ @ X X X X X X @ @                         ",
"                            @ . . . o o o o . . . @ @ @ @ @ @ @ @ @ @                           ",
"                              @ . . . . o o . . . . @ @ @ @ @ @ @ @                             ",
"                                  @ @ . . . . . . . . @ @ @ @ @                                 ",
"                                      @ @ @ @ @ . @ @ @ @ @                                     "};
