/* XPM */
static char * Home_xpm[] = {
"48 48 18 2",
"  	c None",
". 	c grey89",
"X 	c grey26",
"o 	c grey4",
"O 	c grey64",
"+ 	c grey76",
"@ 	c grey39",
"# 	c brown4",
"$ 	c grey51",
"% 	c firebrick3",
"& 	c grey13",
"* 	c LimeGreen",
"= 	c ForestGreen",
"- 	c magenta4",
"; 	c blue4",
": 	c yellow4",
"> 	c grey7",
", 	c orange3",
"                                                                                                ",
"                                              . X X                                             ",
"                                            . X o X X                                           ",
"                                          . X o X o X X         . . O + .   @                   ",
"                                        . X o X @ X o X X       . # # @ $ # o                   ",
"                                      . X o X @ $ $ X o X X     + O % O # O o                   ",
"                                    . X o X @ $ O $ $ X o X X   O % # O @ % o                   ",
"                                  . X o X @ $ O $ O $ $ X o X X @ % @ # O % o                   ",
"                                . X o X @ $ O $ . O O $ $ X o X X @ $ @ @ # o                   ",
"                              . X o X @ $ O $ . . . $ O O $ X o X X & % O & o                   ",
"                            . X o X o o o o X X # X X o o o o X o X X & # # o                   ",
"                          . X o X @ o o o o o o $ o o & o o o $ X o X X & % o                   ",
"                        . X o X @ $ o o o & o o # o o & o o o $ $ X o X X & o                   ",
"              &       . X o X @ $ O o o o & o o $ o o & o o X O $ $ X o X X o                   ",
"              &     . X o o @ $ O $ o & & & & & # & & & & & X O O $ $ X o X o                   ",
"            * &   . X o X @ o O $ . X o o & o o $ o o & o o X . $ O & $ X o X X                 ",
"            X   & X o X @ $ & $ . . X o o & o o # o o & o o X . . $ & $ $ X o X X               ",
"          * = & X & & @ $ O $ & . . X o o & o o $ o o & o o X . . X $ O $ $ X o X X             ",
"        X = . & o & X $ O $ . X O . # $ # $ # $ # $ # $ # $ # . O X . O O $ $ X o X X           ",
"          . = & & @ & O o . . O X . X . . . . . . . . . . . X . X O . . $ O $ $ X o X X         ",
"        X X & = & & O $ . . . . X O X . . . . . . . . . . . X O X . . . . O O $ $ X o X X       ",
"      . X o = X = X = X . . . . O X X . . . . . . . . . . . X X O . . . . . $ O $ o X o X X     ",
"    . X o * - & X & & = & . . . . X X . . . . . . . . . . . X X . . . . . . . O O o $ X o X X   ",
"    X ; = X & o ; & = & ; O O + O O X + O O O + O O O + O O $ : O O O + O O O + O @ X X X X X   ",
"    o = * & o & o o o & > & > & > & > & > & > & > & > & > & > & > & > & > & > & > o o o o o o   ",
"    = & & & o o o ; & & X X X X X X o o o & o o o o o & o o o X X X X X X X X X X o             ",
"  * X =   & & X @ = o o & & @ X @ @ X o o X X X X X X X o o X X X @ X @ & X X X X o             ",
"    & =   & = = & X & @ $ O @ O @ O X o o X & & & & & X o o X O @ @ @ X O @ O X @ ;             ",
"* &   = X =   & o . & o & O . . @ . X o o X & & & & & X o o X + O + . . . @ . @ O @             ",
"&   & & & & & & & & o o . & @ . . O X o o X & & & & & X o o X . . O . @ O O . @ O @             ",
"    & & & = & & & & X & & + . O O O X o o X & & & & & X o o X + @ O . @ O O @ . . X             ",
"=   & =   * & ; = & o o o O . @ O . X o o X & X X X & X o o X . . @ @ . . @ O @ O o             ",
"* = &     & & o o & o o o O & . . O X o o X & , & X & X o o X . O O O @ . O O O . o             ",
"  * = X & & & & & & = & o & + O O . X o o X & X X X & X o o X . O . . . O @ O . . ;             ",
"    & & * &   = X @ o o o & & & . O X o o X & & & & & X o o X O O O O . O O O O . X             ",
"& X & & = o = o & & o O & & . & O . X o o X & & & & & X o o X O O O . . @ . . . @ o             ",
"  & & =   & & o o o o & & o & O @ + X o o X & & & & & X o o X @ . O . O . O O O O X             ",
"= X & o o X X X @ & = o o . o O . O X o o X & & & & & X o o X X O O . . @ @ O X . ; =           ",
"* = & & & & X & & @ & & o & X & O O X $ # X & & & & & X # $ X o & + O & X & . = & X @ o         ",
"  &   & o & & o o & & & & & X & X ; X X X X X X X X X X X X & = & o X & & o X o o ; o @ X       ",
"  & & & & o o o & o o & & & & @ @ @ @ @ @ @   O @ O O   @ @ @ & o & & & o & & & o & & & X       ",
"    X @ = @ = o o @ = @ = @ = @ = @ = @ = @ =   =   = @ = @ = @ = @ = @ = @ = @ = @ = @ = &     ",
"    X @ @ @ X X o @ X @ X X X X X X X X X $ O @ @ @ O @ O O @ @ @ @ @ @ @ @ @ @ @ @ @ @ @ X     ",
"  & = @ = X X & o & & & X X X X X X X X @ $ $ @ $ O   @ O O = @ = @ = @ X @ = @ = @ = @ = @ X   ",
"  X @ @ @ X X X X X X X X X X @ & X X @ X X X @ @ @ O @ @ @ @ @ X @ X @ X @ X @ X @ X @ X @ X   ",
"X @ @ X @ @ @ X @ X X X @ X X X @ @ @ X O O     O @ =       O O @ X X X @ X X X @ X X X @ X X X ",
"X X & X X X & X X X & X X X & X X X & X X O     O X & O O O & X X X & X X X & X X X & X X X & X ",
"& & & & & & & & & & & & & & & & & & & & & & & & & X X & & & X X & & & & & & & & & & & & & & & & "};
