/* XPM */
static char * HomeOpen_xpm[] = {
"48 48 15 1",
" 	c None",
".	c grey26",
"X	c grey89",
"o	c grey4",
"O	c grey64",
"+	c grey76",
"@	c grey39",
"#	c brown4",
"$	c grey51",
"%	c yellow4",
"&	c yellow1",
"*	c yellow3",
"=	c grey13",
"-	c ForestGreen",
";	c grey7",
"                            .....               ",
"                       X..      . ...           ",
"                      X.o..        .            ",
"                     X.o.o..    XXO+X @         ",
"                    X.o...o.#   X##@$#o         ",
"                   X.o..$$.o..  +O#O#Oo         ",
"                  X.o..$O$$.o.. O##O.#o         ",
"                 X.#..$O$O$$.#..@#@#O#o         ",
"                X.%..$O$XOO$$.%..@$@.#o         ",
"               X.&..$O$XXX$OO$.&..##O#o         ",
"              X.%.oooo..#..oooo.%..###o         ",
"             X.#..o&&o&&$&&#&&o$.#..##o         ",
"            X.o..$o&*=&&#&&=*&o$$.o..#o         ",
"       =   X.o..$Oo&&#&&$&&#&&.O$$.o..o         ",
"       =  X.oo.$O$o=#=#=#=#=#=.OO$$.o.o         ",
"      += X.o..oO$X.&&#&&$&&#&&.X$O.$.o..        ",
"      . o.o..$=$XX.&*=&&#&&=*&.XX$=$$.o..       ",
"     +-=.==.$O$=XX.&&#&&$&&#&&.XX.$O$$.o..      ",
"    .-X=o=.$O$X.+X#$#$#$#$#$#$#X+.XOO$$.o..     ",
"     X-==.=OoXX+.X.XXXXXXXXXXX.X.+XX$O$$.o..    ",
"    ..=-o=O$XXXX.O.XXXXXXXXXXX.O.XXXXOO$$.o..   ",
"   X.o-.-.-.XXXXO..XXXXXXXXXXX..OXXXXX$O$o.o..  ",
"  X.o+$=.==-=XXXX..XXXXXXXXXXX..XXXXXXXOOo$.o.. ",
"  ..-.=o.=-=.OOOOO.OOOOOOOOOOO$$OOOOOOOOO#...#. ",
"  o-+=o=ooo=;=;=;=;=;=##%##=;=;=;=;=;=;=;oooooo ",
"  -===ooo.==...#..o&&=&&&&&o&&o#...#...#.o      ",
" +.- ==.$-oo==$.$@.&&ooooooo&&...@.$=....o      ",
"  =. =-.=.=$$O$O$O.&&o&&&ooo&&.O$$$.+$+.$.      ",
"+= -.- =oX=ooOXX@X.&*o&&*ooo*&.+O+XXX@X@O@      ",
"= ========ooX=@X+O.&&o&&&ooo&&.++OX@OOX@O@      ",
"  ===-====.==+XOOO.&&o*&&ooo&&.+@OX@OO@XX.      ",
"- =. +=.-=oooOX@OX.&&o&&&ooo&&.+X@@XX@O@Oo      ",
"+-=  ==oo=oooO=XXO.&*o&&*ooo*&.XOOO@XOOOXo      ",
" +-.======-=o=+OOX.&&o&&&ooo&&.XOXXXO@OX+.      ",
"  ==+= -.@ooo===+O.&&o*&&ooo&&.OOOOXOOOO+.      ",
"=.==-o-o==oO==+=OX.&&o&&&ooo&&.OOO+X@+X+@o      ",
" ==- ==oooo=oo=O@+.&*o&&*ooo*&.@XOXO+OOOO.      ",
"-.=oo...@=-ooXoOXO.&&o&&&ooo&&..OOXX@@O.X.-     ",
"+-====#==@==o=.=OO.$#o*&&&oo#$.o=+O=.=X-=.@o    ",
" = =o==oo=====.=.....#...#...##.=o.==o.oo.o@.   ",
" ===ooooooo=o==@%@@@%@&O%OOX%@@=o===o===o===.   ",
"  .@-@-oo@-@-@-@-@-@-@-&-&-@-@-@-@-@-@-@-@-@-=  ",
"  .@@@..o@.@.........$O@@@O@OO@@@@@@@@@@@@@@@.  ",
" =-@-..=o====.......@$$@$O&@OO-@-@-@.@-@-@-@-@. ",
" .@@%..........@o..@...@%@O@%@@@.@.@.@.@.@.@.@. ",
".@@.@@@.@...@.=.@@@.OO  O@-   OO@...@...@...@...",
"..=...=...=...=...=..O  O.=OOO=...=...=...=...=.",
"=========================..===..================"};
