/* XPM */
static char * Info_xpm[] = {
"48 48 12 1",
" 	c None",
".	c grey51",
"X	c grey39",
"o	c grey26",
"O	c turquoise4",
"+	c grey13",
"@	c grey7",
"#	c blue4",
"$	c grey89",
"%	c grey76",
"&	c grey64",
"*	c white",
"                                                ",
"                                                ",
"                                                ",
"                                                ",
"                                                ",
"                   .XXooooXOO                   ",
"                 ++@++++++++++oo                ",
"               ++++#############oX              ",
"             o+++++#############oXX             ",
"           oo@++######$$$$#########X            ",
"          +++#######$$$%%%&#########XX          ",
"          +++#######$$$%%%&#########XX          ",
"        oo+#########$$%%%%%++#########O         ",
"       X@@##########%%%%%%.@@##########         ",
"       X@@##########%%%%%%.@@##########         ",
"       +++############&%..+++##########OO       ",
"      X@###############+@@+##############       ",
"      X@###############+@@+##############       ",
"     oo+#########$$$$$$$***##############O      ",
"     ++############@%%%$$$$@@#############      ",
"     ++############@%%%$$$$@@#############      ",
"     @@#############$$$$$$$@@#############      ",
"     ++#############**$$$$$@@#############      ",
"     ++#############**$$$$$@@#############      ",
"     ++#############**$$$$$@@#############      ",
"     ++#############**$$$$$@@#############      ",
"     ++#############**$$$$$@@#############      ",
"     ++#############**$$$$$@@#############      ",
"     ++#############**$$$$$@@############O      ",
"     XX#############**$$$$$@@############       ",
"     XX#############**$$$$$@@############       ",
"       +############**$$$$$@@############       ",
"       o############**$$$$$@@##########         ",
"       o############**$$$$$@@##########         ",
"        ############**$$$$$@@##########         ",
"        ..#######*****$$******########          ",
"         .#######*****$$******########          ",
"          O########@@@@@@@@@@@@@####            ",
"             ####################OO             ",
"              ###################OO             ",
"                ################                ",
"                    OOO#OOO                     ",
"                                                ",
"                                                ",
"                                                ",
"                                                ",
"                                                ",
"                                                "};
