/* XPM */
static char * HeaderFileMagnifyingGlass_xpm[] = {
"48 48 17 1",
" 	c None",
".	c grey39",
"X	c grey13",
"o	c grey4",
"O	c grey26",
"+	c grey7",
"@	c ForestGreen",
"#	c grey51",
"$	c white",
"%	c grey64",
"&	c grey89",
"*	c grey76",
"=	c yellow4",
"-	c magenta4",
";	c blue4",
":	c orange3",
">	c brown4",
"              .XooooooX.                        ",
"            OooXXOOOOOX+oo                      ",
"          .XoOOOOOOOOOOOOOoX                    ",
"  OOOOOOOXooOOOO@.##@###@@OooOOOOOOOOOOOOOOO    ",
"  O$$$$$%oOOO%&$$$$$$$$$$$$Ooo$$$$$$$$$$$$$oX   ",
"  O$$$$%oOOO$$$$$$$$$$$$$$$$$oo$$$$$$$$$$$$oXO  ",
"  O$$$$oOOO$$$$$$$$$$$$$$$$$$$oO$$$$$$$$$$$oXO  ",
"  O$$$%oOO$$$$$$$$$$$$$$$$$$$$$oO$$$$$$$$$$oXO  ",
"  O$$$oXOO$$$$$$$**#OOOO#=*&$$$Oo$$$$$$$$$$oXO  ",
"  O$$%oOO##-$$$%ooooOoooooOoO.#-oo;;;$$$$$$oXO  ",
"  O$$OoOO$$$$%%%OOOOOOOOOOOOOO%*oX$$$$$$$$$oXO  ",
"  O$$oXOO##*%%%%OooooooooooOOOOOOoO$$$$$$$$oXO  ",
"  O$$oOO@$$%%%%%OOOOOOOOOOOOOOOOOoO*$$$$$$$oXO  ",
"  O$$oOO##o%%%%%XO..###$#.OoooooooXX;;;;;$$oXO  ",
"  O$$oOO$OO%%%%**$$$$$$$$$$$&%OOOoO#$$$$$$$oXO  ",
"  O$$oOOOoo%%%;$;$$$;;$$$$$$$$#oooXO;$$$$$$oXO  ",
"  O$$oOOOOO%%*-;-$$$;;$$$$$$$$$OOoOO*$$$$$$oXO  ",
"  O$$oOOooo%*;;-;;$$;;$$$$$$$$$-OoXoX;;$$$$oXO  ",
"  O$$OoOOOO%$$$;$$$$;-%;;%$$$$$%oXOO%$$$$$$oXO  ",
"  O$$%oOOoo*$$$$$$$$;;#$;;$$$$$OoOOO#$$$$$$oXO  ",
"  O$$$oOOO$$$$$$$$$$;;$$;;$$$$%ooOOOO$$$$$$oXO  ",
"  O$$$XoOo$$$$$$$$$$;;$$;;$$$$OoXOooo;;$$$$oXO  ",
"  O$$$$Oo%$$$$$$$#;$;;$$;;$$$%oXXO$OO$$$$$$oXO  ",
"  O$$$;Xoo$$$$$$$#;$;-$$;;$$%ooOOO#oO$$$$$$oXO  ",
"  O$$$$$OoO%$$$$$$$$$$$$$$$%oooOO$OO%$$$$$$oXO  ",
"  O$$$;;;oooO$$$$$$$$$$$$%Ooo%Oo##oOX;;;;$$oXO  ",
"  O$$$$$$%OooO%$$$$$$$$%%OoooO%Oo$OO&$$$$$$oXO  ",
"  O$$$XXXXoOoooOO%%%%OOooooOooO%OoOO$$$$$$$oXO  ",
"  O$$$$$$$%OOXooooooooooOOOOOooO%Oo%$$$$$$$oXO  ",
"  O$$$$$$$$OooOOOOOOOOOOOOXXXXooO$:>$$$$$$$oXO  ",
"  O$$$$$$$$$OOO%%OOOOO##*$$$$%OoO*$:>$$$$$$oXO  ",
"  O$$$;;;;;;;oooO;;;;;;;;;;XoooooO*$:>$$$$$oXO  ",
"  O$$$$$$$$$$$OOOO#*$$$$$%OOOOOOOoO*$:>$$$$oXO  ",
"  O$$$XoXo$oXoXoooOOOoooOOOOOOOOOOoO*$:>$$$oXO  ",
"  O$$$$$$$$$$$$$$%OOOOOOOOOO#*$OOOOoO*$:>$$oXO  ",
"  O$$$;;;$;;;;;$;;;XXoOoo#*$$$$$OOOOoO*$:>$oXO  ",
"  O$$$$$$$$$$$$$$$$$$$$$$$$$$$$$$OOOOoO*$:>oXO  ",
"  O$$$$$$$$$;;;;$;;;;;;$;;;;;;$;;;oooooO*$:>XO  ",
"  O$$$$$$$$$$$$$$$$$$$$$$$$$$$$$$$$OOOOoO*$:>O  ",
"  O$$$o$;;;;;;;;;;;;;;;;;$oo$ooo$;;;oooooO**$>  ",
"  O$$$$$$$$$$$$$$$$$$$$$$$$$$$$$$$$$$OOOOoO$Oo  ",
"  O$$$$$$$$$$$$$$$$$$$$$$$$$$$$$$$$$$$OOOOoooo  ",
"  O$$$$$$$$$$$$$$$$$$$$$$$$$$$$$$$$$$$$OOOOoOO  ",
"  O$$$$$$$$$$$$$$$$$$$$$$$$$$$$$$$$$$$$$OOOooO  ",
"  Oooooooooooooooooooooooooooooooooooooooooooo  ",
"  #XXXXXXXXXXXXXXXXXXXXXXXXXXXXXXXXXXXXXXXoooo  ",
"  ##OOOOOOOOOOOOOOOOOOOOOOOOOOOOOOOOOOOOOOOooo  ",
"                                                "};
