/* XPM */
static char * Monalisa_xpm[] = {
"48 48 8 1",
" 	c grey39",
".	c grey4",
"X	c white",
"o	c orange3",
"O	c brown4",
"+	c grey26",
"@	c grey13",
"#	c grey76",
"                                                ",
" ..............................................X",
" .oooooooooooooooooooooooooooooooooooooooooooooX",
" .oooooooooooooooooooooooooooooooooooooooooooooX",
" .ooooooooooooooooooO++++++++OoooooooooooooooooX",
" .ooooooooooooooooO++++@+@++++++oooooooooooooooX",
" .oooooooooooooooO+++O@+++++@++++ooooooooooooooX",
" .ooooooooooooooO+++O+++++@@+@++++oooooooooooooX",
" .oooooooooooooo+++OooOO++@++@+++++ooooooooooooX",
" .ooooooooooooo+OooooooooO++++++++++oooooooooooX",
" .ooooooooooooo+oo#####oooOO++@+++++OooooooooooX",
" .oooooooooooo@oo#######oooO+++@@++++ooooooooooX",
" .ooooooooo#o++oo########oooO++++@+++OoooooooooX",
" .ooooooooo#o++oo#######ooooO+++@@@+@+oooooooooX",
" .ooooooooooO+Oo#######ooooooo+++@@@@+oooooooooX",
" .oooooooooo++Oo########ooooooO++++@+@OooooooooX",
" .oo#o#o#o#o++Oo######oooooooo+++++@@@+OOooooooX",
" .ooooo#o#oo+++oooo#oooooooooO++++++++++OOoooooX",
" .oooooo#oo+++++oooooo+OoO+++OO+++++++++OOOooooX",
" .Oooo#oooo+++++o@+ooOOoo@O+ooO++++@+@++++OoooOX",
" .Ooooooooo++@oooooooOooooooooO+++++@@+O+OO+OO+X",
" .+O+oOO+oo++@ooooooooooooooooO+++++++++++Oo+OOX",
" .+++@+O+++O@@Oo##o#ooo####oooO++++++++OOOOOO++X",
" .+++++++++@++Oo##o#oooo##oooo+++++++++OoooooooX",
" .+@+++@+@++@@+oooo#ooo#ooooo+++++++++++++OOOooX",
" .+O++++@+@+++@ooooooOoo#ooooO+++++++++++++OO+OX",
" .+++++++@++++@Ooooo+@OoooooOO+++++++++++++++++X",
" .+++++++++++@++oooooooooooooO+++++O+++++++++++X",
" .++++@+++@+++@OoooooOOOoooo+++++++++++++++++++X",
" .+++++++++++++@oooooooooooOO++++++++++++++O+O+X",
" .+++++++++@+++@+oooooooooo+O+++++++++++++++O+OX",
" .+O++++OO++@++++@oo#ooooo+++++++++++++++OO+OOOX",
" .+++++++O+@++++@+@ooooo++++++++++++++++++++O+OX",
" .++++OOoo++++++@@@@O++++++++++++++++++++++++O+X",
" .+OOOOOooO+++++@@@@@++@+++++++++++++++++++++O+X",
" .OoOoooooO+@++++@@@@+++@+++++++++@++++@++++++OX",
" .OooooOoOO++++++@+@@oo+++++OOO+++++++++++++O++X",
" .OooOooOoO+++++@@@+@+oooOOOOOOO+++++@+++++OOOOX",
" .+OoOOOOOO+++++@@@@+OooooooooooO++++++@@++++++X",
" .O+@+++++++@@+@@@+++OooooooooooO+++++++++@++++X",
" .O++@+++@+++++++++Oooooooooooooo+++++++++@++++X",
" .++@@@+++@++++++OoooooooooooooooO++O++++++++OOX",
" .++@+@@++++++++Ooooooooooo#ooooo+OOO++++++++++X",
" .+@@+++++++++++ooo#oo##oo#o#ooooOO+O++++++++++X",
" .+++++++++++++Ooo####o#o#o#o#ooo+OO++++++++@++X",
" .++++++++++++Oooo#####oo##o#ooooOO++++++++++++X",
" .+++O+++++++OOo##o###o##o#oo#ooo+OOO+++OO+++++X",
" XXXXXXXXXXXXXXXXXXXXXXXXXXXXXXXXXXXXXXXXXXXXXXX"};
