/* XPM */
static char * SunMicrosystemsMonitor_xpm[] = {
"48 48 14 2",
"  	c None",
". 	c grey89",
"X 	c white",
"o 	c grey76",
"O 	c grey64",
"+ 	c grey51",
"@ 	c magenta4",
"# 	c grey39",
"$ 	c grey13",
"% 	c grey4",
"& 	c grey26",
"* 	c blue4",
"= 	c turquoise4",
"- 	c LimeGreen",
"                                                                                                ",
"    . X X X X X X X X X X X X X X X X X X X X X X X X X X X X X X X X X X X X X X X X X . o     ",
"  . . . . . . . . . . . . . . . . . . . . . . . . . . . . . . . . . . . . o . o o o o o . O +   ",
"  X . . . . . . . . . . . . . . . . . . . . . . . . . . . . . . . . . . . . . o o o o o o @ #   ",
"  X . . . . . . . . . . . . . . . . . . . . o o o . . . . . . . . . . o . o o o o o o o o + $   ",
"  X . . . . . . . . . . . . . . . . . . . o O O O O . . . . . . . . . . . o o o o o o o o @ $   ",
"  X . . . . % % % % % % % % % % % % % % # O O + O O & % % % % % % % % % % % % % % O o o o # $   ",
"  X . . . . % # * # * # # # * # * # + # = O O $ # O O # * # * # * # * # # # # # * X o o o @ $   ",
"  X . . . . % # # # # * # * # * @ + O O # + O O & # O O + @ @ * @ * # * # * # # # X o o o # %   ",
"  X . . . . % # # * # # # * # * + * # O O & + O O & # O O # # * # * # # # # # * # X o o o @ %   ",
"  X . . . . % * # # * # * # * + O + & # O O & # O O & # + O # @ * # * # * # # # # X o o O # %   ",
"  X . . . . % # # # # * # * + # + O O & # O O & # O O & & + # # # * # * # # # # * X o o O @ %   ",
"  X . . . . % # * # * * * + O # & + + O & # O O & # + O & & + O # @ * # * # * # # X o O O # %   ",
"  X . . . . % # # * # * + O O + & & + O O & + O O & # O # + O + + & @ * # * # # # X O O O @ %   ",
"  X . . . . % * * * * + O O + # o + & + O O & + O O & & + + + + # O @ @ * * * # # X O O O # %   ",
"  X . . . . % # # * + O O O # O O O & & O O O O O O & + O + # # O + + $ @ * # * # X O O O * %   ",
"  X . . . . % * * + O = + & o O O # & # * + O O O # O O + + # O + + $ & * @ * # # X O O O # %   ",
"  X . . . . % # + O + + # o O O # O O O + & # O # # + + + # O + + # O + # # # * * X O O O # %   ",
"  X . . . . % * O + + # O O O # O O O O O # * & & O + # # O + + # O + # # # & * # X O O O # %   ",
"  X . . . . % @ o + # o O + # O O O + + O # # * @ + + + O + + # O + # & O + & & * X O O O # %   ",
"  X . . . . % @ @ + + O O # O O O + O O O # & = + O + + + + # O + # & O # # $ & * X O O O # %   ",
"  X . . . . % @ @ # + O # O O O + O O O + # o + O & + O + # O + + # O + + & $ & * X O O O # %   ",
"  X . . . . % * * & $ $ O O + # O O O + & O + O + # & $ # O + # & O # # & $ $ & # X O O O # %   ",
"  X . . . . % @ # * # + O O # O O O + $ + O O & O + # & O + + & O + # & $ $ & * * X O O O # %   ",
"  X . . . . % * * @ @ # + # O O O + + # * O + # & + + # & # # O + + # $ $ & * # * X O O O # %   ",
"  X . . . . % # # * # @ & # O O + & O O + & O + # & + + # $ + + + & $ $ & * # # * X O O O # %   ",
"  X . . . . % * * # * @ # & + + + & # O + # & O + # & + + # & # $ $ $ & * # * # # X O O + # %   ",
"  X . . . . % # # # # * # * & # O O $ & O + # & + + # & # + # $ $ $ & * # # # # # X O O + # %   ",
"  X . . . . % * # # * # * * * & = O O $ # O + # & O + # & O # $ & & * # * # # # # X + + + # %   ",
"  X . . . . % # # # # # # * # * # @ + + $ & + + # & + + # $ $ $ & * # # # # # * # X + + + & %   ",
"  X . . . . % # # * # * * * * * # & + + O $ & + O & & # & $ & & * * # * # # # # # X + + + & %   ",
"  X . . . . % # # # # # * # * # * # & # + + $ # + + & $ $ $ & & * # # # # # * # * X + + + & %   ",
"  X . . . . O X X X X X X X X X X X . o + + + O + + + o O o . X X X X X X X X X X X + + + & %   ",
"  X . . . . . o . o o o o o o o o o o o + # + + # & & + O O O O O O O O O O & & & + + + + & %   ",
"  X . . . o . o o o o o o o o o o o O o O O & & $ & # + O O O O O O O O + + & - - o + + + & %   ",
"  X . . . o o o o o o o o o o o o o o o O O + & & # + O O O O O O O O O + + + o o o + + + & %   ",
"  X O + @ + @ + @ @ @ # @ # @ # # # # # # # & & & & & # # # # # & # & & & & & & & & & & & & %   ",
"    % % % % % % % % % % % % % % % % % % % % % % % % % % % % % % % % % % % % % % % % % % % % %   ",
"                      X # & & & & $ o o O O + # # & & $ $ $ % $ $ $ & $ &                       ",
"                    X O # # # # # # & # + + + # # & $ $ % $ $ $ & # # # # $                     ",
"                  X . + + + + + + + + # # & & $ & $ & $ & & # + + + + + + # $                   ",
"                X X O O O O O O O O O O O O O O O O O O O O O O O O O O O O # $                 ",
"              X X X X X X X X X X X X X X X X X X X X X X X X X X X X X X X X # $               ",
"              X O O O O O O O O O O O O O O O O O O O O O O O O O O O O O O O O %               ",
"              X O O O O O O O O O O O O O O O O O O O O O O O O O O O O O O O O %               ",
"                % % % % % % % % % % % % % % % % % % % % % % % % % % % % % % % %                 ",
"                                                                                                ",
"                                                                                                "};
