/* XPM */
static char * HPMonitor_xpm[] = {
"48 48 15 2",
"  	c None",
". 	c grey64",
"X 	c white",
"o 	c grey89",
"O 	c grey76",
"+ 	c grey51",
"@ 	c magenta4",
"# 	c grey39",
"$ 	c grey13",
"% 	c grey7",
"& 	c grey4",
"* 	c turquoise4",
"= 	c blue4",
"- 	c grey26",
"; 	c green1",
"  . . . . . . . . . . . . . . . . . . . . . . . . . . . . . . . . . . . . . . . . . . . . .     ",
". X o X X X X X X X X X X X X X X X X X X X X X X X X X X X X X X X X X X X X X X X X X o O .   ",
". o o o o o o o o o o o o o o o o o o o o o o o o o o o o o o o o o o o o O o O O O O O o . +   ",
". X o o o o o o o o o o o o o o o o o o o o o o o o o o o o o o o o o o o o o O O O O O O @ #   ",
". X o o o o o o o o o o o o o o o o o o o o o o o o o o o o o o o o o O o O O O O O O O O + $   ",
". X o o o o o o o o o o o o o o o o o o o o o o o o o o o o o o o o o o o O O O O O O O O @ %   ",
". X o o o o & & & & & & & & & & & & & & & & & & & & & & & & & & & & & & & & & & & . O O O * $   ",
". X o o o o & # = # = # # # = # = # = # = # = # = @ = # = # = # = # = # # # # # = X O O O @ %   ",
". X o o o o & # # # # = # = # = @ = @ = @ @ @ = @ * @ = @ @ @ = @ = # = # = # # # X O O O # %   ",
". X o o o o & # - + + + + + + + + + + . + # + . + . . . . . . . + . + + + + - = # X O O O @ %   ",
". X o o o o & = + + # + + + * + + + + + - + @ # * + . . . . . + * + + * + + # - # X O O O # %   ",
". X o o o o & # + # @ # + # + + + + @ - $ . + - - $ $ - # . + + + + + + + # + - - X O O . @ %   ",
". X o o o o & # + + + + + * + * + # $ - * + + $ - # = - - - . + @ + + + + + + - - X O . O # %   ",
". X o o o o & # + # + + + + + + # - - = + . # - # @ @ @ # # - + + + + + + + + - - X . . . @ %   ",
". X o o o o & = + + # + + * + + $ - = * . . - - = * @ * @ * = @ + + + + + + # - - X O . . # %   ",
". X o o o o & # * # + + + + + # $ - @ . + . . . @ @ . . . . @ # + + + + + # # - - X . . . = %   ",
". X o o o o & = + + + + + * + - - @ @ . . # . . # @ . + # + + - * * + + # + # - - X . . . # %   ",
". X o o o o & # * + + + + + + - # @ @ . + # . . - . . - + . # - * + + + + # @ $ - X . . . # &   ",
". X o o o o & = + + + * * + * - = @ . . + * . + - . . - . + - - + + + + # * # - - X . . . # %   ",
". X o o o o & @ * # + + + + + - # @ + . # . . - * . + + + # $ = + # + # # # # - - X . . . # &   ",
". X o o o o & @ + * + + + + @ - @ @ . . # . . - . . - + @ # - = . + + + # # # - - X . . . # %   ",
". X o o o o & @ + # + + + + + # # . + # @ . + # . . + . + - - = + # @ # # # # $ - X . . . # &   ",
". X o o o o & = * + + * + + * * = + # - # # - * . + # # - - = . + + # @ # # # - - X . . . # &   ",
". X o o o o & @ * + + + + . + . # = - - # - - . . - - - - - @ . + + + # # # # - - X . . . # &   ",
". X o o o o & = + * + + + + . + . @ * @ = * . . . $ - # = * . + # + # # # # # - - X . . . # &   ",
". X o o o o & # * + + + + + + . . . * @ * @ . . # - # @ @ . + # + # # # # # # $ - X . . . # &   ",
". X o o o o & = * + + + @ + . @ . . . . @ * . @ - @ @ @ + + + + * @ # @ # # # $ - X . . + # &   ",
". X o o o o & # = # + + + . + . . . . . + + + + # . + + + + + # + # # # # # # % - X . . + # &   ",
". X o o o o & = # - - - - - - - - - - - - - - - - - - - - - - - - - - $ $ $ % $ - X + + + # &   ",
". X o o o o & # # # - - - - - - - - - - - - - - - - - - - - - - - - - - - - - - - X + + + - &   ",
". X o o o o & # # = # = = = = = @ * @ * @ * @ * @ * @ * @ @ = = = = # = # # # # # X + + + - &   ",
". X o o o o & # # # # # = # = # = # = @ = @ @ @ = # = @ = # = # = # # # # # = # = X + + + - &   ",
". X o o o o . X X X X X X X X X X X X X X X X X X X X X X X X X X X X X X X X X X X + + + - &   ",
". X o o o o o O o O O O O O O O O O O O O O . . . . . . . . . . . . . . . . - - - + + + + - &   ",
". X o o o O o O O O O O O O O O O O O O O . . . . . . . . . . . . . . . + + - ; ; O + + + - &   ",
". X o o o O O O O O O O O O O O O O O O . . . . . . . . . . . . . . . . + + + O O O + + + - &   ",
". X . + @ + @ + @ @ @ # @ # @ # # # # # # # # # # # # # # # # # - # - - - - - - - - - - - - &   ",
". * & & & & & & & & & & & & & & & & & & & & & & & & & & & & & & & & & & & & & & & & & & & & &   ",
"                    . X # - - - - $ O O . . + # # - - $ $ % % % $ $ - - -                       ",
"                  . X . # # # # # # - # + * + # # - - - % $ $ - - # # # # $                     ",
"                . X o + + + + + + + + # # - - - - - - - - - # + + + + + + # $                   ",
"              . X X . . . . . . . . . . . . . . . . . . . . . . . . . . . . # $                 ",
"            . X X X X X X X X X X X X X X X X X X X X X X X X X X X X X X X X # $               ",
"            . X . . . . . . . . . . . . . . . . . . . . . . . . . . . . . . . . &               ",
"            . X . . . . . . . . . . . . . . . . . . . . . . . . . . . . . . . . &               ",
"              # & & & & & & & & & & & & & & & & & & & & & & & & & & & & & & & &                 ",
"                                                                                                ",
"                                                                                                "};
