/* XPM */
static char * WomanEyeInMonitor_xpm[] = {
"48 48 14 2",
"  	c None",
". 	c grey76",
"X 	c grey89",
"o 	c grey64",
"O 	c grey51",
"+ 	c grey39",
"@ 	c grey26",
"# 	c white",
"$ 	c grey7",
"% 	c grey4",
"& 	c grey13",
"* 	c orange3",
"= 	c brown4",
"- 	c firebrick3",
"                                                                                                ",
"    .     X X X X X X . X . . . o o o o o o o o o o o o O O O O O O O O + + + + + @ @ @ O       ",
"  . # + $ % & & & $ & & & & & & & & & & & & & & & & & & & & & & & & & $ & & $ % $ % $ % % %     ",
"    + $ % $ % & & & & & & & & & & & & & & & & & & & & & & & & & & & & & & % & & % $ % $ % % &   ",
"    $ % & $ & & & & & @ & & @ & @ @ @ @ @ @ @ @ @ @ @ & @ & @ & & & & & & & $ & & $ $ % % % %   ",
"  X & & $ O + O O O + + + @ @ @ @ @ @ @ @ @ @ @ @ @ @ @ @ @ @ @ @ + + + + O O o o O O & % $ %   ",
"  X & & & % & $ $ % $ % % % % % % % % % % % % % % % % % % % % % % % % % $ % $ $ $ & $ % $ % %   ",
"  X & & & $ # # # X X . . o o o * = = = = = & = = = = = = = = = - - = = = = @ = = = & & & & %   ",
"  X & & @ $ # # # X X . . o o o o * = = = & & @ @ @ @ @ = @ = = = = = = = = @ = = = $ & $ $ %   ",
"  . & & @ $ # # X X X . . o o o * = = = & & & & & & & & & & & @ & & & & & = = = = = % & & % %   ",
"  X & @ & % X X X X X . o o o o o = O @ & & & & & & & & = = = = = = = = = & & = = = $ & & $ %   ",
"  X @ @ @ % X X X . . . . o o o o = = = & & & = & = = @ = = = = = = = = = = & & = = % & & & %   ",
"  X & @ @ % X X . . . o o o o o * O = = & & & = & & & @ = @ = = = = = = = @ & & = = % @ & & %   ",
"  . @ @ @ % X X X . . . o o o o * * = = & = & & & & & & & & & = = = = = = @ = = = = % & & & %   ",
"  X @ @ @ % X X X X . o o o o o o * = @ @ & & & & % % % % % & & & & @ @ = & & = = = % & & & %   ",
"  X @ @ + % X X X X . . . . o o o = = & & & & & & & @ @ % % % % % & & & & & & @ = = % @ @ & %   ",
"  X = @ = % # X X X . . . . o o o = = = = & & & & @ = @ % @ % @ % % % % & & & = = = % & & & %   ",
"  . + + + % # # # X X . . . o o O = = = = @ = & & & = = % & % & @ & % & % & = = = - % & & & %   ",
"  X @ @ = % # # # X . . . . o o = = = = - = = = = = & & = & & & & & & & & & & = - = % @ @ & %   ",
"  X + + + % # # # X X . . . o O = = = = = = = = = = = = = @ = = = = = = = & = = = - % & @ & %   ",
"  X + @ + % # X X X X . o o o * O * = - - = = - - = = = = = - = - = = = = & = = = - % @ @ & %   ",
"  X + + + % # # X X X . . o o o * = * = * = - = - = = - = - = = = = = - - = = = - - % & @ & %   ",
"  X @ + + % X X X X X o o o o * * = = * = * - - = - = - = - = - = - = - = = = = = = % @ @ & %   ",
"  . @ = + % X X X . . . . o o o * = * * = = - - - - - = - - - - - - * = = = = - - - % @ & & %   ",
"  X @ + = % X X X . . . . o o o o * = O * * - - = - - - = - = - = - - * = = = - - - $ & & & %   ",
"  X @ + + $ X X X X X X . . o o * = * = * = - - - - * - - = * - * - * - - - = - = - % @ & & %   ",
"  X @ @ = % X X X X X X . . o o * = = = = * - - = - = - = - = - - - = - = - = = - - $ & & & %   ",
"  . @ @ + $ # # X X X . . . o o * = * O * - - - - - - - - - - - - - = - - - = = = - & & & & %   ",
"  X @ @ = $ # # # X X X . . o * * * = = - - - - = - = - = - - - - - - - = - = = = = & & & & %   ",
"  X @ @ @ & # # # X X X . o o o o = = = - - - - - - - - - - - - - - - - - = = = = - $ & & $ %   ",
"  X @ @ @ $ % % % % % % % % % % % % % % % % % % % % % % % % % % % % % % % % % % % % $ & & % %   ",
"  . & & @ O + O O O O + + @ @ @ @ @ @ @ @ @ @ @ @ @ @ @ @ @ @ @ @ @ + + O O O o o O O & % $ %   ",
"  X & & @ @ @ @ @ @ = + = + + + + + + + = + = + = + = + = @ @ @ @ @ @ @ @ @ & & & & $ % $ % %   ",
"  X & & & & @ @ @ @ @ @ + @ + @ + = + @ + @ + @ + @ + @ @ @ @ @ @ @ @ & @ & & & & & & & % % %   ",
"  X $ & & & @ @ @ @ @ @ @ @ = + = + = @ = @ = @ = @ = @ @ @ @ @ @ @ & @ & & & & & $ $ % $ % %   ",
"  . % % % % % % % % % % % % % % % % % % % % % % % % % % % % % % % % % % % % % % % % % % % % %   ",
"                            O % % % % % % % % % % % % % % % % % % o                             ",
"                              o % % % % % % % % % % % % % % % % O                               ",
"                                O % % % % % % % % % % % % % % o                                 ",
"                                o $ % & $ & & $ & & $ & & $ & o                                 ",
"                              X O & & & & & & & & & & & & & & o .                               ",
"                              X & @ @ & & @ @ & & @ @ & & @ @ & X                               ",
"                            X & @ & & & @ & & & @ & & & @ & & & @ X                             ",
"            @ @ @ @ @ % @ + @ @ @ @ @ @ @ @ @ @ @ @ @ @ @ @ @ @ @ + @ @ % @ @ @ @ @             ",
"            % % % % % % + % $ & $ % $ & $ % $ & $ % $ & $ % $ & $ % $ @ % % % % % %             ",
"            @ @ @ @ @ % @ % % % % % % % % % % % % % % % % % % % % % % @ % @ @ @ @ @             ",
"            % % % % % % @ & & & @ & & & @ & & & @ & & & @ & & & @ & & @ % % % % % %             ",
"                                                                                                "};
