/* XPM */
static char * WindowsLogoMonitor_xpm[] = {
"48 48 20 2",
"  	c None",
". 	c grey51",
"X 	c grey39",
"o 	c grey26",
"O 	c grey64",
"+ 	c grey76",
"@ 	c grey13",
"# 	c grey4",
"$ 	c brown4",
"% 	c red1",
"& 	c firebrick3",
"* 	c ForestGreen",
"= 	c blue4",
"- 	c yellow4",
"; 	c blue3",
": 	c blue1",
"> 	c yellow1",
", 	c yellow3",
"< 	c turquoise4",
"1 	c grey7",
". . . . . . . . . . . . . . . . . . . . . . . . . . . . . . . . . . . . . . . . . . . . . . . . ",
"X o X X X X X X X X X X . X . X . . . . . . . . . . . . O O O O O O O O O O O O O O O O O . . . ",
"X o o X X X X X X X X X X X X X X . X . . . . . . . . . . O . . . O . O . O O . . O . . . . . . ",
"X o X X X X X X X X X X X X . X . . . . . . . . . . . . O . O . O . O O O . O . O . O . . . . . ",
"X o o X o X o X o X o X o X X X X X X X X X X X X X X . X . . . . . . . . . . . . . . . . . . . ",
"X o o o o + + + + + + + + + + + + + + + + + + + + + + + + + + + + + + + + + + + + + + X . . . . ",
"X o o o o + + + + + + + + + + + + + + + + + + + + + + + + + + + + + + + + + + + + + + X . . . . ",
"X o o o o + + + + + + + + + + + + + + + + + + + + + O O . . . . . . . . O O + + + + + X . . . . ",
"X o o o o + + + + + + + + + + + + + + + + + + + O . @ # # # # # # # # # # @ X . O + + X . . X . ",
"X o o o X + + . O + + + + + + + + + + + O O O X X @ # # # # # # # # # # # # # # X + + X . X . . ",
"X o o o o + + X O O X O O . O + O . O . @ O X # X @ # @ $ $ $ # # @ @ @ # # # # X + + X X X X . ",
"X o o o X + + + + . X O X # O . # X . # # O X @ . $ % % % % & # @ o * o * o # # X + + X X X X . ",
"X o o o o + + $ O + O O . . + X @ . . X . + . X X & % % % % & # @ o o o o o # # X + + X X X X . ",
"X o o o X + + . O . % O O $ O O O . O . & O X # X & % % % % & # @ o o o * o # # X + + X X X X . ",
"X o o o X + + + O O . + & % O . % $ . % % O X @ . & % % % % & # @ o o o o o # # X + + X X X X . ",
"X o o o X + + & O O . O . O + $ $ O . & . O . X X & % % % % & # @ o * o * o # # X + + X X X X . ",
"X o o o X + + . O . % O . & O + . . O $ % O X # X & % % % % & # # o o o o o # # X + + X X X X . ",
"X o o o X + + O O O O + $ % O $ % $ . % % O X X . & $ @ # # # # # # # # @ # # # X + + o X X X . ",
"X o o o X + + @ O + . O O O O $ $ O . $ O O . @ X @ # # @ @ = # @ - o @ # # # # X + + o X X o . ",
"X o o o X + + O + . # O . @ O O . . O X # O X # X = ; : : : ; # - > > > > , # # X + + X X X X . ",
"X o o o X + + O O O O + X X O X # X . # # O X X . ; : : : : ; # - > > > > > # # X + + X o X o . ",
"X o o o X + + ; O O < O O O O . . O O . . O . @ X ; : : : : ; # - > > > > > # # X + + o X X X . ",
"X @ @ o X + + O + . ; O < : O O ; ; O ; : O X # X ; : : : : ; # - > > > > > # # X + + o o X o . ",
"X @ o o X + + O O O O + ; ; O ; : < . : ; O X X . ; : : : : ; # - > > > > > # # X + + o X o X . ",
"X @ @ o X + + ; O O ; O O O O . O O O . ; O X # X ; : : : : ; # - > > > > > # # X + + X o X o . ",
"X o o o X + + O + < ; O ; : O < ; ; . : : O X # X ; ; = 1 # # # # # o - - - # # X + + o X o X . ",
"X @ @ o X + + O O + + + ; ; O ; : < . : ; O X X . @ # # # # # # # # # # # # # # X + + o o o o . ",
"X @ o o X + + @ O O X O + O O O O O O O X O X # X @ # @ X X X X X X X @ @ # # # X + + o X o X . ",
"X o @ o X + + O + . @ O X # O O @ X . # # O X # X . O + + + + + + + + + O O . @ X + + X o X o . ",
"X o o o X + + + + O + + X X O X # . . # X O . O + + + + + + + + + + + + + + + O O + + o X X X . ",
"X @ @ o X + + + + + + + + + + . O + O O + + + + + + + + + + + + + + + + + + + + + + + X X X X . ",
"X o o o . + + + + + + + + + + + + + + + + + + + + + + + + + + + + + + + + + + + + + + X X X X . ",
"X @ @ o X . . . X . . . . . X . . . X . . . . . X . . . X X X . X X . . . . . . . . . X X X X . ",
"X @ o o o o o o X o o o o o o o o o o o X o X X X X X o X X X X X X X X X X . X . X X X . X . . ",
"X @ @ o @ @ @ o o o o o o o o o o o o o o X o X o X X X X X X X X X X X X . X . X . X . X . . . ",
"X @ o o o o o o o o o o o o o o o o o o o o X X X X X X X X X X X X . . . X . . . . . . . . . . ",
"X @ 1 @ 1 @ 1 @ @ @ @ @ @ @ @ @ @ o @ o o o o o o o o o o o o X o X X X X X X X X X X X X X . . ",
". . . X @ 1 @ 1 @ 1 @ 1 @ @ @ 1 @ @ @ @ @ @ @ @ o @ o o o o o o X o X X X X X X X X X . O O O O ",
"      X 1 @ 1 1 1 @ 1 @ 1 @ @ @ @ @ @ @ @ o @ o o o o o o o o o o X X X o X X X X X X .         ",
"      X @ 1 @ 1 @ 1 @ @ @ @ @ @ @ @ @ @ o o o o o o o o o o o o X o X X o X X X X X X .         ",
"      X 1 @ 1 @ 1 @ @ @ @ @ @ @ @ @ @ o @ o o o o o o o o o o X X X o X o X X X X X X .         ",
"      . X X X X X X X o o @ o @ o o o o o o o o o o o o o o X o X X X X X X X X X X X .         ",
"                      O o 1 1 1 1 @ @ @ @ @ @ o @ o @ o @ o o X X X o O                         ",
"                    O . . o 1 1 1 1 @ o o o o o o o X o X X X X o o X X .                       ",
"                    X 1 1 1 1 1 1 1 1 1 1 @ @ @ o o o o o X o @ 1 1 1 1 1 O                     ",
"                  O 1 1 1 1 1 1 1 1 # 1 1 1 @ @ o o . . O . X @ 1 1 1 1 1 X                     ",
"                  X 1 1 1 1 1 1 1 1 1 1 1 1 @ o o X . O O . o @ @ @ 1 1 1 o O                   ",
"                O o @ @ @ @ @ @ o @ o o o o o o o o X X X X X o o o o o o o .                   "};
