/* XPM */
static char * NestWithThreeEggs_xpm[] = {
"48 48 14 2",
"  	c None",
". 	c yellow4",
"X 	c grey51",
"o 	c grey26",
"O 	c grey64",
"+ 	c grey76",
"@ 	c grey39",
"# 	c grey13",
"$ 	c brown4",
"% 	c orange3",
"& 	c grey4",
"* 	c grey7",
"= 	c goldenrod1",
"- 	c grey89",
"                            . . X o           . . . .                                           ",
"                          O . . . . X . . . .         .   . .                                   ",
"                      . . . . . X + O . . .     .   .       . .                                 ",
"                    . X O . @ .         . @ @ . @ . . o . + . X . . @                           ",
"                  O     # .     . X # # $ % o @ . . o . @ o . . +     . +                       ",
"            . .     . X . . . . @ . o o . % . o # # # # o o # o . . O . . O +                   ",
"          @ @     . . O O . @ % % @ . o . . o o # # # @ & * # # & @ @ .     @                   ",
"          @   . . . O . . . @ o . @ o o # o # * # # # o & # o @ o & # @ O .   .                 ",
"        .   . @   . . % . . . @ @ # o * & # & & & # & & * o . # @ # & & . .   +                 ",
"      . X . o   . % @ . . = . * & * & # & # # & & & # o # # o & @ o & & # @ @ . . +             ",
"      . . +   . $ % @ o @ o o * & & # & & o # # X O X @ o . & @ . @ # # # . & . .   .           ",
"    X . . X   $ % . o . o * # # # o # # o & O - + + + X @ o o o @ % @ o o & . & + .   .         ",
"    . O O . . @ . o o # & # o # # # # o o X + + + % % X X o o o o % % o @ o & & o . . .         ",
"    + . @ X . . @ o & & & # o # & & o @ o - - - + + O O X o o @ @ @ % @ @ o & & @   . . .       ",
"  . .   . . $ $ o # & o o o o & # @ . o % - - - - % + O X @ o o $ o @ . @ o o o &   . - O       ",
"    . . . . # % . # & # # o # o @ @ . o + - - - - + + O @ o o o o . @ . @ @ o @ # o X   %       ",
"    + X @ . # % % & # & o o @ @ o $ # # + - - - + + O O X o o o . o $ . @ o @ o & o .   . .     ",
"  . O + $ . . % $ # & o o & o # @ o # & + - - + + + O X @ o o o @ @ @ o . % o & & # .     +     ",
"  .   $ . . . o o & & & & . + - + O @ o @ - + + + O O @ o o o . o o . @ % . # o & o . .   O .   ",
"  % . % @ $ % . o & # & - + % + + O @ o o O + O O O X @ o o o % . o @ o . . o # @ # o +   . .   ",
"    O $ . . . . o & & + - - + % + O X @ o o X O X @ o o o o . . % @ . @ o . @ o @ . . .   . .   ",
". @ @ % $ . @ $ # & o + - - - + + O O @ o o . @ @ o o o o o o % % . . @ # % . @ # . & . .   .   ",
"    . . % . @ . . & X - - - - + + O X @ o o @ . o @ . . . $ # @ @ o @ . # o . @ & . @ o     .   ",
"    . . % % . . . & + - - - + + + O X @ o o o o o @ . $ % % . . # # $ . . o . . & @ . @   .     ",
"    . o % . . $ . # O - - - + + O X @ o o o o # o # # o $ % % % o # @ . . o $ . o & . O . .     ",
"O   o @ % @ % . % o @ - + + + O O X @ o o o . o @ + - + O @ . . $ # @ % . @ . o @ & o . . X     ",
"X X @ . . % . . @ # & - + O O O X @ o o o o $ . . - % + O O @ @ @ o o . . o % . o . # . . .     ",
"  O . . @ % % % o @ & o + O X X @ o o o o o @ . - - % + O . @ o @ o o @ . @ % % o . # . . . +   ",
"  . O $ . % % % . . # & @ X @ @ o o o o @ @ . - - - + % O X X o o # # . % @ o & . & @ . .   X   ",
"    . @ . @ @ . . . o . & # o o o o o o . . - - - - + + O O X @ o o . @ = . . o & & @ .         ",
"    . % o . # o % @ . @ @ & # o @ o o & & O - - - - + % O X @ o o o @ . . @ . @ # & . X .   .   ",
"+   . % o . @ o . @ % o o @ & # # # $ @ & O - - - + + O O X @ o o o . @ . @ o @ & o . o .   . . ",
". O .   . o . . @ X % @ o @ @ & o # # o # @ - - + + + O X @ o o o @ . @ . . @ # & . o @     O @ ",
"    . .   . $ . @ . @ @ % $ & & . o o o # # - + + O O O X @ o o o . . . . % @ & & . & .   . . % ",
"      . . . @ . . . . . . o & . @ # # o o # @ + O O X X @ o o o @ % @ . @ o o & . & & .   . .   ",
"      .     X @ o . @ o @ . # & . o o o o @ # @ O X @ o o o o @ % . @ @ o # & & & & o   . . . X ",
"        .     X o @ O # # @ . @ o . o @ @ o # @ o o o o o o @ . . . o o o # & . * & . . .   .   ",
"        O     X   @ . . o & . o @ @ . o o @ % @ o o o o o @ % % . # # o o & . . & # . . . X     ",
"              .     . . @ @ o # & o @ . # o @ o o o o @ . @ . . # # & & # & X @ & o . . .       ",
"                .     O o @ @ . @ o # o . @ # o o o @ . @ o o & # & & * & o X & @ . X           ",
"                . . . X . o @ @ @ @ @ . @ . @ # @ @ @ & & & & & & & & & & . . . @ .             ",
"                  + . . . . @ & @ @ o & & . . . o o o # # # * & & & @ @ @ . . & #         X     ",
"                      . . . . . o # o . @ # . @ o # # . @ # # & & @ @ & . @ & @ % . . X @       ",
"                    .       . . . . . o & o . . @ @ . o * & & & & & # @ @ @ @ . . X X .         ",
"                      .     . + . @ . X @ . @ @ o . . . @ @ @ @ . . . @ . & .   o               ",
"                          .   . O O @ . X . @ & & o . # & * . & & & & @ X                       ",
"                                . . .         @ @ & & . @ @ # o @ . @   .   . .                 ",
"                              X X     O .             . .   . . .     X . .                     "};
