/* XPM */
static char * NetscapeLogo_xpm[] = {
"47 46 12 2",
"  	c grey39",
". 	c grey89",
"X 	c grey4",
"o 	c grey13",
"O 	c grey26",
"+ 	c turquoise4",
"@ 	c white",
"# 	c grey64",
"$ 	c grey76",
"% 	c cyan3",
"& 	c grey51",
"* 	c grey7",
"                                                                                            . ",
"  X X X X X X X X X X X X X X X X X X X X X X X X X X X X X X X X X X X X X X X X X X X X X . ",
"  X o O o o O o O O O O o O   O o o O O o o O O O O O         O o O O O O O O o O   O o o O . ",
"  X   o O   o O O O o       O O     O o O O O   O O     O O O O           O   +   O O O O O @ ",
"  X o O   O O O O O O   O O   O O O O   O O O O     O O         O O O O O O   O O   O O O O . ",
"  X o O   o O   o O o O           O O   O O         O O                   O O     O O       @ ",
"  X   o O     O O     O O O O                               O O     O O       O O       O O @ ",
"  X o O o O O O     O O       O O   O O         O O                     +       O O O O   O @ ",
"  X         O                 O     O           O                       + + + +             @ ",
"  X       +       +       + +       O O       + + +   + + + +   + + O   + + + + + + + + +   @ ",
"  X +       +     +     + +             + +   + + + + + + + + +   +       + + + + + + + + + @ ",
"  X     + + + + +     +   + + +     + + + + + + # + + + + + + + + + + + + + +   + + + + + + @ ",
"  X +     + + +     +   + + + + + +   + + # # $ % % # + +     + + + + +   +   + + +   +     @ ",
"  X     + +   +   + + + + + +   + + +   + # % % % % % #   + + + +   +   + + +   + + +   + + @ ",
"  X + + + + +   + + + + + + + + + + + + + . % + + + % # o o   + + + + + + + + + + + + + + + @ ",
"  X     + + + + + + + + + + + + + + + + + . $ +     % % o X o   + + + + + + + + + + + + + + @ ",
"  X + + + + + + + + + + + + + + + + +   & . $ +     + # o * o   + + + + + + + + + + + + + + @ ",
"  X + + + + + + + + + + + + + + + + + + + . % +     % # o X o   + + + + + + + + + + + + + + @ ",
"  X + + + + + + + + + + + + + + + + + + + % $ +   + % # o * o + + + + + + + + + + + + + + + @ ",
"  X + + + + + + + + + + + + + + + + + + + $ . + O + $ & o o o   + + + + + + + + + + + + + + @ ",
"  X + + + + + + + + + + + + + + + + + + + # . # O # $   o o O + + + + + + + + + + + + + + + @ ",
"  X + + + + + + + + + + + + + + + + + + + + . %   # $ o X o   + + + + + + + + + + + + + + + @ ",
"  X + + + + + + + + + + + + + + + + + + + + . $   # $ o X o   + + + + + + + + + + + + + + + @ ",
"  X + + + + + + + + + + + + + + + + + + + # . $   # $   * o   + + + + + + + + + + + + + + + @ ",
"  X + + + + + + + + + + + + + + + + + + + $ . %   % % + o O + + + + + + + + + + + + + + + + @ ",
"  X #     + + + + + + + + + + + + + + % % $ . % O + . #     + + + + + + + + + + + + + + + + @ ",
"  X . & O   + + + + + + + + + + + # $ % . . . % + # . . $ $ # + + + + + + + + + + + + + + % @ ",
"  X @ $ o o   + + + + + + + $ . . . . # + + +   O   + & & + $ . . $ + + + + + + + + + % % $ @ ",
"  X $ . & o o + + + + $ % . . % + + + O O O O o O O O       + + + $ $ $ + + + + + + + + % . @ ",
"  X   $ . &     + # $ . . % &   O O O O O O O O O O O           + + + $ $ $ + + + + + $ . $ @ ",
"  X O   . . $ &   # . $ +   O o O O O O O O O O O O O   + +         + + + $ $ + & + $ . $   . ",
"  X +   + % . $ $ $ # + O O o O O O O O O O O O   O O + + + + + +   + + + + $ $ $ $ % %     . ",
"  X . + O % $ . $ &   O O O O O O O O O O O O     +   +       + + + + + + + + + $ % %     + @ ",
"  X $ $ + + & % +   o O O O O O O O O O       + + +     +     + + + + + + + + + + + +   + $ . ",
"  X   $ $ # + + O o O O O O O O O O O     + + + + + + + + + + + + + +     + + + + + + + $ # @ ",
"  X o + . $ + O o O O O O O O O O + + & + # # # + + $ $ # + + + + + + + + + + + + + + + $ & @ ",
"  X   # $ # O o O O O O O O   + + + # + + $ $ $ + % . $ + + + # + + + + + + + + + +   + # + @ ",
"  X # $ # + O O O O O O O   + # # & O o   # . % + % $ & O o   & # # + + + + + + + + + + # $ @ ",
"  X . $ + O O O O O O     + $ $ & o X X O # . % + % . $ O X * O & $ $ + + + + + + +   + + $ @ ",
"  X . + O O O O   O +   + % @ $ & o X X   $ $ + + % % $   X * O & $ @ $ + + + + + +   + + + @ ",
"  X #   O O O O + + + + + % % . $   o o   $ % % + % % $ O o O # . . % # + + + + + + + + + + @ ",
"  X + O O O O     + + $ # + % % % . + O   # % % + + $ # O   # . . % % + + % + + + + + + + + @ ",
"  X O O O O     + + $ . . + O + % % $   O + . % + % % & O + . . % % + % % . $ + + + + + + + @ ",
"  X O O O O   + + # # + $ % + + + % . $   & $ % + % % & & $ . $ + + + % % # # + + % % + + + @ ",
"  X O O O     + + #   O & $ #   + + % $ # & $ % + $ $   & . . + + + + $ #   & $ # % % + + + @ ",
"@ @ @ @ @ @ @ @ @ @ @ @ @ @ @ @ @ @ @ @ @ @ @ @ @ @ @ @ @ @ @ @ @ @ @ @ @ @ @ @ @ @ @ @ @ @ @ "};
