/* XPM */
static char * WoodenMPushpinNote_xpm[] = {
"48 48 17 2",
"  	c None",
". 	c grey13",
"X 	c grey26",
"o 	c grey76",
"O 	c grey89",
"+ 	c yellow4",
"@ 	c grey7",
"# 	c grey4",
"$ 	c grey39",
"% 	c grey64",
"& 	c brown4",
"* 	c grey51",
"= 	c white",
"- 	c orange3",
"; 	c turquoise4",
": 	c cyan3",
"> 	c magenta4",
"                . X o o o X                                                                     ",
"              . o O o + + @ #                                                                   ",
"            $ % O + & & & . # #                                                                 ",
"        o o O % + & $ & X . # #                                                                 ",
"$         * $ $ & & & & & . # . X o         % @ #             @ X X o     o X .                 ",
"O % . & X X & X & & X & . . * o O o $ & & & X X # #         $ % = = o & - * o o . #             ",
"X X X X X & & X X & X X X * = % * X X & & & & & X & #   X o O = $ X & & & & & X * # #           ",
"# @ @ $ X & & X X & . & X $ $ & X & & . . & & & X X & . = O $ X . . & & X X X X & & # #         ",
"  # # o & & X X & X . & & & & X X # # # # . & & & & & O O & & & & X X X # # X + & X X # #       ",
"  # # o $ & X & & X . - $ & & X # # # # # # & & & & & o $ X & & & X # # # # # . $ & X . # #     ",
"      o $ & & & & & & & & & . # # # # # # # * & & & & * . & & X & . # # # # # # % $ & X # #     ",
"      * $ X X & X & & & X & @ # # # # #     * X X & X X & & & & X @ # # # # # # o $ & . # # #   ",
"      # % X & & & & & & X . # # # # #       o & & & & & & & & & & # # # # #     o * & . # # #   ",
"      * = - & . X & & & & . # # # #           X & & & & X . X & X # # # #       o $ & . # # #   ",
"    * = * & & & & & & . & . # # #             & & & & & & & & & # # # # #     * = + & . # # #   ",
"    * * X & & & X & & X . @ # # #             & & & X & X & & & # # # #       * % & X . # # #   ",
"    . X . . & & & . . X & . # # = = ; X       & & & & & & X X . # # # #     X O % . X # # # #   ",
"      % o & X & & . & . X @ # $ = % % % X     & & & & & & X X @ # # #       X = $ X X # # # #   ",
"    . O * . . X X X X & X # @ $ = % ; : ; X   & & & & & & X X # # # #       $ = & X # # # # #   ",
"    X o $ X & & . & X & X . @ ; : = : % : ;   & & & & & & & X @ # # #       % o . X # # # # #   ",
"    # . . . & & X & X X & . o O * > = % ; .   & & & & X & - . # # # #         * X . # # # #     ",
"      # X . X & X X & = = O = o > X > . . .   & & X $ & & & . # # #       %   - & . # # # #     ",
"        X o X & X & $ = = O o ; X . X . @     & $ & & & & - X # # #       o O & & # # # #       ",
"        X O - & X X $ O = o $ X . % %         & & & & - & & . # # #       o $ X X @ # # #       ",
"        X o & & & & $ ; = = % . % o %         . & - & & & & . # # #     * = X . . # X X @ #     ",
"        X o & & & & & $ $ = = O o $ %         . X & & & & & . # # #     * = X X $ * = o % @ #   ",
"        . % & & & X & = X . * % $ . X         . - & & & & . . # # #   . o % & X o o & & & X # # ",
"      % = = = = = = = $ . ; . . . O % %     O X & & & & X . # # # #   % = X X X O $ & . * $ . # ",
"      % = = = = = = X . = = = = = = = = #   O & & & & & & X @ # # #   % = X & X * - & # o * & # ",
"      % % . % = = O . O = = = = = O = = # # O & & & & & & & . # # #   % o X & # $ & X # o * & # ",
"      % = = = = = O O o O = = O O O = = # # % & & & & X & & . # # #   O $ X X # # . # # o * & # ",
"      % = = = = = = O O O O O o o o O O # # * & X X . & X & . # # #     $ & X # # # # * = $ X # ",
"      % O % o % % o * $ $ $ % % % % % O # # * . & . X & . X . # # #   o X & X # # # . o % & X # ",
"      % = = = = = = = O O % % % % % o O # # # # # # # # # # # # # #   % X X & * o o o O $ & @ # ",
"      % O * o * % * * $ . . X . X X % o # # # # # # # # # # # # # #     X X & $ * + & $ X X # # ",
"      % = = = = = = = O o % % % % % o o # # # # # # # # # # # # #       # X X X X X X X X @ # # ",
"      % % % . % * $ = * $ $ $ . $ . % o # # # # #                       # # . X & X . . # # # # ",
"      % = = = = = = = O O o o % o % % % # # # # #                         # # # @ . # # # # # # ",
"      % O % * * $ * * $ $ $ $ X $ $ % % # # # # #                           # # # # # # # # #   ",
"      % = = = = = = = = = = = = O o % % # # # # #                             # # # # # # #     ",
"      % = = = = = = = % o X * . * . % % # # # # #                                               ",
"      % = = = = = = = = O = = = O o % % # # # #                                                 ",
"      % = = = = = = = = O % * $ * X % % # # #                                                   ",
"      % = = = = = = = = = O = = = = = = # # #                                                   ",
"      % = = = = = = = = = = = O O O O = # # #                                                   ",
"      % = = = = = = = = = = = = = = = = # # #                                                   ",
"      # # # # # # # # # # # # # # # # # # # #                                                   ",
"        # # # # # # # # # # # # # # # # # # #                                                   "};
