/* XPM */
static char * NewNovellLogo_xpm[] = {
"48 48 7 1",
" 	c grey4",
".	c white",
"X	c grey26",
"o	c red1",
"O	c brown4",
"+	c grey89",
"@	c firebrick3",
"                                               .",
" XXXXXXXXXXXXXXXXXXXXXXXXXXXXXXXXXXXXXXXXXXXXXX.",
" XXXXXXXXXXXXXXXXXXXXXXXXXXXXXXXXXXXXXXXXXXXXXX.",
" XXXXXXXXXXXXXXXXXXXXXXXXXXXXXXXXXXXXXXXXXXXXXX.",
" XXXXXXXXXXXXXXXXXXXXXXXXXXXXXXXXXXXXXXXXXXXXXX.",
" XXXXXXXXXXXXXXXXXXXXXXXXXXXXXXXXXXXXXXXXXXXXXX.",
" XXXXXXXXXXXXXXXXXXXXXXXXXXXXXXXXXXXXXXXXXXXXXX.",
" XXXXXXXXXXXXXXXXXXXXXXXXXXXXXXXXXXXXXXXXXXXXXX.",
" XXXXXXXXXXXXXXXXXXXXXXXXXXXXXXXXXXXXXXXXXXXXXX.",
" XXXXXXXXXXXXXXXXXXXooXXXooXXXooXXXXXooXXXXXoXX.",
" XXXXXXXXXXXXXXXXXXXoXXXXXoXXXXoXXXXXooXXXXXooX.",
" XXXXXXXXXXXXXXXXoXXXXXXXXXXXXXXXXXXXXXXXXXXXoX.",
" XXXXXXXXXXXXXXXooXXX..XXXXXXXXXXXXXXXXXXXXXXXX.",
" XXXXXXXXXXXXXXXXoXXX..XXXXooXXXXX.XXXXXXXOXXXX.",
" XXXXXXXXXXXXXXXXXXX.X.XXXXoXXXXX..+XXXXX@ooXXX.",
" XXXXXXXXXXXooXXXXX.XXX.XXXXXXXXX..XXXXXX@ooXXX.",
" XXXXXXXXXXXooXXX...XXX..XXXXXXXX.XXXXXXXXoXXXX.",
" XXXXXXXXXXXXXXX..+.XXX...XXXX...XXXXXXXXXXXXXX.",
" XXXXXXXooXXXXXX..XXXXX...XXX....XXXXXXXXXXXXXX.",
" XXXXXXoooXXXXX.XXXXXXX...XXX....XXXXXXooXXXXXX.",
" XXXXXXXoXXX...XXXXXXXXXX.XXX....XXXXXXoooXXXXX.",
" XXXXXXXXXXX...XXXXoXXXXXX.XX..XXXXXXXoooXXXXXX.",
" XXXXXXXXXXX.+XXXXoooXXXXX.X..XXXXXXXXXoXXXXXXX.",
" XoXXXXXXXXXXXXXXXoooXXXXX...XXXXXXXXXXXXXXXXXX.",
" oooXXXXXXXXXXXXXXXoXXXXX....XXXXXXXXXXXXXXXXXX.",
" oooXXXoXXXXXXXXXXXXXXXXX....XXXXXXooXXXXXXXXXX.",
" XoXXXoooXXXXXXXXXXXXXXXXX..XXXXXXooooXXXXXXXXX.",
" XXXXXoooXXXXooXXXXXXXXXXXXXXXXXXXooooXXXXXXXXX.",
" XXXXXX@XXXXooooXXXXXXXXXXXXXXXXXXXoooXXXXXXXXX.",
" XXXXXXXXXXXooo@XXXXXXXXXXXXXXXXXXXXXXXXXXXXXXX.",
" XXXXXXXXXXXX@oXXXXXXooXXXXXXXXXXXXXXXXXXXXXXXX.",
" XXXXXXXXXXXXXXXXXXXooooXXXXXXXXXXXXXXXXXXXXXXX.",
" XXXXXXXXXXXXXXXXXXXoooooXXXXXXXXXXXXXXXXXXXXXX.",
" XXXXXXXXXXXXXXXXXXXooooXXXXXXoooXXXXXXXXXXXXXX.",
" XXXXXXXXXXXXXXXXXXXXooXXXXXX@ooooXXXXXXXXXXXXX.",
" XXXXXXXXXXXXXXXXXXXXXXXXXXXXoooooXXXXXXXXXXXXX.",
" XXXXXXXXXXXXXXXXXXXXXXXXXXXXoooooXXXXXXXXXXXXX.",
" XXXXXXXXXXXXXXXXXXXXXXXXXXXX@ooo@XXXXXXXXXXXXX.",
" XXXXXXXXXXXXXXXXXXXXXXXXXXXXXoooXXXXXXXXXXXXXX.",
" XXXXXXXXXXXXXXXXXXXXXXXXXXXXXXXXXXXXXXXXXXXXXX.",
" XXXXXXXXXXXXXXXXXXXXXXXXXXXXXXXXXXXXXXXXXXXXXX.",
" XXXXXXXXXXXXXXXXXXXXXXXXXXXXXXXXXXXXXXXXXXXXXX.",
" XXXXXXXXXXXXXXXXXXXXXXXXXXXXXXXXXXXXXXXXXXXXXX.",
" XXXXXXXXXXXXXXXXXXXXXXXXXXXXXXXXXXXXXXXXXXXXXX.",
" XXXXXXXXXXXXXXXXXXXXXXXXXXXXXXXXXXXXXXXXXXXXXX.",
" XXXXXXXXXXXXXXXXXXXXXXXXXXXXXXXXXXXXXXXXXXXXXX.",
" XXXXXXXXXXXXXXXXXXXXXXXXXXXXXXXXXXXXXXXXXXXXXX.",
"................................................"};
