/* XPM */
static char * ClosedPackageBox_xpm[] = {
"48 48 13 1",
" 	c None",
".	c grey89",
"X	c grey64",
"o	c yellow4",
"O	c grey51",
"+	c grey76",
"@	c orange3",
"#	c brown4",
"$	c grey39",
"%	c grey26",
"&	c grey7",
"*	c grey13",
"=	c grey4",
"                                                ",
"                                                ",
"                        ..                      ",
"                    ..XooOO.                    ",
"                 .+X@@@@@@#@o.                  ",
"             ..+oo$Oo@o@o@@$@oo.                ",
"          .+Xo%$@o@o@@@@@o#@#o$o@.              ",
"       .XXoooOX$&Ooo$@@@@o@oo#ooo$o.            ",
"   .++Xo@@@o@@@@@$%o@@@@#o#@o##@oo%$@           ",
"  XXXXX@ooooooo@O@O%@@@@o@@$@oO%*%%#$$X         ",
"  *oXXoooo@@o@@@o@@o%%#@@o@O$%%$#o#$#$$$+.      ",
"  &%$XXXoooOoo@@o@oO@$%$$$%%%o$$$#$#$%$$%$+     ",
"  *%%$@o@o@o@o@@@o@o@o$$*$#o###o#o#$#$$$#$%$.   ",
"  &%%%%@o@ooooooooo$%$@@O$%#oo$$$o$#$%$$$#%%%$. ",
"  *%%%%%oo@@oo@o$$%@@@@@Ooo&#o#o#o#$$$$$#%%%%%% ",
"  &%%%%%%$ooo$%%Ooooo@o@@#@o%%$oo#$#$%%$%%%o%%& ",
"  *%%%%%%%%$%o@@@o@$@@@o#o#@@O%%#o#$#$$$#$#*=== ",
"  *%%#%#%%*%$oooo@o@o@o@@@@oo#$$%%$%$#$%%&=&=== ",
"  *%#%$%%%*$$O@@@o@oO@@@#o###o#@OO%@#%*&======= ",
"  &%%%%%%$*$$$o@oOo@$@o@o#@@o$o#o#==&&*&&=&&=&= ",
"  *%#%%%#%*%$$$$@o@@@@@@#o#o@o@$**=&*&&*&====== ",
"  &%%%%#%$*$$$$%$@$@o@o@@#@@@%****=**&*&&&&&&&= ",
"  *%%%#%#$*$$$#$#$#o@@@@@@%%******&**&*&&&&=&== ",
"  *#%#%$%$*$$%$#$#$o@@o#%%%%******=*&*&&*&*&&=& ",
"  *%#%#$$$*$#$#$#o#o@$%%%%*%*%****&******&&*&=& ",
"  *%%$%%$$%%$#$#$o$oO%%%%%%%%%****=***&*&*&&&=& ",
"  *%#$##$$*$#$#o#o#o@$%%%%%%%%*%**=******&=*&=& ",
"  O*%%$$$%*#$#$$o$$#O%%%%%%*%%%%**=*******&&&&= ",
"   O*$$$#$*$#o%o#o#o@$%%%%%%%%%%*%=**********&& ",
"    O*$%$#*#o$o$$o$#$%%%%%%%%%%%%%=%******&*&=& ",
"     O*$#$*o%o#$#o#o@$%%%%%%%*%%%%=%******&**&* ",
"      O%$#%$$$$#o#o#$%%#%%%%%%%*%%=%******&**&* ",
"       O*o%o@o#oo#@@@$%%%%%%%%%%%%&%*%*******&* ",
"        O%%$$#$#@#o#oo%%%%%%%%%%%%=%*%******&*% ",
"         O*$#$@#o@@@@$%%%%%%%%%%%*&**%******$XX ",
"          O%o#o@@#o@o$%#%%%%%%%%%%=%%%**&&%+XX  ",
"           O%@@@#@@@@$%%%%%%%%%%%%=%%%*&$XXX    ",
"            O%o#@$@@$$%%%%%%%%%%%%=*&*%XX+      ",
"             O%o@@@@o$#%%%%%#%%%%%**$XXX        ",
"              O%@@o@o$%%%%%%%%%%*&%+XX          ",
"               $%@@@@$#%#%#%%%*&$XXX            ",
"                O%@@o$%#%%%%&*%XX+              ",
"                 O%@oo#%#%*&$XXX                ",
"                  X%o$%%&=%+XX                  ",
"                   O#$*&$XX                     ",
"                    X$%XX                       ",
"                                                ",
"                                                "};
