/* XPM */
static char * PaintBrushSplash_xpm[] = {
"48 48 21 2",
"  	c grey39",
". 	c grey26",
"X 	c grey4",
"o 	c grey7",
"O 	c white",
"+ 	c orange3",
"@ 	c grey76",
"# 	c firebrick3",
"$ 	c blue3",
"% 	c blue1",
"& 	c grey89",
"* 	c grey13",
"= 	c red1",
"- 	c brown4",
"; 	c blue4",
": 	c DarkOrange1",
"> 	c goldenrod1",
", 	c grey51",
"< 	c cyan3",
"1 	c grey64",
"2 	c yellow3",
"  .           . .     . . . . . . . . . . . . . . . . . . . . . . . . . . . . . . .   . . .   . ",
". X X X X X X o X X X X X X X X X X X X X X X X X X X X X X X X X X X X X X X X X X X X X X o O ",
". X + @ # # o $ $ $ $ $ $ $ $ $ $ % $ $ % % % % % % % % $ $ $ $ $ $ $ $ $ $ % % % % % % % % $ O ",
". X + & @ # * $ $ $ $ $ $ $ $ $ $ $ $ $ $ $ $ $ $ $ $ $ $ $ $ $ $ $ $ $ $ $ $ $ $ $ % % % $ % O ",
". X = @ & # - * $ $ $ $ ; $ $ $ $ $ $ $ $ $ $ $ $ $ $ $ $ $ $ $ $ $ $ $ $ $ $ $ $ $ $ $ $ % % O ",
". X # : & @ # * ; $ $ $ $ $ $ $ $ $ $ $ $ $ $ $ $ $ $ $ $ $ $ $ $ $ $ $ $ $ $ $ $ $ $ $ $ $ $ O ",
". X # # : @ # # o $ ; ; ; $ $ $ $ $ ; $ $ ; ; $ $ $ ; ; ; $ $ $ $ $ $ $ $ $ $ $ $ $ $ $ $ $ $ O ",
". X = # : & @ # - ; ; $ ; ; ; ; ; ; ; ; ; ; ; ; ; ; ; ; ; ; ; $ $ $ $ $ $ $ $ $ $ $ $ $ $ $ $ O ",
". X # = # + & + # o ; ; ; ; ; ; ; ; ; ; ; ; ; ; ; ; ; ; ; ; ; $ $ $ $ $ $ $ $ $ $ $ $ $ $ $ $ O ",
". X - # # : @ @ # * * ; ; ; ; ; ; ; ; ; ; ; ; ; ; ; ; ; ; ; ; $ $ $ $ $ $ $ $ $ $ $ $ $ $ $ $ O ",
". X - # = = + @ + # o ; ; ; ; ; ; ; ; ; ; ; ; ; ; ; ; ; ; ; ; ; ; ; $ $ $ $ $ $ $ $ $ $ $ $ $ O ",
". X - - # = # @ @ # * o * * ; ; ; ; ; ; ; ; ; ; ; ; ; ; ; ; ; ; $ $ $ $ $ $ $ $ ; $ $ $ $ $ $ O ",
". X * - - = # > & : - * * * * * ; ; ; ; ; ; ; ; ; ; ; ; ; ; ; ; ; ; ; ; ; ; ; ; ; ; ; $ $ $ $ O ",
". X X * - = # # @ & # * * o * * * * * ; * ; * ; ; ; ; ; ; ; ; ; ; ; ; ; ; ; ; ; ; ; ; ; ; $ $ O ",
". X X X * # # # @ @ # * o o o * ; * o * o * * * * ; ; * ; ; ; ; ; ; ; ; ; ; ; ; ; ; ; ; ; ; ; O ",
". X * X X . # = # + + . X * o X o o X * ; o o * * * * * * ; ; ; ; ; ; ; ; ; ; ; ; ; ; ; ; ; ; O ",
". X X * X X - = # + -   . o X o o o * o * * * : : # * o * ; ; ; ; ; ; ; ; ; ; ; ; ; ; ; ; ; ; O ",
". X X X X * * - - . @ & @ X o X o o X X * o - O O : - X * * ; * ; ; ; * ; ; ; ; ; ; ; ; ; ; ; O ",
". X X X X X X * , < @   . * X o X o o o X X : & & : : * o o * * * * * * * ; ; ; ; ; X X X X o O ",
". X X X X o o 1 1   . @ O & X X X X X o o X + @ & : : * o o o o o X X X o X o o o o o X X o o O ",
". X X X X o * . o , @ & & &   X X X X X o X # > & : # * o o X X o X o o X o X X o X o o o * o O ",
". X X X X * o X . < < @ & O @ X X X X o X o * : O : * X X X o X X X * o o o * # - o o o * X o O ",
". X o X X X * . . . < 1 & & O . X X X X o X X - O # . X X X X o o o o o X * & O # o o X o o o & ",
"  X X X X X o * . . , < @ O & @ X X X * o X X * > # X X X o X X X X o X o # O & : X X o o X o O ",
". X X X X X X X * .   1 @ @ O & . X X X X o X X > + X X X X X X X X X X X # & + # X X X o o X O ",
"  X X X X X X * * . . 1 < @ O O < X - * - - * - & : - * * - * * * * X o X - + # - X X X X X o O ",
". X * - - - - - . * * . 1 1 & O & . # # # # # # + > # - - # # # # # # # = @ # - # # - - - - - O ",
"  X # # = # # : # * * . . < < O & , - : : & + & > : : + - - : : = : : : + @ + - # : # # # # # O ",
". X : : : : : : : # . . * 1 < @ O & * = # : = + > + : : + & > & & O : + 2 : # : : = : : : : : O ",
". X : = : = : = = : * * *   < < O & 1 - # = : : : : : + > + > > O O > & > > & - # : : : : : = O ",
". X : : : : # # > : # X . * 1 < & & & * - : : : : : : > : > > + + + + > > > 2 & > # = # : : = O ",
". X : # & : - : O # - - X . ; < < @ . X X . : : : : : > + > > > > > > > & > + & O : # # + # # & ",
". X = : > & @ & # # # - * - . . . X * * . * . : : : : + > > + > + > > & > 2 > & & & @ & O > # O ",
". X : # - 2 & & = - - # - * o X X * * . * - * - : + + > > + O & > > > > & > O & O & O & + - # O ",
". X : : + > & : - * # # - - * . . X . o - * . * : : : > > & & # X > + > > & + 2 O + - - - # = O ",
". X : = + > & # * - * - - X : X . * o * X . - . - : : > : & & # X + > > > & & 2 & # # # # : : & ",
". X : : > : O - - - - # - * X . X . X - o - # . * : : + > - # * # > > 2 @ & & & > - # # # # : O ",
". X : # : # > + : : * # - X o . X . . X X * + * * - + > > > * . + > 2 > 2 & & : # - # # # # # & ",
". X : + = # + > O & + - - - - : : : . X - * X - - . + : > > > + & + @ 2 > O + + # # # # : = : O ",
". X : = : : > > + > > . - : : + O O - - X . o - . * - > + O : # 2 @ O & + = # = - # = # : : : O ",
". X : = : : : : = : > & 2 & > + > : : . * * . o   - . + & : # # # # - - # - # - # # = : : : : O ",
". X : : : : : = : : : + > + & > : : : @ O + & + > & O > # # - - # - - # # = # # # : : : : : : O ",
". X # : = : : : : : : # = # + : : : = : : & : : = # # : # # - - # # # # # # # : : = : : : : : O ",
". X = = : : : : = = : = : # # : : = = # # # # # # # # - # # + = : # : : : : : : : : : : : : : O ",
"  X # : # = # = : : : : # : # = : : : # # # = # # # # = # : = : # : : : : : = : : + : : : + + O ",
". X # # = = : = = : = : : : = : : : : : : # : = : : = # # : : : : : : : : : : : + > : : > > + O ",
". X : # = # # : # = # : = : # : : : : : : : : : : : : : : : : : : : : : : : : : + + > > > > > O ",
"& O O O & O O O O O O O O O O O O O O O O O O O O O O O O O O O O O & O O O O O O O & & O O O & "};
