/* XPM */
static char * Penguin_xpm[] = {
"48 48 14 1",
" 	c None",
".	c grey64",
"X	c grey51",
"o	c grey39",
"O	c grey13",
"+	c grey4",
"@	c grey26",
"#	c grey7",
"$	c grey76",
"%	c brown4",
"&	c orange3",
"*	c DarkOrange1",
"=	c grey89",
"-	c white",
"                                                ",
"                    .XXX.                       ",
"                  oO+++++@.                     ",
"                .o++X.@+@@#.                    ",
"              X@@+O@XX$+O@O@                    ",
"          .o@%%&%OOO..X++O@#.                   ",
"         o@&***&+##OO#++++O+o                   ",
"         @*&%%++++++++++++#+O                   ",
"         .@@O%%+++++++++++++O                   ",
"              o+++++++++++++O                   ",
"               O+++++X$o+++++o                  ",
"              .+#+++.==.+++#@#.                 ",
"              Oo=$X$===$+++#@#@                 ",
"             o#$=---====X++O@@#.                ",
"             @o=-------=$+@@@@#@                ",
"           .O+.---------.+@OO@@+X               ",
"           @O@.=-------$##@+O@@#O               ",
"          oOX@.=------X#+OO++O@@+X              ",
"         @OX@@.=-----.+#@O+++#@@+O              ",
"        @X$XO@.=-----O#@O+++++O@O+.             ",
"       XO=XXOXX.=---.+@#++++++#@@+o             ",
"       O$.XXO@XX$---@#O++++++++O@+#             ",
"      oX$XXXO@$$.=-=+##+++++o@++@#+X            ",
"      @=XXXXOo$====$++++++++oo++@@+O            ",
"     Xo$XXXX#o=====X++++++++oX+++@++.           ",
"     @.$==..+X=----X++++++#Oo.+++#O+o           ",
"     O$=--$X@.=----X++++++O...O+++@+@           ",
"     +----=.@$=----X+++++#o...O+++O++           ",
"    XO----=$@.=----X+++++O..$$@++++++X          ",
"    X@---==.OX=----$+++++o..=$X++++++@          ",
"    oo--==XXOo=----$++++#o.$==.#+++++@          ",
"    @@==$oX O@$=---=#+++#X.===$@+++++O          ",
"    o@==o.  @@$=----@+++OX.====o++++++.         ",
"    .#=$X   X#.==---o+++OX$====o++++++X         ",
"     +$.     #o$=---=+++@..====XO+++++@         ",
"     O..     oO$=====o++OX.====.@+++++O         ",
"     X@$      OX=====$O+O..====.o#++++O         ",
"      $       o+.=====$Oo.$====$oO+++++         ",
"               O@.==============oO+++++.        ",
"               .++X$============o@+++++X        ",
"                X++o@$==o.=====$Xo#++#Oo        ",
"                 @+@oo..@#.$===$Xo@++O@#.       ",
"             X@@@OX@#oX@O+#X.$$$XX@O++@@Oo      ",
"             #ooo$$.XO#@o+++#@o@@O#+++++#+OX    ",
"             oOo#XXo..@oX.oXo@@oo@.@O+++++++X   ",
"              .@OOO@O@o==$$$$$..Xoo  .Xo@@@@.   ",
"                 ..  .@@@@@@@@OO#Oo             ",
"                                                "};
