/* XPM */
static char * ThreePeopleBehindPencilTablet_xpm[] = {
"48 48 20 2",
"  	c None",
". 	c grey4",
"X 	c grey7",
"o 	c grey13",
"O 	c brown4",
"+ 	c grey26",
"@ 	c firebrick3",
"# 	c DarkOrange1",
"$ 	c grey39",
"% 	c orange3",
"& 	c grey64",
"* 	c grey89",
"= 	c grey76",
"- 	c turquoise4",
"; 	c cyan3",
": 	c grey51",
"> 	c yellow4",
", 	c goldenrod1",
"< 	c white",
"1 	c blue4",
"              . X                           . . X .                         X X X .             ",
"          . X o o o .                     X o o o o .                     X o o o o .           ",
"          X o o o o X                     X o o o o X                   . o o o o o X           ",
"          o o o o o o .                   o o o o o o .                 . o o o o o X           ",
"          o o o o o o .                 X o o o o o o .                 X o o o o o o           ",
"          o o o o o o .                   o o o o o o                   . o o o o o X           ",
"          X o o o X X                     X o o o X X                     X o o o X X           ",
"            X o o X .                       X o o X                         X o X X             ",
"  X X X X X X . X X X X o X o .   X X X X X X . X X o X o X o .   X o X o X X X . . o X o X o   ",
"  X X o o o X . X . X o o o X X   o X o o o X X X X o o o o o .   o o o o o . X . X o o o o o   ",
"  X o X o X o X X . o X o X o X   X o X o X X X X X o X o X o .   X o X o X X X X X o O o X o   ",
"  X X o X o X X X X X o X o X X   o X o X o X X X X X o X o X .   o X o X o X o X X + O o o X   ",
"  X X X o X X X o X X X o X X .   X X X o X X X o X o X o X o .   X o X o X o X X + o X o X o   ",
"  X X o X o X o X o X o X o X X   o X o X o X o X o X o X o X .   o X o X o X o o o o o X o X   ",
"  X X X X X X X X X X X X X X .   X X X X X X X X X X X X X X .   X X X X X O o o . X X X X X   ",
"  X X X X X X X X X X X X X X X   X X X X X X X X X X X X o X .   o X X o @ # O X o X X X o X   ",
"  X X X X X X X X X X X X X X .   X X X X X X X X X X X X X X .   X X o # # O X X X X X X X X   ",
"  X X X X X X X X X X X X X X X   X X o $ X X X X X X X X X X .   X + % % O X X X X X X X X X   ",
"  X X X X X X X X X X X X X X .   + & * & + X X X X X X X X X .   O % + o X X X X X X X X X X   ",
"  X X X X X X X X X X X X X X + = * = & & & - o X X X X X X X X O % + o X X X X X X X X X X X   ",
"  X X X X X X X X X X X X $ = * = & & & & & & & + X X X X X o % % O X X X X X X X X X X X X X   ",
"  X X X X X X X X X X $ * * = & ; & & & & & & = = - o X X o % % + X X X X X X X X X X X X X X   ",
"  . X X X X X X o : * * = ; & & & & & & - = * * * * & + + % O +   X X X X X X X X X X X X X X   ",
"  X X X X X o : * * = = ; & ; & & & & = * * * * * * * > , O + X   X X X X X X X X X X X X X X   ",
"  X X X o & < * = = & ; & & & & & = * * * * * * * * , % O + $ .   X X X X X X X X X X X X X X   ",
"  X + & < = $ & = = ; & ; & & = * < * * * * * * = , % O : = = -   X X X X X X X X X X X X X X   ",
"+ = * = & $ + + : = & & & = * < < * * * * * = & , % O : = = = = & $ X X X X X X X X X X X X X   ",
"* * = : o - $ + o - ; = < < < < < * * * = - & , > O = = = = = & - - - o . X X X X X X X X .     ",
"X = * = & o $ : : = * < < < < * < * = & & > , % + & = = = = & - & & & : $ X X . X X X . X       ",
"    : < * & : = < < < < < < < * * & & = , % @ + = = = = & - = & = & & & & - + X X X X X X       ",
"      + * * & * < < < < < * = & & = * , # O $ = = = & - & = & & & & & & & - - $ X . X . X       ",
"      X o & < = = < < < * & ; = * * > # O : * = & - & = = & = & & & & : - : & : - + . X .       ",
"      . X . $ * = = = = & = * * * > O $ & = & - & = = = & = & & & & - & : & : : : : $ X X       ",
"      X . X . + * * ; & * * * * & O : * = - & = = = = & = & & & - - & & & : & : : : : - + .     ",
"      . X . X . X & * = & * * & X + : & & = = = = = & = & & - : & & : & : : : : : : $ - - $ X   ",
"      . . X . X . X $ * = - = * = $ o o : & = = = = = & - - & & & & & : & : : : : - - - - - - X ",
"      . X . X . . . X o = * & & & = = & $ + + : & & : - : & & & & & : & : : - - $ - $ $ 1 + X   ",
"      . . X . . . X . X . : < & & = = = = & : $ + + : & & & & & & : & : : - - - - $ - $ o .     ",
"      . X . X . . . X . X . + * = & & = = = & : - $ $ $ $ : : & : & : : - - $ - $ $ o . X       ",
"      . . . . .   . . . . .   o = * - & = - - & = & & : $ $ : : : - - - - - - - o . . . .       ",
"      . X . X .   . X . X .       : < & - & & & & & & & : : $ $ $ $ $ $ $ $ + . . . X . X       ",
"      . . . . .   . . . . .         + * = - & & & & & & & : - - $ 1 $ 1 + X . . . . . . .       ",
"      . . . X .   . X . . .           X = * : & & & & & - - - - - - $ o . . X . . . X . .       ",
"  . . . . . . .   . . . . . .     . . . . $ < & - : : - - - - - - + . . . . . . . . . . . . .   ",
". . . . . . . .   . . . . . . . . . . . . . + * = - - - - - - + X . . . . . . . . . . . . . . . ",
"                                              X = * - - - $ o                                   ",
"                                                  : * & o                                       ",
"                                                    o $                                         "};
