/* XPM */
static char * PhoneTTOffhook_xpm[] = {
"48 48 12 1",
" 	s None	c None",
".	c grey64",
"X	c turquoise4",
"o	c grey39",
"O	c grey51",
"+	c grey26",
"@	c grey13",
"#	c grey7",
"$	c grey4",
"%	c grey76",
"&	c grey89",
"*	c white",
"                                                ",
"                                                ",
"                  ......XXXooooooooooOOOOO      ",
"                ..XXoX..Xo+@@@#$#@@++oO@$++$    ",
"              ...OOOo+@##$$$$$$$$@@+oX+$$#o$o   ",
"            .OOXoo+@@$$$$$$#@@+++oooXX$$$$++$   ",
"          %o.Xo++@@$$#@+++@$$$$$$$+X.+$$$$#++$  ",
"         +OOooo+@$@++@$$$$++++++++$$$@$$$$#+o$  ",
"        oo$$$@o+$#@$$$+            #++@+@+++++$ ",
"        .@$$$$#+@@$$                @$$$$$$$$$$ ",
"       oOo$$$$$@+$$                 @$$$$$$$$$$ ",
"      O$%o$$$$$$+$                  +$$$$$$$$$$ ",
"    $$$@%o@$$$$$@+  .                $$$$$$$$#+ ",
"    #$  .o@$$$$@+o  $$$         $$$     OOOOo   ",
"   @ +  .o++++@@$$  $$$+++++++++$$$             ",
"  +$# o ..oo+$$$$$@ $$$$$$$$$$$$$$$             ",
"   .$#O  o#$$$$$$$@$$$$$$$$$$$$$$$$             ",
" o$ o   +$$$$$$$O$%$$$$$$$$$$$$$$$$$            ",
" $$$ O  $$$$$$O  #$$$$$$$$$$$$$$$$$$$o          ",
" + @$    $$+    @$@####$$$$$$$$$$$$$$$$         ",
" $+ $          +%........O.OOoOO++++++$$        ",
"o @$$          O.XXooo...O..X.%.++++++@$        ",
" + o$         %&OXOoOo.oOo.Ooo.O+++++++$        ",
"@@$ $         @&XXOooo.oooOO+oOO+++++++$+       ",
"   #$         o&oOOooX.OXo.XoXoo+++++++$$       ",
" $            O.oXOooXo+++o++ooo+++++++@$       ",
" $$$$         &.oooooO.Xoo.Xoo.o+++++@+@$       ",
"    @        +%.OoOooXOo+o+@+oo++++++++@$O      ",
" $@@@        O&XXooooO..oO.Ooo.Oo++++++@$$      ",
" $+ o         &OXooooOoo+oo++oO+o++@++@+$$      ",
" # +$$o     +.%oOooooo++++@@++@@+++++++@$$      ",
"  O$  +#$$+O$%%oooooooo........+@++@+@@@$$      ",
"     $ .$ +$.*&.ooooooo&&&&&&&*o@@@@@@@+o$      ",
"   o$+  $Oo$.&&.OO.....%........OOOOOoOO.+$     ",
"     @++$++$%&&O@@@+++@@@@@@@@@@@@@+@@oo.o$     ",
"       + $$$%&%o$$$$$$$$$$$$$$$$$$$$$$@o.X#     ",
"           ..*.+$$$$$$$$$$$$$$$$$$$$$$@+.$$#    ",
"           ..&X+$$$$$$$$$$$$$$$$$$$$$$@+X%+o    ",
"           OO&X@$$$$$$$$$$$$$$$$$$$$$$@+oX+     ",
"           &+++@$$$$$$$$$$$$$$$$$$$$$$@@+@$     ",
"            &%#$$$$$$$$$$$$$$$$$$$$$$$$$$$%     ",
"                                                ",
"                                                ",
"                                                ",
"                                                ",
"                                                ",
"                                                ",
"                                                "};
