/* XPM */
static char * PhoneTT_xpm[] = {
"48 48 11 1",
" 	s None	c None",
".	c grey7",
"X	c grey26",
"o	c grey51",
"O	c grey13",
"+	c grey64",
"@	c grey76",
"#	c grey39",
"$	c turquoise4",
"%	c grey4",
"&	c grey89",
"                                                ",
"                                                ",
"                                                ",
"                                                ",
"                     .XoooooooooXo              ",
"                Ooo+@@++++++++++++@@+o#O        ",
"            Xo+@+o#X#X#XXXXXOXXXXXXX#$o+@@+.    ",
"         O++o####XXXOO...%.%.%.%.%OOXXX##o#X%   ",
"        %+#OX##XXXOO.%%%%%%%%%%%%%.OXX###OOX.   ",
"        X#.%%OXXO..O%%XXXXXXXXXXO%OXX###.%.XX%  ",
"        oX.%%%.XO.X%%%%%%%%%%%%%%%%o##oO%%%OX.  ",
"    .%%O@X.%%%%OOX.%%%%         %%%%$o$%%%%.X.  ",
"   O+.%#+X.%%%%OXO%%%%%%%%%%%%%%%%%%%@O%%%%.XXO ",
"  .%+o%ooX.%%%%%X% %%%%%%%%%%%%%%%%%%XO.....OXX ",
"  X.%+X+oXO%%%%%O%%%%%%%%%%%%%%%%%%% OOOXXXXXXX ",
"  #@...+o#XO...OX%%%%%%%%%%%%%%%%%%%%%%%%%..OXX ",
" .%#+. @o##XXOO.%%%%%%%%%%%%%%%%%%%%%%%%%%%%%%% ",
" #.%XO $#O.%%%%OXXXXXOXOOXOOXOOX.....%.%%%%%%%% ",
" #@X%  %%%%%%%X&+oooo$@Xo+O$+O$+OOXXXXO%%%%%%%% ",
".%.+%  %%%%%%%#@$$$#$#OO#OO#OOXOOXXXXXX%%%%%%%% ",
"X@O%   %%%%%%%++$$$$o#o##$##$XX$XXXXXXX.%       ",
"%#@#   %%%    ++o$$o$$@Oo+O$+Oo+OOXXXXX%%       ",
"#..X          @o$$$$##OX#OO#OOXOOXXXXXXO%       ",
"o@oO         X&o$$$###o##$#X$XX$XXXXXXXO%       ",
"%.Xo%        #@$$$o$#$@O$+O$+Oo+OXXXXXXO%%      ",
"oXX%%        o@$$o$###OO#OO#OOXOOXXXXXXO.%      ",
"#ooX         @+$$$o$##$##$#XoXX$XXXXXXXX%%      ",
"%%%O        .&+$$o$##$@O$+O$+Oo+OOXXXXOO.%      ",
"X#++O       X&+$$$o###OO#OO#OOXOOXXXXXXOO%%     ",
"X#O%%%    %%o&oo$#$########X#XXXXXXXXOOOO%%     ",
" .O#@#O.OO%.+@+$$$#####@+@+@+@+XXXXXXXOOO.%     ",
" O++.#+Ooo%#&&@o$######&&&&&&&&#XXXXXOOOXX%%    ",
"  .%O++XXo%X&&@++o$########XXXXXXXXX###+o#%%    ",
"  %%oo+XXo%#&&+XXoooooooooooooooooooo##Xo$O%    ",
"    %%X%.O%o&@+X%%%%%%%%%%%%%%%%%%%%%.OXo+O%    ",
"       %%%%o&@oO.%%%%%%%%%%%%%%%%%%%%%OX$+#%    ",
"         %%+&@#O%%%%%%%%%%%%%%%%%%%%%%OX#+o%    ",
"         %%+&+X.%%%%%%%%%%%%%%%%%%%%%%.X#$o%    ",
"         %%X@+X.%%%%%%%%%%%%%%%%%%%%%%OX#oX     ",
"          %.##X%%%%%%%%%%%%%%%%%%%%%%%.OX#      ",
"           %%%%%%%%%%%%%%%%%%%%%%%%%%%%%        ",
"            %%%%%%%%%%%%%%%%%%%%%%%%%%%         ",
"             %%%%%%%%%%%%%%%%%%%%%%%%           ",
"                                                ",
"                                                ",
"                                                ",
"                                                ",
"                                                "};
