/* XPM */
static char * pillars_xpm[] = {
"48 48 20 1",
" 	c grey4",
".	c blue4",
"X	c blue3",
"o	c blue1",
"O	c cyan3",
"+	c grey13",
"@	c grey7",
"#	c orange3",
"$	c yellow3",
"%	c white",
"&	c grey89",
"*	c goldenrod1",
"=	c yellow4",
"-	c brown4",
";	c grey39",
":	c grey26",
">	c grey76",
",	c grey51",
"<	c grey64",
"1	c DarkOrange1",
"                                                ",
" ..XXXXXXXXXXoXoXoXXOXXXXXXXXXXXXXXXXXXoXXXXXXX ",
" .XXXXXXXXXXoXXXoXXXXXXXXXXXXXXXXXXXXXXXXXXXXXX ",
" XXXXXXXXXXoXXXoXXXoXXXXXXoXXXXXXXooXoXXXoXXXXX ",
" X++++++++++++@++oXXXXXXoXXXXXXoXXXoXXoXXXXXXXX ",
" X+#$$%%$$$&*#=-+oXXXXXXoXXXXoXXoXXXXXXXXXooXoX ",
" X+**$%%$$$$###;+oXXXXXooXoXXXXXXXooXoXXXoXXXXX ",
" X+++++:+:+:+@+++XXXXXXXXXoXoXXXXXXXXXoXXoXoXXX ",
" XX+#$$%%$&*#=-+XXXXXXoXoXoXXXXXXXXXXXXXXoXXXXX ",
" XX+**$%%$$##-;+XoXXoXoXoXXoooXXoXXoXXXXXXXoXXX ",
" XX+++++++++@+@+XXXXoXXXXXXoooXooXXXXoXoXXXXoXo ",
" XXX+#=%=&=#=-+XXXXXXoXXoXXoXoXooXXoXoXXXXoXXoX ",
" XXX+++++++++++XXXXXXoXooXoXXXXXXXXXXXXXXoXXoXo ",
" XXX+#$&$#*#=;+XXoXXXXXooXXXXXoXXXXXoXXXooXoXoX ",
" XXX+*$$$*###;+XXXXXXXXXXXXXoXoXXoXXoXXXoXXooXX ",
" XXX+%$$$:*#=:+XXXoXXXXXooXXXXXXXXXXXXXoXXXoXoX ",
" XXX+*%$+*%#+=+XXoXXoXXXXXoXXoXXXXoXXXXoXXXooXo ",
" XXX+#%&+#%#+-+XXXXXXXXXXoXXXXXooXXXXXXXXXXXXXX ",
" XXX+*%$+*%#+=+XXXXXXXXXXXXXXXXXXXXXXXXXXXXXoXo ",
" XXX+#%$+#%#+-+XXX:::::::::::::::::::::::::::XX ",
" XXX+*%$+*%#+=+XXX:###>&&&&&&&>>########---::XX ",
" XXX+#%&+#%#+-+X:                               ",
" XXX+*%$+*%#+=@ +,###*>&&&&&&%&&&&&&>#########- ",
" XXX+#%$+#%#+; :#;::;;>&&&&&%&%&&&&&*>####=-+:; ",
" XXX+*%$+*%#+ +#+:,<;  +:;<&&&&&&&&*##;+@  :--+ ",
" XXX+#%&+#%#+ #-:#,;><@<+@  +:+;;:+:   +#@=#;-# ",
" XXX+*%$+*%#@ # #;:;@&:<;+;@; -:+ -@- @:#+#@::+ ",
" XXX+#%$+#%# :# *@=&+<;;<@&+&+&+*+#+#++-=:#@#,  ",
" XXX+*%$+*%#@ # #;:,@&:<;+@+@+@+@+@+@++;#+# -:+ ",
" XXX+#%&+#%#+ #:;>;:<<@>:;&&&>*#######;+#@--::- ",
" XXX+*%$+*%#+ :#+:<<, << +@+@+@+@+@+@+@ ;- :-;+ ",
" XXX+#%$+#%#+: ,#;:::>>+;:&+&+&+*+#+#+#- ;#:+@: ",
" XXX+*%$+*%#+=@ :<>&<; :#:&+&+&+>+#+#+#+: :---- ",
" XXX+#%&+#%#+-+X+    @@@@@@@@@@@@@@@@@@@@@      ",
" XXX+*%$+*%#+=+XXXX.+:-###>&&&>###---:+++@@@..X ",
" XXX+#%$+#%#+-+oXXXX+-####&&&&><###-;:+++@ @XXX ",
" .XX+*%$+*%#+=+XXXXX:-####&&&&>=##---:+++ @ XXX ",
"                  XX:-#@ >&<  <&#@ :<:@@:+ @XXX ",
" %%%&$&&&***#***# .X:-+@#%%+@<&%; -,%:+++#@ XXX ",
"                     @ +#&%@+&&%:@#-%:@++# @XX. ",
" ***#***###*1########-: +>%+@&&%: --%:@++#@ X.. ",
" &*******###*1########=#+@>@+&&%:@#-%:@++# @.X. ",
" *******#*#*###-++    -#-++@@&&%: --%:+++#@ ... ",
" &*******### @   +##=: +#- @+&&%:@#-%:@++# @... ",
" *&*#=#;:   +## -#####- :#: @&&%: --%:@++#@ ... ",
"       ::## #*::##   :#: -- +&&%:@#-%:@++# @... ",
" <<<&&**#*# #* ## :#- -# :- @&&%: --%:+++#@ ... ",
"                                                "};
