/* XPM */
static char * PlainTextOnPaper_xpm[] = {
"48 48 7 1",
" 	c None",
".	c grey26",
"X	c white",
"o	c grey4",
"O	c grey13",
"+	c blue4",
"@	c magenta4",
"                                                ",
"                                                ",
"  ..........................................    ",
"  .XXXXXXXXXXXXXXXXXXXXXXXXXXXXXXXXXXXXXXXXoO   ",
"  .XXXXXXXXXXXXXXXXXXXXXXXXXXXXXXXXXXXXXXXXoO.  ",
"  .XXXXXXXXXXXXXXXXXXXXXXXXXXXXXXXXXXXXXXXXoO.  ",
"  .XXXXXXXXXXXXXXXXXXXXXXXXXXXXXXXXXXXXXXXXoO.  ",
"  .XXXXXXXXXXXXXXXXXXXXXXXXXXXXXXXXXXXXXXXXoO.  ",
"  .XXX++X++++XX+++++X+++++X+++++X++++XXXXXXoO.  ",
"  .XXXXXXXXXXXXXXXXXXXXXXXXXXXXXXXXXXXXXXXXoO.  ",
"  .XXX+++++++X++X++++++++++XXXXXXXXXXXXXXXXoO.  ",
"  .XXXXXXXXXXXXXXXXXXXXXXXXXXXXXXXXXXXXXXXXoO.  ",
"  .XXX+++++X+++++++++++X+++++++++++++++++XXoO.  ",
"  .XXXXXXXXXXXXXXXXXXXXXXXXXXXXXXXXXXXXXXXXoO.  ",
"  .XXXXXX++++++++++X+++++++++X++++XX+XXXXXXoO.  ",
"  .XXXXXXXXXXXXXXXXXXXXXXXXXXXXXXXXXXXXXXXXoO.  ",
"  .XXX++++++++++++++++X+++++++++++X++++XXXXoO.  ",
"  .XXXXXXXXXXXXXXXXXXXXXXXXXXXXXXXXXXXXXXXXoO.  ",
"  .XXX++X+++X++++++++++@X++++XXXXXXXXXXXXXXoO.  ",
"  .XXXXXXXXXXXXXXXXXXXXXXXXXXXXXXXXXXXXXXXXoO.  ",
"  .XXX++++++@X+XXX++XX+++++++++++X+++++XXXXoO.  ",
"  .XXXXXXXXXXXXXXXXXXXXXXXXXXXXXXXXXXXXXXXXoO.  ",
"  .XXX++X+++++X+++++X+++++++++++++++XXXXXXXoO.  ",
"  .XXXXXXXXXXXXXXXXXXXXXXXXXXXXXXXXXXXXXXXXoO.  ",
"  .XXX+++++++++++++++++++X+++++X+++X+++++XXoO.  ",
"  .XXXXXXXXXXXXXXXXXXXXXXXXXXXXXXXXXXXXXXXXoO.  ",
"  .XXXOOOOOOOOOOXXOOXXXXXXXXXXXXXXXXXXXXXXXoO.  ",
"  .XXXXXXXXXXXXXXXXXXXXXXXXXXXXXXXXXXXXXXXXoO.  ",
"  .XXXXXXXXXOOXOOOOOOOOOXOOOOOXXXXXXXXXXXXXoO.  ",
"  .XXXXXXXXXXXXXXXXXXXXXXXXXXXXXXXXXXXXXXXXoO.  ",
"  .XXX++++++++++X+++++++++++++++OXX+++XXXXXoO.  ",
"  .XXXXXXXXXXXXXXXXXXXXXXXXXXXXXXXXXXXXXXXXoO.  ",
"  .XXXOoOoXoOoOoOoXXX+++XXXXXXXXXXXXXXXXXXXoO.  ",
"  .XXXXXXXXXXXXXXXXXXXXXXXXXXXXXXXXXXXXXXXXoO.  ",
"  .XXX+++X+++++X++++++XooXXXXXXXXXXXXXXXXXXoO.  ",
"  .XXXXXXXXXXXXXXXXXXXXXXXXXXXXXXXXXXXXXXXXoO.  ",
"  .XXXXXXXXX++++X++++++X++++++X++++++oXXXXXoO.  ",
"  .XXXXXXXXXXXXXXXXXXXXXXXXXXXXXXXXXXXXXXXXoO.  ",
"  .XXXoX+++++++++++++++++XooXoooX+++++++XXXoO.  ",
"  .XXXXXXXXXXXXXXXXXXXXXXXXXXXXXXXXXXXXXXXXoO.  ",
"  .XXXXXXXXXXXXXXXXXXXXXXXXXXXXXXXXXXXXXXXXoO.  ",
"  .XXXXXXXXXXXXXXXXXXXXXXXXXXXXXXXXXXXXXXXXoO.  ",
"  .XXXXXXXXXXXXXXXXXXXXXXXXXXXXXXXXXXXXXXXXoO.  ",
"  .oooooooooooooooooooooooooooooooooooooooooO.  ",
"   OOOOOOOOOOOOOOOOOOOOOOOOOOOOOOOOOOOOOOOOOO.  ",
"    ..........................................  ",
"                                                ",
"                                                "};
