/* XPM */
static char * PrinterHP_xpm[] = {
"48 48 11 1",
" 	c None",
".	c grey76",
"X	c grey89",
"o	c grey64",
"O	c white",
"+	c grey39",
"@	c grey51",
"#	c grey4",
"$	c grey13",
"%	c grey26",
"&	c grey7",
"                                                ",
"                                                ",
"                  .XXX.o                        ",
"                 .XOOOOOX.o                     ",
"                .XX+@XOOOOOX..                  ",
"               .OX+##$%@..OOOOXX.               ",
"              .XX@&#&####$+..XOOOOX..           ",
"             .OO+#$&@&&%###&$+o.XXOOOX..        ",
"            XO.%&&$&@@++$#%$###&$+.OOOOOXX.o    ",
"           Oo%&&$$$#%++o@+o@&&%##&%X.+.OOOXOXo+&",
"         X.+$&%+@@@@+%%%++oo++o@&$.o##&$+.OO.+$&",
"      OX@++@oXOOXXOOX.o@+%%++@.@+o.####@@&$X+$$&",
"   OO.++@.XOOOXXXXOXXXX..o@%+%$%.Xo@$$###&O%$&$&",
" XO.o@++%@.XOOOOOXXXXOXXXX...+%oOOOOOoo$%O@$&%$#",
" XOOOO.o@+%+@.XXOOOXXXX.o+%$&@XXOOOOOOOOX@&$$$$&",
" XOXXXOO..o@+%+@.XXOX.@+$&$+.XXXXXXXOOOO@&%$$$&#",
" OXXXXXXOXO.o@@+%%@@%&$&$+.XX.......XX.+$$%$$%%#",
" O.XXXXXXXXOXX...@+$&&$+.XX........X.o%%%$&%%%%#",
" X.....XXXX.XOOOOXX@++o.XX.........o+$$$$$$%%%%#",
" OX...o...XXXX..OOOO.o..oo..oo...o@%$$&&$%%%%%%#",
" OX.XXX..oo.XXX....OOXOXX..ooo.o@+$$$$$$%+%%$%%#",
" OXoXOXXX..oo..X....XOXOOX....@%%$&%&$%%%%%%%%%#",
" OX.XX.XXXOX.ooo..X....XOOOOo+%&&$$&%%%%%%$%%%%#",
" OXoXXXX.XXXXX..ooo......ooX+&$$$&&+%%%%%%%%%%%&",
" OXoOXXXXXXX..OOX.@o.o...o..%%$&&$%%%%$%%%$%%%$#",
" OX@X.XX...XX....XOX.@oo.oo.&&&$%+%%%$$%%%$$%%%&",
" OX+@@oXXX..........X.Xooooo&&$%%%$%$$$%%%$%%%%&",
" XX+.o@@@.XXX.....o..@XXX.oo$%%%%$$%%%%%$%%+%$$&",
" XX+OO.@@@+o.X.......oX...XX+%%%%%$%%%%%%%%%$&&&",
" .X+XXXXO.+@@oo......+.o....$$$$%%%$%$%%%%%&&&$$",
" %%+XXX.XXOXo@+@o..o.@X.ooo@&%%$$$$%$%%%%$$&&$%%",
"   &+@.X...XXX.++@o..@Xooooo$%%%%%%%%%%%%&#&$%+ ",
"     $$+o.....XXXo+++@X.ooo@%%%$$%%%%%%&#&$%%   ",
"        %+@.....XXOo@+.ooooo%%%%%%%%%&&&&$%     ",
"          &%+....o.XX+.@o@oo%%%%%%%%&&&$%+      ",
"            &$+@.o..o+Xoo@oo%$$%%%%&&&$%        ",
"              &&%+o@o%Xooo@o%%%%$$&&&%          ",
"        OXXOOO.@+$$+o+.oo@@@%%%%&&&&%           ",
"       OOXXXXXXX.@+#%%o@oo@@%%$$&$$             ",
"      OOXXOXXXXXX..++%%$+@o@%$&&&               ",
"     OXXXXXX.XXXX.o+..@%$$&&&&&$                ",
"    OOOXXXXXXX...o+@.    $&$&&                  ",
"   XOOXXXXXXXX.X.@+oX                           ",
"  XXOXOXXXX.X...o++.X                           ",
"  XXXXXX.XXX....o@.X.                           ",
" ++%%%+%%%%%%%%+%+.X.                           ",
"    @.XXXXXXXX....X.o                           ",
"    +++%%+%%%%+++%+++                           "};
