/* XPM */
static char * GoldenSatelliteDish_xpm[] = {
"48 48 11 2",
"  	c None",
". 	c grey26",
"X 	c grey13",
"o 	c yellow4",
"O 	c grey39",
"+ 	c orange3",
"@ 	c yellow3",
"# 	c goldenrod1",
"$ 	c yellow1",
"% 	c grey4",
"& 	c grey7",
"                          . . X X X                                                             ",
"                        . X o . . O X .                                                         ",
"                        . o . . . O o . .                                                       ",
"                        . + . . O O o o . .                                                     ",
"                        . o o O O o o o o . .                                                   ",
"                      . o + + O o o o o o o O .                                                 ",
"                      . o o @ o o o o o o o + .                                                 ",
"                      . o o # o o o o o o + + o .                                               ",
"                      . o o @ + o o o o + + o + o .                                             ",
"                      . o o + @ o @ @ # @ # + # # + .                                           ",
"                      O o o o @ o @ @ @ $ $ $ $ $ $ o o o O O O O O O O O O . O O               ",
"                      O o o o + + O o o + o # # @ @ @ @ @ $ $ $ $ @ @ @ o $ @ $ @ .             ",
"                      O O o o + @ o O o o + # # # # # # X X X O O o @ $ $ @ @ @ # .             ",
"                      O . o o o @ o o O + + # # # # # # +         X @ $ @ # # # o .             ",
"                      O . O o o o @ o o O o # # # # # # # .       o # @ + # o o X .             ",
"                      . . O o o o @ o + o o # # # # # # # # . . o # + o o o . X .               ",
"                      . . O o o o o @ + o o o # # # # # # # o o O O o O O . O .                 ",
"                        . . o o o o @ o o o o o # # # # # # o X o O % % X @ o .                 ",
"                        . . o o o o o @ o + # o o # # @ o o # # X       O $ X                   ",
"                        . . O o o o o @ # # # @ @ o o o # # # @ .       O o .                   ",
"                        X . . o o o o o # @ @ o o o o o # o # # @ O   . @ .                     ",
"                          . . o o o o o o o o # # # # o O + # # # O   O @ .                     ",
"                          . . O O . o o o # # # # # # + o o o + @ @ O # O                       ",
"                          . . O X o o o o o # # # # # # # o o o o o O @ .                       ",
"                          X O X X o o o O O o # # # # # # # # # o o @ o                         ",
"                        . o . X X o o o O O o # # # # # # # # # # o # O                         ",
"                    . o + o . X O o o o o O O o # # # # # # # # # o @ O                         ",
"                  . # o + o o o o o o o o O O O + # # # # # # # o # O o .                       ",
"                O o o o o o o O o + + o o O O O o o # # # # # # o @ O o .                       ",
"              o o o o o o . . . o + + o o O O O O o o o o o o o # O + @ o                       ",
"              o o o o o o . X O o o + + o o O O O O o o o o o o # O # @ o .                     ",
"              o o o o O o O o o o . o + + o o O O O O o # # o # O # @ o o .                     ",
"              o o o o o o o o o o . X o + + o O O O O O o # o # O + o o @ .                     ",
"              o o o o o o o o o o o . X o + + o o O O . O o # # o o o # # .                     ",
"              o o o + o o o O . . . . . . o + + o o O . . o o o o + # # # # .                   ",
"              o o o o o o O O . . . . . . . . o + + o O . . o o # # # # # # .                   ",
"              o o o o o o . . . . . . . . X X X X o o + o O O O + # # # # # .                   ",
"              o o o o o o O . . . . . . . X X     X X X o o . . O o # # # # .                   ",
"              o O o o o o o . . . . . . . X X X X       X X X X . . o # # # .                   ",
"              o O o o o o o . . . . . . . X . . X X X           X X X . o + .                   ",
"              o O o o o o o . . . . . . . . . . . . . X X             X X X                     ",
"              o O o o o o o . . . . . . O O O . . . . . . X X                                   ",
"              o O o o o o o O . . . . . O O O O O . . . . . . . X                               ",
"              o O o o o o o O . . . . . O O O O O O O . . . . . . . X                           ",
"              o O o o o o o o o . . . . O O O O O O O O O . . . . . . .                         ",
"                . o o o o o o o o . . . O O O O O O O O O O O . . . . .                         ",
"                . o o o o o o o o O . X X . . O O O O O O O O O O . . X                         ",
"                  X X X . . . . X X %         % % & X X . . . O O O O &                         "};
