/* XPM */
static char * radio_xpm[] = {
"48 48 12 1",
" 	s None	c None",
".	c orange3",
"X	c grey76",
"o	c brown4",
"O	c grey64",
"+	c goldenrod1",
"@	c grey4",
"#	c grey13",
"$	c grey26",
"%	c yellow4",
"&	c grey39",
"*	c grey7",
"                                                ",
"                                                ",
"                                                ",
"                                                ",
"     ...X..X...........ooooooooooooooooo..      ",
"   X...................ooooooooooooooooooooooo  ",
" O.......ooo.X................ooooooooooooooooo ",
"O...+...ooooooooooooooooo......ooooooooooooooooo",
".O+++++.ooooo@###$$$$$$$o$ooo...oooooooooooooooo",
"OO+++++.ooooo@@$$$$#$$#$$$$$$#o...oooooooooooooo",
".O+++++.ooooo@#oo$$$$oo$o$$%$$o....ooooooooooooo",
".O+++++.ooooo@@#$$$$##$$$$$$o%o...oooooooooooooo",
".O+++++.ooooo@#$o$$o$$&$$oo$$oo...oooooooooooooo",
".O+++++.ooooo@#$#o$#$$#$$$$oo%o..ooooooooooooooo",
".O+++++.ooooo@#$$$$$$$$oo$$o$$o..ooooooooooooooo",
".O+++++.ooooo@@#o##$##$$#o$$$....ooooooooooooooo",
".O++++..ooooo@$$$$$o$$o$#o$$$o...ooooooooooooooo",
".O++++..ooooo@$$#$o#o$$$$$$%o....ooooooooooooooo",
".O+++++.ooooo#$%%%$$.$$$o$$o$$...ooooooooooooooo",
".O+++++.ooooo#$$.$$o$$%o$o%oo%...ooooooooooooooo",
".O+++++.ooooo#%o.%o.$$.o$o$#$....ooooooooooooooo",
".O+++++.ooooo$.oo.$$%$$$$&%oo....ooooooooooooooo",
".O+++++.oooo......oooo%.%$oo$o...ooooooooooooooo",
".O++##..oooo.X..................oooooooooooooooo",
".O+$**oXoooo.....................ooooooooo#ooooo",
".O+***#.oooo#$$$$o.oooooooo.....oooooooooo#ooooo",
".O+**@#..ooo#o%oo$$$$###$$$$oo..oooooooooo#ooooo",
"OO+Oo##..ooo#$o%%..%ooo&$o$$$o..&#$ooooooo#ooooo",
"OO+++O...ooo###@#####$$$$o&o$o.o#**#oooooo#ooooo",
".O+++.O..ooo#%oo$$$$#########o..#**#oooooo#ooooo",
".O+++..O.ooo#%.%%.%.%.ooo$o$#o..&$#$oooooo###ooo",
".O++##...ooo#..%..%.%..%.%.%o...oooooooooo###ooo",
".O+$@@$..ooo$..%%%....%%oooo$.......oooooo###ooo",
".O+$**#o.oo++....oo%%ooo%%oo%...oooooooooo####oo",
".O+.o##o.++++++++++++....oooo...oooooooooo#####o",
"o....ooo.+.++++++++.++++++++++..o###oooooo######",
"oooooooo...........++...+++++...o#*#$ooooo######",
" ooooooooooooo................o.o$##$ooooo######",
"      oooooooooooooooooooooooooooo$$oooooo##### ",
"            oooooooooooooooooooooooooooooo####  ",
"                  oooooooooooooooooooooooo###   ",
"                         .oooooooooooooooo##    ",
"                                .ooooooo#oo     ",
"                                                ",
"                                                ",
"                                                ",
"                                                ",
"                                                "};
