/* XPM */
static char * ModernTrashRecycleFull_xpm[] = {
"48 48 10 1",
" 	c None",
".	c grey76",
"X	c grey64",
"o	c grey39",
"O	c white",
"+	c grey89",
"@	c yellow4",
"#	c LimeGreen",
"$	c ForestGreen",
"%	c grey51",
"            ......XXXXX    XXXXX                ",
"         ...XoXXX.OOO++. XXOOO+.XX              ",
"      ...XoooXO.OOOOOO+.XOOOOOO+..X             ",
"  ....XoooO+XOX.OOOOOO+X.OOOOOOO+.X             ",
" .XXooooOOO+XOX.OOOOOO+X.OOOOXXOO+.X            ",
" X...XoOOO++.XOX.OOOOO+X.OOOXO.oO+.X            ",
" X......X+++.XOOX.OOOO+XXXOOXOO.oO.X.           ",
" X.........X.XOOOX.OOO+XXXXXOOO+.XXX....        ",
" X............X++OX.OO+XXXXXOOOO+..XXX.....     ",
" X...............X+X.++XXXoOOOOOO+..oOoO..@X@o  ",
" X..................X.+XXoOOOOOOOO+..XOO@X@ooo  ",
"  X....................XX.OOOOOOOO+..X@X@ooooo  ",
"  X.......................XOOOOOOO++@X@ooooooo  ",
"  X..........................OOOOO@X@ooooooooo  ",
"  X.............................@X@ooooooooooo  ",
"  X.............................@oooooooooooo   ",
"   X.......##$$$$..............X@oooooooooooo   ",
"   X.......$$$$$$$$............Xooooooooooooo   ",
"   X.....$$....#$$$$$.$........Xooooooooooooo   ",
"   X....#$$......$$$$$$$.......%oooooooooooo    ",
"   X...#$$$$......$$$$$$.......@oooooooooooo    ",
"    X..$$$$$$......#$$$$.......@oooooooooooo    ",
"    X....$$$$......$$$$$.......@oooooooooooo    ",
"    X....$$#$.....$$$$$$......Xoooooooooooo     ",
"    X....$$$.......$$$$$......Xoooooooooooo     ",
"    X....$$@..................%oooooooooooo     ",
"     X....$$............$.....@oooooooooooo     ",
"     X....#$...........$@.....@ooooooooooo      ",
"     X.....$$..........#@.....@ooooooooooo      ",
"     X.....#$..........$@....Xoooooooooooo      ",
"     X......$@.........$$....%oooooooooooo      ",
"      X......$.....$..#$$....%ooooooooooo       ",
"      X......$$...$$.$$$@....@ooooooooooo       ",
"      X.......$$.@$$$$$$%....@ooooooooooo       ",
"      X.........$$$$$$$$X....@ooooooooooo       ",
"      X..........$$$$$$%....Xooooooooooo        ",
"       ...........$$$$%.....Xooooooooooo        ",
"       XX..........@$$......%ooooooooooo        ",
"       ooXX.........$$......@ooooooooooo        ",
"         ooXX...............@oooooooooo         ",
"           ooXX.............@oooooooooo         ",
"             ooXX..........Xooooooooooo         ",
"               ooXX........%oooooooooo          ",
"                 ooXX......%oooooooooo          ",
"                   ooXX....@oooooooo            ",
"                     ooXX..@oooooo              ",
"                       ooXX@oooo                ",
"                         ooooo                  "};
