/* XPM */
static char * ModernTrashRecycleEmpty_xpm[] = {
"48 48 9 1",
" 	c None",
".	c grey76",
"X	c grey64",
"o	c grey39",
"O	c white",
"+	c yellow4",
"@	c LimeGreen",
"#	c ForestGreen",
"$	c grey51",
"            .......                             ",
"         ...XoooXOO...                          ",
"      ...XooooooXXOOOO...                       ",
"  ....XoooooooooXXXOOOOOO...                    ",
" OXXooooooooooooXXXXOOOOOOOO...                 ",
" XOOOXooooooooooXXXXXOOOOOOOOOO...              ",
" X...OOOXoooooooXXXXXXOOOOOOOOOOOO...           ",
" X......OOOXooooXXXXXXXOOOOOOOOOOOOOO...        ",
" X.........OOOXoXXXXXXXXOOOOOOOOOOOOOOOO...     ",
" X............OOOXXXXXXXXOOOOOOOOOOOOOOOOO+X+o  ",
" X...............OOOXXXXXXOOOOOOOOOOOOOO+X+ooo  ",
"  X.................OOOXXXXOOOOOOOOOOO+X+ooooo  ",
"  X....................OOOXXOOOOOOOO+X+ooooooo  ",
"  X.......................OOOOOOOO+X+ooooooooo  ",
"  X..........................OOO+X+ooooooooooo  ",
"  X.............................+oooooooooooo   ",
"   X.......@@####..............X+oooooooooooo   ",
"   X.......########............Xooooooooooooo   ",
"   X.....##....@#####.#........Xooooooooooooo   ",
"   X....@##......#######.......$oooooooooooo    ",
"   X...@####......######.......+oooooooooooo    ",
"    X..######......@####.......+oooooooooooo    ",
"    X....####......#####.......+oooooooooooo    ",
"    X....##@#.....######......Xoooooooooooo     ",
"    X....###.......#####......Xoooooooooooo     ",
"    X....##+..................$oooooooooooo     ",
"     X....##............#.....+oooooooooooo     ",
"     X....@#...........#+.....+ooooooooooo      ",
"     X.....##..........@+.....+ooooooooooo      ",
"     X.....@#..........#+....Xoooooooooooo      ",
"     X......#+.........##....$oooooooooooo      ",
"      X......#.....#..@##....$ooooooooooo       ",
"      X......##...##.###+....+ooooooooooo       ",
"      X.......##.+######$....+ooooooooooo       ",
"      X.........########X....+ooooooooooo       ",
"      X..........######$....Xooooooooooo        ",
"       ...........####$.....Xooooooooooo        ",
"       XX..........+##......$ooooooooooo        ",
"       ooXX.........##......+ooooooooooo        ",
"         ooXX...............+oooooooooo         ",
"           ooXX.............+oooooooooo         ",
"             ooXX..........Xooooooooooo         ",
"               ooXX........$oooooooooo          ",
"                 ooXX......$oooooooooo          ",
"                   ooXX....+oooooooo            ",
"                     ooXX..+oooooo              ",
"                       ooXX+oooo                ",
"                         ooooo                  "};
