/* XPM */
static char * recycle_xpm[] = {
"48 48 12 1",
" 	s None	c None",
".	c ForestGreen",
"X	c grey13",
"o	c grey4",
"O	c LimeGreen",
"+	c grey26",
"@	c grey76",
"#	c grey39",
"$	c green1",
"%	c grey51",
"&	c grey64",
"*	c grey89",
"                 ............XXooX              ",
"                .OOOOOOOOO.oo+++..XX            ",
"              ..OOOOOOOOOOo+++......X           ",
"             .OOOOOOOOO.Oo+.+........X          ",
"            .OOOOOOO.OOOo+++.........X          ",
"           .OOOOOOO.OOO.o++...........X   .X.   ",
"           .OOOO.O.O.OOO.o............X .oXX.   ",
"          .@OOO.O..OO... X+............XX...    ",
"          .O.O.OOOOO.O.o  X............OO.X     ",
"         .O.O.OOO.O....o  X..........OOO.X      ",
"         ..OOOOO.O.O..o.   X......OOOOOO..      ",
"        .O..OOO.O.....o    X.......OOOO.X       ",
"         .X.OO.O.....o#     o...OOOOOOOo        ",
"           .X........o     XX..O.OOOOO..        ",
"             .o.....X.  .oX...OOOOOOO.X         ",
"               .X...X   XXXXXXXXXXXXXX   ..X    ",
"                 .XX#                  ....o    ",
"X............o.    .                 .......X   ",
" XoOOOOOOOOOO$o                    .........X   ",
"  .ooOOOOOOOOO..                 ............X  ",
"   %.OOOOOOOOOOX                ............OX  ",
"    OOOOOOOOOOO.X               .........O.O.OX ",
"   .OOOOOOOOOOOO..               .....O.OOOOOOXX",
"   O&OOOOOOOOOOOO.X               ..O.OOOOOOOOOo",
"   &OO..OOO.O.OXO...              ..OOOOO.O.OOOX",
"   OOOOOOOOOOOo.XX.X               .OOOOOOOOO.OX",
"   ..OOOO.OOO.X   XX          X    ....O..OO.O.X",
"   .OOOOOOOOOo.               X     .OOOOOOO..X ",
"    .OOOO.O..o               Oo     ..OOOO....X ",
"    .OOOOOOOo.               @o      .O.O....o  ",
"     .OOO.O.o               OOo      ......XXX  ",
"      OOOOOoooXXooX.....    **Xoo.X.....oXX.o   ",
"      ..O..o++.........X   O*OOOOOOOOO......X   ",
"       OOOoX+..........X  .*OOOOOOO.O......X    ",
"       .O.o+..........OX .OOOOOO&OOO.......X    ",
"       .Ooo+.........OOX  OOOOO&O.OOO.....X     ",
"       ..o++........OOOX.OOOOOOO..OO.....+X     ",
"        .o+........OOOOX OOOOOOOOOO.....+o      ",
"        .o+.........OOOX  OOOOOOOO......+X      ",
"         o+.......OOOOOo  OOO&O.O......+o       ",
"          X.......O.OOOo  .OOO.O......+X        ",
"           XX....OOOOOOX  .O&.OOO....oX         ",
"             XXXXXXXXXXX    OOooooooX           ",
"                           .&Oo                 ",
"                             Oo                 ",
"                             .o                 ",
"                              X                 ",
"                              X                 "};
