/* XPM */
static char * ScrewdriverOnSquareWithScrews_xpm[] = {
"48 48 19 2",
"  	c white",
". 	c yellow3",
"X 	c goldenrod1",
"o 	c yellow1",
"O 	c grey4",
"+ 	c brown4",
"@ 	c orange3",
"# 	c DarkOrange1",
"$ 	c grey26",
"% 	c grey13",
"& 	c firebrick3",
"* 	c grey51",
"= 	c grey76",
"- 	c grey7",
"; 	c yellow4",
": 	c grey39",
"> 	c grey89",
", 	c blue4",
"< 	c cyan3",
"              . . . . . X o X X X X X X X X X X X X X . X X X . X X X . X X X X X X X X X X X O ",
"            .   . . . . . . . X . X . X . X o X o X . X . X . X . X . X . X . X . X X X X X O O ",
"    + @ @ @ @ @ # @ # @ @ @ @ @ @ @ @ @ @ @ @ @ @ @ @ @ @ @ @ @ @ @ # @ @ @ @ @ @ @ + @ + $ O O ",
"    @ @ @ @ @ @ @ @ @ @ @ @ @ @ @ @ X @ X @ X @ @ @ @ @ @ @ @ @ @ @ @ @ @ + + + $ @ @ @ @ $ % O ",
"    @ @ @ @ @ @ # @ @ @ @ @ @ @ @ @ @ @ @ @ @ @ @ @ @ @ @ @ @ @ @ @ @ @ + @ & + + + @ @ + $ O O ",
"    @ @ @ @ @ @ + + $ % $ + @ @ X @ X @ X @ X @ X @ @ @ @ @ @ @ @ @ @ * @ = # + + + $ @ @ $ O - ",
"  . @ @ @ @ @ + + + + + + $ % @ @ @ @ @ @ X @ @ @ @ @ @ @ @ @ @ @ @ + @ = # % + & + + O + $ O O ",
"    @ @ @ @ + + @ # @ & + % $ ; @ @ X @ X @ X @ X @ X @ @ @ @ @ @ * @ = # % + & + + + O @ $ % O ",
"    @ @ # + + @ @ X @ # + + @ $ + @ @ X @ X @ X @ @ @ @ @ @ @ @ + @ = # % + & + O + + O @ $ O O ",
".   @ @ @ + + # X   X + @   + % % @ X @ X X X @ X @ X @ X @ @ * @ = # % + & + - + + O - @ $ % - ",
"    # @ # $ + # @ X + @   @ + $ % X @ X @ X @ X @ X @ @ @ @ + @ = # % + & + O + + O O @ @ $ - O ",
".   @ @ @ $ + @ # + @   @ + $ % % @ X X X X X X X X X @ X * @ = # % + & + O + + O O @ @ $ $ % - ",
"  . @ @ @ $ + + + @   @ + + $ % % X @ X @ X X X X X @ X + @ = # % + & + O + + O O @ @ % % $ - % ",
".   @ @ @ + $ % + X @ + + + % % : X X X X X X X X X X * @ = # % + & + - + + O - @ @ $ % $ $ % - ",
"  . @ @ @ @ % $ @ + + + $ % % % @ X X X X X X X X X + @ = # % + & + O + + O O @ @ $ % $ % $ - O ",
". . @ @ @ @ @ ; $ % % % % % % @ X X X X X X X X X * @ = # % + & + O + + O O @ @ $ $ $ $ $ $ % - ",
". . @ @ @ @ @ @ + $ % % % + @ X X X X X X X X X + @ = # % + & + O + + O O @ @ $ $ $ $ $ % $ - % ",
". . @ @ @ @ @ @ X X X X X X X X X X X X X X X * # = # % + & + - + + O - @ @ $ $ $ $ $ $ $ $ % - ",
". . @ @ @ @ @ X @ X X X X X X X X X X X X X : : + + + + & + O + + O O @ @ $ $ $ $ $ % $ % $ - O ",
". . X @ X @ X X X X X X X X X X X X X X X : + + + O + + + + + + O O @ @ $ $ $ $ $ $ $ $ $ $ % - ",
". . @ @ @ @ @ X X X X X X X X X X X X X X :   # + $ O + + + + O O @ @ $ $ $ $ $ $ $ $ $ % $ - % ",
". . X @ X @ X X X X X X X X X X X X X X X : # > @ + % - + + O - X @ $ $ $ $ $ $ $ $ $ % $ $ % % ",
". . @ @ @ X @ X X X X X X X X X X X X X X X O + + + + + O O O @ @ $ $ $ $ $ $ $ $ $ % $ % $ % % ",
". . X @ X @ X X X X X X X X X X X X X X X O % O % + + + O O X @ $ $ $ $ $ $ $ $ $ $ $ $ $ $ % % ",
". . @ X @ X X X X X X X X X X X X X X X $ > O O O + + O O X @ $ + $ $ $ $ $ $ $ $ $ $ % @ $ % % ",
". . X @ X X X X X X X X X X X X X X X , > , O - X O O - X @ X $ $ $ $ $ $ $ $ $ $ $ $ @ @ $ % % ",
". o @ X @ X X X X X X X X X X X X X = > $ O O X X X X X @ X @ $ $ $ $ $ $ $ $ $ $ $ @ @ @ $ % % ",
". . X X X X X X X X X X X X X X X = > , O O X X X X X X X @ X @ $ $ $ $ $ $ $ $ $ @ @ @ @ $ % % ",
"X o @ X @ X X X X X X X X X X X =   < $ % X X X X X X X @ X @ $ $ $ $ $ $ $ $ $ @ @ @ @ + $ % % ",
". o X @ X X X X X X X X X X X =   < , % X X X X X X X X X @ $ $ $ $ $ $ $ $ $ @ @ @ @ @ @ $ % % ",
"X o @ X @ X X X X X X X X X =   < $ % X X X X X X X @ X @ $ + $ $ $ @ $ $ $ @ @ @ @ + @ @ $ % % ",
". X X X X X X X X X X X X =   < , % X X X X X X X X X X $ $ $ $ $ @ + + $ % $ + @ @ @ @ @ $ % % ",
"X o @ X @ X X X X X X X =   < $ % X X X X X X X X X @ $ + $ $ $ @ + + + + + + $ % @ @ @ + $ % % ",
"o o X @ X X X X X X X =   < , % X X X X X X X X X X $ $ $ + $ @ + + @ # @ & + % $ ; @ @ @ $ % - ",
"X o @ X @ X X X X X =   < $ % X X X X X X X X X @ $ + $ + $ @ + + @ @ X @ # + + @ $ + @ + $ % % ",
"o . X X X X X X X >   < , % X X X X X X X X X X $ $ $ + $ @ @ + + # X   X + @ > + % % @ @ $ % % ",
"X o @ X @ X X X = : < $ % X X X X X X X X X X $ + $ + $ # @ @ $ + # @ X + @   @ + $ % @ + $ O % ",
". . X @ X X X >   > , % X X X X X X X X X X $ + $ + $ @ @ @ @ $ + @ # + @   @ + $ % % + @ $ % - ",
". o @ X @ X     < : O X X X X X X X X X X $ + $ + $ @ @ @ @ @ $ + + + @   @ + + $ % % @ + % O O ",
". . X X X >   < $ O : X X X X X X X X X $ + $ + $ @ @ @ @ @ @ + $ % + X @ + + + % % + + ; $ % O ",
". . @ X =   < $ O O @ X X X X X X X X $ + $ + $ @ @ @ @ @ @ @ @ % $ @ + + + + $ % % @ @ + $ O % ",
". . X $   < , - : X X X X X X X X X $ + $ + $ @ @ @ @ @ @ @ @ @ @ ; $ % $ % % % % @ ; + ; $ % - ",
". . @ @ $ $ O X @ X @ X @ X @ X @ $ + $ $ $ @ @ @ @ @ @ @ @ # @ @ @ + % % % % + @ @ + + + % O O ",
". . X @ X O X X X X X X X X X X $ $ $ + $ @ X @ @ @ @ @ @ @ @ @ @ @ @ @ @ @ @ @ @ + ; + + % % O ",
". . @ @ @ X X X X X X X @ X @ $ + $ $ $ $ @ @ @ @ @ @ @ @ @ # @ @ @ @ @ @ @ @ @ + + + + + % O O ",
". . + + + + + + + + + + + + $ $ $ $ $ $ + + + + + + $ + $ + $ $ $ $ $ $ $ $ $ $ $ $ % % % % % - ",
". + + + + $ + $ + $ + + + % % % % % % % % % % % % % % % % % % % % % % % % % % O O O O O O O O O ",
"+ + + + $ + $ $ $ + $ + $ + % % % % % % % % % % % % % % % % % % % % % % % - % O % O % O % O % O "};
