/* XPM */
static char * LetterCStarLogoOnPaperWithPencil_xpm[] = {
"48 48 19 2",
"  	c None",
". 	c brown4",
"X 	c DarkOrange1",
"o 	c turquoise4",
"O 	c blue3",
"+ 	c grey26",
"@ 	c blue4",
"# 	c white",
"$ 	c grey76",
"% 	c cyan3",
"& 	c grey89",
"* 	c blue1",
"= 	c grey39",
"- 	c grey64",
"; 	c grey13",
": 	c grey4",
"> 	c grey7",
", 	c grey51",
"< 	c orange3",
"                                                                                                ",
"                                                                                            . X ",
"                    o O O O                                                               . X X ",
"    + + + + + + + + O O O @ @ + + + + + + + + + + + + + + + + + + + + + + + + + + + + + . X X X ",
"    + # $ % $ & $ * % $ % o O O & $ % # # # # # # # # # # # # # # # # # # # # # # # # . X X X . ",
"    + & * O O O O $ $ O O O = O O O O O # # # # # # # # # # # # # # # # # # # # # # . X X X . . ",
"    + * O % % % % % O O O O O O % $ % O - # # # # # # # # # # # # # # # # # # # # . X X X . . . ",
"    + O % $ O O O @ ; : > ; @ O O O O ; @ & # # # # # # # # # # # # # # # # # # . X X X . . . . ",
"    + O % % O @ : : ; @ O @ @ @ O O O ; ; - # # # # # # # # # # # # # # # # # . X X X . . . . . ",
"    @ O $ O @ : > O % $ & $ % O @ O O @ ; + = + + + # + : + + + # + + + + # . X X X . . . . . . ",
"  O O % % O : ; O & & = + @ % - @ O O O = O $ # # # # # # # # # # # # # # . X X X . . . . . . ; ",
"O O $ % O > > O & & + : @ > @ o ; O O O O o O + : + + # # # # # # # # # . X X X . . . . . . ; ; ",
"O % % O O : @ % & o : @ O O O @ > O O O O O o @ & # # # # # # # # # # . X X X . . . . . . ; ; ; ",
"O O O O O : O & $ o > O O O O O O O O % O O > ; , + + : + + + + - # . X X X . . . . . . ; ; ; ; ",
"  O o O @ > O & % - ; O O O O O O O O $ O @ : + - & # # # # # # # . X X X . . . . . . ; ; ; ; ; ",
"  O O O O > O $ % - ; O O O O O O O O & O : > = = = + + : # - # . X X X . . . . . . ; ; ; ; ; > ",
"  o O % O > O O % % + O O O O & O O O % @ > + , & & # # # # # . X X X . . . . . . ; ; ; ; ; ;   ",
"  O O $ O @ O O - $ o o O O & $ : O % % O > = , = = + + - # . X X X . . . . . . ; ; ; ; ; >     ",
"  O % O O O + O O @ o o $ & % , ; O % O O > = $ # # # # # . X X X . . . . . . ; ; ; ; ; ; =     ",
"  O % O O O O @ O O @ ; > : > ; O $ O O O : + , & + - # . X X X . . . . . . ; ; ; ; ; > ; =     ",
"    @ + @ O O O o O O O O O O % % O O @ ; : + - & # # . X X X . . . . . . ; ; ; ; ; ; : ; =     ",
"    + O @ ; O O O O % % % % $ % O ; : : > ; , , - # . X X X . . . . . . ; ; ; ; ; > . : ; =     ",
"    + & - @ O * O O O * O * O O @ : ; + = , - $ # . X X X . . . . . . ; ; ; ; ; ; . # : ; =     ",
"    + # # & O o O O @ > ; @ O O > : = , - , , & . < < X . . . . . . ; ; ; ; ; > . # # : ; =     ",
"    + # # # % O @ ; : > @ @ + ; : ; , $ & & # . $ < < . . . . . . ; ; ; ; ; ; . # # # : ; =     ",
"    + # # # + = + ; + = , , @ ; ; = , = > + # , < < < < < < . . ; ; ; ; ; > . - + # # : ; =     ",
"    + # # # # # & - - - & & $ - , - $ & # # , < < < - < < . = ; ; ; ; ; ; . # # # # # : ; =     ",
"    + # # # + + + : = = = = = + & & = + # # . < < < < < . + + ; ; ; ; > . # # # # # # : ; =     ",
"    + # # # # # # # # # # # # # # # # # # . < < - < < . + ; ; ; + ; ; . # # # # # # # : ; =     ",
"    + # # # # # # # # # + + # + + : + - # . < < < < . + ; ; ; + + > . # # # # # # # # : ; =     ",
"    + # # # # # # # # # # # # # # # # # , < < < < . + ; ; ; + + = , # # # # # # # # # : ; =     ",
"    + # # # + + : + + + + : + + # + - # . < . < . + ; ; + + + = . # # + + + # # # # # : ; =     ",
"    + # # # # # # # # # # # # # # # # . - . , = + ; ; + = = < # # # # # # # # # # # # : ; =     ",
"    + # # # : : + + # + + + + + + # - , . . = + ; + + = . # # # # # # # # # # # # # # : ; =     ",
"    + # # # # # # # # # # # # # # # : . = + ; ; + = < # # # # # # # # # # # # # # # # : ; =     ",
"    + # # # + + + # + : + + + - # + : : ; ; + = . # # # # # # # # # # # # # # # # # # : ; =     ",
"    + # # # # # # # # # # # # # # : : > : + = # # # # # # # # # # # # # # # # # # # # : ; =     ",
"    + # # # # # # # # # + + + # + : : : + - - # + : + + + + # + : + + + + + # # # # # : ; =     ",
"    + # # # # # # # # # # # # # : : + # # # # # # # # # # # # # # # # # # # # # # # # : ; =     ",
"    + # # # : # + + : + + + # + : + + + : + + + + # + + # + + + # + + + : + + + # # # : ; =     ",
"    + # # # # # # # # # # # # # - - - - - # # # # # # # # # # # # # # # # # # # # # # : ; =     ",
"    + # # # # # # # # # # # # # # - - - - - - - # # # # # # # # # # # # # # # # # # # : ; =     ",
"    + # # # # # # # # # # # # # # # - - - - - - - - - # # # # # # # # # # # # # # # # : ; =     ",
"    + # # # # # # # # # # # # # # # # - - - - - - - - - - - # # # # # # # # # # # # # : ; =     ",
"    + : : : : : : : : : : : : : : : : : : : : : : : : : : : : : : : : : : : : : : : : : ; =     ",
"      ; ; ; ; ; ; ; ; ; ; ; ; ; ; ; ; ; ; ; ; ; ; ; ; ; ; ; ; ; ; ; ; ; ; ; ; ; ; ; ; ; ; =     ",
"        = = = = = = = = = = = = = = = = = = = = = = = = = = = = = = = = = = = = = = = = = =     ",
"                                                                                                "};
