/* XPM */
static char * LightBlueShellWindow_xpm[] = {
"45 37 9 1",
" 	c None",
".	c turquoise4",
"X	c grey64",
"o	c grey4",
"O	c grey76",
"+	c white",
"@	c blue1",
"#	c grey51",
"$	c cyan3",
"   .X.. X.X.X.X.X.X.X.X.X........... ... ...o",
"   X.X. XX.X.X.X.X.X.X.X.X.X.X.X.... ... ...o",
"   .X.. X.X.X.X.X.X.X.X.X.X.X......o ... ...o",
"   oooooooooooooooooooooooooooooooooooooooooo",
"   oOOOOOOOOOOOOOOOOOOOOOOOOOOOOOOOOOOOO+XXXo",
"   oOOOOOOOOOOOOOOOOOOOOOOOOOOOOOOOOOOOO+X.Xo",
"   oOOOOOOOOOooooooooooXo.OOOOOOOOOOOOOO+.X.o",
"   oOOOOOOo+oXoOXoX++++++.oo..OOOOOOOOOO+X.Xo",
"   oOOOOoo++Oo.ooXXXXX+o.oOOo.o.OOOOOOOO+.X.o",
"   oOOooOooOO+O+Xo.@.XX+o.o.Oooo..OOOOOO+X..o",
"   oOoXXo...++++o....+XOXo.++++oo.OOOOOO+.X.o",
"   ooXXoXo..+++XXo..X+XXoXOOO+O+oo.OOOOO+X..o",
"   oXX+++...++XXoXoO+XXo.oOO+++OOo.oXOOO+...o",
"  oXXXX+++o.XXX..o+X+Xo.o.OO++.oXOoXo.OO+...o",
" XoXXXO++ooXXXO..oX++Xo.o...++.o+++oo..O+...o",
"oo+oXXX+O...OX+ooXo.XO.oXo..X+oXX+XOoo..+...o",
"+++XXXX++o..+++..o...XoXo...XXXoXXo+Ooo.+...o",
"..+oXX.XX..XXXXooXoXXXXo.oX.XXo#OXX++Xoo+...o",
".X+....XXXoXX++XXo..OXoo..XXXoXoXO#++Xo.+...o",
".+Xoo$.X++XXX++oo...XXo...++XXoOX#XX+Xoo+...o",
".++..@..++oXXXX...+XXOo.X.XXXo.XXooXXXo.+...o",
".+++oo.OXXoXX++.oXXXOXo.XX++Xo...oXXXXo.+...o",
"...+ooo..Ooo.++ooX+XXXooXO+.o...oXXXXooo+...o",
"o....oXo.Ooo...Xo+++XO..+@.....oXXXXoooX+...o",
"Xo..OXoXoXXo...Xo++XXX.o+..Oo.++o+XoXoXo+...o",
"oXo.+oooXoXXo.XXoo+XOo.++...oo++X+oXoXoX+...o",
" oXo++oooXXXo..X.oXXXoO+..+oo+++O+XoXoXO+...o",
"  oXXX+oooXOoo...o+XXo++.Xoo+XX+Ooo.oXOO+...o",
"   oXoX++oo#XXoo.++ooX..XXoXXXXoXoo.OOOO+...o",
"   ooXoX+OXoXoXo...oo..XXoo+XXoXo..OOOOO+...o",
"   oOoooX+oooOooOooo+oXXoooXXooo.oOOOOOO+...o",
"   oOOOoo..oooOooXoX+.XoooXXooo..OOOOOOO+...o",
"   oOOOOooo.ooo..oooX+oooXoXoo..OOOOOOOO+...o",
"   o++++++Xo.ooooXoXo+XoXoXooX+++++++++++...o",
"   ooooooooo+ooXoo.o+ooXooo..oooooooooooooooo",
"          oXo.ooXo.o.ooooXXo..               ",
"           ooooooooooooooooo.                "};
