/* XPM */
static char * ColorSpheresPageLetterD_xpm[] = {
"48 48 23 2",
"  	c None",
". 	c grey39",
"X 	c ForestGreen",
"o 	c LimeGreen",
"O 	c green1",
"+ 	c grey26",
"@ 	c cyan1",
"# 	c white",
"$ 	c cyan3",
"% 	c grey76",
"& 	c magenta4",
"* 	c brown4",
"= 	c turquoise4",
"- 	c grey64",
"; 	c magenta3",
": 	c grey89",
"> 	c blue3",
", 	c firebrick3",
"< 	c blue1",
"1 	c red1",
"2 	c orange3",
"3 	c grey13",
"4 	c blue4",
"                                                                                                ",
"                                                  . X . X . X                                   ",
"                                              X X o X O O O o o .                               ",
"                                            X o o O O o o o o O o                               ",
"                                            X o O o o o o o o o o o                             ",
"                                    + + + X o o O o o o @ # # @ o O o                           ",
"                                  + + + + X X O o o o o # # # # o O o                           ",
"                                  + + + + X o O o o o o @ # # # o o O                         $ ",
"                                + + + + + X o O o o o o o o @ o o O o                       $ $ ",
"                              + + + + + + X o o O o o o o o o o o o o                 % $ $ $ $ ",
"                              + + + + + + X X o O O o o o o o o o o X             $ $ $ $ $ $ $ ",
"          + & & & & &         + + + + + + + o X O O O o o o o o O X           % $ $ @ $ $ $ $ $ ",
"        * & & & & & & & &     + + + + + + + X o o o O O O O O O o o       = $ $ $ $ $ $ $ $ $ $ ",
"      & & & - ; ; ; ; ; & +   + + + + + + + + X o X o o o o o o X     $ $ $ $ $ $ $ $ $ @ $ $ $ ",
"    + & & & ; ; : : ; ; & &   + + + + + + + + + + X X X X X X     $ $ $ $ $ $ $ $ $ $ $ $ $ $ $ ",
"  + + & & ; % : : : : ; ; &     + + + + + + + + + + + +       $ $ $ $ $ $ $ @ $ $ $ @ $ $ $ $ $ ",
"  + + & & ; ; : : # : : ; &       + + + + + + + + + + +   $ $ $ $ $ $ $ $ $ $ $ $ $ $ $ $ $ $ $ ",
"  + + & & ; % : : : : : ; &       + + + + + + + + + + % $ $ $ $ $ $ $ $ @ $ $ $ @ $ $ $ @ $ $ $ ",
"  + + & & ; ; : : : : ; ; &           + + + + + + $ $ $ $ $ $ $ $ $ $ $ $ $ $ $ $ $ $ $ $ $ $ $ ",
"  + + & & ; ; ; ; ; ; ; & &                   $ $ $ $ $ $ $ @ $ $ $ @ $ $ $ @ $ @ $ @ $ @ $ $ $ ",
"  + + + & & & & ; ; & & & &               $ $ $ $ $ $ $ $ $ $ $ $ $ $ $ $ $ $ $ $ $ $ @ $ $ $ $ ",
"  + + + + & & & & & & & .             $ $ $ $ $ $ $ $ $ @ $ $ $ @ $ $ & & & * & @ $ @ $ @ $ $ $ ",
"  + + + + + & & & & & .           $ $ $ $ $ $ $ $ $ $ $ $ $ $ $ % + * + * * * * * & $ $ $ @ $ $ ",
"    + + + + + + + + +         $ $ $ $ $ $ $ @ $ $ $ @ $ $ $ $ > > & & & & * * * * , , % @ $ $ $ ",
"      + + + + + +         $ $ $ $ $ $ $ $ $ $ $ $ $ $ $ > > > > & $ $ @ $ % & * , , , , $ @ $ $ ",
"                      % $ $ $ $ $ $ $ $ @ $ $ $ $ $ > > > > > $ @ $ @ $ @ $ - * * , , , , $ $ $ ",
"                        % $ $ $ $ $ $ $ $ $ $ $ $ > > > > > > > $ @ $ $ $ @ $ & * , , , , @ # $ ",
"                          $ $ $ $ $ @ $ $ $ @ $ @ $ < > > > > > @ $ @ $ @ $ @ % * , , , , , # $ ",
"                            $ $ $ $ $ $ $ $ $ $ $ $ $ > > > > > % $ $ @ $ @ $ $ & , , , 1 2 # $ ",
"                            3 $ @ $ $ $ $ $ @ $ @ $ @ < > > > > & $ @ $ @ $ @ $ % , , , , , # $ ",
"                              $ $ $ $ $ $ $ $ $ $ $ $ $ > > > > > @ $ @ $ @ $ @ $ , , , , , # $ ",
"                  3 4 > .   3 3 $ $ @ $ @ $ @ $ @ $ @ $ < > > > > $ @ @ @ $ @ @ @ * , , , , # $ ",
"              > < < < $ < <   3 - $ $ $ $ $ $ $ $ $ $ @ < > > > > % $ @ $ @ $ @ : , , , 1 , # $ ",
"            + < < < < : : <   3 3 $ @ $ @ $ @ $ @ $ @ $ < > > > > ; @ $ @ @ @ @ @ & , , , , # $ ",
"            + < < < < : : < >   + $ $ $ $ @ $ $ $ @ $ @ < > > > > & : @ : @ : @ : , , , , - # $ ",
"            + < < < < < < < <   3 3 $ $ $ $ @ $ @ $ @ @ < > > > > & @ @ @ @ @ # $ , , , , % # $ ",
"          + + > < < < < < < +       $ $ $ $ $ $ $ @ $ @ $ > > > > & % @ : @ # @ & , , , 1 # # $ ",
"            + > > < < < < > .       3 $ $ $ $ $ @ @ @ $ @ > > > > & % # @ # @ # & , , 1 - # # $ ",
"            + + + > > > 3 .         3 + + . % @ $ @ : @ : & > > > + ; @ # @ : - ; , , % # # # $ ",
"                + + + +             * 2 % * * $ @ @ @ @ @ < > > > & & # @ # @ * * 1 - # # # # $ ",
"                                  + * 2 & * * - : @ : @ : @ > > > * & # # % & * & & # # # # # $ ",
"                                  + * * * * * @ @ # @ # @ # > > > & & : % * * % # # # # # # # $ ",
"                                  + 3 * * 3 > @ : @ : @ # @ > > > + * * * % # # # # # # # # # $ ",
"                                  + + + + + + $ @ # @ # @ # > > > & * % # # # # # # # # # # # $ ",
"                                            + $ $ $ # # # % > > > $ # # # # # # # # # # # # # $ ",
"                                              3 $ # @ # # % % % # # # # # # # # # # # # # # # $ ",
"                                              3 $ $ # # # # # # # # # # # # # # # # # # # # # $ ",
"                                                3 3 $ $ $ $ $ $ $ $ $ $ $ $ $ $ $ $ $ $ $ $ $ $ "};
