/* XPM */
static char * SQLWindowCornerWithScrewdriver_xpm[] = {
"48 48 13 2",
"  	c grey39",
". 	c white",
"X 	c grey4",
"o 	c grey64",
"O 	c grey51",
"+ 	c grey76",
"@ 	c turquoise4",
"# 	c magenta4",
"$ 	c blue3",
"% 	c blue1",
"& 	c grey26",
"* 	c grey13",
"= 	c blue4",
"                                                                                              . ",
"  X X X X X X X X X X X X X X X X X X X X X X X X X X X X X X X X X X X X X X X X X X X X X o . ",
"  X O + o o o o o + O + O o O o o o o o o o o o o o o @ @ @ # @ $ @ $ $ $ $ $ $ % $ % $ % % o . ",
"  X o + o o o + o o o + o o o o o o o o o o o o o @ o @ @ @ @ @ @ $ @ $ $ $ $ $ $ % $ % % % o . ",
"  X o o o o o o o o o o o + o o o o o o o o o o o @ @ @ @ @ @ @ $ @ $ @ $ $ $ $ $ $ % $ % % o . ",
"  X o o o o o o o + o o o + o o o o o o o o o o o o o @ @ @ @ @ @ @ @ $ $ $ $ $ $ % $ % % % o . ",
"  X o o o o o o o o o o o o o + o o o o o o o o o o o @ @ @ @ @ $ @ $ @ $ $ $ $ $ $ % $ % % o . ",
"  X o o o o o o o o o o o o o + o o o o o o o o o @ o @ o @ @ @ @ @ @ $ o o o o o o o o o o o . ",
"  X o o o o o o o o o o o o o o o + o o o o o o o o o o @ @ @ @ # @ o o . . . . . . . . . . o . ",
"  X o o o o o o o o o o o     o o + o o o o o o o o o @ o @ @ @ @ @ . .                     o . ",
"  X o o o o o o o             o o o o o o o o o o o o o o o o o o o       o   o   o   o   o o . ",
"  X o o o o                   X                                         X   o   o   o   o   o . ",
"  X o o o o X X X             X X X X X X X X X X X X X X X X X X X X   X                   o . ",
"  X o o o o o o X X X X X X X & & & & o o o o o o o o @ @ @ @ @ @ @ X   X X   X   X   X   X o . ",
"  X . . . . . . . .                                                 X X X   X   X   X   X   o . ",
"  X o o o o o o o o & & & & & & & & & & & & & & & & & & & & & & & & & & & * & = = * * * * * o . ",
"  X o o o o o o o o & & & & & & & & & & & & & & & &                 X & & * & = * = = = * = o . ",
"  X o o o o o o o o o o & & & & & & & o o o o o o o . o o o o o o   X o o   & = * = * * * * o . ",
"  X o o o o o o o o o o o o o o o o o o o o o o o o . o X o o X o   X o o   * = = = * = * * o . ",
"  X o o o o o o o o o o o o o o o o o o o o o o o o . o o X X o o   X o o   $ % $ % % % % % o . ",
"  X o o o o o o o o o o o o o o o o o o o o o o o o . o o X X o o   X o o   $ $ % % % % % % o . ",
"  X o o o o o o o o o o o o o o o o o o o o o o o o . o X o o X o   X o o   $ % % % % % % % o . ",
"  X o o o o o o o o o o o o o o o o o o o o o o o o . o o o o o o   X o o   % $ % % % % % % o . ",
"  X o o o o o o o o o o o o o o o o o o o o o o o o .               X o o   % % % % % % % % o . ",
"  X o o o o o o o o o o o o o o o o o o o o o o o o X X X X X X X X X o o   % % % % % % % % o . ",
"  X o o o o o o o o o o o o o o o o o o o o o o o o o o o o o o o o o o o   % % % % % % % % o . ",
"  X                                                                         % % % % % % % % o . ",
"  X X X o .   X X X X X X X X X X X X X X X X X X X X X X X X X X X X o .   % % % % % % % % o . ",
"  X + + o .   X + + + + + + + + + + + + + + + + + + + + + + + + + + + o .   % % % % % % % % o . ",
"  X + + o .   X + + + + + + + + + + + + + + + + + + + + + + + + + + + o .   % % % % % % % % o . ",
"  X + + o .   X + + + X X X + X + + + X X X X + + + + X X X X + + + + o .   % % % % % % % % o . ",
"  X + + o .   X + + X X + + X X + X X   + + X X + + + + X X + + + + + o .   % % % % % % % % o . ",
"  X + + o .   X + + X   + + + X + X X + + + + X X + + + X X + + + + + o .   % % % % % % % % o . ",
"  X + + o .   X + + X X X   + + X X + + + + + X X + +   X X + + + + + o .   % % % % % % % % o . ",
"  X + + o .   X + + + X X X X + X X + + + + + X X + + X X   + + + + + o .   % % % % % % % $ o . ",
"  X + + o .   X + + + +   X X + X X + X X + + X X + + X X + + + + + + o .   % % % % % $ $ $ o . ",
"  X + + o .   X + X + + + + X + X X X + + X X X   + + X X + + + + X + o .   % % % $ $ $ $ $ o . ",
"  X + + o .   X + X X +   X X + + X X + + X X X + + + X X + + +   X + o .   % % $ $ $ $ $ $ o . ",
"  X + + o .   X + X + X X X + + + + X X X X X + + + X X X X X X X X + o .   % $ $ $ $ $ $ = o . ",
"  X + + o .   X + + + + + + + + + + + + + X X X X + + + + + + + + + + o .   $ $ $ $ $ $ = = o . ",
"  X + + o .   X + + + + + + + + + + + + + + X X + + + + + + + + + + + o .   $ $ $ = $ = = = o . ",
"  X o o o .   o o o o o o o o o o o o o o o o o o o o o o o o o o o o o .   $ $ $ $ = = = = o . ",
"  X . . . . . . . . . . . . . . . . . . . . . . . . . . . . . . . . . . .   $ = = = = = = = o . ",
"  X       .                                                             .   = = = = = = = = o . ",
"  X X X o .   X X X X X X X X X X X X X X X X X X X X X X X X X X X X o .   = = = = = = = = o . ",
"  X + + o .   X + + + + + + + + + + + + + + + + + + + + + + + + + + + o .   = = = = = = = = o . ",
"  o o o o o o o o o o o o o o o o o o o o o o o o o o o o o o o o o o o o o o o o o o o o o o . ",
". . . . . . . . . . . . . . . . . . . . . . . . . . . . . . . . . . . . . . . . . . . . . . . . "};
