/* XPM */
static char * TapeOnMeshNetting_xpm[] = {
"48 48 15 2",
"  	c None",
". 	c grey13",
"X 	c grey51",
"o 	c grey26",
"O 	c grey39",
"+ 	c grey64",
"@ 	c grey76",
"# 	c brown4",
"$ 	c cyan3",
"% 	c turquoise4",
"& 	c magenta4",
"* 	c grey4",
"= 	c grey7",
"- 	c grey89",
"; 	c blue4",
".                                                                                       .       ",
"  .                                               X o o o O o +                       .         ",
"    .                                           X o o o O @ o o +                   .       O   ",
"      .                                       X o o o O @ O . o . +               #       O     ",
"        # . # # # # # # # # # # # # # # # # O o o o O @ O . o O O . # # # # # # #       O       ",
"        . O         #           #         X O o O O $ O o o O O O O . +         #     O         ",
"        #   O O O O # O O O O O # O O O O O o o O @ O o o . O O O O O . O O O O # O O           ",
"        o   O       #   O       #   O X O O O O $ % O o o o O O X O X O . +     #   O           ",
"        #   O       #   O       #   O O O O O $ % O o o . O O X O O O O O . +   #   O           ",
"        #   O       #   O       # X O O O % $ % O O o o O % % & % % % O X O . + #   O           ",
"        # # # # # # # # # # # # O O O O % $ % O O O . O % % & O O + O O O O O . #   O           ",
"        #   O       #   O     X % O % % $ % % % O o % % % % % o * O $ % % O X O . + O           ",
"        #   O O O O # O O O X % O O % $ % O O O o % % % % % o X O o O + O O O O O . O           ",
"        #   O       #   O X % & % % $ % % & O o % % % % % o . . . o O O + % % O X O . +         ",
"        #   O       #   X % & % % $ % % & O o % % X % % o * * * * * . O % + O O O O O . +       ",
"        #   O       # X % % % % $ % % % % o % % % % % o * * * * * * * . o % + % X O O O . +     ",
"        # # # # # # X % % % % @ + % % % o % X % X X o * * . X + o * * * o . O + O O O O o =     ",
"        #   O     X % & % % $ % % & % o % % % % % O * * * @ @ @ @ o * * . . * + X O o O . +     ",
"        #   O O X % & % % @ % % % % o % % % % % o O * * . @ + O @ O * * = . O + O . o = X X     ",
"        #   O X % % % % $ % % % % o % % % & % O o X * * * @ - @ @ . * * . % + O o O . X X X X   ",
"        #   X % & % % @ % % & O o % % % % % o . = O . * * . + + o * * * % + % % O = . X X X X X ",
"        # X % O % % $ % % & O o % % % & % O . . . o o * * * * * * * * O $ % % O . X O X X X X X ",
"        O O O O % $ X O & O o % % % % % O O O O o . o o * * * * * * O + % % O = . X O X X X X X ",
"      X O O O % $ % O O O o % % % & % O * * . o O o . o o . = = = O $ % % % . X . X O X X X X   ",
"    X o o O O $ % O O O . % % O % % o = * * * * = o o . . o o o % + % X & = . O . O O X X X     ",
"  X o o o O $ X o o o o % % o O % O * * * * * * * = o . . . . % @ % X % . X X X . X O X X       ",
"+ X + X + @ % o . . . O O O ; % o = * = + @ X = * * . o = . O @ X X % = . X X X # X O X         ",
"+ = . = . o o . O O % O o O X O * * * X @ @ - X * * . o . O @ % % % . X O X X X # X O           ",
"  O = . . . o O O % % o o % O O * * * + @ O - + * * = o O @ % % % = . . . . . # # X O           ",
"    O . . o . o % & % % % O . O = * * % - @ @ o * * = % $ % % % . X . X O X X X #   O           ",
"      O . . . . % % O % % O . o . * * * o X o * * * O @ % % % = . O . O O O O O # O O           ",
"      X o o o o O % % % % % O o O * * * * * * * * O $ % % % . X X X . X O X X   #   O           ",
"        # X o o o O % X & % % O o o * * * * * * o @ % % % = . X X X . X O X     #   O           ",
"        # X O o O o O % % % % % O o o . . = = O @ % % % . X O X X X # X O       #   O           ",
"        # # # o o o o O % % & % % O . . o o O @ X X % = . . . . . # # # # # # # #   O           ",
"        #   O X o o o o O % % % % % O = * O @ % % % . X . X O X X X #   O       #   O           ",
"        #   O O O o o o . O % % & X % O o @ % X % = . O . O O O O O # O O O O O # O O           ",
"        #   O     X o o . . O % % % % % % % % & . X X X . X O X X   #   O       #   O           ",
"        #   O       # O . . = O % % O % & % O = . X X X . X O X     #   O       #   O           ",
"        o   O       # X o = * . O % % % % O . = * = X X # X O       #   O       #   O           ",
"        # # # # # # # # # . = * = O X X O = . . . . . # # # # # # # # # # # # # #   O           ",
"      .     O           O X o = = = O O . X X X O X X X X   O           O         # O           ",
"    .       O O O O O O O O O . . . . = O O O O O O O O O O O O O O O O O O O O O O #           ",
"  .       O                   X X X X X X X X X X X X                                 .         ",
".       O                       X X X X X X X X X X                                     .       ",
"      O                           X X X X X X X X                                         O     ",
"    O                               X X X X X X                                             O   ",
"                                                                                                "};
