/* XPM */
static char * Time_xpm[] = {
"45 45 13 1",
" 	c None",
".	c grey26",
"X	c grey64",
"o	c grey76",
"O	c grey89",
"+	c grey51",
"@	c turquoise4",
"#	c grey13",
"$	c grey4",
"%	c grey7",
"&	c grey39",
"*	c magenta4",
"=	c blue4",
"               .XooOOOOOooX.                 ",
"            .XoOoXXX++@+@XXXX+.              ",
"          #XOOX@.##$$$$$%#.&@+X+#            ",
"         XOOX&$$#+XoOOOOOoX+.&+@+X           ",
"       #XOX&%$&OOOOOOO$OOOoOoO&&@+@#         ",
"      .oO@#$.oOOOOOOOO$OOooooooO.*+*.        ",
"     #OO=$.oOOOOOOOOOO$OoOoooooooO&++.       ",
"    #oO@$.OOOOOOOOOOOO$oooooooooooOX+*.      ",
"    XO=$.OOOOOOOOOOOOOoOoooooooooooOX+=%     ",
"   XO@$.O$OOOOOOOOOOOoooooooooooooo$OX&&$    ",
"  #OX#.OOO$OOOOOOOOOoO$ooooooooooo$ooOX&.    ",
"  XO*$XOOOO$OOOOOOOooo$oooooooooo$oooXO@&%   ",
" .OX%.OOOOOOOOOOOOoOoo$oooooooooooooooXO*.$  ",
" Xo&$oOOOOOOOOOOOooooo$ooooooooooooXoXXXX*%  ",
" oX$&OOOOOOOOOOOoOoooo$oooooooooooooXoXoO&.$ ",
"XO+$OOOOOOOOOOOooooooo$ooooooooooXoXoXXXXX&$ ",
"XO..OOOOOOOOOOoOoooooo$oooooooooooXoXoXXXO*% ",
"OX#+OOOOOOOOOooooooooo$ooooooooXoXXXXXXXXX+.$",
"OX#oOOOOOOOOoOoooooooo$oooooooooXoXoXoXXXXX.$",
"OX$oOOOOOOOooooooooooo$ooooooXoXoXXXXXXXXXo&$",
"O+$OOOOOOOoOoooooooooo$oooooooXoXoXXXXXXXXo&$",
"O+$OOOOOOooooooooooooo$ooooXoXXXXXXXXXXXXXX&$",
"O+$O$$$$oOoooooooooooo$$$$$$$$$oXoXXXX$$$$X&$",
"O+$OOOOooooooooooooooooooXoXoXXXXXXXXXXXXXX&$",
"O@%OOOoOooooooooooooooooooXoXoXXXXXXXXXXXXX&$",
"XX#oOooooooooooooooooooXoXXXXXXXXXXXXXXXXXX&$",
"XX.ooOooooooooooooooooooXoXoXoXXXXXXXXXXXXo.$",
"+X&+oooooooooooooooooXoXXXXXXXXXXXXXXXXXXXo.$",
".X@.ooooooooooooooooooXoXoXXXXXXXXXXXXXXXXX%$",
" +@.OooooooooooooooXoXXXXXXXXXXXXXXXXXXXXX&$$",
" .X@&oooooooooooooooXoXoXXXXXXXXXXXXXXXXXO.$ ",
"  X@&OoooooooooooXoXXXXXXXXXXXXXXXXXXXXXXX%$ ",
"  #+@.ooooooooooooXoXoXXXXXXXXXXXXXXXXXXO.$$ ",
"   X+*ooooo$oooXoXXXXXXXXXXXXXXXX$XXXXXXX$$  ",
"    @+&Ooo$oooooXoXoXXXXXXXXXXXXXX$XXXXO.$$  ",
"    #*+XO$oooXoXXXXXXXXXXXXXXXXXXXX$XXO&$$   ",
"     .=+XOooooXoXoXXXXXXXXXXXXXXXXXXXOX$$    ",
"      .=&XOXoXXXXXXXXX$XXXXXXXXXXXXXO*%$$    ",
"       #*&XOXoXoXXXXXX$XXXXXXXXXXXXOX%$$     ",
"        %&&@oOXXXXXXXX$XXXXXXXXXXXo&$$$      ",
"         $.&*+OOXXXXXX$XXXXXXXXXOX.$$$       ",
"           %.*&XOOXXXXXXXXXXXOOX.$$$         ",
"            $%..*+XooOoOoOooX&.%$$$          ",
"              $$%..&&&&&&&..%$$$$            ",
"                 $$$$$$$$$$$$$               "};
