/* XPM */
static char * ToasterEmpty_xpm[] = {
"48 48 10 1",
" 	c None",
".	c grey76",
"X	c grey64",
"o	c grey89",
"O	c grey39",
"+	c grey13",
"@	c grey26",
"#	c grey51",
"$	c grey7",
"%	c grey4",
"                                                ",
"                         .XX.oo                 ",
"                       .XO+@O#X.o               ",
"                     .XO+$$+@O##.oo             ",
"                   .X#@+$$@O##XXOOXoo           ",
"                 .X#@+$$+O##XX#+$$+O.oo         ",
"               .X#O++$$+O#XXXO$%%%%+#.oo        ",
"             ..#O++$$+OO#XX#+%%%%+O##X.oo       ",
"           XX#O++$$@O##XX#@%%%%$O###X....o      ",
"         XXXO++%$O######O$%%%%@O###X....X.      ",
"        XXXX#OO#######O+%%%%+OO##X...XXX#X      ",
"       XXXXXXXX####X#+%%%%$@OO##X....X####      ",
"      XXXXX####X#X.#%%%%%@O###XX...X######      ",
"     X..XX######XXOO@%%+OO###X.o.XX#######      ",
"     ..oo.X##XX.X#OO@@+@O###Xo.XX#########      ",
"    X....oo.X..X##OOO####XX.o.X###########      ",
"    oooo..ooo..XX######X.oo.X#############      ",
"    oooooooo.oo.XXX#XX.oo..X############O#      ",
"    o.oooooo.oooo..X.oo...X#############O#      ",
"    o.ooooo..o..oo......XX##############O#      ",
"    o.o.ooo.oo.......XXXX##############OO#      ",
"    o.ooooo.oo....XXXXX################OO#      ",
"    o.oo.oo.o.....X#XX#################OO#      ",
"    o.oo.XXX......X####################OO@@     ",
"    o.o##@+@X....X#OO#################OOO++     ",
"    o..O++++@X...#O###################OOOO@     ",
"    ...@+++++XXXXX###################OOO@#      ",
"    ..O+++++OXXXXX###################OOO@@      ",
"    .O$+++++#XXXXXX#################OOO@@       ",
"    .#@$$++@#XXXXXX################OOO@@@       ",
"    .XX#@+@#X.XXXXX################OOO@@        ",
"    .XX.XO#X..XXXXX###############OOO@@         ",
"    .XXXX#XXXXXXXXX##############OOO@@          ",
"    .O@+##XXXXXXXXX#X##########OOO@@@           ",
"    @+$+OO#XXXXXXXX##########OOOO@@@            ",
"    @+++###XXXXXXXX#########OOOO@@@             ",
"    O$+++O##XXXXXX#######OOOOOO@@@              ",
"    ++++$@OOO#XXXX#####OOOOOOO@@@               ",
"    @$+$$++@O####X###O#OOOOOO@@@                ",
"    %+OO+$$$$@O######OOOOOOO@@                  ",
"     %+##@+$$$$+@O#OOOOOO@@@                    ",
"      %$+##+$$+$$+#OOOOO@@                      ",
"        ++@#O+++++O@@O@@                        ",
"          ++OXO+$+%%%@                          ",
"            +++%  %%%                           ",
"                   %                            ",
"                                                ",
"                                                "};
