/* XPM */
static char * ToasterFull_xpm[] = {
"48 48 11 2",
"  	c None",
". 	c grey26",
"X 	c yellow4",
"o 	c grey39",
"O 	c grey51",
"+ 	c grey13",
"@ 	c grey76",
"# 	c grey89",
"$ 	c grey7",
"% 	c grey64",
"& 	c grey4",
"                                        . X X o O .                                             ",
"                                    . X o o X X X o o                                           ",
"                                  . X o o X X X X o .       o . o                               ",
"                                . X X X o o o o . . .   . . X X X o o                           ",
"                              . o o X X o o . . . + . . . X X X X . o                           ",
"                              X o o o . . . . . . . . o X @ X X o o X                           ",
"                            . X . . . . . . . . . . X X X X X o . o X                           ",
"                            o o . + . . . . + + . o X X X X X . . . . o @                       ",
"                            o X + + + . . + + + o X X X X o o o . . . . O @ @                   ",
"                          @ o X + + . + + + . o X X X o o o o . . . . . . o @ # #               ",
"                      @ @ O o . . o + + . . . o X X o o o o . + + . + $ . % @ @ @ #             ",
"                  # @ % O + $ + . + . . . + . X X o . o . . + + + + + o @ @ @ @ @ @             ",
"                # @ % % O o o o o o . + . o o X X X . . . . . + $ . % @ @ @ @ @ % %             ",
"              @ @ % % % O O O O O . . O O . + . X X . . o . + $ o % @ @ @ % % O O O             ",
"            @ @ % % O O O O o . . O % O + $ $ + . . . o + $ + O @ @ @ % % O O O O O             ",
"          # @ @ % % O O O o o O o o o o . + $ + + + + + + o @ # @ % % O O O O O O O             ",
"          @ @ # # @ % % O % % O . . . . + . + + $ $ + . O @ @ @ % O O O O O O O O O             ",
"        # @ @ @ @ # # @ @ @ O o o o o . . + + + + . O @ # @ % % O O O O O O O O O O             ",
"        # # # # @ @ # # # @ % O O O o o o o o O % @ # @ @ % O O O O O O O O O O O O             ",
"        # # # # # # # # @ # # @ % % O O O % @ # # @ @ % % O O O O O O O O O O O o O             ",
"        # @ # # # # # # @ # # # # @ @ @ @ # # @ @ @ % % O O O O O O O O O O O O o O             ",
"        # @ # # # # # @ @ # @ @ # # @ @ @ @ @ @ @ % % O O O O O O O O O O O O O o O             ",
"        # @ # @ # # # @ # # @ @ @ @ @ @ @ @ @ % % % O O O O O O O % % % O O O o o O             ",
"        # @ # # # # # @ # # @ @ @ @ @ % @ % % % O O O O O % % O % % % O O O O o o O             ",
"        # @ # # @ # # @ # @ @ @ @ @ % % % % O O O O O % % % % O O O O O O O O o o O             ",
"        # @ # # @ % % % @ @ @ @ @ @ % O O O O O O O % % % % % O O O O O O O O o o o %           ",
"        # @ # O O . + . % @ @ @ @ @ O o o O O O O % % % % % O O O O O O O O o o o + .           ",
"        # @ @ o + + + + . % @ @ @ % o O O O O O O % % % % % % O O O O O O O o o . + +           ",
"        @ @ @ . + + + + + % @ @ % % O O O O O O % % % % % % % O O O O O O o o o . .             ",
"        @ @ o + + + + + o @ % % % % % O O O O O % % % % % % O O O O O O O o o . .               ",
"        @ o $ + + + + + O @ % % % % % O O O O O % % % % % O O O O O O O o o o . .               ",
"        @ O . $ $ + + . % @ @ % % % % O O O O O % % % O O O O O O O O o o o . .                 ",
"        @ @ % O . + . % @ @ @ @ % % % % % % % % % % % % O O O O O O o o o . .                   ",
"        @ % @ @ % o O % @ @ @ @ @ @ % % % % % % % % O O O O O O O o o o . .                     ",
"        @ % % % % O % % @ @ @ @ % % % % % % % % O O O O O O O O o o o . .                       ",
"        @ o . + O O % % @ @ @ % @ % % % % % % O O O O O O O O o o o . .                         ",
"        . + $ + o o % % @ @ % % % % % % % % O O O O O O O o o o o . .                           ",
"        . + + . % O O % % % % % % % % % % O O O O O O O o o o o . .                             ",
"        o $ + + . o O O % % % % % % % % O O O O O O o o o o . . .                               ",
"        . + + + $ . o o o O % % % % % O O O O O o o o o . . . .                                 ",
"        . + + . $ + o o o O O O O % % O O O o o o o o . . . .                                   ",
"        + + O % . $ + + + . o O O O O O O o o o o . . . .                                       ",
"          + . O O . + $ + $ $ + . o O o o o o . . . .                                           ",
"            + . o O % . $ $ + $ $ + O o o o . . .                                               ",
"              + + . o O O . + + + + o o . . .                                                   ",
"                  + + . . % o + $ + . . .                                                       ",
"                      + + . . $ $ + .                                                           ",
"                              &                                                                 "};
