/* XPM */
static char * BWwidgets_xpm[] = {
"50 50 4 1",
" 	c grey64",
".	c white",
"X	c grey4",
"o	c grey39",
"                                                  ",
" ...............................................X ",
" .                                             oX ",
" .                                             oX ",
" .                                             oX ",
" .                                             oX ",
" .                                             oX ",
" .                                             oX ",
" .     XXXXXXXXXXo   ....................X     oX ",
" .     Xo o o o o.   .                  oX     oX ",
" .     X o o o oo.   .                  oX     oX ",
" .     Xo o o o o.   .                  oX     oX ",
" .     X o o o oo.   .                  oX     oX ",
" .     Xo o o o o.   .                  oX     oX ",
" .     X o o o oo.   .                  oX     oX ",
" .     Xo o o o o.   .                  oX     oX ",
" .     X o o o oo.   .                  oX     oX ",
" .     X........o.   .                  oX     oX ",
" .     X.       X.   .                  oX     oX ",
" .     X.       X.   .                  oX     oX ",
" .     X.       X.   .                  oX     oX ",
" .     X.       X.   .oooooooooooooooooooX     oX ",
" .     X.oooooooX.   XXXXXXXXXXXXXXXXXXXXX     oX ",
" .     X........X.                             oX ",
" .     X.       X.                             oX ",
" .     X.       X.                             oX ",
" .     X.       X.   oooooooooooooooooooo.     oX ",
" .     X.       X.   ooooooooooooooooooo .     oX ",
" .     XoXXXXXXXX.   oo................. .     oX ",
" .     Xo o o o o.   oo.XXXXXXXXXXXXXX.. .     oX ",
" .     X o o o oo.   oo.XX ...XX... XX.. .     oX ",
" .     Xo o o o o.   oo.X ....XX.... X.. .     oX ",
" .     X o o o oo.   oo.X.....XX.....X.. .     oX ",
" .     Xo o o o o.   oo.......XX........ .     oX ",
" .     X o o o oo.   oo.......XX........ .     oX ",
" .     Xo o o o o.   oo.......XX........ .     oX ",
" .     X o o o oo.   oo.......XX........ .     oX ",
" .     Xo o o o o.   oo.......XX........ .     oX ",
" .     X o o o oo.   oo.......XX........ .     oX ",
" .     Xo o o o o.   oo.......XX........ .     oX ",
" .     Xooooooooo.   o                   .     oX ",
" .     o..........   .....................     oX ",
" .                                             oX ",
" .                                             oX ",
" .                                             oX ",
" .                                             oX ",
" .                                             oX ",
" .ooooooooooooooooooooooooooooooooooooooooooooooX ",
" XXXXXXXXXXXXXXXXXXXXXXXXXXXXXXXXXXXXXXXXXXXXXXXX ",
"                                                  "};
