/* XPM */
static char * TwoNetworkedWindows95Machines_xpm[] = {
"48 48 21 2",
"  	c None",
". 	c grey89",
"X 	c grey76",
"o 	c grey51",
"O 	c grey64",
"+ 	c grey39",
"@ 	c white",
"# 	c cyan3",
"$ 	c turquoise4",
"% 	c grey13",
"& 	c grey26",
"* 	c DarkOrange1",
"= 	c brown4",
"- 	c orange3",
"; 	c LimeGreen",
": 	c ForestGreen",
"> 	c yellow4",
", 	c yellow1",
"< 	c firebrick3",
"1 	c green1",
"2 	c goldenrod1",
"  . . . . . . . . . . . X X X X X X X X X X X X o o                                             ",
"  . . . . . . . . X X X X X X X X X X X O O O O + + o                                           ",
"  . . X X X X X X X X X X X X X O O O O O O O O + + + o o                                       ",
"  . . X @ . . . # # # # # # # # # # # # # # O O + + + + +                                       ",
"  . . X @ @ @ . X # # # # # # # # # # # # # O O + + + + +                                       ",
"  . . X . . @ @ X $ $ # # # # # # # # # # # O O + + + + +                                       ",
"  . . X X X . . . X + + $ $ $ $ # # # # # # O O + + + + +                                       ",
"  . . X # # # X . X O + % % % % % + # # # # O O + + + + +                                       ",
"  . . X # # # O O O O O % & * & & % & # # # O O + + + + +                                       ",
"  . . X # # # # O + + + % = - & ; : % # # # O O + + + + +                                       ",
"  . . X # # $ # # O + % % & % % : % o . # # O O + + + + +                                       ",
"  . . X # # $ $ O # $ % $ $ & > & % X . X # O O + + + + +                                       ",
"  . . X # # # $ + + & % $ $ > , + & # # # # O O + + + + +                                       ",
"  . . X # # # # $ + % % % % & > % $ # # # # O O + + + + +                                       ",
"  . . X # # # # # # X O O $ % % & # . . . . . . . . . . . X X X X X X X X X X X X X o o         ",
"  . . X # # # # # # # # # # # + $ # . . . . . . . . X X X X X X X X X X X O O O O O + + o       ",
"  . . X # # # # # # # # # # # # # # . . X X X X X X X X X X X X X O O O O O O O O O + + + o o   ",
"  . . X # # # # # # # # # # # # # # . . X = * * * * * < = = % % % % & : : : : : O O + + + + +   ",
"  . . . . . . . X X X X X X X X X O . . O = * * * * * * * = % % % % + : ; ; ; ; O O + + + + +   ",
"  . . . . . . . X X X X X X X X X O . . O = * * * * * * * = % % % % : : ; ; ; : O O + + + + +   ",
"  X X X X X X X X X X X X X X O O O . . O = * * * * * * * = % % % % : ; ; ; ; : O O + + + + +   ",
"                  X X O O o +       . . O = * * * * * * * = % % % & : ; ; ; ; : O O + + + + +   ",
"          O O O O X O O o + + + + + . . O = = = < = = = = % % % % & : ; ; ; ; : O O + + + + +   ",
"      O O O O X X O O o o o o o o o . . O % % % % % % % % % % % % & : ; ; ; ; : O O + + + + +   ",
"  O O O O O O O X X X O O O O o o o . . O % % % % % % % % % % % % % & & : : ; : O O + + + + +   ",
"O . . . . . . . . . . . . . X X X X . . O % % % % % % % % % % % % % % % % % & : O O + + + + +   ",
". X X X X X X X O O O O O O O O O O . . O & $ $ $ $ $ + % % % % % % % % % % % % O O + + + + +   ",
". X X 1 1 : O O O O O O O O O O O O . . O $ $ $ $ $ $ $ % % % % & > + % % % % % O O + + + + +   ",
". X X : : : O O O O O O O O o o + + . . O $ $ $ $ $ $ & % % % % > 2 2 2 - & % % O O + + + +     ",
". X X X O O O O O O O O O O O O . . . . O $ $ $ $ $ $ & % % % % & > - - 2 2 > & O O + + +       ",
". X X O O O O O O O O O O O O O O O . . O $ $ # # # $ & % % % & & > > > > > - - O O + + +       ",
". X O O O O O O O O O O O O O O O O . . O $ $ $ $ $ $ % % % % + - 2 2 2 2 2 2 - O O + + +       ",
"O O O O O O O O O O O O O O O O O O . . X X X X X O O O O O O O O O O O O O O O O O + +         ",
"  + + + + + + + + + + + + + + + + + . . X X X X X X X X X O O O O O O O O O O O O O + +         ",
"                  O o + %           O O O O O O O O O X X X X X O O O O O O O O O O +           ",
"                  O o + %                             X X X O O o +                             ",
"                  . o o %                     O O O O X O O O o + + + + + o o o o o o o o o o o ",
"                  . o o %                 O O O O X X O O O o o o o o o o o o o o o o o o o o + ",
"                  . o o %             O O O O O O O X X X X O O O o o o o o o o o o o o o + + + ",
"                  . o o %           O . . . . . . . . . X X X X O O O O o o o o o o o + + + + + ",
"                2 2 2 2 2 2 *       . X X X X X X X O O O O O O O O O O O O O O O O O + + + + + ",
"  . . . . . . , , , , , * O . . . . . X X 1 1 : O O O O O O O O O O O O O O O O O O O + + + + + ",
"O o o o o o o * * * * * o o o o o o . X X : : : O O O O O O O O o o + + + + + o o O O + + + + + ",
"  % % % % % % > > > > > > % % % % % . X X O O O O O O O O O O O O O . . . . . O O O O + + + + + ",
"                = = = = = = %       . X O O O O O O O O O O O O O O O O O O O O O O O + + + + + ",
"                                    . O O O O O O O O O O O O O O O O O O O O O O O O + + + + + ",
"                                    O O O O O O O O O O O O O O O O O O O O O O O O O + + +     ",
"                                      + + + + + + + + + + + + + + + + + + + + + + + + +         "};
