/* XPM */
static char * Wizard_xpm[] = {
"48 48 19 2",
"  	c white",
". 	c grey39",
"X 	c magenta4",
"o 	c grey26",
"O 	c grey64",
"+ 	c grey13",
"@ 	c grey7",
"# 	c grey4",
"$ 	c magenta3",
"% 	c yellow4",
"& 	c goldenrod1",
"* 	c yellow3",
"= 	c orange3",
"- 	c brown4",
"; 	c grey89",
": 	c grey76",
"> 	c grey51",
", 	c turquoise4",
"< 	c cyan3",
"                                                                                                ",
"  . X . . . X . . . X . . . X . . . X . . . X . . . X . . . X . . . X . . . X . . . X . . . X   ",
"  . . . o . . . o . . . o . . X O O X X + + + @ # # # # # @ + . o . . . o . . . o . . . o . .   ",
"  . X . X . X . X . X . X . X . $ X X X X + % % # # # # @ # + o X . X . X . X . X . X . X . X   ",
"  . . . . . . . . . . . . . . $ O X o o + o % & # # # # # # # o . . . . . . . . . . . . . . .   ",
"  . X . . . X . . . X . . . X O $ X X o o % & * = # # # # # @ + . . X . . . X . . . X . . . X   ",
"  . . . o . . . o . . . o . . $ X X + % % & % & % & - # # # # + o . . . o . . . o . . . o . .   ",
"  . X . X . X . X . X . X . X O $ X o + % * & * & = # # # # @ + . . X . X . X . X . X . X . X   ",
"  . . . . . . . . . . . . . O $ X X + + + & % & % - # # # # # + + . . . . . . . . . . . . . .   ",
"  . X . . . X . . . X . . . $ O X o o + % % & * & = # # # # @ @ + . X . . . X . . . X . . . X   ",
"  . . . o . . . o . . . o X O $ o o + + % & + # % = # # # # # @ + . . . o . . . o . . . o . .   ",
"  . X . X . X . X . X . X . $ X X o o + % + + @ # - # # # # # # + o X . X . X . X . X . X . X   ",
"  . . . . . . . . . . . . X O X o o + + + o + @ # # # # # # # # @ o . . . . . . . . . . . . .   ",
"  . X . . . X . . . X . . O $ X o + o + o + + @ @ # # # # # # # @ + X . . . X . . . X . . . X   ",
"  . . . o . . . o . . . . $ o X + o + + + + + + @ @ + + + + # # # + . . o . . . o . . . o . .   ",
"  . X . X . X . X . X . ; O $ O ; O $ O ; O X + $ X X X X X X # @ # # . X . X . X . X . X . X   ",
"  . . . . . . . . . . $ X X X + + @ # @ + + o X + @ # # # # + + @ @ # . . . . . . . . . . . .   ",
"  . X . . . X . . . X O X + + # @ # # # # # # # # # # # # # # # # # # # . . X . . . X . . . X   ",
"  . . . o . . . o . o @ @ # # # + . + o @ @ @ # + o o o @ @ @ + # # # # o . . . o . . . o . .   ",
"  . X . X . X . X .     . # o o O = ; = ; o + # O O ; = X o + @ + @ # # O . X . X . X . X . X   ",
"  . . . . . . . .     : .             : : : > # o         ; : : O > . #   O . . . . . . . . .   ",
"  . X . . . X .     : o o o O O O O O O > . . # o O O O O O O > . . . # O ; O . . . X . . . X   ",
"  . . . o . . .   : > . . # # # # # # # # # # # # # # # # # # # # # # + > ; : , o . . . o . .   ",
"  . X . X . X .   ; o   . @ # # .       O + + = + # .       O # # # @ + : ; ; ; O . X . X . X   ",
"  . . . . . . .   > O   o + #   # @ # @ @ o o = # + @ + + + + o @ # # + :   : ; ; , o . . . .   ",
"  . X . . . X . ; .   ; o @ o     ; ; O X + X = + + + o . . = O o # @ @ ; ; : > ; , X , X . X   ",
"  . . . o . . X ; .   : @ @ .       = ; O o . = # + @ . O = = O + # # @ .   ; > ; , .   . . .   ",
"  . X . X . X . : .   . + . + ,       = ; = O = + + + O ; = = . o @ # @ O     > ; :   ; X . X   ",
"  . . . , . . .   ; ; > @ . @ . ;   : = . X : = # o @ = = = . + # O # @ o O   . . ; ; X . . .   ",
"  . X ,   . ,     :   O + . O > : : ; = +   ; = @ + o = = O . > ; O . # . O     . > O . . . X   ",
"  . . , ;       :   ; o @ .   : . . O X @ o o = # + @ o - . +   ; O . # . o ;   ; o o + o . .   ",
"  . X ,       : >     # @ .     O . . . O   ; # # :   > o + .     ; . # : + . :   , o . X . X   ",
"  . . .     : : .   O @ + O     >   > :   ; : @ . O     @ o       ; . @ # . + O ; ; + . . . .   ",
"  . X . ,     > .   > + o :     ;   >   ; O o @ o o ;   O . ;   : ; : . # O + + ; O o . . . X   ",
"  . . . o X   > o   > + + :     :   :   : . O = O O .     o :   O   ; o # O @ + > . + . o . .   ",
"  . X . O     > o   > + @ :   >   ;     > o # # @ # o :   O : ; o ; ; o # O @ o > . + . X . X   ",
"  . . . O   # # # # # # # > >     O   ; o = O # # = O . ;   ;   o > : + # + # # # @ + . . . .   ",
"  . @ @ + + + + $ O X @ # . O     :   . . = .   . # ; . ;   O ; : o o # $ O X O $ # + . . . X   ",
"  . O $ @ $ O X O $ o X # . :   :   ; o o . :     # o . O   :   ; > # # O $ + + O $ o @ # # .   ",
"  . $ X + O $ X ; X X + # . ;   : ; : . < , ;     o o   O   > ;   > @ O ; X $ @ X O X O ; + X   ",
"  . X X @ $ O X O X o + . O     O   .     : ;     : .   .   O O ; > # $ X o O X + $ X o O X .   ",
"  . X @ X O $ + $ X X @ . O   O : ; .     ;         .   O   ; > ; > @ O X + $ X + O $ + $ O X   ",
"  . o + + X X # X X + @ @   O ;     .       ;   O     :     : O ; > # X + @ X X @ o X + + $ .   ",
"  . X @ + X X # $ X @ # + : > :   O ;         ; .     O <   ; > : + # X X # $ X X # X # X O X   ",
"  . + @ @ X + # + X # + @ : . :   ;       O ;   o       :   O o > @ # X + # o $ + # + # + $ .   ",
"  . + # # + X # # + @ + + O . :           o     o :     < , O + + # # + X # X X X # # # X O X   ",
"  . . . o . . . o . . . o . . . o . . . o . . . o . . . o . . . o . . . o . . . o . . . o . .   ",
"                                                                                                "};
