/* XPM */
static char * CylinderWrenchSpreadsheet_xpm[] = {
"48 48 23 2",
"  	c None",
". 	c grey64",
"X 	c grey51",
"o 	c turquoise4",
"O 	c blue3",
"+ 	c blue4",
"@ 	c grey39",
"# 	c grey26",
"$ 	c blue1",
"% 	c magenta4",
"& 	c grey89",
"* 	c LimeGreen",
"= 	c white",
"- 	c grey76",
"; 	c magenta3",
": 	c grey4",
"> 	c cyan3",
", 	c grey13",
"< 	c grey7",
"1 	c ForestGreen",
"2 	c brown4",
"3 	c firebrick3",
"4 	c cyan1",
"            . X o o O + O O O + O o X . .                             . @ X @ @ @ # @ X         ",
"        X o + + + + + + + + + $ + $ + o X X .                     . @ % o & * = = & @ # #       ",
"    . + O + + + + + $ + $ + $ + $ + $ % $ % % .                 X @ X - = = & - . o ; . # #     ",
"  . + + # + + + + + + + + % + $ + % + $ + $ % o X             . @ o - = - . o . o . o @ : :     ",
". o + + + + + + $ + $ + $ + $ + $ % $ o ; o ; o o .           X X = = - > . . o > # : : @       ",
"X + # + + + + + + + + $ + $ + $ % $ + $ % ; o $ o .         . # . = & > o . o @ : : #           ",
"X + + + + + $ + $ + $ + $ + $ % $ % $ o ; o ; o ; %         X @ = = = . . o # : #               ",
"+ + + + + + + + + % + $ + % + $ + $ % ; o $ o ; o %         @ . = . = . o . : @                 ",
"$ + + + $ + $ + $ + $ + $ % $ o ; o ; o ; o ; o > +         @ - = . = - > . : #                 ",
"+ + + + + + + $ + $ + $ % $ + $ % ; o $ o ; o ; % +         @ & - . > = o . , < .               ",
"$ + $ + $ + $ + $ + $ % $ % $ o ; o ; o ; o ; o + ,         # = . # : = & o % : X               ",
"+ % + $ + % + $ + % + $ + $ % ; o $ o ; o ; + + , ,       X @ = # : # @ = . @ , , .             ",
"$ % ; o ; % $ + $ % $ o ; o ; o ; o ; o ; + + , + ,       @ . = @ : = = = - . @ : X >       . , ",
"+ $ % $ o > o $ % $ + $ % ; % $ % % # + , , , + , +       @ - & o @ = # # = o % , ,     - . # : ",
"$ % ; o ; o ; o $ % $ + $ + + + + , + , + , + , + ,     @ @ = . . o : = = = & . @ : & . . o , : ",
"+ % % ; o ; o ; + % + + + + + + , , , , , , , + , ,     # - - . o . # = # # = . @ , , . o # : @ ",
"$ % ; o > ; ; o ; % $ + $ + + + + , + , + , + , + ,   X @ = . o > . . o > . = - > . : # , : #   ",
"+ $ % $ o > o $ % $ + $ + + # + , + , , , , , + , + X # = . o . o . # # # @ # # , , : : : @     ",
"$ % ; o ; o ; o $ % $ + $ + + + + , + , + , + , + @ # = . # & . . # : : : : : : < , , #         ",
"+ % % ; o ; o ; + % + + + + + + @ @ @ @ @ @ @ @ # @ = . # . - . # : : @ # # # : # # :           ",
"$ % ; o > ; ; o ; % $ + $ + + + @ - & - = - & 1 @ = . # > > . # : : . o @ o . . : : < X         ",
"+ $ % $ o > o $ % $ + $ + + # + @ & - & - & @ @ = . # . - . # : : . 1 . # . . . o . : X         ",
"$ % ; o ; o ; o $ % $ + $ + + + @ - & - & @ # = . # ; > . # : : . 1 . . # o . . > . , X         ",
"+ % % ; o ; o ; + % + + + + + + @ & - & @ @ = . # . - . # : : . 1 . o . # . - > - - < X         ",
"$ % ; o > ; ; o ; % $ + $ + + + @ - & 1 @ = . # > > . # : : 2 2 3 2 2 2 2 2 3 2 2 2 , X         ",
"X $ % $ o > o $ % $ + $ + + # + @ & @ @ = . # . - . # : : . @ - . > - & o = 4 = = = : X         ",
". o ; o ; o ; o $ % $ + $ + + + @ @ # = . # ; > . # : : . . % - - - & & . = = = = = , X         ",
"  X + ; o ; o ; + % + + + + + + # @ = . # . - . # : : # # # # # # @ @ @ # @ @ @ @ @ : X         ",
"    . . > ; ; o ; % $ + $ + + , @ = . # > > . # : : . . & - . - & = = = . = = = = = , X         ",
"    . X X ; o $ % $ + $ + + , @ = . # . - . # : : . . - . > X & & = 4 = . = = = = = : X         ",
"        . X o o $ % $ + $ , # = . # ; > . # : : 2 # # # # # @ @ % @ @ @ @ @ @ @ @ @ , X         ",
"            . . X o o O , @ = . # . - . # : : . , . . - - & o = 4 = = = . = = = = = : X         ",
"                      X @ = . # > > . # : : . o 3 - & - & = . = = = = = . = = = = = , X         ",
"                    X @ = . # . - . # : : # # # 2 # # @ @ @ @ @ @ @ @ @ @ @ @ @ @ @ : X         ",
"                  X # = . # ; > . # : : . 1 . . 2 - & & = = ; = = = = = . = = = = = , X         ",
"                X @ = . # . - . # : : . 1 . o . 2 & - = 4 = . = = = = = . = = = = = : X         ",
"              X @ = . # > > . # : : # # @ # # # 2 @ % @ @ @ @ @ @ @ @ @ @ @ @ @ @ @ , X         ",
"            X @ = . # . - . # : : . 1 . . . . - 2 = 4 = = = . = = = = = . = = = = = : X         ",
"          X # = . # ; > . # : : # 1 . . . . & - 3 = = = = = . = = = = = . = = = = = , X         ",
"        X @ = . o # - . # : :   # # # # # @ @ @ 2 @ @ @ @ @ @ @ @ @ @ @ @ @ @ @ @ @ : X         ",
"      X @ = . o > . . # : :     @ . . . & - - - 2 = = = = = . = = = = = . = = = = = , X         ",
"    X # = @ : # o . # : :       # . . - - - - & 2 = = = = = . = = = = = . = = = = = : X         ",
"    X # . : : : . # : :         # # @ @ % @ @ @ 3 @ @ @ @ @ @ @ @ @ @ @ @ @ @ @ @ @ , X         ",
"    X : # = = @ # : :           # - - - - > - & 2 = = = = = . = = = = = . = = = = = : X         ",
"    X : : # # # : :             @ - - - = - & - 2 = = = = = . = = = = = . = = = = = , X         ",
"      # : : : : :               @ , , , , , , , , , , , , , , , , , , , , , , , , , , X         ",
"        # # # #                   X X X X X X X X X X X X X X X X X X X X X X X X X X X         ",
"                                                                                                "};
