/* XPM */
static char *magick[] = {
/* columns rows colors chars-per-pixel */
"16 14 5 1",
"  c Gray0",
". c Red",
"X c #ff00d7000000",
"o c Gray100",
"O c None",
/* pixels */
"OOOOOOOOOOOOOOOO",
"OOOOOXOOOO OOOOO",
"OOoooXoooo oo OO",
"OOooo ooo  oo OO",
"OOoooooo.oooo OO",
"OOooooo..oooo OO",
"OOoooooo.oooo OO",
"OOoooooo.oooo  O",
"OOoooooo.oooo  O",
"OO o ooo.oooo  O",
"OOo  oooooooo  O",
"OO             O",
"OOO            O",
"OOOOOOOOOOOOOOOO"
};
