/* XPM */
static char *dev_cdrom[] = {
	"16 16 6 1",
	". c grey80   m white g4 grey80",
	"b c black  m black g4 black",
	"g c grey90 m white g4 grey80",
	"w c white m white g4 white",
	"r c red    m black g4 grey60",
	"h c forestgreen  m black g4 grey50",
	"................",
	"................",
	"......bbbb......",
	"....bbggrrbb....",
	"...bwwggrrrgb...",
	"...bwwwgrrggb...",
	"..bggwwgrghhhb..",
	"..bhgggbbhhhhb..",
	"..bhhhhbbggghb..",
	"..bhhhgrgwwggb..",
	"...bggrrgwwwb...",
	"...bgrrrggwwb...",
	"....bbrrggbb....",
	"......bbbb......",
	"................",
	"................",
};	
