/* XPM */
static char *dev_cdrom[] = {
	"16 16 6 1",
	". c grey80   m white g4 grey80",
	"b c black  m black g4 black",
	"g c blue m white g4 grey70",
	"w c white m white g4 white",
	"s c grey95 m white g4 grey95",
	"y c yellow m white g4 grey90",
	"................",
	"................",
	"................",
	"................",
	"...gyyyyyyyyg...",
	"...gwwwwwwwwg...",
	"...gwwwwwwwwg...",
	"...gwwwwwwwwg...",
	"...gggggggggg...",
	"...ggssssssgg...",
	"...ggsggsssgg...",
	"...ggsggsssgg...",
	"....gssssssgg...",
	"................",
	"................",
	"................",
	"................",
};	
