/* XPM */
static char *dev_cdrom[] = {
	"16 16 4 1",
	". c grey80   m white g4 grey80",
	"b c grey50  m black g4 grey50",
	"w c white m white g4 white",
	"s c black m black g4 black",
	"................",
	"................",
	"..ssssssssssss..",
	"..swwwwwssssss..",
	"..swwwwwsssss...",
	"..ssssssssssss..",
	"..sssssbbsssss..",
	"..ssssb..bssss..",
	"..ssssb..bssss..",
	"..sssssbbsssss..",
	"..ssssssssssss..",
	"..sssssbbsssss..",
	"..sssssbbsssss..",
	"..ssssssssssss..",
	"................",
	"................",
};	
