/* XPM */
static char *dir_locked[] = {
	"16 16 4 1",
	". c grey90   m white g4 grey90",
	"b c black  m black g4 black",
	"y c yellow m white g4 grey80",
	"r c red    m black g4 red",
	"................",
	"................",
	"rr..........rr..",
	".rrbbb.....rr...",
	".brryyb...rr....",
	"bbbrrbbbbrrbbb..",
	"byyyrryyrryyyb..",
	"byyyyrrrryyyyb..",
	"byyyyyrryyyyyb..",
	"byyyyrrrryyyyb..",
	"byyyrryyrryyyb..",
	"byyrryyyyrryyb..",
	"bbrrbbbbbbrrbb..",
	".rr........rr...",
	"rr..........rr..",
	"................",
};	
