/* XPM */
static char *dir_closed[] = {
	"16 16 3 1",
	". c grey90   m white g4 grey90",
	"b c black  m black g4 black",
	"y c yellow m white g4 grey80",
	"................",
	"................",
	"................",
	"..bbbb..........",
	".byyyyb.........",
	"bbbbbbbbbbbbbb..",
	"byyyyyyyyyyyyb..",
	"byyyyyyyyyyyyb..",
	"byyyyyyyyyyyyb..",
	"byyyyyyyyyyyyb..",
	"byyyyyyyyyyyyb..",
	"byyyyyyyyyyyyb..",
	"bbbbbbbbbbbbbb..",
	"................",
	"................",
	"................",
};	
