/* XPM */
static char *file_lock[] = {
	"16 16 3 1",
	". c grey90   m white g4 grey90",
	"b c black m black g4 black",
	"g c red m white g4 grey50",
	"................",
	".............g..",
	".....gggggg.ggg.",
	"....gggggggggg..",
	"...gg.....ggg...",
	"..gg.....ggggg..",
	"..gg....ggg.gg..",
	"..gg...ggg..gg..",
	"..gg..ggg...gg..",
	"..gg.ggg....gg..",
	"..ggggg.....gg..",
	"...ggg.....gg...",
	"..gggggggggg....",
	".ggg.gggggg.....",
	"..g.............",
	"................",
};	
