/* XPM */
static char *file_dlink[] = {
	"16 16 4 1",
	". c grey90   m white g4 grey90",
	"b c black m black g4 black",
	"r c red   m white g4 grey70",
	"y c yellow m white g4 grey80",
	"................",
	"................",
	"................",
	"..bbbbb.........",
	".brrrrrb........",
	"bbrrrrrrbbbbbb..",
	"bybbbrrrbyyybb..",
	"byyyybrrrbbbbrb.",
	"byyyybrrrrrrrrrb",
	"byyyyybrrrrrrrrb",
	"byyyyyybbbbbbrb.",
	"byyyyyyyyyyybb..",
	"bbbbbbbbbbbbbb..",
	"................",
	"................",
	"................",
};	
