/* XPM */
static char *file_ctar[] = {
	"16 16 4 1",
	". c grey90   m white g4 grey90",
	"b c black  m black g4 black",
	"g c white m white g4 white",
	"l c blue  m black g4 grey70",
	"................"
	"................"
	".......lll......",
	".......lll......",
	"......lllll.....",
	".......lll......",
	"...bbbbbbbbbbb..",
	"...bgggggggggb..",
	"...bgggggggggb..",
	"...bbbbbbbbbbb..",
	".......lll......",
	"......lllll.....",
	".......lll......",
	".......lll......",
	"................"
	"................"
};
