/* XPM */
static char *file_exec[] = {
	"16 16 4 1",
	". c grey90   m white g4 grey90",
	"b c black  m black g4 black",
	"g c lightblue m white g4 grey80",
	"w c white m white g4 white",
	"................",
	"................",
	"................",
	"..bbbbbbbbbbbb..",
	"..bggggggggggb..",
	"..bggggggggggb..",
	"..bbbbbbbbbbbb..",
	"..bwwwwwwwwwwb..",
	"..bwwwwwwwwwwb..",
	"..bwwwwwwwwwwb..",
	"..bwwwwwwwwwwb..",
	"..bwwwwwwwwwwb..",
	"..bbbbbbbbbbbb..",
	"................",
	"................",
	"................",
};	
