/* XPM */
static char *file_movie[] = {
	"16 16 3 1",
	". c grey90   m white g4 grey90",
	"b c black  m black g4 black",
	"g c white m white g4 white",
	"................",
	"................",
	"...bbb..........",
	"..bbbbbbb.......",
	".....bbbbbbb....",
	"........bbbbbbb.",
	"...........bbb..",
	".bbbbbbbbbbbbb..",
	".bbbbbbbbbggbb..",
	".bgggggbbgggbb..",
	".bbbbbgbbbggbb..",
	".bbgbggbbbggbb..",
	".bbbbbbbbbbbbb..",
	"................",
	"................",
	"................",
};
