/* XPM */
static char * grep_xpm[] = {
"32 32 5 1",
" 	c white",
".	s none c none",
"X	c black",
"o	c #BEFBBEFBBEFB",
"O	c #5D759E79A289",
"....XXXXXXXXXXXXXXXXXX..........",
"....X                XX.........",
"....X                XoX........",
"....X    XXXXXX      XooX.......",
"....X  XXooooooXX    XoooX......",
"....X XoooXXXXoooX   XooooX.....",
"....XXooXX    XXooX  XXXXXXX....",
"....XOoX        XooX  oooooXX...",
"....XOX          XoX   ooooXX...",
"...XOOX          XooX      XX...",
"...XOX  X  XX   XXXoX XXX  XX...",
"...XOX X X X X X  XoX      XX...",
"...XOX XXX XX  X  XoX X    XX...",
"...XOX X X X X X  XoX      XX...",
"...XOX X X XX   XXXoX      XX...",
"...XOOX          XooX      XX...",
"....XOX         XXoX  XXX  XX...",
"....XOOX        XOOX       XX...",
"....XXOOXX    XXOOXX  XX   XX...",
"....X XOOOXXXXOOOXOoX      XX...",
"....X  XXOOOOOOXXXOOoXX    XX...",
"....X    XXXXXX   XOOoX    XX...",
"....X XX        X  XOOoX   XX...",
"....X               XOOoX  XX...",
"....X XXXXX  XXXXXX  XOOoX XX...",
"....X                 XOOoXXX...",
"....X XXX XX  XXX  XX  XOOoXX...",
"....X                   XOOoX...",
"....X                    XOOX...",
"....X                     XXX...",
"....XXXXXXXXXXXXXXXXXXXXXXXXX...",
".....XXXXXXXXXXXXXXXXXXXXXXXX..."};
