/* XPM */
static char *magick[] = {
/* columns rows colors chars-per-pixel */
"14 16 91 1",
"  c Gray0",
". c Gray100",
"X c #c00060007700",
"o c #600030003b00",
"O c #ff008600a700",
"+ c #080008000000",
"@ c #100010000000",
"# c #180018000000",
"$ c #200020000000",
"% c #280028000000",
"& c #300030000000",
"* c #380038000000",
"= c #400040000000",
"- c #480048000000",
"; c #500050000000",
": c #580058000000",
"> c #600060000000",
", c #680068000000",
"< c #700070000000",
"1 c #780078000000",
"2 c #800080000000",
"3 c #880088000000",
"4 c #900090000000",
"5 c #980098000000",
"6 c #a000a0000000",
"7 c #a800a8000000",
"8 c #b000b0000000",
"9 c #b800b8000000",
"0 c #c000c0000000",
"q c #000000000800",
"w c #000000001000",
"e c #000000001800",
"r c #000000002000",
"t c #000000002800",
"y c #000000003000",
"u c #000000003800",
"i c #000000004000",
"p c #000000004800",
"a c #000000005000",
"s c #000000005800",
"d c #000000007000",
"f c #000000008000",
"g c #000000009000",
"h c #000000009800",
"j c #00000000a000",
"k c #00000000a800",
"l c #00000000b000",
"z c #00000000b800",
"x c #00000000c800",
"c c #00000000d800",
"v c #00000000e000",
"b c #00000000e800",
"n c #00000000f000",
"m c #00000000f800",
"M c #f800b000b000",
"N c #f00098009800",
"B c #e80080008000",
"V c #e00064006400",
"C c #d8004c004c00",
"Z c #d00030003000",
"A c #c80018001800",
"S c #c00000000000",
"D c #b80000000000",
"F c #b00000000000",
"G c #a80000000000",
"H c #a00000000000",
"J c #980000000000",
"K c #900000000000",
"L c #880000000000",
"P c #800000000000",
"I c #780000000000",
"U c #700000000000",
"Y c #680000000000",
"T c #600000000000",
"R c #580000000000",
"E c #500000000000",
"W c #480000000000",
"Q c #400000000000",
"! c #380000000000",
"~ c #300000000000",
"^ c #280000000000",
"/ c #200000000000",
"( c #180000000000",
") c #080000000000",
"_ c #f800f800e000",
"` c #f000f000c000",
"' c #e800e800a000",
"] c #e000e0008000",
"[ c #d800d8006000",
"{ c #d000d0004000",
"} c #c800c8002000",
/* pixels */
"iuiieuptuytptp",
"uyuuru_`'eitup",
"purt___`'[0ttt",
"ip'`___`'[073i",
"tr]'```']{962p",
"t0{]''']{0841;",
"i80{[[[{0862,=",
"i6890009863<;&",
"i246777642<:*@",
"r,1233321,;*# ",
"y=; wp,>qqtd  ",
"yuutudx*ttah p",
"utfdfzm+ddhv i",
"pyicnm  vvmmyi",
"ypywty   iiiiy",
"tuuyitiuiuytyy"
};
