/* XPM */
static char * mail_xpm[] = {
"64 32 5 1",
" 	c white",
".	s none c none",
"X	c black",
"o	c #8617CF3CEBAD",
"O	c #D34CD34CD34C",
"................................................................",
"................................................................",
"................................................................",
"........                                                ........",
"........                                               X........",
"........                                               X........",
"........                                               X........",
"........                                      oXoXoXo  X........",
"........     XXXX XXXX                         ooooo   X........",
"........                                      oXoooXo  X........",
"........     XX XXXXX XX                       ooooo   X........",
"........                                      oXoooXo  X........",
"........                                       ooooo   X........",
"........                                      oXoXoXo  X........",
"........                                               X........",
"........                   XO   X  O X   O             X........",
"........                   XXXX XXXX XXXXXXX           X........",
"........                                               X........",
"........                   X   X O  O  O               X........",
"........                   XXX XXXXXXXXX  XX           X........",
"........                                               X........",
"........                   X X OX    O                 X........",
"........                   XXXXXXXX  XX                X........",
"........                                               X........",
"........                                               X........",
"........                                               X........",
"........                                               X........",
"........ XXXXXXXXXXXXXXXXXXXXXXXXXXXXXXXXXXXXXXXXXXXXXXX........",
"................................................................",
"................................................................",
"................................................................",
"................................................................"};
