/* XPM */
static char *magick[] = {
/* columns rows colors chars-per-pixel */
"16 16 8 1",
"  c Gray0",
". c #2e008b005700",
"X c Green",
"o c #3200cd003200",
"O c #a00052002d00",
"+ c peru",
"@ c gainsboro",
"# c None",
/* pixels */
"################",
"###  # # ######X",
"#######  #####XX",
"### ## ######XXX",
"##+ ######## XXX",
"## O++  ++++ X X",
"#####  @  XX X  ",
"######o #.XXXXXX",
"##### o#..XXXXX ",
"#### oo#  #XXXXX",
"####.oo ##XXXXXX",
"###..ooo# XXX# X",
"##. oooo#XXXX#XX",
"##. oooo XXX##XX",
"#.. oooo.#####XX",
"################"
};
