/* XPM */
static char *magick[] = {
/* columns rows colors chars-per-pixel */
"16 16 19 1",
"  c Gray0",
". c Gray4",
"X c Gray13",
"o c Gray39",
"O c #8b0023002300",
"+ c #cd0026002600",
"@ c Red",
"# c #ff007f000000",
"$ c #8b0000008b00",
"% c #8b008b000000",
"& c #cd0085000000",
"* c #cd00cd000000",
"= c #ff00c1002500",
"- c Yellow",
"; c Gray64",
": c Gray76",
"> c Gray89",
", c Gray100",
"< c None",
/* pixels */
"<<<<<<<<<X<<<<<<",
";;;;;;;;;<<;:<<<",
";,,,,,,,,:<o;<<<",
";;:oo;:;>;o;o;<<",
";,,,,,,,,o;<<.;,",
";o;::;;oOO;<<<o.",
";,,,,,,OO.<<<<<<",
";;o:;;OO.%&&&#<<",
";,,,,OO.$&#==#<<",
";,,,#O.$,o*=O%<<",
"<;;@O.%%#%=&##<<",
"<<+O.>=====#&#<<",
"<#O.<-&=O=#==#<<",
"OO.<<=%&O#&=O%<<",
"<<<<<=#&=*#&&&<<",
"<<<<<OOOOXX...<<"
};
