/* XPM */
static char * tar_xpm[] = {
"32 32 4 1",
" 	c white",
".	s none c none",
"X	c black",
"o	c #BEFBBEFBBEFB",
".XXXXXXXXXXXXXXXXXXXXXXXXXXXXXX.",
".X                            XX",
".X                            XX",
".X    XXXXX XX  XXX           XX",
".X      X  X  X X  X          XX",
".X      X  X  X X  X          XX",
".X      X  XXXX XXX           XX",
".X      X  X  X X X           XX",
".X      X  X  X X  X          XX",
".X                            XX",
".X                            XX",
".X    XXXXXXXXXXXXXXXXXXXX    XX",
".X    XooooooooooooooooooX    XX",
".X    XooooooXXXXXXXXooooX    XX",
".X    XoooooXooooooooXoooX    XX",
".X    XooooXoooooooooXoooX    XX",
".X    XooooXooooooooooXooX    XX",
".X    XoooXoooooooooooXooX    XX",
".X    XoooXooooooXXXXXoXoX    XX",
".X    XooXooooooXXXXXXXXoX    XX",
".X    XooXoooooXXXXXXXXXoX    XX",
".X    XoXXXXoooXXXXXXXXXoX    XX",
".X    XoXXXXXooXXXXoXXXXoX    XX",
".X    XoXXoXXooXXXXXXXXXoX    XX",
".X    XoXXXXXooXXXXXXXXXoX    XX",
".X    XooXXXooooXXXXXXXooX    XX",
".X    XooooooooooXXXXXoooX    XX",
".X    XooooooooooooooooooX    XX",
".X    XXXXXXXXXXXXXXXXXXXX    XX",
".X                            XX",
".XXXXXXXXXXXXXXXXXXXXXXXXXXXXXXX",
"..XXXXXXXXXXXXXXXXXXXXXXXXXXXXXX"};
