/* XPM */
static char * taz_xpm[] = {
"32 32 3 1",
" 	c white",
".	s none c none",
"X	c black",
".XXXXXXXXXXXXXXXXXXXXXXXXXXXXXX.",
".X                            XX",
".X         XXXXXXXXXXXXXX     XX",
".X        XXXXXXXXXXXXXXXX    XX",
".X        XXXXXXXXXXXXXXXXX   XX",
".X        XXXXX        XXXX   XX",
".X        XXXXX        XXXX   XX",
".X       XXXXXXX       XXXX   XX",
".X       XXXXXXX       XXXX   XX",
".X                     XXXX   XX",
".X     XXX  X  XX      XXXX   XX",
".X      X  X X X X     XXXX   XX",
".X      X  X X XX      XXXX   XX",
".X      X  XXX X X     XXXX   XX",
".X      X  X X X X     XXXX   XX",
".X                     XXXX   XX",
".X       XXXXXXX       XXXX   XX",
".X       XXXXXXX       XXXX   XX",
".X        XXXXX        XXXX   XX",
".X         XXX         XXXX   XX",
".X         XXX        XXXXX   XX",
".X       XXXXXXXXXXXXXXXXXX   XX",
".X       XXXXXXXXXXXXXXXXX    XX",
".X       XXXXXXXXXXXXXXXX     XX",
".X         XXX                XX",
".X         XXX                XX",
".X     X   XXX   X            XX",
".X     XXXXXXXXXXX            XX",
".X     X   XXX   X            XX",
".X                            XX",
".XXXXXXXXXXXXXXXXXXXXXXXXXXXXXXX",
"..XXXXXXXXXXXXXXXXXXXXXXXXXXXXXX"};
