/* XPM */
static char * trash_xpm[] = {
/* width height ncolors chars_per_pixel */
"32 32 5 1",
/* colors */
" 	s None	c None",
".	c grey",
"X	c lightgrey",
"o	c white",
"O	c black",
/* pixels */
"              OOO               ",
"             OXX.O              ",
"        OOOOOOOOOOOOOOO         ",
"       O...XoXX........O        ",
"       OOOOOOOOOOOOOOOOOO       ",
"       O.XXXXXXX........O       ",
"       O.XoooXXXX.......O       ",
"       O.Xooo.XXX.......O       ",
"       O..Xo...XX.......O       ",
"       O..Xo...XX.......O       ",
"       O..Xo...XX.......O       ",
"       O..Xo...XX.......O       ",
"       O..Xo...XX.......O       ",
"       O..Xo...XX.......O       ",
"       O..Xo...XX.......O       ",
"       O..Xo...XX.......O       ",
"       O..Xo...XX.......O       ",
"       O..Xo...XX.......O       ",
"       O..Xo...XX.......O       ",
"       O..Xo...XX.......O       ",
"       O..Xo...XX.......O       ",
"       O..Xo...XX.......O       ",
"       O..Xo...XX.......O       ",
"       O..Xo...XX.......O       ",
"       O..Xo...XX.......O       ",
"       O..Xo...XX.......O       ",
"       O..Xo...XX.......O       ",
"       O..Xo...XX.......O       ",
"       O.Xooo.XXX.......O       ",
"       O.XoooXXXXX......O       ",
"       O.XoooXXXX.......O       ",
"        OOOOOOOOOOOOOOOO        "};
