/* XPM */
static char * edit_xpm[] = {
"32 32 15 1",
" 	s None	c None",
".	c grey26",
"X	c grey39",
"o	c white",
"O	c orange3",
"+	c grey4",
"@	c DarkOrange1",
"#	c yellow3",
"$	c brown4",
"%	c grey51",
"&	c yellow1",
"*	c grey76",
"=	c yellow4",
"-	c grey7",
";	c grey89",
"                           .X.  ",
"                          .XoO. ",
"                         .OXoOO+",
"                        .XOXoOO+",
"                       .@XOo.OO+",
"                      .@#.o$$..+",
"                     .@#%o.$$$+ ",
"            ++      .@#%o&...+  ",
"           +oo++   .@#%o&.@@+   ",
"          +ooooo++.@#%o&.@@+    ",
"         +ooooooo.@#%o&.@@+     ",
"        +ooooooo.@#%o&.@@+      ",
"       +ooooooo.@#%o&.@@+       ",
"      +ooooooo*.#%o&.@@+++      ",
"     +oooooooX.X.o&.@@+ooo++    ",
"    +oooooooXo.o.&.@@+oooooo++  ",
"   +ooooooo=oo.o.++++ooooooooo+ ",
"  +oooooooXoo.oOOOO+oo*oooooo+  ",
" +oooooooXooX..OO++ooXoooooo+XX ",
"++oooooooooXo..++X**X======++XXX",
" X++oooooooo.++X+XX+XXXXXX+XX+XX",
"  X+++######++X+XX+XXXXXX+XXX++X",
"   X+=++#########X######+**-+XX ",
"    X+==++&&&&&&&&&&&&&+*++XX   ",
"     X+*==++&&&&&&&&&&+++XX     ",
"      X+**==++&&&&&&&++XX       ",
"       X+&**==++&&&&+XX         ",
"        X+&&**==++&+XX          ",
"         X+&&&&++X+XX           ",
"          X+&++XXXXX            ",
"           X+XX;;;X             ",
"            X                   "};
