/* XPM */
static char * email_xpm[] = {
"32 32 11 1",
" 	s None	c None",
".	c goldenrod1",
"X	c grey4",
"o	c grey89",
"O	c white",
"+	c red1",
"@	c firebrick3",
"#	c grey51",
"$	c yellow1",
"%	c DarkOrange1",
"&	c grey26",
"          ..      .     .       ",
"         .XX..    .    .        ",
"        .XooXX..      .         ",
"  .    .XOOOooXX..   .      ..  ",
"   .  .XOOOOOOooXX..      ..    ",
"     .XOOOOOOOOOooXX..   .      ",
"    .XOOOOOOOOOOOOooXX..        ",
"   .XOOOOOOOooOOOOOOooXX..      ",
"  .XOOOOOOOOXXooOOOOOOooXX..    ",
" .XOOOOOOOOXooXXooOOOOOOooXX..  ",
".XOOOOOOOXooXXooXXooOOOO+@ooXX..",
"XooOOOOOOOXXooXXooXXOOO+@++OooX.",
".XXooOOOOOOOXXooOOOoOO+@++OOoX..",
" ..XXooOXXXXOO#XooOOOOO@+OOoX.. ",
"   ..XXX$$$$XXOOXXOOOOOOOOoX..  ",
"     X$$$$$$$$XXoOOOOOOOOoX..   ",
"    X$$$$$$$$$$XXXOOOOOOoX..    ",
".. XOOOO$$$$$$..XOOOOOOoX..     ",
"  X.....OO$$$..%XOOOOOoX.. ..   ",
"  X.......O$..%%XooOOoX..    .. ",
" X....XX...O.%%%XXXooX..        ",
" X...X++X...%%%%X..XX..         ",
" X...XX@X...%%%X   ..    .      ",
" X.....XX...%%X+X    .    .     ",
" X...XX.....%X+%X##  .     .    ",
" X...X+XX...X+%%X### .          ",
"  X..X+%++XX+%%%X### .          ",
"  X...X%%XOO%%%X#### .          ",
"   X...XX...%%X&###             ",
"    XX.....%%X&###              ",
"      XX..%XX&###               ",
"        XXX&&##                 "};
