/* XPM */
static char * fernbedienung_xpm[] = {
"32 32 8 1",
" 	s None	c None",
".	c grey4",
"X	c grey51",
"o	c grey76",
"O	c white",
"+	c grey39",
"@	c grey26",
"#	c grey89",
"                                ",
"                                ",
"                                ",
"                 .              ",
"                .X..            ",
"               .ooXX..          ",
"              .ooOOoXX..        ",
"             .oo+oo@ooXX..      ",
"            .ooOO@+ooOOoXX..    ",
"           .oo+oo@oo+oo+o#+@.X  ",
"          .ooOO@+ooOO@+o#+@..XXX",
"         .oo+oo@oo+oo+o#+@.+.XXX",
"        .oooo+@ooOO@+o#+@.+.XX+ ",
"       .ooOOoooo+oo+o#+@.+.XXX  ",
"      .oo+oo@oooo@+o#+@.+.XXX   ",
"     .oooo+@ooOOooo#++.@.XXX    ",
"    .oooooooo@oo+o#@+.+.+XX     ",
"   .oooooooooo++o#@+.+.+XX      ",
"  .ooooooooooooo#+@.+.XXX       ",
" .ooooooooooooo#X+.@.XXX        ",
".ooooooooooooo#+@.+.XXX         ",
".##oooooooooo#@+.@.XXX          ",
".XX##ooooooo#X+.+.X+X           ",
"...XX##oooo#++.@.XXX            ",
".XX..XX##o#+@.+.XXX             ",
" ..XX..XX#++.@.XXX              ",
"   ..XX..X@.+.XX+               ",
"     ..XX..@.XXX                ",
"       ..X@.XXX                 ",
"         ..+XX                  ",
"                                ",
"                                "};
