/* XPM */
static char * folder_xpm[] = {
"32 32 19 1",
" 	s None	c None",
".	c grey4",
"X	c grey64",
"o	c grey39",
"O	c white",
"+	c grey89",
"@	c orange3",
"#	c grey76",
"$	c yellow4",
"%	c goldenrod1",
"&	c grey51",
"*	c yellow3",
"=	c yellow1",
"-	c ForestGreen",
";	c grey26",
":	c magenta4",
">	c grey13",
",	c brown4",
"<	c grey7",
"      ..   ...                  ",
"      .X.. .oo..                ",
"      .OO+..@@#o..              ",
"      .OOOOOXo$@%$..  .....     ",
"..    .OOOO+OO#&o*@@..@#@*o..   ",
".X..+ .OOOOOOOOO+&o@@#%@#%#@#.  ",
" .++...**OOOOOOOOOOXoo*@@#@##.  ",
" .+O=O$&X**OOOOOOOOOO#&o%$@$@%. ",
" .++++++@-&***OOOOOOO+O+&o$@@$. ",
"  .++++=O+=X&X***OOOOOOOOO&o$#. ",
"  .O++=++=++%#o$+**OOOOOOOXo@X. ",
"  .%O+%O+++=++%+$oX**OOOOO&o$.  ",
"  .=++%++=+%+%%+#=X-o**OOOoo$.  ",
"   .O+=++%+%+%+%++%+%;+*+*;:$.  ",
"   .++%+%+#=+#%+%##%+$#***>o$.  ",
"   .+%+%+%+#%+%+%#%%%X#**O>o.   ",
"   .#%+%+%+%+%#%+%#%+%:**#;o.   ",
"    .%+%#%#%+%#%+%#%+%&==#;o.   ",
"    .%+%+%%%+%#%+%+%#%&==&,.    ",
"    .#%+%#%+%%+%#%+%+%o==&o.    ",
"     .%+%#%+%+%#%+%#%+o+=;o.    ",
"     .%+%#%+%#%+%+%#%+$#=;.o    ",
"     .%#%#%+%+%#%+%+%#@X=>.oX   ",
"      ..@+%#%+%+%#%#%+%&=<.o&&& ",
"        ..@+%#%+%+%#%+%o#<.o&&&&",
"          ..@+%#%+%+%#%oX.>oo&& ",
"            ..@#%+%#%#%o&.>o&&  ",
"              ..@#%#+%#-;.oo&   ",
"                ..@#%+%X..o&    ",
"                  ..$%#@.>o     ",
"                    ..o%.>      ",
"                      ..>       "};
