/* XPM */
static char * font_xpm[] = {
"32 32 7 1",
" 	s None	c None",
".	c grey4",
"X	c blue1",
"o	c cyan3",
"O	c grey7",
"+	c grey39",
"@	c grey51",
"              ..                ",
"             .XX..              ",
"            .XXXXX..            ",
"           .XXXXXXXo.           ",
"          .XXXXXXXoX.           ",
"         .XXXXXXXoXXX.          ",
"        .ooXXXXXoXXXX.          ",
"        .XXooXXoXXXXXO          ",
"       .XXXXXooXXXXXX.          ",
"       .XXXXXXXXXXXXXX.         ",
"       .XXXXXXXXXXXXXX.         ",
"      .XXXX..XXXXXXXXX.         ",
"      .XXXX..XXXXXXXXX.         ",
"     .XXXX.X.XXXXXXXXXX.        ",
"     .XXXX.X.XXXXXXXXXX.        ",
"    .XXXX.XXX.XXXXXXXXX.        ",
"    .XXXX..XX.XXXXXXXXX.        ",
"   .XXXXXXX...XXXXXXXXXX.       ",
"   .XXXXXXXXX.XXXXXXXXXX.       ",
"   .XXX..XXXXXXXXXXXXXXX.       ",
"  .XXXX.X..XXXXXXXXXXXXX.       ",
"  .XXXX.XXX..XXXXXXXXXXXX.      ",
" .XXXX.XXX.+@..XXXXXXXXXX.      ",
" ..XXX.XXO+@@@.XXXXXXXXXX.      ",
"   ....X.+@@@@.XXXXXXXXXXX.@    ",
"     ...+@@@@@@.XXXXXXXXXX.@@+  ",
"               .XXXXXXXXXX.+@@@@",
"               .XXXXXXXXXO+@@@@@",
"               .XXXXXXXX.@+@@@@ ",
"                .XXXXXXO+@@@@@  ",
"                 ..XXX.@+@@@@   ",
"                   ...+@@@@@    "};
