/* XPM */
static char * info_xpm[] = {
"32 32 7 1",
" 	s None	c None",
".	c grey4",
"X	c blue4",
"o	c blue3",
"O	c blue1",
"+	c white",
"@	c grey51",
"            ....                ",
"          ..XXXX..              ",
"         .XXooXXXX.             ",
"         .OOOOooXX.             ",
"        .XoO+OooXXX.            ",
"        .XoOOoooXXX.            ",
"        .XXoooooXXX.            ",
"        .XXoooXoXXX.            ",
"         .XXXXXXXX.             ",
"        ..XXXXXXXX..            ",
"       .OO..XXXX..XO.           ",
"       .OOOO....XXXO.           ",
"       .ooOOOXXXXOOX.           ",
"        ..ooOOOOOOXX.           ",
"         .ooooOOOXXX.           ",
"         .ooooooXXXX.           ",
"         .ooooooXXXX.           ",
"         .ooooooXXXX.           ",
"        ..ooooooXXXX.           ",
"       .O.ooooooXXXX.@          ",
"      .OO.ooooooXXXX.@@@        ",
"     .OOO.ooooooXXXX..@@@@      ",
"     .ooO.ooooooXXXXOO..@@@@    ",
"     .ooooooooooXXXOOOOX.@@@@@  ",
"     .ooooooooooXXOOOOXX.@@@@@@@",
"      ..ooooooooXOOOOXXX.@@@@@@ ",
"        ..ooooooOOOOXXXX.@@@@@  ",
"          ..ooooooOXXXX.@@@@@   ",
"            ..oooooXXX.@@@@@    ",
"              ..oooXX.@@@@@     ",
"                ..oX.@@@@@      ",
"                  ..@@@@@       "};
