/* XPM */
static char * install_xpm[] = {
"32 32 17 1",
" 	s None	c None",
".	c grey4",
"X	c blue1",
"o	c grey26",
"O	c grey39",
"+	c grey13",
"@	c firebrick3",
"#	c brown4",
"$	c white",
"%	c grey76",
"&	c blue4",
"*	c grey51",
"=	c grey64",
"-	c grey89",
";	c grey7",
":	c DarkOrange1",
">	c goldenrod1",
"                                ",
"          ...   .               ",
"         .XXX...o..             ",
"        .XXXXX.oO+...           ",
"       .XXXXX.oO+.@#@..         ",
"      .XXXXX.oO+.$$@#@X..       ",
"     .XXXXX.oO+.$$$$$XXXX..     ",
"    .XXXXX.oO+.$$$$$$$$XXXX..   ",
"   .XXXXX.oO+.$$$$$$$$$$$XX.%.. ",
" ..&XXXX.oOoO%..$$$$$$$$$$.%OoO.",
".**&&&X.oOOoOO%%..$$$$$$$.%OoO+.",
".*++**.oOoOOoOOo%%..$$$$.%OoO++.",
".*++*.oOOo=..oOoOO%%..$.%OoO++. ",
".*+X.oOOo=.%%..OOoOo%%.%oOo++.  ",
".*+&.$$o=.%%+O%..OOoOO%OoO++.   ",
".*+-.==$.%%+.+%%%..OoOoOO++.    ",
".*+**..=.$$.+%%%%%%.OoOO++.     ",
".*+-**=..==$$%%%%%.%oOO++.      ",
".*+*--**=..==$$%%.%oOO++.***    ",
".*++**--*o%..==$.%OoO++.******  ",
".*+&%%O**O%+;..=.$$o++.*O****** ",
".*++&&%+*O%+;&&..==+.........***",
".*++++&&+O%+;&&&&..+.:::>>>:.***",
".*++*+++&O%+;&&&&&...::>>>::.O**",
".*++*+*++O%+;&&&&&.*.$>>>>..O** ",
".*++*+*++o%+;&&&&.**.$>>$>>>..  ",
"....*+*++O%+;&&&.*O*.$:::$$>>>. ",
"    ..*++O%+;&&.****.::::::$>:.O",
"      ..+o%+;&.*****.::..:::::.O",
"        .o%+;.***O* .:.O*..::.**",
"         .%+.*****   .O**  ..O* ",
"          ..O****               "};
