/* XPM */
static char * mailbox_xpm[] = {
"32 32 13 1",
" 	s None	c None",
".	c grey4",
"X	c grey76",
"o	c white",
"O	c magenta4",
"+	c grey64",
"@	c grey89",
"#	c grey39",
"$	c red1",
"%	c brown4",
"&	c grey51",
"*	c firebrick3",
"=	c blue4",
"     ....                       ",
"   ..XXoo..                     ",
"  .ooooXXoo..                   ",
"  .ooooooXXoo..                 ",
" .oooooooooXXoo..               ",
" .oooooooooooXXoo..             ",
".XXooooooooooooXXoo..           ",
".ooXXooooooooooooXXoo..         ",
".XXooXXooooooooooooXXoo..       ",
".XXXXooXXoooooooooooo..OO..     ",
".+XXXXXooXXooooooooo.+..OOO.    ",
".+++XXXXXooXXooooooo.+@@..O.    ",
".+++++XXXXXooXXoooo.#+@o@@..    ",
".++$$+++XXXXXooXXoo.#+@ooo@@..  ",
".++%%$$+++XXXXXooX.&..@ooo$*@@. ",
".++%%%%$o+++XXXXXo.#@@..oo$*$@. ",
".++%%%%%Xoo+++.XXX.&@o@@..$$*@. ",
".++%%%...XXoo.X++X.&@o$*@@.$*@. ",
".++%%%.==..XX.X+++.&@o$*$@.*$@. ",
".++..%.=O==...X+++.&@o$*$@.oo@. ",
".+++=..=OOO==.X+++.&@o$*$@.oo@.&",
".O++O===O++OO=++++.&@oo*$@.oo@.&",
" ..OOOO=O+++OO..++.&@oooo@.oo@.&",
"   ..OOOO+++++OO++.&@oooo@.oo@.&",
"     ..OO+++++++++.&@oooo@.oo@.&",
"       ..OO+++++++.&@oooo@.@@@. ",
"         ..OO+++++.&@oooo@...@. ",
"           ..OO+++...@@oo@.&&.. ",
"             ..OO+.=...@@@.#&   ",
"               ..O..#&&..@.     ",
"                 ..#&&&& ..     ",
"                                "};
