/* XPM */
static char * mischpult_xpm[] = {
"32 32 11 1",
" 	s None	c None",
".	c grey4",
"X	c white",
"o	c grey76",
"O	c grey13",
"+	c LimeGreen",
"@	c grey64",
"#	c red1",
"$	c grey39",
"%	c grey51",
"&	c grey26",
"                                ",
"             .                  ",
"            .X..                ",
"           .Xooo..              ",
"          .Xoooooo..            ",
"         .XoO+ooo@oo..          ",
"        .XooooO#ooX@oo..        ",
"       .Xoooooooo..X$$oo..      ",
"      .Xooooooooo%%$X%.ooo..    ",
"     .XoO+oooooooo$X%..XX@oo..  ",
"    .XooooO#ooX@ooo..%%..Xooo$. ",
"   .Xoooooooo..X&$ooooo%%.oo$$. ",
"  .Xooooooooo%%$X%.oooooooo&$$. ",
" .XoO+oooooooo$X%..XXooooo$$$.. ",
".XooooO#ooXoooo..%%..Xooo&$$.$. ",
".XXoooooo..X&$ooooo%%.oo&$$.$$.$",
".%%XXoooo%%$X%.oooooooo&$&.$$$.%",
".%%%%XXooo&X%..XXooooo$$$.$$$.%%",
".%%%%%%XXoo..%%..Xooo$$$.$$$.%%%",
"...%%%%%%XXoooo%%.oo$$$.$$$.%%% ",
".%%..%%%%%%XXoooooo$$$.$$$.%%%  ",
".%%%%..%%%%%%XXooo$$$.$$$.%%%   ",
".%%%%%%..%%%%%%Xo$$$.$$$.%%%    ",
" ..%%%%%%..%%%%%&$$.$$$.%%%     ",
"   ..%%%%%%..%%%$$.$$$.%%%      ",
"     ..%%%%%%..%$.$$$.%%%       ",
"       ..%%%%%%..$$$.%%%        ",
"         ..%%%%%$$$.%%%         ",
"           ..%%%&$.%%%          ",
"             ..%$.%%%           ",
"               ..%%%            ",
"                                "};
