/* XPM */
static char * paint_xpm[] = {
"32 32 15 1",
" 	s None	c None",
".	c grey26",
"X	c grey39",
"o	c grey51",
"O	c grey13",
"+	c grey4",
"@	c white",
"#	c grey7",
"$	c grey76",
"%	c grey89",
"&	c red1",
"*	c brown4",
"=	c firebrick3",
"-	c grey64",
";	c magenta4",
"                              .X",
"                            .XoO",
"                          oOooO+",
"                         .OooO+ ",
"                        +Oo@O+  ",
"                      X+OoOO+o  ",
"                     .+OoOO+.   ",
"                    O+OoOO++    ",
"            ++     #+OoOO++     ",
"           +$$++  ++OoOO++o     ",
"          +$$$$$+X+OoOO++.      ",
"         +$@$@$@o++oOO++O       ",
"        +$@$@$@$+o%+O++#        ",
"       +$@@@@@@.o%o%++++        ",
"      +$@$@$@+++%ooo+X@@++      ",
"     +$@@@@@+&&*+oo+@@@@@@++    ",
"    +$@@@==@+&=**++@@@@@@@@@++  ",
"   +$@@@==@@+==**+@@@@@@@@@@$@+ ",
"  +$@$@==$@$+=***+@$@$@$@$@$@+  ",
" +$@$@X==@$@+**++-----------+;;;",
"++@$@$X==*=++++.;;;;;;;;;;;++;;-",
" ;++$@$====X--------------+;-+; ",
"  ;+++$$$$$$$$$$$$%$$$$$$+;--++;",
"   ;+;++$$$$$$$$$$$$%$$$+;-++;;;",
"    ;+;;++$-$-$-$-$-$-%#;++;;   ",
"     ;+-;;++----------+++;;     ",
"      ;+--;;++-------++;;       ",
"       ;+$--;;++;;;;+;;         ",
"        ;+$$--;;++;+;;          ",
"         ;+$$$-++;+;;           ",
"          ;+$++;;;;;            ",
"           ;+;;   ;             "};
