/* XPM */
static char * printer_xpm[] = {
"32 32 9 1",
" 	s None	c None",
".	c grey4",
"X	c white",
"o	c grey76",
"O	c grey13",
"+	c grey51",
"@	c yellow3",
"#	c yellow4",
"$	c grey26",
"             .                  ",
"            .X..                ",
"           .Xooo..              ",
"          .Xoooooo..            ",
"         .XooOOXXooo..          ",
"        .XooOO+++XXooo..        ",
"       .XooOOOOO+++XXooo..      ",
"      .XooOOOOXXOO+++XXooo..    ",
"     .XooOOOOXXXXXOO+++XXooo..  ",
"    .XooOOOOO@XXXXXXOO++XooooO. ",
"   .XoooXXOOoo@@XXXXXXOXooooOO. ",
"  .++XXoooXX##oo@@XXXXXooooOOO. ",
" .Xoo++XXoooXX##oo@@XXooooOOO.. ",
".Xooooo++XXoooXX##oo@ooooOOO.O. ",
".XXoooooo++XXoooXX#XooooOOO.OO.$",
".++XXoooooo++XXoooXooooOOO.OOO.$",
".++++XXoooooo++XXoooooOOO.OOO.$$",
".++++++XXoooooo++XXooOOO.OOO.$$$",
".++++++++XXoooooo++XOOO.OOO.$$$ ",
".++OO++++++XXoooooo.OO.OOO.$$$  ",
".+OooOO++++++XXoooO.O.OOO.$$$   ",
".OXooooOO++++++ooOO..OOO.$$$    ",
".++XXooooOO+++++OOO.OOO.$$$     ",
".++++XXooooOO+++OOOOOO.$$$      ",
" ..++++XXoooo..+OOOOO.$$$       ",
"  $..++++XXoOO.+OOOO.$$$        ",
"  $$$..++++OOO.+OOO.$$$         ",
"    $$$..++OO.++OO.$$$          ",
"       $$..O...+O.$$$           ",
"         $$.$$ ..$$$            ",
"           $$                   ",
"                                "};
