/* XPM */
static char * terminal_xpm[] = {
"32 32 9 1",
" 	s None	c None",
".	c grey4",
"X	c yellow1",
"o	c goldenrod1",
"O	c grey89",
"+	c grey51",
"@	c white",
"#	c grey39",
"$	c grey76",
"            ..                  ",
"           .XX..                ",
"           .XoXX..              ",
"           .XoooXX..            ",
"           .XoooooXX.           ",
"           .Oooooooo.           ",
"           .O+++oooo.           ",
"           .O+@@#+oo..          ",
"           .O+@@@@#+OO..        ",
"           .O+@@@@@@#+OO..      ",
"           .O+@@@@@@@@#+OO..    ",
"           .O+@@@@@@@@@@#+$$..  ",
"           .O+@@@@@@@@@@@@#$$.  ",
"           .O+@@@@@@@@@@@@@$$.  ",
"           .O+@@@@@@@@@@@@@$$.  ",
"           .O+@@@@@@@@@@@@@$$.  ",
"           .O$@@@@@@@@@@@@@$$.  ",
"      ..   .OO$$@@@@@@@@@@@$$.  ",
"     .$$..  ..OO$$@@@@@@@@@$$.  ",
"    .$$$$$..@@..$$$$@@@@@@@$$.  ",
"   .$$$+@$$$..@@..$$$$@@@@@$$.  ",
"  .$$#@$$#@$$$..@@..$$$$@@@$$.  ",
" .$$$$$+@$$#@$$$..@@..$$$$@$$.  ",
" .#+$$$$$+@$$#@$$$..@@..$$$$$.  ",
"  ..#+$$$$$+@$$#@$$$..@@..$$$.  ",
"    ..#+$$$$$+@$$#@$$$.+@@..$.  ",
"      ..#+$$$$$+@$$$$#.+++.@..  ",
"        ..#+$$$$$+$$+#..+@.@@#  ",
"          ..#+$$$$$++.#+.@@..#  ",
"            ..#+$$++.++ .@@@@.# ",
"              ..#++.++   ....@@#",
"                ...#+      #+++@"};
