/* XPM */
static char * text2_xpm[] = {
"32 32 8 1",
" 	s None	c None",
".	c grey4",
"X	c white",
"o	c grey76",
"O	c grey39",
"+	c yellow4",
"@	c yellow1",
"#	c yellow3",
"                                ",
"                                ",
"                                ",
"                                ",
"            ..                  ",
"           .XX..                ",
"          .XXXXX...             ",
"         .XXXXXXXX..            ",
"        .XXXXXXXXXXX..          ",
"       .XXXXXXXoXXXXXX..        ",
"      .XXXXXXXoXXXXXXXXX..      ",
"     .XXXXXXXOXXoXXoXXXXXX..    ",
"    .XXXXXXXOXXoXXoXXXXXXXXX..  ",
"   .XXXXXXX+XX+XXOXXoXXoXXXXXX. ",
"  ..XXXXXXOXXOXXOXXoXXoXXXXXX.  ",
" ..@..XXXXXXOXX+XX+XXOXXXXXX.OOO",
"...@@...XXXXXXOXXOXXOXXXXXX..OO ",
" O..@..@..XXXXXXOXXOXXXXXX.oo.O ",
"  O....@@...###@##+######.oo@..O",
"   O.+..@..@..###@######.oo..OOO",
"    O.++...@@...@@@@@@@.o..OO   ",
"     O.o++..@..@..@@@@...OO     ",
"      O.oo++...@@...@..OO       ",
"       O.@oo++..@..@.OO         ",
"        O.@@oo++....OO          ",
"         O.@@@@..O.OO           ",
"          O.@..OOOOO            ",
"           O.OO   O             ",
"            O                   ",
"                                ",
"                                ",
"                                "};
