/* XPM */
static char * text_xpm[] = {
"32 32 8 1",
" 	s None	c None",
".	c grey4",
"X	c white",
"o	c grey76",
"O	c grey39",
"+	c yellow4",
"@	c yellow3",
"#	c yellow1",
"                                ",
"                                ",
"                                ",
"                                ",
"            ..                  ",
"           .XX..                ",
"          .XXXXX...             ",
"         .XXXXXXXX..            ",
"        .XXXXXXXXXXX..          ",
"       .XXXXXXXXXXXXXX..        ",
"      .XXXXXXXoXXXXXXXXX..      ",
"     .XXXXXXXOXXXXXXXXXXXX..    ",
"    .XXXXXXXOXXoXXoXXXXXXXXX..  ",
"   .XXXXXXX+XX+XXOXXXXXXXXXXXX. ",
"  .XXXXXXXOXXOXXOXXoXXoXXXXXX.  ",
" .XXXXXXXOXXOXX+XX+XXOXXXXXX.OOO",
"..XXXXXXXXXOXXOXXOXXOXXXXXX..OO ",
" O..XXXXXXXXXOXXOXXOXXXXXX.oo.O ",
"  O...@@@@@@@@@O@@+@@@@@@.oo#..O",
"   O.+..@@@@@@@@@O@@@@@@.oo..OOO",
"    O.++..#############.o..OO   ",
"     O.o++..##########...OO     ",
"      O.oo++..#######..OO       ",
"       O.#oo++..####.OO         ",
"        O.##oo++..#.OO          ",
"         O.####..O.OO           ",
"          O.#..OOOOO            ",
"           O.OO   O             ",
"            O                   ",
"                                ",
"                                ",
"                                "};
