/* XPM */
static char * world_xpm[] = {
"32 32 20 1",
" 	s None	c None",
".	c grey4",
"X	c blue4",
"o	c blue3",
"O	c blue1",
"+	c ForestGreen",
"@	c grey51",
"#	c white",
"$	c LimeGreen",
"%	c grey89",
"&	c grey13",
"*	c green1",
"=	c cyan3",
"-	c grey39",
";	c cyan1",
":	c grey26",
">	c brown4",
",	c grey7",
"<	c firebrick3",
"1	c red1",
"                                ",
"                                ",
"                                ",
"                                ",
"                                ",
"                                ",
"                                ",
"                                ",
"              ..........        ",
"   ....   ....          ..      ",
" ..XXXX...                ..    ",
" .XoXoXX.  ......           .   ",
".XoooOXXX..++++++...@@@@@@  .   ",
".Xo#ooo..+$$+$$+++...     @@%.  ",
".XoooOo.+$$$$$$+$$.X&.      @.  ",
".XoXoo.+$$$*$$$$...=X&.      .@ ",
" .oXXX.-$$$$$$+$.;;=+X.      .@ ",
" ..XX.+-----$+..&;;=+X.      . @",
".  ...-;;-;:$:.&&===.+....  .  @",
".   @.&+;.$.+&&++&+O&.>>>>...  @",
".  @ .+;;;;..&$+++,+X><<<>>.   @",
".  @ .+;;;;;;.&&+++.><<1<<>>.  @",
". @  ..+;;;;;.==,++.><#<<<<>.  @",
". @  ..+=;;;==.,+++.><<<<<>>. @ ",
" .@   .+O===+O:++++.>><<<<>>.@@ ",
"  ..  ..+O=+O=+X.::+.><<<>>.@@@@",
"  @ .....+O=+O=+O&:...>>>>..@@@@",
"  @   .....+O=+O=..>.@....@@@@@@",
"   @     ........>..  @@@@@@@@@ ",
"    @@     .......    @@@@@@@   ",
"      @@          @@@@          ",
"        @@@@@@@@@@              "};
