/* XPM */
static char * copy2_xpm[] = {
"16 16 2 1",
" 	c white",
".	c grey4",
"                ",
"      ....      ",
" ..  ..  ..     ",
" ..  ..  ..     ",
"................",
".             ..",
"..    ....     .",
".    ......   ..",
"..  ... . ..   .",
".   .. . ...  ..",
"..  ... . ..   .",
".   .. . ...  ..",
"..   ......    .",
".     ....    ..",
"..             .",
"................"};
