/* XPM */
static char * edit_xpm[] = {
"16 16 4 1",
" 	s None	c None",
".	c grey4",
"X	c firebrick3",
"o	c goldenrod1",
"                ",
"           .X   ",
"          .XXXX ",
"         .XXXXX ",
"        .XXXXX. ",
"       .XXXXX.  ",
"      .XXXXX.   ",
"     .XXXXX.    ",
"    .XXXXX.     ",
"   ...XXX.      ",
"   .oo.X.       ",
"  .ooo..        ",
"  ..o..         ",
" ....           ",
" ..             ",
"                "};
