/* XPM */
static char * eye_xpm[] = {
"16 16 2 1",
" 	c white",
".	c grey4",
"                ",
"                ",
"      .....     ",
"   ..........   ",
" ..      ...... ",
".           ....",
"              ..",
"    .......     ",
"  ...........   ",
" ..  .....  ..  ",
".    .. ..    . ",
" .   .....   .  ",
"  ..  ...  ..   ",
"    .......     ",
"                ",
"                "};
