/* XPM */
static char * file_dir_xpm[] = {
"16 16 2 1",
" 	c white",
".	c grey4",
"                ",
"   .....        ",
"  .     .       ",
"................",
".              .",
".              .",
".              .",
".              .",
".              .",
".              .",
".              .",
".              .",
".              .",
"................",
"                ",
"                "};
