/* XPM */
static char * folder_xpm[] = {
"16 16 5 1",
" 	s None	c None",
".	c grey51",
"X	c goldenrod1",
"o	c white",
"O	c grey4",
"                ",
"  .....         ",
" .XXXXX.        ",
".XXXXXXX....... ",
".ooooooooooooo.O",
".oXXXXXXXXXXXX.O",
".oXXXXXXXXXXXX.O",
".oXXXXXXXXXXXX.O",
".oXXXXXXXXXXXX.O",
".oXXXXXXXXXXXX.O",
".oXXXXXXXXXXXX.O",
".oXXXXXXXXXXXX.O",
".oXXXXXXXXXXXX.O",
".oXXXXXXXXXXXX.O",
"...............O",
" OOOOOOOOOOOOOOO"};
