/* XPM */
static char * hand+_xpm[] = {
"16 16 2 1",
" 	c white",
".	c grey4",
"       ..       ",
"   .. .  ...    ",
"  .  ..  .  .   ",
"  .  ..  .  . . ",
"   .  .  .  .. .",
"   .  .  .  .  .",
" .. .       .  .",
".  ..          .",
".   .         . ",
" .            . ",
"  .           . ",
"  .          .  ",
"   .         .  ",
"    .       .   ",
"     .      .   ",
"     .      .   "};
