/* XPM */
static char * home_xpm[] = {
"16 16 7 1",
" 	s None	c None",
".	c grey4",
"X	c firebrick3",
"o	c goldenrod1",
"O	c grey89",
"+	c grey51",
"@	c LimeGreen",
"                ",
"                ",
"   ...  ..      ",
"   .X. .X..     ",
"   .X..XXX..    ",
"   .X.XXXXX..   ",
"   ..XXXXXXX..  ",
"   .XXXXXXXXX.. ",
"  ..............",
"   .oooooooooo. ",
"   .o...o....o. ",
"   .o.O.o.++.o. ",
"   .o@@.o.++.o. ",
"   .o@@.o.++.o. ",
"   .ooooo.++.o. ",
"   ............ "};
