/* XPM */
static char * info_xpm[] = {
"16 16 2 1",
" 	s None	c None",
".	c grey4",
"                ",
"       ...      ",
"      .....     ",
"      .....     ",
"       ...      ",
"                ",
"    .......     ",
"    .......     ",
"      .....     ",
"      .....     ",
"      .....     ",
"      .....     ",
"      .....     ",
"    .........   ",
"    .........   ",
"                "};
