/* XPM */
static char * moon_xpm[] = {
"16 16 2 1",
" 	c white",
".	c grey4",
"     ......     ",
"   ..     ...   ",
"  .    .......  ",
" .  . ......... ",
" .  . .....  .. ",
".     ...... ...",
".     ..........",
".       ........",
".    .    ......",
". .  ...........",
".  .............",
" .   .......... ",
" .     ........ ",
"  .     ... ..  ",
"   ..      ..   ",
"     ......     "};
