/* XPM */
static char * pencil3_xpm[] = {
/* width height num_colors chars_per_pixel */
"32 32 5 1",
/*pencil3.xpm*/
" 	s None	c None",
".	c grey4",
"X	c firebrick3",
"o	c goldenrod1",
"O	c white",
/**/
"                      ..XXXX..XX",
"                     ..XXXX..XXX",
"                    ..XXXX...XXX",
"                   ..XXXX...XXXX",
"                  ..XXXX...XXXXX",
"                 ..XXXX...XXXXX.",
"                ..XXXX...XXXXX..",
"               ..XXXX...XXXXX...",
"              ..XXXX...XXXXX...X",
"             ..XXXX...XXXXX...XX",
"             .XXXX...XXXXX...XXX",
"            ........XXXXX...XXXX",
"            ..oOoOo..XXX...XXXXX",
"           ..oOoOoOo..X...XXXXX.",
"           ..OoOoOoOo....XXXXX..",
"          ..OoOoOoOoOo..XXXXX.. ",
"          ..oOoOoOoOoO...XXX..  ",
"         ..oOoOoOoOoOoO..XX..   ",
"         ..OoOoOoOoOoOo..X..    ",
"        ..OoOoOoOoOoOoO....     ",
"        ..oOoOoOoOoOoO...       ",
"       ..oOoOoOoOoOo....        ",
"       ..OoOoOoOoOo...          ",
"      .....oOoOoO...            ",
"      ......oOoO..              ",
"     ........o...               ",
"     ..........                 ",
"    ..........                  ",
"    .........                   ",
"   ........                     ",
"   ......                       ",
"  .......................       "};
