/* XPM */
static char * printer16_xpm[] = {
"16 16 5 1",
" 	s None	c None",
".	c grey4",
"X	c white",
"o	c grey51",
"O	c LimeGreen",
"  ..........    ",
"  .XXXXXXX.X.   ",
"  .XXXXXXX.XX.  ",
"  .X..........  ",
"  .XXXXXXXXXX.  ",
"  .X......XXX.  ",
"  .XXXXXXXXXX.  ",
"  .X.......XX.  ",
"  .XXXXXXXXXX.  ",
"................",
".oooooooooooooo.",
".oOOooooooooooo.",
".oOOooooooooooo.",
".oooooooooooooo.",
".oooooooooooooo.",
"................"};
