/* XPM */
static char * printer_xpm[] = {
/* width height num_colors chars_per_pixel */
"32 32 7 1",
/* colors */
" 	s None	c None",
".	c black",
"X	c white",
"o	c grey76",
"O	c grey89",
"+	c green1",
"@	c grey64",
/* pixels */
"         ...........            ",
"         .XXXXXXXX.X.           ",
"         .XX.......XX.          ",
"         .XXXXXXXX.XXX.         ",
"         .XX....XX.....         ",
"         .XXXXXXXXXXXX.         ",
"         .XX........XX.         ",
"         .XXXXXXXXXXXX.         ",
"     .....XX......XXXX.....     ",
"    .ooo..XXXXXXXXXXXX...o..    ",
"   .oooo................oooo.   ",
"  .oooooooooooooooooooooooooo.  ",
"  ............................  ",
"  .OO++OOOOOOOOOOOOOOOOOOOOOO.  ",
"  .O++++OOOOOOOOOOOOOOOOOOOOO.  ",
"  .O++++OOOOOOOOOOOOOOOOOOOOO.  ",
"  .OO++OOOOOOOOOOOOOOOOOOOOOO.  ",
"  ............................  ",
"   .@@@@@@@@@@@@@@@@@@@@@@@@.   ",
"  ..OOOOOOOOOOOOOOOOOOOOOOOO..  ",
"  .OOOOOO..............OOOOOO.  ",
"  .OOOOO..oooooooooooo..OOOOO.  ",
"  .OOOOO.oooooooooooooo.OOOOO.  ",
"  .OOOO.oooooooooooooooo.OOOO.  ",
"  .@@@.oooooooooooooooooo.@@@.  ",
"  .....XXXXXXXXXXXXXXXXXX.....  ",
"  .....@@@@@@@@@@@@@@@@@@.....  ",
"   ....@@@@@@@@@@@@@@@@@@....   ",
"       ..................       ",
"       ..................       ",
"       ..................       ",
"           X                    "};
