/* XPM */
static char * terminal_xpm[] = {
"32 32 7 1",
" 	s None	c None",
".	c red1",
"X	c grey4",
"o	c grey76",
"O	c blue1",
"+	c grey51",
"@	c white",
"                                ",
"                          .     ",
"                         .      ",
"           XX        .  .       ",
"          XXXX      .. .        ",
"         XXooXX    ....         ",
"        XXooooXX  .  .          ",
"       XXooooooXX.              ",
"      XXooooooooXX              ",
"      XooooooooooXX             ",
"      XXooooooooooXX            ",
"      XoXooooooooooXX           ",
"      XooXooooooooooXX          ",
"      XoOoXoooooooooXX          ",
"      XoOOoXoooooooXoX          ",
"      XoOOOoXoooooXooX......    ",
"     XXoOOOOoXoooXoooX    .     ",
"    XXXoOOOOOoXoXooooX   .......",
"    X+XoOOOOOOoXoooooX          ",
"  ++XX+XoOOOOOoXoooooX          ",
" +  X+X+XoOOOOoXoooooXX         ",
"  + X++X+XoOOOoXoooooXXX        ",
" +  X+++X+XoOOoXooooXX+X        ",
"  +  X+++X+XoooXoooX+++X        ",
" +    X+++X+XXoXooXX+++X        ",
" ++X   X+++X+XXXoXX++++X        ",
"  X@X   X+++X+++XX++++X         ",
" X@+@X   X+++XXXX++++X          ",
"X@+@+@X   X+++++X+++X           ",
"X+@+@+@X   X++.+X++X            ",
" X+@+@+@X   X+++X+X             ",
"  X+@+@+@X   XXXXX              "};
