/* XPM */
static char * up_xpm[] = {
"16 16 5 1",
" 	s None	c None",
".	c grey51",
"X	c goldenrod1",
"o	c white",
"O	c grey4",
"                ",
"  .....         ",
" .XXXXX.        ",
".XXXXXXX....... ",
".ooooooooooooo.O",
".oXXXXXXXXXXXX.O",
".oXXXOXXXXXXXX.O",
".oXXOOOXXXXXXX.O",
".oXOOOOOXXXXXX.O",
".oXXXOXXXXXXXX.O",
".oXXXOXXXXXXXX.O",
".oXXXOOOOOOOXX.O",
".oXXXXXXXXXXXX.O",
".oXXXXXXXXXXXX.O",
"...............O",
" OOOOOOOOOOOOOOO"};
