/* XPM */
static char * archive_xpm[] = {
"16 16 7 1",
" 	s None	c None",
".	c grey51",
"X	c white",
"o	c grey76",
"O	c blue1",
"+	c grey4",
"@	c red1",
" ..........     ",
" .XXXXXXXXo.    ",
" .X...XXXXoX.   ",
" .XOX.XXXX++++  ",
" .XOX.XOOOOXo+  ",
" .X@@.XXXXXXo+  ",
" .X+++XOOOOXo+  ",
" .XXXXXXXXXXo+  ",
" .XOOOOOOX@Xo+  ",
" .XXXXXXX@@Xo+  ",
" .XOOOOX@X@Xo+  ",
" .XXXXX@@@@Xo+  ",
" .XOOX@XXX@Xo+  ",
" .XXXXXXXXXXo+  ",
" .ooooooooooo+  ",
" +++++++++++++  "};
