/* XPM */
static char * backup_xpm[] = {
"16 16 5 1",
" 	s None	c None",
".	c white",
"X	c grey51",
"o	c grey76",
"O	c grey4",
"                ",
" .XX.XX.XX.     ",
" X........oX    ",
" X........o.X   ",
" ..........OO.  ",
" X...........O  ",
" X..........oO  ",
" ...........o.  ",
" X...........O  ",
" X..........oO  ",
" ...........o.  ",
" X...........O  ",
" X..........oO  ",
" ...........o.  ",
" Xo.oo.oo.oo.O  ",
" O.OO.OO.OO.OO  "};
