/* XPM */
static char * book_xpm[] = {
"16 16 8 1",
" 	s None	c None",
".	c magenta4",
"X	c grey4",
"o	c grey51",
"O	c yellow1",
"+	c yellow4",
"@	c grey76",
"#	c white",
"       .X       ",
"      .o.XX     ",
"     .o....XX   ",
"    .o.......XX ",
"   .o..OOO+...X ",
"  .o..++.OO..XX ",
" .o....@OO..XoX ",
".o....O+...Xo@XX",
".XX.......Xo@@.X",
".ooXX....Xo@@.X ",
".o#ooXX.Xo@@.X  ",
"Xo@##ooXo@@.X   ",
" XXo@##o@@.X    ",
"   XXo@#@.X     ",
"     XXo.X      ",
"       XX       "};
