/* XPM */
static char * computer_xpm[] = {
"16 16 7 1",
" 	s None	c None",
".	c grey51",
"X	c grey76",
"o	c grey4",
"O	c white",
"+	c cyan1",
"@	c turquoise4",
"                ",
"     ........   ",
"    .XXXXXXX.o  ",
"   .OOOOOOX..o  ",
"   .OoooooX..o  ",
"   .Oo+@@.X..o  ",
"   .Oo@@@.X..o  ",
"   .Oo....X..o  ",
"   .OXXXXXX.o.. ",
"   .oooooooo.Xo ",
"  .XXXXXXXX.X.o ",
"  .o.o.o.o.o..o ",
" .oXoXoXoXoXoo  ",
".OOOOOOOOOOXo   ",
"oooooooooooo    ",
"                "};
