/* XPM */
static char * config_xpm[] = {
"16 16 7 1",
" 	s None	c None",
".	c grey4",
"X	c grey51",
"o	c white",
"O	c grey76",
"+	c yellow4",
"@	c yellow1",
"   . . . . .    ",
"  . X X X X .   ",
" Xo.o.o.o.o.o.  ",
" XooooooooooO.  ",
" XooooooooooO.  ",
" Xoo...o..ooO.  ",
" XooooooooooO.  ",
" Xoo......ooO.  ",
" XoooooO+OooO.  ",
" Xoo..O+@+.oO.  ",
" Xoooo+@.@+oO.  ",
" Xoo..O+@+.oO.  ",
" Xooooo.+.ooO.  ",
" XooooooooooO.  ",
" XOOOOOOOOOOO.  ",
"  ...........   "};
