/* XPM */
static char * diropen2_xpm[] = {
"16 16 6 1",
" 	s None	c None",
".	c grey51",
"X	c white",
"o	c grey76",
"O	c yellow1",
"+	c grey4",
"                ",
"   ....         ",
"  .XXXX.        ",
" .XoOooX......  ",
" .XOoOOoXXXXX.+ ",
" .XoOooOoOoOo.+ ",
"............O.+ ",
".XXXXXXXXX.+o.+ ",
".XoOoOOoOoO+..+ ",
" .XoOooOoOo.+.+ ",
" .XOoOOoOoOo+.+ ",
"  .XOooOoOoO.++ ",
"  ...........++ ",
"   ++++++++++++ ",
"                ",
"                "};
