/* XPM */
static char * doc_xpm[] = {
"16 16 7 1",
" 	s None	c None",
".	c grey4",
"X	c grey51",
"o	c white",
"O	c grey76",
"+	c blue4",
"@	c red1",
"   . . . . .    ",
"  . X X X X X   ",
" Xo.o.o.o.o.o.  ",
" XooooooooooO.  ",
" XooooooooooO.  ",
" Xo++++++++oO.  ",
" XooooooooooO.  ",
" Xo++++++++oO.  ",
" XooooooooooO.  ",
" Xo+++++oO@oO.  ",
" XooooooO@@oO.  ",
" Xo+++oO@o@oO.  ",
" XooooO@@@@oO.  ",
" Xoooo@ooo@oO.  ",
" XOOOOOOOOOOO.  ",
"  ...........   "};
