/* XPM */
static char * font_xpm[] = {
"16 16 6 1",
" 	s None	c None",
".	c grey51",
"X	c white",
"o	c grey76",
"O	c grey4",
"+	c red1",
"                ",
" ..........     ",
" .XXXXXXXXo.    ",
" .XXXXXXXXoX.   ",
" .XXXXXXXXOOOO  ",
" .XXXXX+oXXXoO  ",
" .XXXXo++XXXoO  ",
" .XXXX+++oXXoO  ",
" .XXXo+X++XXoO  ",
" .XXX+XX++oXoO  ",
" .XXo++++++XoO  ",
" .XX+XXXX++ooO  ",
" .X+++XX++++oO  ",
" .XXXXXXXXXXoO  ",
" .oooooooooooO  ",
" OOOOOOOOOOOOO  "};
