/* XPM */
static char * gif_xpm[] = {
"16 16 17 1",
" 	s None	c None",
".	c grey26",
"X	c turquoise4",
"o	c grey76",
"O	c cyan3",
"+	c grey51",
"@	c grey89",
"#	c grey39",
"$	c grey13",
"%	c grey64",
"&	c ForestGreen",
"*	c firebrick3",
"=	c red1",
"-	c brown4",
";	c LimeGreen",
":	c orange3",
">	c yellow4",
"                ",
" .XXXXXXX.o     ",
" XOOOOOOOX+o    ",
" XOOOOOOOXo+o@  ",
" XOOOOOOOX##$@  ",
" XOOOOOOOXOOX@  ",
" $XOOOOO.+OOX@  ",
" #o#X+OXoo#O.@  ",
" #++oo+%%&&+#@  ",
" .%o%%o+&&&&.@  ",
" .&&*=-&&&&&$@  ",
" &;:@o=>&>&&&@  ",
" &>%%@+:;:>;&@  ",
" &;%+@%;;:>;&@  ",
" &;%%%;;;>;;&@  ",
" ############@  "};
