/* XPM */
static char * gif2_xpm[] = {
"16 16 10 1",
" 	s None	c None",
".	c grey51",
"X	c white",
"o	c grey76",
"O	c blue1",
"+	c blue4",
"@	c grey4",
"#	c yellow4",
"$	c red1",
"%	c brown4",
"                ",
"...........     ",
".XXXXXXXXoX.  O+",
".XXXXXXXX@@@@OO+",
".XX#o#o#o@XoOO+ ",
".XXo@@@@#@XOO+  ",
".XX#@$$$#@OO+   ",
".XXo@$$$#.@+@   ",
".XX#@%oo.o@o@   ",
".XXo@$%%@@Xo@   ",
".XX#@$XX#@Xo@   ",
".XXo#o#o#@Xo@   ",
".XX@@@@@@@Xo@   ",
".XXXXXXXXXXo@   ",
".ooooooooooo@   ",
"@@@@@@@@@@@@@   "};
