/* XPM */
static char * h_xpm[] = {
"16 16 5 1",
" 	s None	c None",
".	c grey51",
"X	c white",
"o	c grey76",
"O	c grey4",
"                ",
" ..........     ",
" .XXXXXXXXo.    ",
" .XooooooXoX.   ",
" .XXXXXXXXOOOO  ",
" .XoooXOXXXXoO  ",
" .XXXXXOXXXXoO  ",
" .XoooXOXXXXoO  ",
" .XXXXXOoOoXoO  ",
" .XoooXOOoOXoO  ",
" .XXXXXOXXOXoO  ",
" .XXOOXOXXOXoO  ",
" .XXOOXOXXOXoO  ",
" .XXXXXXXXXXoO  ",
" .oooooooooooO  ",
" OOOOOOOOOOOOO  "};
