/* XPM */
static char * html_xpm[] = {
"16 16 10 1",
" 	s None	c None",
".	c grey51",
"X	c white",
"o	c yellow1",
"O	c grey76",
"+	c grey4",
"@	c turquoise4",
"#	c ForestGreen",
"$	c blue1",
"%	c blue4",
"                ",
" ..........     ",
" .XXXoXXXoO.    ",
" .XoXXXoXXOX.   ",
" .XXXoXXXo++++  ",
" .XXXO@@@OXXO+  ",
" .XoO@.@#@OoO+  ",
" .XX@O@$@#.XO+  ",
" .Xo@XO#%$%oO+  ",
" .XX@O.#@$%XO+  ",
" .Xo.$$#$%%oO+  ",
" .XXO%$%%+OXO+  ",
" .XoXO+++OXoO+  ",
" .XXXoXXXoXXO+  ",
" .OOOOOOOOOOO+  ",
" +++++++++++++  "};
