/* XPM */
static char * image_xpm[] = {
"16 16 13 1",
" 	s None	c None",
".	c grey51",
"X	c white",
"o	c grey76",
"O	c brown4",
"+	c grey4",
"@	c blue1",
"#	c red1",
"$	c blue4",
"%	c ForestGreen",
"&	c yellow1",
"*	c green1",
"=	c cyan1",
"                ",
"............    ",
".XXXXXXXXXoX.   ",
".XXXXXOOOO++++ @",
".XXXX....OXXo+@@",
".XXXX####OXXo@@$",
".XX%%+###OXX@@$ ",
".X%&*%+##OX@@$  ",
".X%**%+##X@@$+  ",
".X%**%+XX=@$o+  ",
".XX+++XX.+$Xo+  ",
".XXXX##.o+XXo+  ",
".XX##OOO+XXXo+  ",
".XOOOXXXXXXXo+  ",
".oooooooooooo+  ",
"++++++++++++++  "};
