/* XPM */
static char * music_xpm[] = {
"16 16 5 1",
" 	s None	c None",
".	c grey51",
"X	c white",
"o	c grey76",
"O	c grey4",
"                ",
" ..........     ",
" .XXXXXXXXo.    ",
" .XXXXXXXXoX.   ",
" .XXXXOOXXOOOO  ",
" .XXXXOOOOXXoO  ",
" .XXXXOXOOXXoO  ",
" .XXXXOXXOXXoO  ",
" .XXXXOXXOXXoO  ",
" .XXXOOXXOXXoO  ",
" .XXOOOXXOXXoO  ",
" .XXOOXXOOXXoO  ",
" .XXXXXOOOXXoO  ",
" .XXXXXOOXXXoO  ",
" .oooooooooooO  ",
" OOOOOOOOOOOOO  "};
