/* XPM */
static char * parcel_xpm[] = {
"16 16 6 1",
" 	s None	c None",
".	c grey4",
"X	c goldenrod1",
"o	c grey51",
"O	c blue1",
"+	c red1",
"                ",
"    ........... ",
"   .XXXXoXXXX.. ",
"  .ooooooooo.X. ",
" .XXXXoXXXX.oX. ",
"...........XoX. ",
".XXXXoXOOX.XoX. ",
".XXXXoXO+X.Xoo. ",
".XXXXoXO+X.XoX. ",
".XXXXoX++X.ooX. ",
".ooooooooo.XoX. ",
".XXXXoXXXX.XoX. ",
".XXXXoXXXX.Xo.  ",
".XXXXoXXXX.X.   ",
".XXXXoXXXX..    ",
"...........     "};
