/* XPM */
static char * prism_xpm[] = {
"16 16 13 1",
" 	s None	c None",
".	c grey51",
"X	c white",
"o	c grey76",
"O	c grey4",
"+	c blue1",
"@	c magenta1",
"#	c turquoise4",
"$	c cyan1",
"%	c red1",
"&	c green1",
"*	c yellow4",
"=	c yellow1",
"                ",
" ..........     ",
" .XXXXXXXXo.    ",
" .XXXXXXXXoX.   ",
" .XXXXXXXXOOOO  ",
" .XXXX+.XXXXoO  ",
" .XXXo++oXXXoO  ",
" .XXX@+#$XXXoO  ",
" .XX.@@$$oXXoO  ",
" .Xo%@XX$&oXoO  ",
" .X%%*==&&&XoO  ",
" .o%%===&&&ooO  ",
" .XXXXXXXXXXoO  ",
" .XXXXXXXXXXoO  ",
" .oooooooooooO  ",
" OOOOOOOOOOOOO  "};
