/* XPM */
static char * script_xpm[] = {
"16 16 6 1",
" 	s None	c None",
".	c grey51",
"X	c grey76",
"o	c grey4",
"O	c blue4",
"+	c white",
"                ",
"............... ",
".XXXXXXXXXXXX.o ",
".XOOOOOOOOOOO.o ",
".XOOOOOO+o++o.o ",
".X............o ",
".X+++++++++++.o ",
".X+oooooooo++.o ",
".X+++++++++++.o ",
".X+oooooooo++.o ",
".X+++++++++++.o ",
".X+ooooo+++++.o ",
"..............o ",
"ooooooooooooooo ",
"                ",
"                "};
