/* XPM */
static char * sound_xpm[] = {
"16 16 5 1",
" 	s None	c None",
".	c grey51",
"X	c white",
"o	c grey76",
"O	c grey4",
"                ",
" ..........     ",
" .XXXXXXXXo.    ",
" .XXXXXXXXoX.   ",
" .XXXXXXXXOOOO  ",
" .XXXX...XXXoO  ",
" .XXX.OOO.XXoO  ",
" .XX.O.....XoO  ",
" .XX.O.o.o.XoO  ",
" .XX.....o.XoO  ",
" .XXX.ooo.XXoO  ",
" .XXXX...XXXoO  ",
" .XXXXXXXXXXoO  ",
" .XXXXXXXXXXoO  ",
" .oooooooooooO  ",
" OOOOOOOOOOOOO  "};
