/* XPM */
static char * sym_xpm[] = {
"16 16 5 1",
" 	s None	c None",
".	c grey51",
"X	c white",
"o	c grey76",
"O	c grey4",
"                ",
" ..........     ",
" .XXXXXXXXo.    ",
" .XXXXXXXXoX.   ",
" .XXXXXXXXOOOO  ",
" .XXXXXXXXXXoO  ",
" .XXXXXXXXXXoO  ",
" .XXXXOXXXOXoO  ",
" .XXXOOXXXOXoO  ",
" .XXOOOOOOOXoO  ",
" .XXXOOXXXXXoO  ",
" .XXXXOXXXXXoO  ",
" .XXXXXXXXXXoO  ",
" .XXXXXXXXXXoO  ",
" .oooooooooooO  ",
" OOOOOOOOOOOOO  "};
