/* XPM */
static char * symdiropen_xpm[] = {
"16 16 5 1",
" 	s None	c None",
".	c grey51",
"X	c white",
"o	c goldenrod1",
"O	c grey4",
"                ",
"   .....        ",
"  .XXXXX.       ",
" .XoooooX...... ",
" .XooooooXXXXX.O",
" .Xooooooooooo.O",
"............oo.O",
".XXXooOoooO.Oo.O",
".XoooOOoooOoO..O",
" .XoOOOOOOOo.O.O",
" .XooOOooooooO.O",
"  .XooOoooooo.OO",
"  ............OO",
"   OOOOOOOOOOOOO",
"                ",
"                "};
