/* XPM */
static char * symdir_xpm[] = {
"16 16 5 1",
" 	s None	c None",
".	c grey51",
"X	c goldenrod1",
"o	c white",
"O	c grey4",
"                ",
"  .....         ",
" .XXXXX.        ",
".XXXXXXX......  ",
".oooooooooooo.O ",
".oXXXXXXXXXXX.O ",
".oXXXOXXXOXXX.O ",
".oXXOOXXXOXXX.O ",
".oXOOOOOOOXXX.O ",
".oXXOOXXXXXXX.O ",
".oXXXOXXXXXXX.O ",
".oXXXXXXXXXXX.O ",
"..............O ",
" OOOOOOOOOOOOOO ",
"                ",
"                "};
