/* XPM */
static char * symdiropen2_xpm[] = {
"16 16 6 1",
" 	s None	c None",
".	c grey51",
"X	c white",
"o	c grey76",
"O	c yellow1",
"+	c grey4",
"                ",
"   .....        ",
"  .XXXXX.       ",
" .XoOoOoX...... ",
" .XOoOoOoXXXXX.+",
" .XoOoOoOoOoOo.+",
".............O.+",
".XXXOo+oOo+.+o.+",
".XoOo++OoO+O+..+",
" .Xo+++++++o.+.+",
" .XOo++OoOoOo+.+",
"  .XOo+oOoOoO.++",
"  ............++",
"   +++++++++++++",
"                ",
"                "};
