/* XPM */
static char * symexec_xpm[] = {
"16 16 6 1",
" 	s None	c None",
".	c grey51",
"X	c grey76",
"o	c grey4",
"O	c blue4",
"+	c white",
"                ",
"............... ",
".XXXXXXXXXXXX.o ",
".XOOOOOOOOOOO.o ",
".XOOOOO+o+o+o.o ",
".X............o ",
".X+++++++++++.o ",
".X++++o+++o++.o ",
".X+++oo+++o++.o ",
".X++ooooooo++.o ",
".X+++oo++++++.o ",
".X++++o++++++.o ",
".X+++++++++++.o ",
"..............o ",
"ooooooooooooooo ",
"                "};
