/* XPM */
static char * sys_xpm[] = {
"16 16 7 1",
" 	s None	c None",
".	c grey51",
"X	c white",
"o	c grey76",
"O	c grey4",
"+	c yellow4",
"@	c yellow1",
"                ",
" ..........     ",
" .XXXXXXXXo.    ",
" .XXXXXXXXoX.   ",
" .XXXXXXXXOOOO  ",
" .XX++OXXXXXoO  ",
" .XXO@+OXXXXoO  ",
" .X+@O..OXXXoO  ",
" .XXOoOX.OXXoO  ",
" .XXX.XO..OXoO  ",
" .XXXXOooOXXoO  ",
" .XXXXXOOXXXoO  ",
" .XXXXXXXXXXoO  ",
" .XXXXXXXXXXoO  ",
" .oooooooooooO  ",
" OOOOOOOOOOOOO  "};
