/* XPM */
static char * tcl_xpm[] = {
"16 16 5 1",
" 	s None	c None",
".	c grey51",
"X	c white",
"o	c grey76",
"O	c grey4",
"                ",
" ..........     ",
" .XXXXXXXXo.    ",
" .XooooooXoX.   ",
" .XXXXXXXXOOOO  ",
" .XooooooXXXoO  ",
" .XOXXXXXXOXoO  ",
" .XOooooooOXoO  ",
" .OOOOXOXXOXoO  ",
" .XOooOoOoOXoO  ",
" .XOXXOXXXOXoO  ",
" .XOoOOoOoOXoO  ",
" .XXOXXOXXOXoO  ",
" .XXXXXXXXXXoO  ",
" .oooooooooooO  ",
" OOOOOOOOOOOOO  "};
