/* XPM */
static char * text_xpm[] = {
"16 16 5 1",
" 	s None	c None",
".	c grey4",
"X	c grey51",
"o	c white",
"O	c grey76",
"   . . . . .    ",
"  . X X X X .   ",
" Xo.o.o.o.o.o.  ",
" XooooooooooO.  ",
" XooooooooooO.  ",
" Xoo...o..ooO.  ",
" XooooooooooO.  ",
" Xoo......ooO.  ",
" XooooooooooO.  ",
" Xoo......ooO.  ",
" XooooooooooO.  ",
" Xoo......ooO.  ",
" XooooooooooO.  ",
" XooooooooooO.  ",
" XOOOOOOOOOOO.  ",
"  ...........   "};
