/* XPM */
static char * write_xpm[] = {
"16 16 9 1",
" 	s None	c None",
".	c grey51",
"X	c blue4",
"o	c white",
"O	c grey76",
"+	c blue1",
"@	c grey4",
"#	c yellow4",
"$	c yellow1",
"                ",
"..........     X",
".ooooooooO.   X+",
".ooooooooOo. X+o",
".oooooooo@@@@Xo+",
".ooooooooooO@@+X",
".oooooooooo#@@@X",
".ooooooooo#$#@@@",
".oooooooo#$o#.@ ",
".oo@@ooo#$o#@@  ",
".oo@o@o#@@@@@   ",
".oo@@O@@oooO@   ",
".oo@ooo@oooO@   ",
".oo@oooooooO@   ",
".OOOOOOOOOOO@   ",
"@@@@@@@@@@@@@   "};
