/* XPM */
static char * xbm_xpm[] = {
"16 16 5 1",
" 	s None	c None",
".	c grey51",
"X	c white",
"o	c grey76",
"O	c grey4",
"                ",
" ..........     ",
" .XXXXXXXXo.    ",
" .XXXXXXXXoX.   ",
" .XXXOOXXXOOOO  ",
" .XXXOOXXXXXoO  ",
" .XOOXXOOXXXoO  ",
" .XOOXXOOXXXoO  ",
" .XXXOOXXOOXoO  ",
" .XXXOOXXOOXoO  ",
" .XOOXXOOXXXoO  ",
" .XOOXXOOXXXoO  ",
" .XXXXXXXOOXoO  ",
" .XXXXXXXOOXoO  ",
" .oooooooooooO  ",
" OOOOOOOOOOOOO  "};
