/* XPM */
static char * xpm_xpm[] = {
"16 16 8 1",
" 	s None	c None",
".	c grey51",
"X	c white",
"o	c grey76",
"O	c blue1",
"+	c grey4",
"@	c red1",
"#	c green1",
"                ",
" ..........     ",
" .XXXXXXXXo.    ",
" .XXXXXXXXoX.   ",
" .XXXOOXXX++++  ",
" .XXXOOXXXXXo+  ",
" .X@@XX@@XXXo+  ",
" .X@@XX@@XXXo+  ",
" .XXX##XX##Xo+  ",
" .XXX##XX##Xo+  ",
" .X##XXOOXXXo+  ",
" .X##XXOOXXXo+  ",
" .XXXXXXX@@Xo+  ",
" .XXXXXXX@@Xo+  ",
" .ooooooooooo+  ",
" +++++++++++++  "};
