/* XPM */
static char * bracket_xpm[] = {
"32 32 6 1",
" 	s None	c None",
".	c grey4",
"X	c white",
"o	c red1",
"O	c grey76",
"+	c blue4",
"    ...................         ",
"    .XXXXXXXXXXXXXXXXX..        ",
"    .XXXoXXXXXXXXXXXXX.O.       ",
"    .XXoXXXXXXXXXXXXXX.OO.      ",
"    .XXoXXXXXXXXXXXXXX.OOO.     ",
"    .XXoXX+++++++++XXX.OOOO.    ",
"    .XoXXXXXXXXXXXXXXX.......   ",
"    .XXoXX+++++++++++XXOOOOO..  ",
"    .XXoXXXXXXXXXXXXXXXXOOOO..  ",
"    .XXoXXXX+++++++++XXXXXXX..  ",
"    .XXXoXXXXXXXXXXXXXXXXXXX..  ",
"    .XXXXXXXXX+++++++++XXXXX..  ",
"    .XXXXXXXXXXXXXXXXXXXXXXX..  ",
"    .XXXXXXXXX++++++++XXXXXX..  ",
"    .XXXXXXXXXXXXXXXXXXXXXXX..  ",
"    .XXXXXXX++++++++++++XXXX..  ",
"    .XXXXXXXXXXXXXXXXXXXXXXX..  ",
"    .XXXXX+++++++++++++++XXX..  ",
"    .XXXXXXXXXXXXXXXXXXXXXXX..  ",
"    .XXXXXXX+++++++++XXXXXXX..  ",
"    .XXoXXXXXXXXXXXXXXXXXXXX..  ",
"    .XXXoXXXXX++++++++++++XX..  ",
"    .XXXoXXXXXXXXXXXXXXXXXXX..  ",
"    .XXXoXXXXXXX+++++++XXXXX..  ",
"    .XXXXoXXXXXXXXXXXXXXXXXX..  ",
"    .XXXoXXX+++++++++++++XXX..  ",
"    .XXXoXXXXXXXXXXXXXXXXXXX..  ",
"    .XXXoXXXXXXXXXXXXXXXXXXX..  ",
"    .XXoXXXXXXXXXXXXXXXXXXXX..  ",
"    .XXXXXXXXXXXXXXXXXXXXXXX..  ",
"    ..........................  ",
"     .........................  "};
