/* XPM */
static char * compressed_xpm[] = {
"32 32 6 1",
" 	s None	c None",
".	c grey4",
"X	c white",
"o	c grey76",
"O	c grey51",
"+	c grey26",
"    ...................         ",
"    .XXXXXXXXXXXXXXXXX..        ",
"    .XXXXXX............o.       ",
"    .XXXXX.OOOOOOOOOOO.oo.      ",
"    .XXXXX.OOOO........ooo.     ",
"    .XXXXX.OOO.XXXXXXX.oooo.    ",
"    .XXXXX.OOO.XXXXXXX.ooooo.   ",
"    .XXXX.......XXXXXX........  ",
"    .XXXX.......XXXXXXX.++.o..  ",
"    .XXXXXXXXXXXXXXXXXX.O+.o..  ",
"    .XXXXXXXXXXXXXXXXXX.OO.X..  ",
"    .XXXXXXXXXXXXXXXXXX.OO.X..  ",
"    .XXXXXXXXXXXXXXXXXX.OO.X..  ",
"    .XXXXXXXXXXXXXXXXXX.OO.X..  ",
"    .XXXXXXXXXXXXXXXXXX.OO.X..  ",
"    .XXXXXXXXXXXXXXXXXX.OO.X..  ",
"    .XXXX.......XXXXXXX.OO.X..  ",
"    .XXXX.......XXXXXXX.OO.X..  ",
"    .XXXXX.....XXXXXXXX.OO.X..  ",
"    .XXXXXX.o.XXXXXXXXX.OO.X..  ",
"    .XXXXXX.o.XXXXXXXX.OOO.X..  ",
"    .XXXX..............OOO.X..  ",
"    .XXXX.OOOOOOOOOOOOOOO.XX..  ",
"    .XXXX................XXX..  ",
"    .XXXXXX.o.XXXXXXXXXXXXXX..  ",
"    .XXXXXX...XXXXXXXXXXXXXX..  ",
"    .XX.XXX.o.XXX.XXXXXXXXXX..  ",
"    .XX...........XXXXXXXXXX..  ",
"    .XX.XXX...XXX.XXXXXXXXXX..  ",
"    .XXXXXXXXXXXXXXXXXXXXXXX..  ",
"    ..........................  ",
"     .........................  "};
