/* XPM */
static char * dir_xpm[] = {
"32 32 5 1",
" 	s None	c None",
".	c grey4",
"X	c goldenrod1",
"o	c grey51",
"O	c white",
"                                ",
"                                ",
"                                ",
"                                ",
"                                ",
"      .......                   ",
"     .XoXoXoX.                  ",
"    .XoXoXoXoX.                 ",
"  ..XXXXXXXXXXX..............   ",
" .OOOOOOOOOOOOOOOOOOOOOOOOOOO.  ",
" .OXXXXXXXXXXXXXXXXXXXXXXXXXX.. ",
" .OXXXXXXXXXXXXXXXXXXXXXXXXXX.. ",
" .OXXXXXXXXXXXXXXXXXXXXXXXXXX.. ",
" .OXXXXXXXXXXXXXXXXXXXXXXXXXX.. ",
" .OXXXXXXXXXXXXXXXXXXXXXXXXXX.. ",
" .OXXXXXXXXXXXXXXXXXXXXXXXXXX.. ",
" .OXXXXXXXXXXXXXXXXXXXXXXXXXX.. ",
" .OXXXXXXXXXXXXXXXXXXXXXXXXXX.. ",
" .OXXXXXXXXXXXXXXXXXXXXXXXXXX.. ",
" .OXXXXXXXXXXXXXXXXXXXXXXXXXX.. ",
" .OXXXXXXXXXXXXXXXXXXXXXXXXXX.. ",
" .OXXXXXXXXXXXXXXXXXXXXXXXXXX.. ",
" .OXXXXXXXXXXXXXXXXXXXXXXXXXX.. ",
" .OXXXXXXXXXXXXXXXXXXXXXXXXXX.. ",
" .OXXXXXXXXXXXXXXXXXXXXXXXXXX.. ",
" .OXXXXXXXXXXXXXXXXXXXXXXXXXX.. ",
" .OXXXXXXXXXXXXXXXXXXXXXXXXXX.. ",
" .OXXXXXXXXXXXXXXXXXXXXXXXXXX.. ",
" .OXXXXXXXXXXXXXXXXXXXXXXXXXX.. ",
" .............................. ",
"  ............................. ",
"                                "};
