/* XPM */
static char * dir_xpm[] = {
"32 32 4 1",
" 	s None	c None",
".	c grey4",
"X	c wheat",
"o	c grey51",
"                                ",
"                                ",
"                                ",
"                                ",
"                                ",
"                  .......       ",
"                 .XoXoXoX.      ",
"                .XoXoXoXoX.     ",
"  ...........................   ",
" .XXXXXXXXXXXXXXXXXXXXXXXXXXX.  ",
" .XXXXXXXXXXXXXXXXXXXXXXXXXXX.. ",
" .XXXXXXXXXXXXXXXXXXXXXXXXXXX.. ",
" .XXXXXXXXXXXXXXXXXXXXXXXXXXX.. ",
" .XXXXXXXXXXXXXXXXXXXXXXXXXXX.. ",
" .XXXXXXXXXXXXXXXXXXXXXXXXXXX.. ",
" .XXXXXXXXXXXXXXXXXXXXXXXXXXX.. ",
" .XXXXXXXXXXXXXXXXXXXXXXXXXXX.. ",
" .XXXXXXXXXXXXXXXXXXXXXXXXXXX.. ",
" .XXXXXXXXXXXXXXXXXXXXXXXXXXX.. ",
" .XXXXXXXXXXXXXXXXXXXXXXXXXXX.. ",
" .XXXXXXXXXXXXXXXXXXXXXXXXXXX.. ",
" .XXXXXXXXXXXXXXXXXXXXXXXXXXX.. ",
" .XXXXXXXXXXXXXXXXXXXXXXXXXXX.. ",
" .XXXXXXXXXXXXXXXXXXXXXXXXXXX.. ",
" .XXXXXXXXXXXXXXXXXXXXXXXXXXX.. ",
" .XXXXXXXXXXXXXXXXXXXXXXXXXXX.. ",
" .XXXXXXXXXXXXXXXXXXXXXXXXXXX.. ",
" .XXXXXXXXXXXXXXXXXXXXXXXXXXX.. ",
" .XXXXXXXXXXXXXXXXXXXXXXXXXXX.. ",
" .............................. ",
"  ............................. ",
"                                "};
