/* XPM */
static char * dot_a_xpm[] = {
"32 32 5 1",
" 	s None	c None",
".	c grey4",
"X	c white",
"o	c grey76",
"O	c grey51",
"    ..................          ",
"    .XXXXXXXXXXXXXXXX..         ",
"    .XXXXXXXXXXXXXXXX.o.        ",
"    .XXXXXXXXXXXXXXXX.oo.       ",
"    .XXoOoOoOoOoOoOoX.ooo.      ",
"    .XXOoOoOoOoOoOoOX.oooo.     ",
"    .XXoOoOoOoOoOoOoX.ooooo.    ",
"    .XXOoOoOoOoOoOoOX........   ",
"    .XXoOoOoOoOoOoOoXXooooo..   ",
"    .XXOoOoOoOoOoOoOoOoOoOo..   ",
"    .XXoOoOoOoOoOoOoOoOoOoX..   ",
"    .XXOoOoOoOoOoOoOoOoOoOX..   ",
"    .XXoOoOoOoOoOoOoOoOoOoX..   ",
"    .XXOoOoOoOoOoOoOoOoOoOX..   ",
"    .XXoOoOoOoOoOoOoOoOoOoX..   ",
"    .XXOoOoOoOoOoOoOoOoOoOX..   ",
"    .XXoOoOoOoOoOoOoOoOoOoX..   ",
"    .XXOoOoOoOoOoOoOXOXOoOX..   ",
"    .XXoOoOoOoOoOoXXXXXXOoX..   ",
"    .XXOoOoOoOoOXXX....XXOX..   ",
"    .XXoOoOoOoOoXX......XXX..   ",
"    .XXOoOoOoOoOX...XX...XX..   ",
"    .XXoOoOoOoOoXXXXXX...XX..   ",
"    .XXOoOoOoOoOXX.......XX..   ",
"    .XXoOoOoOoOoX....X...XX..   ",
"    .XXOoOoOoXXXX...XX...XX..   ",
"    .XXoOoOoOX..X...X....XX..   ",
"    .XXXXXXXXX..X........XX..   ",
"    .XXXXXXXXX..XX....X..XX..   ",
"    .XXXXXXXXXXXXXXXXXXXXXX..   ",
"    .........................   ",
"     ........................   "};
