/* XPM */
static char * dot_o_xpm[] = {
"32 32 5 1",
" 	s None	c None",
".	c grey4",
"X	c white",
"o	c grey76",
"O	c grey51",
"    ..................          ",
"    .XXXXXXXXXXXXXXXX..         ",
"    .XXXXXXXXXXXXXXXX.o.        ",
"    .XXXXXXXXXXXXXXXX.oo.       ",
"    .XXOOOOOOOOOOOOOX.ooo.      ",
"    .XXOoOoOoOoOoOoOX.oooo.     ",
"    .XXOOOOOOOOOOOOOX.ooooo.    ",
"    .XXOoOoOoOoOoOoOX........   ",
"    .XXOOOOOOOOOOOOOXXooooo..   ",
"    .XXOoOoOoOoOoOoOXXXoooo..   ",
"    .XXOOOOOOOOOOOOOOOOOOOX..   ",
"    .XXOoOoOoOoOoOoOoOoOoOX..   ",
"    .XXOOOOOOOOOOOOOOOOOOOX..   ",
"    .XXOoOoOoOoOoOoOoOoOoOX..   ",
"    .XXOOOOOOOOOOOOOOOOOOOX..   ",
"    .XXOoOoOoOoOoOoOoOoOoOX..   ",
"    .XXOOOOOOOOOOOOOOOOOOOX..   ",
"    .XXOoOoOoOoOoOoOoOoOoOX..   ",
"    .XXOOOOOOOOOOOXXXXXXOOX..   ",
"    .XXOoOoOoOoOoXX....XXOX..   ",
"    .XXOOOOOOOOOX........XX..   ",
"    .XXOoOoOoOoXX...XX...XX..   ",
"    .XXOOOOOOOOX...XXXX...X..   ",
"    .XXOoOoOoOoX...XXXX...X..   ",
"    .XXOOOOOOOOX...XXXX...X..   ",
"    .XXOoOoOoOXX...XXXX...X..   ",
"    .XXOOOOOOX..X...XX...XX..   ",
"    .XXXXXXXXX..X........XX..   ",
"    .XXXXXXXXX..XXX....XXXX..   ",
"    .XXXXXXXXXXXXXXXXXXXXXX..   ",
"    .........................   ",
"     ........................   "};
