/* XPM */
static char * dot_h_xpm[] = {
"32 32 5 1",
" 	s None	c None",
".	c grey4",
"X	c white",
"o	c grey76",
"O	c grey51",
"    ..................          ",
"    .XXXXXXXXXXXXXXXX..         ",
"    .XXXXXXXXXXXXXXXX.o.        ",
"    .XXXXXXXXXXXXXXXX.oo.       ",
"    .XXOOOOOOOOOOOOXX.ooo.      ",
"    .XXXXXXXXXXXXXXXX.oooo.     ",
"    .XXOOOOOOOOOOOOXX.ooooo.    ",
"    .XXXXXXXXXXXXXXXX........   ",
"    .XXXXXOOOOOOOXXXXXooooo..   ",
"    .XXXXXXXXXXXXXXXXXXoooo..   ",
"    .XXXXXOOOOOOOOOOOOOOXXX..   ",
"    .XXXXXXXXXXXXXXXXXXXXXX..   ",
"    .XXXXXOOOOXXXXXXXXXXXXX..   ",
"    .XXXXXXXXXXXXXXXXXXXXXX..   ",
"    .XXXXXOOOOOOXXXXXXXXXXX..   ",
"    .XXXXXXXXXXXXXXXXXXXXXX..   ",
"    .XXXXXOOOOXXX...XXXXXXX..   ",
"    .XXXXXXXXXXXX...XXXXXXX..   ",
"    .XXXXXOOOOOOX...XXXXXXX..   ",
"    .XXXXXXXXXXXX.......XXX..   ",
"    .XXXXXOOOOOOX........XX..   ",
"    .XXXXXXXXXXXX....X....X..   ",
"    .XXOOOOOOOOOX...XXX...X..   ",
"    .XXXXXXXXXXXX...XXX...X..   ",
"    .XXOOOOOOOOOX...XXX...X..   ",
"    .XXXXXXXXXXXX...XXX...X..   ",
"    .XXXXXOOOX..X...XXX...X..   ",
"    .XXXXXXXXX..X...XXX...X..   ",
"    .XXXXXXXXX..X...XXX...X..   ",
"    .XXXXXXXXXXXXXXXXXXXXXX..   ",
"    .........................   ",
"     ........................   "};
