/* XPM */
static char * dot_c_xpm[] = {
"32 32 5 1",
" 	s None	c None",
".	c grey4",
"X	c white",
"o	c grey76",
"O	c grey51",
"    ..................          ",
"    .XXXXXXXXXXXXXXXX..         ",
"    .XXXXXXXXXXXXXXXX.o.        ",
"    .XXXXXXXXXXXXXXXX.oo.       ",
"    .XXOOOOOOOOOOOOXX.ooo.      ",
"    .XXXXXXXXXXXXXXXX.oooo.     ",
"    .XXOOOOOOOOOOOOXX.ooooo.    ",
"    .XXXXXXXXXXXXXXXX........   ",
"    .XXXXXXOOOOOOXXXXXooooo..   ",
"    .XXXXXXXXXXXXXXXXXXoooo..   ",
"    .XXXXXXOOOOOOOOXXXXXXXX..   ",
"    .XXXXXXXXXXXXXXXXXXXXXX..   ",
"    .XXXXXXXXXXOOOOOOOXXXXX..   ",
"    .XXXXXXXXXXXXXXXXXXXXXX..   ",
"    .XXXXXXXXXXOOOOOOOOOXXX..   ",
"    .XXXXXXXXXXXXXXXXXXXXXX..   ",
"    .XXXXXXOOOOOOOOOXXXXXXX..   ",
"    .XXXXXXXXXXXXXXXXXXXXXX..   ",
"    .XXXXXXOOOOOOOOXXXXXXXX..   ",
"    .XXXXXXXXXXXXXXX....XXX..   ",
"    .XXXXXXXXXXOOX........X..   ",
"    .XXXXXXXXXXXXX...XX...X..   ",
"    .XXOOOOOOOOOX...XXXXXXX..   ",
"    .XXXXXXXXXXXX...XXXXXXX..   ",
"    .XXXXXXOOOOOX...XXXXXXX..   ",
"    .XXXXXXXXXXXX...XXXXXXX..   ",
"    .XXXXXXOOOX..X...XX...X..   ",
"    .XXXXXXXXXX..X........X..   ",
"    .XXXXXXXXXX..XXX....XXX..   ",
"    .XXXXXXXXXXXXXXXXXXXXXX..   ",
"    .........................   ",
"     ........................   "};
