/* XPM */
static char * drawing3_xpm[] = {
"32 32 9 1",
" 	s None	c None",
".	c grey4",
"X	c white",
"o	c brown4",
"O	c grey26",
"+	c grey76",
"@	c red1",
"#	c grey51",
"$	c goldenrod1",
"    ..................          ",
"    .XXXXXXXXXXXXXXXX..         ",
"    .XoXoXoXoXoXO.oXX.+.        ",
"    .XXXXXXXXXXXO.XXo.++.       ",
"    .XX@oXXXXXXXO.++X.+++.      ",
"    .X@@XXXXXXXXO.++X.++++.     ",
"    .X@@o+XXXXXOOO.+X.+++++.    ",
"    .X@@@+XXXXOOXXO.X........   ",
"    .X@@..XXXXOXo++.+X++o++..   ",
"    .X@.X..XXXOX++X.++X++++..   ",
"    .X@....+oXOOoX..o+oXoXo..   ",
"    .X@....#+XXOOOOXX+XXXXX..   ",
"    .XX...XX#XXOOOOX++XXoXX..   ",
"    .XXXX.OXX#.OX+OO+XXXXXX..   ",
"    .XXXoX.OX...o+OO+XXXoXX..   ",
"    .XXXXXX.o$..++OO++XXXXX..   ",
"    .XXXoXXX.o$..+OOO+XXoXX..   ",
"    .XXXXXXXX.o$..XOO+XXXXX..   ",
"    .XoXoXoXoO.o$...O+oXoXo..   ",
"    .XXXXXXXOOO.o$...O+XXXX..   ",
"    .XXXoXXXOOX+.o$...+XoXX..   ",
"    .XXXXXXXOO++O.o$..+XXXX..   ",
"    .XXXoOOOOOOOOO.o$...oXX..   ",
"    .XXXXXXOOX++OO+.o$..XXX..   ",
"    .XXXoX+OO+++OO++.o$..XX..   ",
"    .XXXXXOOO++XXX++X.o$..X..   ",
"    .XoXoXOOO+oXoXo+oX.o$....   ",
"    .XXXXXOO+++XXXXXXXO.o$...   ",
"    .XXXoOOO+++XoXXXXXOO.o$..   ",
"    .XXXXOOX++XXXXXXXXXOO....   ",
"    .........................   ",
"     ........................   "};
