/* XPM */
static char * exec_xpm[] = {
"32 32 6 1",
" 	s None	c None",
".	c grey51",
"X	c grey76",
"o	c grey4",
"O	c blue4",
"+	c yellow1",
"                                ",
"                                ",
"  ............................  ",
"  .XXXXXXXXXXXXXXXXXXXXXXXXXXo  ",
"  .XOOOOOOOOOOOO+++++++++OOOoo  ",
"  .XOOOOOOOOOOO+++++++++OOOOoo  ",
"  .XOOOOOOOOOOO++++++++OOOOOoo  ",
"  .XOOOOOOOOOO++++++++OOOOOOoo  ",
"  .XOOOOOOOOOO+++++++OOOOOOOoo  ",
"  .XOOOOOOOOO+++++++OOOOOOOOoo  ",
"  .XOOOOOOOOO++++++OOOOOOOOOoo  ",
"  .XOOOOOOOO++++++OOOOOOOOOOoo  ",
"  .XOOOOOOO++++++OOOOOOOOOOOoo  ",
"  .XOOOOOOO++++++++++++OOOOOoo  ",
"  .XOOOOOO++++++++++++OOOOOOoo  ",
"  .XOOOOOO+++++++++++OOOOOOOoo  ",
"  .XOOOOO+++++++++++OOOOOOOOoo  ",
"  .XOOOOOOOOOO+++++OOOOOOOOOoo  ",
"  .XOOOOOOOOO+++++OOOOOOOOOOoo  ",
"  .XOOOOOOOO+++++OOOOOOOOOOOoo  ",
"  .XOOOOOOOO+++OOOOOOOOOOOOOoo  ",
"  .XOOOOOOO+++OOOOOOOOOOOOOOoo  ",
"  .XOOOOOO+++OOOOOOOOOOOOOOOoo  ",
"  .XOOOOO+++OOOOOOOOOOOOOOOOoo  ",
"  .XOOOOO++OOOOOOOOOOOOOOOOOoo  ",
"  .XOOOO++OOOOOOOOOOOOOOOOOOoo  ",
"  .XOOOO+OOOOOOOOOOOOOOOOOOOoo  ",
"  .XOOOOOOOOOOOOOOOOOOOOOOOOoo  ",
"  .Xoooooooooooooooooooooooooo  ",
"  .ooooooooooooooooooooooooooo  ",
"                                ",
"                                "};
