/* XPM */
static char * gif_xpm[] = {
"32 32 11 1",
" 	s None	c none",
".	c grey4",
"X	c cyan1",
"o	c grey76",
"O	c grey51",
"+	c ForestGreen",
"@	c LimeGreen",
"#	c red1",
"$	c grey89",
"%	c brown4",
"&	c goldenrod1",
"    ..................          ",
"    .XXXXXXXXXXXXXXXX..         ",
"    .XXXXXXXXXXXXXXXX.o.        ",
"    .XXXXXXXXXXXXXXXX.oo.       ",
"    .XXXXXXXXXXXXXXXX.ooo.      ",
"    .XXXXXXXXXXXXXXXX.oooo.     ",
"    .XXXXXXXXXXXXXXXX.ooooo.    ",
"    .XXXXXXXXXXXXXXXX........   ",
"    .XXXXXXXXXXXXXXXXXXXXXX..   ",
"    .XXXXXXXXXXXXXXXXXXXXXX..   ",
"    .XXXXXXXXXXXXXXXXXXXXXX..   ",
"    .XXXXXXXXXXXXXXX..XXXXX..   ",
"    ...XXXXXXXXXXXX.o.XXXXX..   ",
"    .oo.XXXX.XXXXX..oo.XXXX..   ",
"    .ooo.XX.o.XXX.ooooo.XXX..   ",
"    .oooO..ooo.X.oooooo.X....   ",
"    .oOoOOooooo.oooo+++@.oo..   ",
"    .oOOoOoooooOOo+++@++@oo..   ",
"    .OOoooOoooooO+++++@+@+o..   ",
"    .OooooooOoooo+@++++++++..   ",
"    .......####o++++@++@++o..   ",
"    .@@@@@#$###.++++++++++...   ",
"    .@@@@#$$$###@++@+%+++@@..   ",
"    .@@@#$$$$$###@+@%&%@+@@..   ",
"    .@@#O$$$$$O##@@@%&%@@@@..   ",
"    .@@@O$OO$$O$#@@@%&%@@@@..   ",
"    .@@@O$OO$$O$O@@@%&%@@@@..   ",
"    .@@@O$OO$$OO@@@@%&%@@@@..   ",
"    .@@@OOOOOOO@@@@@%%%@@@@..   ",
"    .@@@@@@@@@@@@@@@@@@@@@@..   ",
"    .........................   ",
"     ........................   "};
