/* XPM */
static char * info_xpm[] = {
"32 32 6 1",
" 	s None	c none",
".	c grey4",
"X	c white",
"o	c grey89",
"O	c blue1",
"+	c blue4",
"    ..................          ",
"    .XXXXXXXXXXXXXXXX..         ",
"    .XXXXXXXXXXXXXXXX.o.        ",
"    .XXXXXXXXXXXXXXXX.oo.       ",
"    .XX.X....XOOOX..X.ooo.      ",
"    .XXXXXXXXOOOO+XXX.oooo.     ",
"    .XX...X.XOOOO+XXX.ooooo.    ",
"    .XXXXXXXXOOOO+XXX........   ",
"    .XXXXXXXXOOOO+XXXoooooo..   ",
"    .XX..X...X+++XXXXXooooo..   ",
"    .XXXXXXXXXXXXXXXXXXXXXX..   ",
"    .XX...X..XOOOX..X...XXX..   ",
"    .XXXXXXXXOOOO+XXXXXXXXX..   ",
"    .XXXXXXXOOOOO+XXXXXXXXX..   ",
"    .XX.X...XOOOO+X...XXXXX..   ",
"    .XXXXXXXXOOOO+XXXXXXXXX..   ",
"    .XX...X.XOOOO+X.X....XX..   ",
"    .XXXXXXXXOOOO+XXXXXXXXX..   ",
"    .XX.X...XOOOO+X...XXXXX..   ",
"    .XXXXXXXXOOOO+XXXXXXXXX..   ",
"    .XXXXXXXXOOOO+XXXXXXXXX..   ",
"    .XX.X.X.XOOOO+X....XXXX..   ",
"    .XXXXXXXXOOOO+XXXXXXXXX..   ",
"    .XX.....XOOOO+X...XXXXX..   ",
"    .XXXXXXXXOOOO+XXXXXXXXX..   ",
"    .XX...X.OOOOO++...X..XX..   ",
"    .XXXXXX+++++++++XXXXXXX..   ",
"    .XXXXXXXXXXXXXXXXXXXXXX..   ",
"    .XXXXXXXXX..XXXXXXXXXXX..   ",
"    .XXXXXXXXXXXXXXXXXXXXXX..   ",
"    .........................   ",
"     ........................   "};
