/* XPM */
static char * makefile_xpm[] = {
"32 32 5 1",
" 	s None	c none",
".	c grey4",
"X	c white",
"o	c grey76",
"O	c grey51",
"    ..................          ",
"    .XXXXXXXXXXXXXXXX..         ",
"    .XXXXXX...XXXXXXX.o.        ",
"    .XXXX...X...XXXXX.oo.       ",
"    .XXXX.oo.oo.XXXXX.ooo.      ",
"    .XXX..o...o..XXXX.oooo.     ",
"    .XXX.oo.oooo.XXXX.ooooo.    ",
"    .XXX..oo.oo..XXXX........   ",
"    .XXXX.ooooo....XXXooooo..   ",
"    .XXXX...o....O.XX.Xoooo..   ",
"    .XXXXXX...O.OOO..O.XXXX..   ",
"    .XXXXXX.OOOOOOOOOO..XXX..   ",
"    .XXXXXXX.OOO...OOO.XXXX..   ",
"    .XXXXXXX.OO.O.X.OO.XXXX..   ",
"    .XXXXX..OO.O.XXX.OO..XX..   ",
"    .XXXXX.OOO..XXXX.OOO.XX..   ",
"    .XXXXX...O.O.XXX.O...XX..   ",
"    .XXXXXXX.OO.O.X.OO.XXXX..   ",
"    .XXXXXXX.OOO...OOO.XXXX..   ",
"    .XXXXXX.OOOOOOOOOOO.XXX..   ",
"    .XXXXXX..O..OO.....XXXX..   ",
"    .XXXX...o...OO.XX.XXXXX..   ",
"    .XXXX.oo.oo....XXXXXXXX..   ",
"    .XXX..o...o..XXXXXXXXXX..   ",
"    .XXX.oo.oooo.XXXXXXXXXX..   ",
"    .XXX..oo.oo..XXXXXXXXXX..   ",
"    .XXXX.ooooo.XXXXXXXXXXX..   ",
"    .XXXX...o...XXXXXXXXXXX..   ",
"    .XXXXXX...XXXXXXXXXXXXX..   ",
"    .XXXXXXXXXXXXXXXXXXXXXX..   ",
"    .........................   ",
"     ........................   "};
