/* XPM */
static char * postscript_xpm[] = {
"32 32 4 1",
" 	s None	c none",
".	c grey4",
"X	c white",
"o	c grey76",
"    ..................          ",
"    .XXXXXXXXXXXXXXXX..         ",
"    .XXXXX.XXXXXXXXXX.o.        ",
"    .XXXXX.XXXXXXXXXX.oo.       ",
"    .XXXXXXXXXXXXXXXX.ooo.      ",
"    .XXXXX.XXXXXXXXXX.oooo.     ",
"    .X..X.X.X......XX.ooooo.    ",
"    .XXXXX.XXXXXXXXXX........   ",
"    .XXXXXXXXXXXXXXXXXooooo..   ",
"    .XXXXX.XXXXXXXXXXXXoooo..   ",
"    .XXXXX.XXXXXXXXXXXXXXXX..   ",
"    .XXXXXXXXXXXXXXXXXXXXXX..   ",
"    .XXXX.......XX.....XXXX..   ",
"    .XXXXX..XX.....XX...XXX..   ",
"    .XXXXX..XXX...XXXX..XXX..   ",
"    .XXXXX..XXX...XXXXXXXXX..   ",
"    .XXXXX..XX.....XXXXXXXX..   ",
"    .XXXXX.....XX......XXXX..   ",
"    .XXXXX..XXXXXXXXX...XXX..   ",
"    .XXXXX..XXXXXXXXXX..XXX..   ",
"    .XXXXX..XXXX..XXXX..XXX..   ",
"    .XXXXX..XXXX...XX...XXX..   ",
"    .XXXX....XXXX.....XXXXX..   ",
"    .XXXXXXXXXXXXXXXXXXXXXX..   ",
"    .X....................X..   ",
"    .XXXXXXXXXXXXXXXXXXXXXX..   ",
"    .XXXXX.XXXXXXXXXXXXXXXX..   ",
"    .XXXXX.XXXXXXXXXXXXXXXX..   ",
"    .XXXXX.XXXXXXXXXXXXXXXX..   ",
"    .XXXXXXXXXXXXXXXXXXXXXX..   ",
"    .........................   ",
"     ........................   "};
