/* XPM */
static char * sound_xpm[] = {
"32 32 5 1",
" 	s None	c none",
".	c grey4",
"X	c white",
"o	c grey76",
"O	c blue1",
"    ..................          ",
"    .XXXXXXXXXXXXXXXX..         ",
"    .XXXXXXXXXXXXXXXX.o.        ",
"    .XXXXXXXXOXXXXXXX.oo.       ",
"    .XXXXXXXXOXXXXXXX.ooo.      ",
"    .XXXXXXXXOXXXXXXX.oooo.     ",
"    .XXXXXXXXOXXXXXXX.ooooo.    ",
"    .XXXXXXXOOOXXXXXX........   ",
"    .XXXXXXXOOOXXXXXXoooooo..   ",
"    .XXXXXXXOOOXXXXXXXXoooo..   ",
"    .XXXOXXXOOOXXOXXXXXXXXX..   ",
"    .XXXOXXXOOOXXOXXXOXXXXX..   ",
"    .XXXOXXOOOOXOOOXXOXXXXX..   ",
"    .XXXOOXOOOOXOOOXXOXXXXX..   ",
"    .XXXOOXOOOOXOOOXXOOXXXX..   ",
"    .XXOOOXOOOOXOOOXOOOOXXX..   ",
"    .OOOOOOOOOOXOOOXOOOOOOO..   ",
"    .XXOXOOOOXOXOOOOOOXOXXX..   ",
"    .XXXXOOOXXOOOOOOOOXXXXX..   ",
"    .XXXXOOOXXOOOOXOOXXXXXX..   ",
"    .XXXXOOOXXOOOOXOOXXXXXX..   ",
"    .XXXXOOOXXOOOOXXOXXXXXX..   ",
"    .XXXXXOXXXXOXOXXXXXXXXX..   ",
"    .XXXXXOXXXXOXOXXXXXXXXX..   ",
"    .XXXXXOXXXXOXXXXXXXXXXX..   ",
"    .XXXXXXXXXXOXXXXXXXXXXX..   ",
"    .XXXXXXXXXXOXXXXXXXXXXX..   ",
"    .XXXXXXXXXXXXXXXXXXXXXX..   ",
"    .XXXXXXXXXXXXXXXXXXXXXX..   ",
"    .XXXXXXXXXXXXXXXXXXXXXX..   ",
"    .........................   ",
"     ........................   "};
