/* XPM */
static char * tar_xpm[] = {
"32 32 5 1",
" 	s None	c none",
".	c grey4",
"X	c white",
"o	c grey76",
"O	c brown4",
"    ..................          ",
"    .XXXXXXXXXXXXXXXX..         ",
"    .XXXXXXXXXXXXXXXX.o.        ",
"    .X.....X..XX...XX.oo.       ",
"    .XXX.XX.XX.X.XX.X.ooo.      ",
"    .XXX.XX.XX.X.XX.X.oooo.     ",
"    .XXX.XX....X...XX.ooooo.    ",
"    .XXX.XX.XX.X.X.XX........   ",
"    .XXX.XX.XX.X.XX.XXooooo..   ",
"    .XXXXXXXXXXXXXXXXXXoooo..   ",
"    .XXXXXXXXXXXXXXXXXXXXXX..   ",
"    .X....................X..   ",
"    .X.oooooooooooooooooo.X..   ",
"    .X.ooooooOOOOOOOOoooo.X..   ",
"    .X.oooooOooooooooOooo.X..   ",
"    .X.ooooOoooooooooOooo.X..   ",
"    .X.ooooOooooooooooOoo.X..   ",
"    .X.oooOoooooooooooOoo.X..   ",
"    .X.oooOooooooOOOOOoOo.X..   ",
"    .X.ooOooooooOOOOOOOOo.X..   ",
"    .X.ooOoooooOOOOOOOOOo.X..   ",
"    .X.oOOOOoooOOOOOOOOOo.X..   ",
"    .X.oOOOOOooOOOOoOOOOo.X..   ",
"    .X.oOOoOOooOOOOOOOOOo.X..   ",
"    .X.oOOOOOooOOOOOOOOOo.X..   ",
"    .X.ooOOOooooOOOOOOOoo.X..   ",
"    .X.ooooooooooOOOOOooo.X..   ",
"    .X.oooooooooooooooooo.X..   ",
"    .X....................X..   ",
"    .XXXXXXXXXXXXXXXXXXXXXX..   ",
"    .........................   ",
"     ........................   "};
