/* XPM */
static char * tex_xpm[] = {
"32 32 4 1",
" 	s None	c none",
".	c grey4",
"X	c white",
"o	c grey76",
"   ....................         ",
"   .XXXXXXXXXXXXXXXXXX..        ",
"   .XXXXXXXXXXXXXXXXXX.o.       ",
"   .XXXXXXXXXXXXXXXXXX.oo.      ",
"   .XXXXXXXXXXXXXXXXXX.ooo.     ",
"   .XXXXXXXXXXXXXXXXXX.oooo.    ",
"   .XXXXXXXXXXXXXXXXXX.......   ",
"   .XXXXXXXXXXXXXXXXXXXoooo..   ",
"   .XXXXXXXXXXXXXXXXXXXXooo..   ",
"   .XXXXXXXXXXXXXXXXXXXXXXX..   ",
"   .XXXXXXXXXXXXXXXXXXXXXXX..   ",
"   .X.......XXXXXX........X..   ",
"   .X.XX.XX.XXXXXXX..XX..XX..   ",
"   .X.XX.XX.XXXXXXXX.XX.XXX..   ",
"   .XXXX.XXXXXXXXXXX.XX.XXX..   ",
"   .XXXX.XX.......XXX..XXXX..   ",
"   .XXXX.XXX.XXXX.XXX..XXXX..   ",
"   .XXXX.XXX.XXXXXXX.XX.XXX..   ",
"   .XXXX.XXX.XXX.XXX.XX.XXX..   ",
"   .XXXX.XXX.....XX..XX..XX..   ",
"   .XXX...XX.XXX.X........X..   ",
"   .XXXXXXXX.XXXXXXXXXXXXXX..   ",
"   .XXXXXXXX.XXXXXXXXXXXXXX..   ",
"   .XXXXXXXX.XXXX.XXXXXXXXX..   ",
"   .XXXXXXX.......XXXXXXXXX..   ",
"   .XXXXXXXXXXXXXXXXXXXXXXX..   ",
"   .XXXXXXXXXXXXXXXXXXXXXXX..   ",
"   .XXXXXXXXXXXXXXXXXXXXXXX..   ",
"   .XXXXXXXXXXXXXXXXXXXXXXX..   ",
"   .XXXXXXXXXXXXXXXXXXXXXXX..   ",
"   ..........................   ",
"    .........................   "};
