/* XPM */
static char * paragraphs_xpm[] = {
"32 32 4 1",
" 	s None	c none",
".	c grey4",
"X	c white",
"o	c grey76",
"    ...................         ",
"    .XXXXXXXXXXXXXXXXX..        ",
"    .XXXXXXXXXXXXXXXXX.o.       ",
"    .XXXXXXXXXXXXXXXXX.oo.      ",
"    .XXXXXXXXXXXXXXXXX.ooo.     ",
"    .XXXXX...X....X..X.oooo.    ",
"    .XXXXXXXXXXXXXXXXX.ooooo.   ",
"    .XXX...X...X.....X........  ",
"    .XXXXXXXXXXXXXXXXXXooooo..  ",
"    .XXX.....X......X....ooo..  ",
"    .XXXXXXXXXXXXXXXXXXXXXXX..  ",
"    .XXX...X...X...X....XXXX..  ",
"    .XXXXXXXXXXXXXXXXXXXXXXX..  ",
"    .XXXXXXXXXXXXXXXXXXXXXXX..  ",
"    .XXXXX....X....X.....XXX..  ",
"    .XXXXXXXXXXXXXXXXXXXXXXX..  ",
"    .XXX....X....X....X..XXX..  ",
"    .XXXXXXXXXXXXXXXXXXXXXXX..  ",
"    .XXX..X....X....X....XXX..  ",
"    .XXXXXXXXXXXXXXXXXXXXXXX..  ",
"    .XXX....X.....X....XXXXX..  ",
"    .XXXXXXXXXXXXXXXXXXXXXXX..  ",
"    .XXXXXXXXXXXXXXXXXXXXXXX..  ",
"    .XXXXX....X...X..X...XXX..  ",
"    .XXXXXXXXXXXXXXXXXXXXXXX..  ",
"    .XXX....X...X...X....XXX..  ",
"    .XXXXXXXXXXXXXXXXXXXXXXX..  ",
"    .XXX...X.....X....X..XXX..  ",
"    .XXXXXXXXXXXXXXXXXXXXXXX..  ",
"    .XXXXXXXXXXXXXXXXXXXXXXX..  ",
"    ..........................  ",
"     .........................  "};
