/* XPM */
static char * xbm_xpm[] = {
"32 32 4 1",
" 	s None	c none",
".	c grey4",
"X	c white",
"o	c grey76",
"    ..................          ",
"    .XXXXXXXXXXXXXXXX..         ",
"    .XXXX...XXX..XXXX.o.        ",
"    .XXXX...XXX.XXXXX.oo.       ",
"    .XXXXX...X..XXXXX.ooo.      ",
"    .XXXXX...X.XXXXXX.oooo.     ",
"    .XXXXXX.X...XXXXX.ooooo.    ",
"    .XXXXX..X...XXXXX........   ",
"    .XXXXX.XXX...XXXXXooooo..   ",
"    .XXXX..XXX...XXXXXXoooo..   ",
"    .XXXXXXXXXXXXXXXXXXXXXX..   ",
"    .XXXX................XX..   ",
"    .XXXX....XX....XX....XX..   ",
"    .XXXX....XX....XX....XX..   ",
"    .XXXX................XX..   ",
"    .XXXX.XX.XX....XX.XX.XX..   ",
"    .XXXX.XX.XX....XX.XX.XX..   ",
"    .XXXX................XX..   ",
"    .XXXX.XX....XX....XX.XX..   ",
"    .XXXX.XX....XX....XX.XX..   ",
"    .XXXX................XX..   ",
"    .XXXX....XX.XX....XX.XX..   ",
"    .XXXX....XX.XX....XX.XX..   ",
"    .XXXX................XX..   ",
"    .XXXX.XX.......XX....XX..   ",
"    .XXXX.XX.......XX....XX..   ",
"    .XXXX................XX..   ",
"    .XXXXXXXXXXXXXXXXXXXXXX..   ",
"    .XXXXXXXXXXXXXXXXXXXXXX..   ",
"    .XXXXXXXXXXXXXXXXXXXXXX..   ",
"    .........................   ",
"     ........................   "};
