#define app_find_width 48
#define app_find_height 48
static char app_find_bits[] = {
  0x00, 0x00, 0x80, 0x00, 0x00, 0x00, 0x00, 0x00, 0x40, 0x01, 0x00, 0x00, 
  0x00, 0x00, 0x20, 0x02, 0x00, 0x00, 0x00, 0x00, 0x10, 0x04, 0x00, 0x00, 
  0x00, 0x00, 0x08, 0x08, 0x00, 0x00, 0x00, 0x00, 0x04, 0x10, 0x00, 0x00, 
  0x00, 0x00, 0x02, 0x20, 0x00, 0x00, 0x00, 0x00, 0x01, 0x40, 0x00, 0x00, 
  0x00, 0x80, 0x00, 0x80, 0x00, 0x00, 0x00, 0x40, 0x00, 0x00, 0x01, 0x00, 
  0x00, 0x20, 0x3f, 0x00, 0x02, 0x00, 0x00, 0xd0, 0xc0, 0x00, 0x04, 0x00, 
  0x00, 0x28, 0x1e, 0x01, 0x08, 0x00, 0x00, 0x94, 0x61, 0x02, 0x10, 0x00, 
  0x00, 0x4a, 0x80, 0x04, 0x20, 0x00, 0x00, 0xa9, 0x0f, 0x05, 0x40, 0x00, 
  0x80, 0xa4, 0x18, 0x09, 0x80, 0x00, 0x40, 0x94, 0x38, 0x0a, 0x00, 0x01, 
  0x20, 0x94, 0x20, 0x0a, 0x00, 0x02, 0x10, 0x94, 0x20, 0x0a, 0x00, 0x04, 
  0x08, 0x94, 0x20, 0x0a, 0x00, 0x08, 0x04, 0x94, 0x20, 0x0a, 0x00, 0x10, 
  0x02, 0xa4, 0x20, 0x09, 0x00, 0x20, 0x01, 0xa8, 0xbf, 0x05, 0x00, 0x40, 
  0x02, 0x48, 0x80, 0x04, 0x00, 0x80, 0x04, 0x90, 0x61, 0x06, 0x00, 0x40, 
  0x08, 0x20, 0x1e, 0x09, 0x00, 0x20, 0x10, 0xc0, 0xc0, 0x11, 0x00, 0x10, 
  0x20, 0x00, 0x3f, 0x22, 0x00, 0x08, 0x40, 0x00, 0x00, 0x44, 0x00, 0x04, 
  0x80, 0x00, 0x00, 0x88, 0x00, 0x02, 0x00, 0x01, 0x00, 0x10, 0x01, 0x01, 
  0x00, 0x02, 0x00, 0x20, 0x82, 0x00, 0x00, 0x04, 0x00, 0x40, 0x44, 0x00, 
  0x00, 0x08, 0x00, 0x80, 0x28, 0x00, 0x00, 0x10, 0x00, 0x00, 0x19, 0x00, 
  0x00, 0x20, 0x00, 0x00, 0x0a, 0x00, 0x00, 0x40, 0x00, 0x00, 0x04, 0x00, 
  0x00, 0x80, 0x00, 0x00, 0x02, 0x00, 0x00, 0x00, 0x01, 0x00, 0x01, 0x00, 
  0x00, 0x00, 0x02, 0x80, 0x00, 0x00, 0x00, 0x00, 0x04, 0x40, 0x00, 0x00, 
  0x00, 0x00, 0x08, 0x20, 0x00, 0x00, 0x00, 0x00, 0x10, 0x10, 0x00, 0x00, 
  0x00, 0x00, 0x20, 0x08, 0x00, 0x00, 0x00, 0x00, 0x40, 0x04, 0x00, 0x00, 
  0x00, 0x00, 0x80, 0x02, 0x00, 0x00, 0x00, 0x00, 0x00, 0x01, 0x00, 0x00, 
  };
