#define app_make_width 48
#define app_make_height 48
static char app_make_bits[] = {
  0x00, 0x00, 0x80, 0x00, 0x00, 0x00, 0x00, 0x00, 0x40, 0x01, 0x00, 0x00, 
  0x00, 0x00, 0x20, 0x02, 0x00, 0x00, 0x00, 0x00, 0x10, 0x04, 0x00, 0x00, 
  0x00, 0x00, 0x08, 0x08, 0x00, 0x00, 0x00, 0x00, 0x04, 0x10, 0x00, 0x00, 
  0x00, 0x00, 0x02, 0x20, 0x00, 0x00, 0x00, 0x00, 0x01, 0x40, 0x00, 0x00, 
  0x00, 0x80, 0x00, 0x80, 0x00, 0x00, 0x00, 0x40, 0x70, 0x00, 0x01, 0x00, 
  0x00, 0x20, 0xdc, 0x01, 0x02, 0x00, 0x00, 0x10, 0x24, 0x01, 0x04, 0x00, 
  0x00, 0x08, 0x76, 0x03, 0x08, 0x00, 0x00, 0x04, 0x12, 0x02, 0x10, 0x00, 
  0x00, 0x02, 0x26, 0x03, 0x20, 0x00, 0x00, 0x01, 0x04, 0x0f, 0x40, 0x00, 
  0x80, 0x00, 0xdc, 0x4b, 0x80, 0x00, 0x40, 0x00, 0x70, 0xb1, 0x00, 0x01, 
  0x20, 0x00, 0x10, 0x80, 0x01, 0x02, 0x10, 0x00, 0x20, 0x8e, 0x00, 0x04, 
  0x08, 0x00, 0x20, 0x95, 0x00, 0x08, 0x04, 0x00, 0x98, 0x22, 0x03, 0x10, 
  0x02, 0x00, 0x88, 0x21, 0x02, 0x20, 0x01, 0x00, 0xb8, 0xa2, 0x03, 0x40, 
  0x02, 0x00, 0x20, 0x95, 0x00, 0x80, 0x04, 0x00, 0x20, 0x8e, 0x00, 0x40, 
  0x08, 0x00, 0x10, 0x00, 0x01, 0x20, 0x10, 0x00, 0xb0, 0xf9, 0x00, 0x10, 
  0x20, 0x00, 0xdc, 0x49, 0x00, 0x08, 0x40, 0x00, 0x24, 0x0f, 0x00, 0x04, 
  0x80, 0x00, 0x76, 0x03, 0x00, 0x02, 0x00, 0x01, 0x12, 0x02, 0x00, 0x01, 
  0x00, 0x02, 0x26, 0x03, 0x80, 0x00, 0x00, 0x04, 0x04, 0x01, 0x40, 0x00, 
  0x00, 0x08, 0xdc, 0x01, 0x20, 0x00, 0x00, 0x10, 0x70, 0x00, 0x10, 0x00, 
  0x00, 0x20, 0x00, 0x00, 0x08, 0x00, 0x00, 0x40, 0x00, 0x00, 0x04, 0x00, 
  0x00, 0x80, 0x00, 0x00, 0x02, 0x00, 0x00, 0x00, 0x01, 0x00, 0x01, 0x00, 
  0x00, 0x00, 0x02, 0x80, 0x00, 0x00, 0x00, 0x00, 0x04, 0x40, 0x00, 0x00, 
  0x00, 0x00, 0x08, 0x20, 0x00, 0x00, 0x00, 0x00, 0x10, 0x10, 0x00, 0x00, 
  0x00, 0x00, 0x20, 0x08, 0x00, 0x00, 0x00, 0x00, 0x40, 0x04, 0x00, 0x00, 
  0x00, 0x00, 0x80, 0x02, 0x00, 0x00, 0x00, 0x00, 0x00, 0x01, 0x00, 0x00, 
  };
