#define app_uuencode_width 48
#define app_uuencode_height 48
static char app_uuencode_bits[] = {
  0x00, 0x00, 0x80, 0x00, 0x00, 0x00, 0x00, 0x00, 0x40, 0x01, 0x00, 0x00, 
  0x00, 0x00, 0x20, 0x02, 0x00, 0x00, 0x00, 0x00, 0x10, 0x04, 0x00, 0x00, 
  0x00, 0x00, 0x08, 0x08, 0x00, 0x00, 0x00, 0x00, 0x04, 0x10, 0x00, 0x00, 
  0x00, 0x00, 0x02, 0x20, 0x00, 0x00, 0x00, 0x00, 0x01, 0x40, 0x00, 0x00, 
  0x00, 0x80, 0x00, 0x80, 0x00, 0x00, 0x00, 0x40, 0x00, 0x00, 0x01, 0x00, 
  0x00, 0x20, 0x00, 0x00, 0x02, 0x00, 0x00, 0x10, 0x00, 0x00, 0x04, 0x00, 
  0x00, 0x08, 0x00, 0x00, 0x08, 0x00, 0x00, 0x04, 0x00, 0x00, 0x10, 0x00, 
  0x00, 0x02, 0x00, 0x00, 0x20, 0x00, 0x00, 0x01, 0x00, 0x00, 0x40, 0x00, 
  0x80, 0x00, 0x00, 0x00, 0x80, 0x00, 0x40, 0x00, 0x00, 0x00, 0x00, 0x01, 
  0x20, 0x80, 0xe7, 0xcf, 0x01, 0x02, 0x10, 0x00, 0x43, 0x86, 0x00, 0x04, 
  0x08, 0x00, 0x43, 0x86, 0x00, 0x08, 0x04, 0x00, 0x43, 0x86, 0x00, 0x10, 
  0x02, 0x00, 0x43, 0x86, 0x00, 0x20, 0x01, 0x00, 0x43, 0x86, 0x00, 0x40, 
  0x02, 0x00, 0x43, 0x86, 0x00, 0x80, 0x04, 0x00, 0x43, 0x86, 0x00, 0x40, 
  0x08, 0x00, 0x43, 0x86, 0x00, 0x20, 0x10, 0x00, 0x67, 0xce, 0x00, 0x10, 
  0x20, 0x00, 0x3e, 0x7c, 0x00, 0x08, 0x40, 0x00, 0x00, 0x00, 0x00, 0x04, 
  0x80, 0x00, 0x00, 0x00, 0x00, 0x02, 0x00, 0x01, 0x00, 0x00, 0x00, 0x01, 
  0x00, 0x02, 0x00, 0x00, 0x80, 0x00, 0x00, 0x04, 0x00, 0x00, 0x40, 0x00, 
  0x00, 0x08, 0x00, 0x00, 0x20, 0x00, 0x00, 0x10, 0x00, 0x00, 0x10, 0x00, 
  0x00, 0x20, 0x00, 0x00, 0x08, 0x00, 0x00, 0x40, 0x00, 0x00, 0x04, 0x00, 
  0x00, 0x80, 0x00, 0x00, 0x02, 0x00, 0x00, 0x00, 0x01, 0x00, 0x01, 0x00, 
  0x00, 0x00, 0x02, 0x80, 0x00, 0x00, 0x00, 0x00, 0x04, 0x40, 0x00, 0x00, 
  0x00, 0x00, 0x08, 0x20, 0x00, 0x00, 0x00, 0x00, 0x10, 0x10, 0x00, 0x00, 
  0x00, 0x00, 0x20, 0x08, 0x00, 0x00, 0x00, 0x00, 0x40, 0x04, 0x00, 0x00, 
  0x00, 0x00, 0x80, 0x02, 0x00, 0x00, 0x00, 0x00, 0x00, 0x01, 0x00, 0x00, 
  };
