#define app_compress_width 48
#define app_compress_height 48
static char app_compress_bits[] = {
  0x00, 0x00, 0x80, 0x00, 0x00, 0x00, 0x00, 0x00, 0x40, 0x01, 0x00, 0x00, 
  0x00, 0x00, 0x20, 0x02, 0x00, 0x00, 0x00, 0x00, 0x10, 0x04, 0x00, 0x00, 
  0x00, 0x00, 0x08, 0x08, 0x00, 0x00, 0x00, 0x00, 0x04, 0x10, 0x00, 0x00, 
  0x00, 0x00, 0x02, 0x20, 0x00, 0x00, 0x00, 0x00, 0x01, 0x40, 0x00, 0x00, 
  0x00, 0x80, 0x00, 0x80, 0x00, 0x00, 0x00, 0x40, 0xfe, 0x7f, 0x01, 0x00, 
  0x00, 0x20, 0xff, 0xff, 0x02, 0x00, 0x00, 0x10, 0xff, 0xff, 0x05, 0x00, 
  0x00, 0x08, 0x1f, 0xf0, 0x09, 0x00, 0x00, 0x04, 0x1f, 0xe0, 0x11, 0x00, 
  0x00, 0x82, 0x3f, 0xe0, 0x21, 0x00, 0x00, 0x81, 0x3f, 0xe0, 0x41, 0x00, 
  0x80, 0x00, 0x00, 0xe0, 0x81, 0x00, 0x40, 0x00, 0x00, 0xe0, 0x01, 0x01, 
  0x20, 0x00, 0x00, 0xe0, 0x01, 0x02, 0x10, 0x00, 0x00, 0xe0, 0x01, 0x04, 
  0x08, 0x00, 0x00, 0xe0, 0x01, 0x08, 0x04, 0x00, 0x00, 0xe0, 0x01, 0x10, 
  0x02, 0x00, 0x00, 0xe0, 0x01, 0x20, 0x01, 0x80, 0x3f, 0xe0, 0x01, 0x40, 
  0x02, 0x80, 0x3f, 0xe0, 0x01, 0x80, 0x04, 0x00, 0x1f, 0xe0, 0x01, 0x40, 
  0x08, 0x00, 0x0e, 0xe0, 0x01, 0x20, 0x10, 0x00, 0x0e, 0xf0, 0x01, 0x10, 
  0x20, 0x80, 0xff, 0xff, 0x01, 0x08, 0x40, 0x80, 0xff, 0xff, 0x00, 0x04, 
  0x80, 0x80, 0xff, 0x7f, 0x00, 0x02, 0x00, 0x01, 0x0e, 0x00, 0x00, 0x01, 
  0x00, 0x02, 0x0e, 0x00, 0x80, 0x00, 0x00, 0x24, 0x8e, 0x00, 0x40, 0x00, 
  0x00, 0xe8, 0xff, 0x00, 0x20, 0x00, 0x00, 0x30, 0x8e, 0x00, 0x10, 0x00, 
  0x00, 0x20, 0x00, 0x00, 0x08, 0x00, 0x00, 0x40, 0x00, 0x00, 0x04, 0x00, 
  0x00, 0x80, 0x00, 0x00, 0x02, 0x00, 0x00, 0x00, 0x01, 0x00, 0x01, 0x00, 
  0x00, 0x00, 0x02, 0x80, 0x00, 0x00, 0x00, 0x00, 0x04, 0x40, 0x00, 0x00, 
  0x00, 0x00, 0x08, 0x20, 0x00, 0x00, 0x00, 0x00, 0x10, 0x10, 0x00, 0x00, 
  0x00, 0x00, 0x20, 0x08, 0x00, 0x00, 0x00, 0x00, 0x40, 0x04, 0x00, 0x00, 
  0x00, 0x00, 0x80, 0x02, 0x00, 0x00, 0x00, 0x00, 0x00, 0x01, 0x00, 0x00, 
  };
