#define app_grep_width 48
#define app_grep_height 48
static char app_grep_bits[] = {
  0x00, 0x00, 0x80, 0x00, 0x00, 0x00, 0x00, 0x00, 0x40, 0x01, 0x00, 0x00, 
  0x00, 0x00, 0x20, 0x02, 0x00, 0x00, 0x00, 0x00, 0x10, 0x04, 0x00, 0x00, 
  0x00, 0x00, 0x08, 0x08, 0x00, 0x00, 0x00, 0x00, 0x04, 0x10, 0x00, 0x00, 
  0x00, 0x00, 0x02, 0x20, 0x00, 0x00, 0x00, 0x00, 0x01, 0x40, 0x00, 0x00, 
  0x00, 0x80, 0xff, 0x9f, 0x00, 0x00, 0x00, 0x40, 0x00, 0x30, 0x01, 0x00, 
  0x00, 0x20, 0x00, 0x50, 0x02, 0x00, 0x00, 0x10, 0x3f, 0x90, 0x04, 0x00, 
  0x00, 0xd8, 0xc0, 0x10, 0x09, 0x00, 0x00, 0x2c, 0x1e, 0x11, 0x12, 0x00, 
  0x00, 0x9a, 0x61, 0xf2, 0x27, 0x00, 0x00, 0x49, 0x80, 0x04, 0x4c, 0x00, 
  0x80, 0x28, 0x00, 0x05, 0x8c, 0x00, 0x40, 0x24, 0x00, 0x09, 0x0c, 0x01, 
  0x20, 0x94, 0x8c, 0xeb, 0x0c, 0x02, 0x10, 0x54, 0x55, 0x0a, 0x0c, 0x04, 
  0x08, 0xd4, 0x4d, 0x2a, 0x0c, 0x08, 0x04, 0x54, 0x55, 0x0a, 0x0c, 0x10, 
  0x02, 0x54, 0x8d, 0x0b, 0x0c, 0x20, 0x01, 0x24, 0x00, 0x09, 0x0c, 0x40, 
  0x02, 0x28, 0x80, 0xe5, 0x0c, 0x80, 0x04, 0x48, 0x80, 0x04, 0x0c, 0x40, 
  0x08, 0x98, 0x61, 0x66, 0x0c, 0x20, 0x10, 0x28, 0x1e, 0x09, 0x0c, 0x10, 
  0x20, 0xc8, 0xc0, 0x31, 0x0c, 0x08, 0x40, 0x08, 0x3f, 0x22, 0x0c, 0x04, 
  0x80, 0x68, 0x80, 0x44, 0x0c, 0x02, 0x00, 0x09, 0x00, 0x88, 0x0c, 0x01, 
  0x00, 0xea, 0xf3, 0x13, 0x8d, 0x00, 0x00, 0x0c, 0x00, 0x20, 0x4e, 0x00, 
  0x00, 0xe8, 0xe6, 0x4c, 0x2c, 0x00, 0x00, 0x10, 0x00, 0x80, 0x18, 0x00, 
  0x00, 0x20, 0x00, 0x00, 0x0d, 0x00, 0x00, 0x40, 0x00, 0x00, 0x06, 0x00, 
  0x00, 0x80, 0xff, 0xff, 0x03, 0x00, 0x00, 0x00, 0xff, 0xff, 0x01, 0x00, 
  0x00, 0x00, 0x02, 0x80, 0x00, 0x00, 0x00, 0x00, 0x04, 0x40, 0x00, 0x00, 
  0x00, 0x00, 0x08, 0x20, 0x00, 0x00, 0x00, 0x00, 0x10, 0x10, 0x00, 0x00, 
  0x00, 0x00, 0x20, 0x08, 0x00, 0x00, 0x00, 0x00, 0x40, 0x04, 0x00, 0x00, 
  0x00, 0x00, 0x80, 0x02, 0x00, 0x00, 0x00, 0x00, 0x00, 0x01, 0x00, 0x00, 
  };
