#define app_tar_width 48
#define app_tar_height 48
static char app_tar_bits[] = {
  0x00, 0x00, 0x80, 0x00, 0x00, 0x00, 0x00, 0x00, 0x40, 0x01, 0x00, 0x00, 
  0x00, 0x00, 0x20, 0x02, 0x00, 0x00, 0x00, 0x00, 0x10, 0x04, 0x00, 0x00, 
  0x00, 0x00, 0x08, 0x08, 0x00, 0x00, 0x00, 0x00, 0x04, 0x10, 0x00, 0x00, 
  0x00, 0x00, 0x02, 0x20, 0x00, 0x00, 0x00, 0x00, 0x01, 0x40, 0x00, 0x00, 
  0x00, 0x80, 0x00, 0x80, 0x00, 0x00, 0x00, 0x40, 0x00, 0x00, 0x01, 0x00, 
  0x00, 0x20, 0x00, 0x00, 0x02, 0x00, 0x00, 0xd0, 0x37, 0x07, 0x04, 0x00, 
  0x00, 0x08, 0x49, 0x09, 0x08, 0x00, 0x00, 0x04, 0x49, 0x09, 0x10, 0x00, 
  0x00, 0x02, 0x79, 0x07, 0x20, 0x00, 0x00, 0x01, 0x49, 0x05, 0x40, 0x00, 
  0x80, 0x00, 0x49, 0x09, 0x80, 0x00, 0x40, 0x00, 0x00, 0x00, 0x00, 0x01, 
  0x20, 0x00, 0x00, 0x00, 0x00, 0x02, 0x10, 0xc0, 0xff, 0xff, 0x03, 0x04, 
  0x08, 0x40, 0x00, 0x00, 0x02, 0x08, 0x04, 0x40, 0xe0, 0x1f, 0x02, 0x10, 
  0x02, 0x40, 0x10, 0x20, 0x02, 0x20, 0x01, 0x40, 0x08, 0x20, 0x02, 0x40, 
  0x02, 0x40, 0x08, 0x40, 0x02, 0x80, 0x04, 0x40, 0x04, 0x40, 0x02, 0x40, 
  0x08, 0x40, 0x04, 0xbe, 0x02, 0x20, 0x10, 0x40, 0x02, 0xff, 0x02, 0x10, 
  0x20, 0x40, 0x82, 0xff, 0x02, 0x08, 0x40, 0x40, 0x8f, 0xff, 0x02, 0x04, 
  0x80, 0x40, 0x9f, 0xf7, 0x02, 0x02, 0x00, 0x41, 0x9b, 0xff, 0x02, 0x01, 
  0x00, 0x42, 0x9f, 0xff, 0x82, 0x00, 0x00, 0x44, 0x0e, 0x7f, 0x42, 0x00, 
  0x00, 0x48, 0x00, 0x3e, 0x22, 0x00, 0x00, 0x50, 0x00, 0x00, 0x12, 0x00, 
  0x00, 0xe0, 0xff, 0xff, 0x0b, 0x00, 0x00, 0x40, 0x00, 0x00, 0x04, 0x00, 
  0x00, 0x80, 0x00, 0x00, 0x02, 0x00, 0x00, 0x00, 0x01, 0x00, 0x01, 0x00, 
  0x00, 0x00, 0x02, 0x80, 0x00, 0x00, 0x00, 0x00, 0x04, 0x40, 0x00, 0x00, 
  0x00, 0x00, 0x08, 0x20, 0x00, 0x00, 0x00, 0x00, 0x10, 0x10, 0x00, 0x00, 
  0x00, 0x00, 0x20, 0x08, 0x00, 0x00, 0x00, 0x00, 0x40, 0x04, 0x00, 0x00, 
  0x00, 0x00, 0x80, 0x02, 0x00, 0x00, 0x00, 0x00, 0x00, 0x01, 0x00, 0x00, 
  };
