#define binary_width 32
#define binary_height 32
static char binary_bits[] = {
   0x00, 0x00, 0x00, 0x00, 0x00, 0x00, 0x00, 0x00, 0xfc, 0xff, 0xff, 0x3f,
   0x04, 0x00, 0x00, 0x20, 0x94, 0x48, 0x25, 0x29, 0x54, 0x55, 0x55, 0x25,
   0x54, 0x55, 0x55, 0x25, 0x94, 0x48, 0x25, 0x29, 0x04, 0x00, 0x00, 0x20,
   0x04, 0x00, 0x00, 0x20, 0x54, 0x89, 0x48, 0x22, 0x54, 0x55, 0x55, 0x25,
   0x54, 0x55, 0x55, 0x25, 0x54, 0x89, 0x48, 0x22, 0x04, 0x00, 0x00, 0x20,
   0x04, 0x00, 0x00, 0x20, 0x24, 0x52, 0x92, 0x28, 0x54, 0x55, 0x55, 0x25,
   0x54, 0x55, 0x55, 0x25, 0x24, 0x52, 0x92, 0x28, 0x04, 0x00, 0x00, 0x20,
   0x04, 0x00, 0x00, 0x20, 0x94, 0x48, 0x49, 0x22, 0x54, 0x55, 0x55, 0x25,
   0x54, 0x55, 0x55, 0x25, 0x94, 0x48, 0x49, 0x22, 0x04, 0x00, 0x00, 0x20,
   0x04, 0x00, 0x00, 0x20, 0x04, 0x00, 0x00, 0x20, 0xfc, 0xff, 0xff, 0x3f,
   0x00, 0x00, 0x00, 0x00, 0x00, 0x00, 0x00, 0x00};
