#define app_default_width 48
#define app_default_height 48
static char app_default_bits[] = {
   0x00, 0x00, 0x00, 0x00, 0x00, 0x00, 0x00, 0x00, 0x00, 0x00, 0x00, 0x00,
   0x00, 0x00, 0x00, 0x00, 0x00, 0x00, 0x00, 0x00, 0x00, 0x00, 0x00, 0x00,
   0x00, 0x00, 0x00, 0x00, 0x00, 0x00, 0x00, 0x00, 0x00, 0x00, 0x00, 0x00,
   0x00, 0x00, 0x00, 0x00, 0x00, 0x00, 0x00, 0x00, 0x00, 0x00, 0x00, 0x00,
   0x00, 0x00, 0x00, 0x00, 0x00, 0x00, 0x00, 0x00, 0x00, 0x00, 0x00, 0x00,
   0x00, 0xfe, 0xff, 0xff, 0x00, 0x00, 0x00, 0x02, 0x00, 0x80, 0x01, 0x00,
   0x00, 0x02, 0x00, 0x80, 0x01, 0x3c, 0x00, 0xfe, 0xff, 0xff, 0x81, 0x4b,
   0x00, 0x02, 0x00, 0x80, 0x61, 0x49, 0x00, 0x02, 0x00, 0x80, 0x19, 0x49,
   0x00, 0x02, 0x00, 0x80, 0x07, 0x72, 0x00, 0x02, 0x00, 0xc0, 0x00, 0x1e,
   0x00, 0x02, 0x00, 0x38, 0x00, 0x03, 0x00, 0x02, 0x00, 0x07, 0xe0, 0x00,
   0x00, 0x02, 0xc0, 0x01, 0x3c, 0x00, 0x00, 0x02, 0xe0, 0x80, 0x07, 0x00,
   0x00, 0x02, 0x30, 0xe1, 0x01, 0x00, 0x00, 0x02, 0x10, 0x9a, 0x01, 0x00,
   0x00, 0x02, 0xf8, 0x8f, 0x01, 0x00, 0x00, 0x02, 0x00, 0x80, 0x01, 0x00,
   0x00, 0x02, 0x00, 0x80, 0x01, 0x00, 0x00, 0x02, 0x00, 0x80, 0x01, 0x00,
   0x00, 0x02, 0x00, 0x80, 0x01, 0x00, 0x00, 0x02, 0x00, 0x80, 0x01, 0x00,
   0x00, 0x02, 0x00, 0x80, 0x01, 0x00, 0x00, 0x02, 0x00, 0x80, 0x01, 0x00,
   0x00, 0x02, 0x00, 0x80, 0x01, 0x00, 0x00, 0x02, 0x00, 0x80, 0x01, 0x00,
   0x00, 0x02, 0x00, 0x80, 0x01, 0x00, 0x00, 0x02, 0x00, 0x80, 0x01, 0x00,
   0x00, 0x02, 0x00, 0x80, 0x01, 0x00, 0x00, 0x02, 0x00, 0x80, 0x01, 0x00,
   0x00, 0xfe, 0xff, 0xff, 0x01, 0x00, 0x00, 0xfc, 0xff, 0xff, 0x01, 0x00,
   0x00, 0x00, 0x00, 0x00, 0x00, 0x00, 0x00, 0x00, 0x00, 0x00, 0x00, 0x00,
   0x00, 0x00, 0x00, 0x00, 0x00, 0x00, 0x00, 0x00, 0x00, 0x00, 0x00, 0x00,
   0x00, 0x00, 0x00, 0x00, 0x00, 0x00, 0x00, 0x00, 0x00, 0x00, 0x00, 0x00,
   0x00, 0x00, 0x00, 0x00, 0x00, 0x00, 0x00, 0x00, 0x00, 0x00, 0x00, 0x00};
