#define bitmap_width 48
#define bitmap_height 48
static char bitmap_bits[] = {
   0x00, 0x00, 0x00, 0x00, 0x00, 0x00, 0x00, 0x00, 0x00, 0x00, 0x00, 0x00,
   0x00, 0x00, 0x00, 0x00, 0x00, 0x00, 0x00, 0x00, 0x00, 0x00, 0x00, 0x00,
   0x00, 0x00, 0x00, 0x00, 0x00, 0x00, 0x00, 0x00, 0x00, 0x00, 0x00, 0x00,
   0x00, 0x00, 0x00, 0x00, 0x00, 0x00, 0x00, 0x00, 0x00, 0x00, 0x00, 0x00,
   0x00, 0xfe, 0xff, 0xff, 0xff, 0x00, 0x00, 0x02, 0x00, 0x00, 0x80, 0x01,
   0x00, 0x02, 0x00, 0x00, 0x80, 0x01, 0x00, 0xfe, 0xff, 0xff, 0xff, 0x01,
   0x00, 0x12, 0x42, 0x08, 0xa1, 0x01, 0x00, 0x12, 0x42, 0x08, 0xa1, 0x01,
   0x00, 0x12, 0x42, 0x08, 0xa1, 0x01, 0x00, 0x12, 0x42, 0x08, 0xa1, 0x01,
   0x00, 0xfe, 0xff, 0xff, 0xff, 0x01, 0x00, 0x12, 0x7e, 0x08, 0xa1, 0x01,
   0x00, 0x12, 0x7e, 0x08, 0xa1, 0x01, 0x00, 0x12, 0x7e, 0x08, 0xa1, 0x01,
   0x00, 0x12, 0x7e, 0x08, 0xa1, 0x01, 0x00, 0xfe, 0xff, 0xff, 0xff, 0x01,
   0x00, 0x12, 0xc2, 0x0f, 0xbf, 0x01, 0x00, 0x12, 0xc2, 0x0f, 0xbf, 0x01,
   0x00, 0x12, 0xc2, 0x0f, 0xbf, 0x01, 0x00, 0x12, 0xc2, 0x0f, 0xbf, 0x01,
   0x00, 0xfe, 0xff, 0xff, 0xff, 0x01, 0x00, 0xf2, 0x43, 0x08, 0xa1, 0x01,
   0x00, 0xf2, 0x43, 0x08, 0xa1, 0x01, 0x00, 0xf2, 0x43, 0x08, 0xa1, 0x01,
   0x00, 0xf2, 0x43, 0x08, 0xa1, 0x01, 0x00, 0xfe, 0xff, 0xff, 0xff, 0x01,
   0x00, 0x12, 0x42, 0x08, 0xa1, 0x01, 0x00, 0x12, 0x42, 0x08, 0xa1, 0x01,
   0x00, 0x12, 0x42, 0x08, 0xa1, 0x01, 0x00, 0x02, 0x00, 0x00, 0x80, 0x01,
   0x00, 0xfe, 0xff, 0xff, 0xff, 0x01, 0x00, 0xfc, 0xff, 0xff, 0xff, 0x01,
   0x00, 0x00, 0x00, 0x00, 0x00, 0x00, 0x00, 0x00, 0x00, 0x00, 0x00, 0x00,
   0x00, 0x00, 0x00, 0x00, 0x00, 0x00, 0x00, 0x00, 0x00, 0x00, 0x00, 0x00,
   0x00, 0x00, 0x00, 0x00, 0x00, 0x00, 0x00, 0x00, 0x00, 0x00, 0x00, 0x00,
   0x00, 0x00, 0x00, 0x00, 0x00, 0x00, 0x00, 0x00, 0x00, 0x00, 0x00, 0x00,
   0x00, 0x00, 0x00, 0x00, 0x00, 0x00, 0x00, 0x00, 0x00, 0x00, 0x00, 0x00};
