#define compressor.xbm_width 48
#define compressor.xbm_height 48
static char compressor.xbm_bits[] = {
   0x00, 0x00, 0x00, 0x00, 0x00, 0x00, 0x00, 0x00, 0xf0, 0xe0, 0x01, 0x00,
   0x00, 0x00, 0x08, 0x1f, 0x02, 0x00, 0x00, 0x00, 0x04, 0x11, 0x04, 0x00,
   0x00, 0x00, 0x04, 0x11, 0x04, 0x00, 0x00, 0x00, 0xf8, 0xff, 0x03, 0x00,
   0x00, 0x00, 0x00, 0x11, 0x00, 0x00, 0x00, 0x00, 0x00, 0x1d, 0x00, 0x00,
   0x00, 0x00, 0x00, 0x17, 0x00, 0x00, 0x00, 0x00, 0x00, 0x11, 0x00, 0x00,
   0x00, 0x00, 0x00, 0x1d, 0x00, 0x00, 0x00, 0x00, 0x00, 0x17, 0x00, 0x00,
   0x00, 0x00, 0x00, 0x11, 0x00, 0x00, 0x00, 0x00, 0x80, 0x3f, 0x00, 0x00,
   0x00, 0x00, 0x80, 0x20, 0x00, 0x00, 0x00, 0xe0, 0xff, 0x20, 0x00, 0x00,
   0x00, 0x18, 0x80, 0x20, 0x00, 0x00, 0x00, 0x04, 0x80, 0x20, 0x00, 0x00,
   0x00, 0x02, 0x80, 0x20, 0x00, 0x00, 0x00, 0x82, 0xff, 0x20, 0x00, 0x00,
   0x00, 0x41, 0x80, 0x3f, 0x00, 0x00, 0x00, 0x21, 0x00, 0x0e, 0x00, 0x00,
   0x00, 0x11, 0x00, 0x1b, 0x00, 0x00, 0x00, 0x11, 0x80, 0x20, 0x00, 0x00,
   0x00, 0x11, 0xc0, 0x7f, 0x00, 0x00, 0x00, 0x11, 0xfe, 0xff, 0x0f, 0x00,
   0x00, 0x11, 0x04, 0x00, 0x04, 0x00, 0x00, 0x11, 0xfe, 0xff, 0x0f, 0x00,
   0x00, 0x11, 0x04, 0x00, 0x04, 0x00, 0x00, 0x11, 0xfe, 0xff, 0x0f, 0x00,
   0x00, 0x11, 0x04, 0x00, 0x04, 0x00, 0x00, 0x11, 0xfe, 0xff, 0x0f, 0x00,
   0x00, 0x11, 0x04, 0x00, 0x04, 0x00, 0x00, 0x11, 0xfe, 0xff, 0x0f, 0x00,
   0x00, 0x11, 0xc0, 0x7f, 0x00, 0x00, 0x00, 0x11, 0x80, 0x20, 0x00, 0x00,
   0x00, 0x11, 0x00, 0x1b, 0x00, 0x00, 0x00, 0x11, 0x00, 0x0e, 0x00, 0x00,
   0x00, 0x11, 0x00, 0x1f, 0x00, 0x00, 0x00, 0x11, 0x00, 0x11, 0x00, 0x00,
   0x00, 0x21, 0x80, 0x10, 0x00, 0x00, 0x00, 0x41, 0x40, 0x10, 0x00, 0x00,
   0x00, 0x82, 0x3f, 0x08, 0x00, 0x00, 0x00, 0x02, 0x00, 0x08, 0x00, 0x00,
   0x00, 0x04, 0x00, 0x04, 0x00, 0x00, 0x00, 0x18, 0x00, 0x03, 0x00, 0x00,
   0x00, 0xe0, 0xff, 0x00, 0x00, 0x00, 0x00, 0x00, 0x00, 0x00, 0x00, 0x00};
