#define decompressor.xbm_width 48
#define decompressor.xbm_height 48
static char decompressor.xbm_bits[] = {
   0x00, 0x00, 0x00, 0x00, 0x00, 0x00, 0xf8, 0xff, 0x00, 0x00, 0x00, 0x00,
   0x08, 0x80, 0x00, 0x00, 0x00, 0x00, 0xf8, 0xff, 0x00, 0x00, 0x00, 0x00,
   0x00, 0x02, 0x00, 0x00, 0x00, 0x00, 0x00, 0x02, 0x00, 0x00, 0x00, 0x00,
   0x00, 0x02, 0x00, 0x00, 0x00, 0x00, 0x00, 0x02, 0x00, 0x00, 0x00, 0x00,
   0x00, 0x02, 0x00, 0x00, 0x00, 0x00, 0x80, 0x0f, 0x00, 0x00, 0x00, 0x00,
   0x80, 0x08, 0x00, 0x00, 0x00, 0x00, 0x80, 0x08, 0x00, 0x00, 0x00, 0x00,
   0x80, 0x08, 0x00, 0x00, 0x00, 0x00, 0x80, 0x08, 0x00, 0x00, 0x00, 0x00,
   0x80, 0x08, 0x00, 0x00, 0x00, 0x00, 0x80, 0x08, 0x00, 0x00, 0x00, 0x00,
   0x80, 0x08, 0x00, 0x00, 0x00, 0x00, 0x80, 0x08, 0x00, 0x00, 0x00, 0x00,
   0x80, 0x08, 0x00, 0x00, 0x00, 0x00, 0x80, 0x08, 0x00, 0x00, 0x00, 0x00,
   0x80, 0x08, 0x00, 0x00, 0x00, 0x00, 0x80, 0x08, 0x00, 0x00, 0x00, 0x00,
   0x80, 0x08, 0x00, 0x00, 0x00, 0x00, 0x80, 0x08, 0x00, 0x00, 0x00, 0x00,
   0x80, 0x08, 0x00, 0x00, 0x00, 0x00, 0x80, 0x08, 0x00, 0x00, 0x00, 0x00,
   0x80, 0x08, 0x00, 0x00, 0x00, 0x00, 0x80, 0x08, 0x00, 0x00, 0x00, 0x00,
   0x80, 0x08, 0x00, 0x00, 0x00, 0x00, 0x80, 0x08, 0xf8, 0x01, 0x00, 0x00,
   0x80, 0x08, 0x04, 0x06, 0x00, 0x00, 0x80, 0x08, 0x04, 0x0c, 0x00, 0x00,
   0x80, 0x08, 0x0c, 0x08, 0x00, 0x00, 0x80, 0x08, 0x08, 0x08, 0x00, 0x00,
   0x80, 0x08, 0x18, 0x1c, 0x00, 0x00, 0x80, 0x08, 0x10, 0x14, 0x00, 0x00,
   0x80, 0x08, 0x10, 0xff, 0xff, 0x7f, 0x80, 0x08, 0x10, 0x02, 0x00, 0x20,
   0x80, 0x08, 0x10, 0xff, 0xff, 0x7f, 0x80, 0x08, 0x08, 0x02, 0x00, 0x20,
   0x80, 0xe8, 0x0f, 0xff, 0xff, 0x7f, 0x80, 0x38, 0x00, 0x02, 0x00, 0x20,
   0x80, 0x08, 0x00, 0xff, 0xff, 0x7f, 0xf0, 0x7f, 0x00, 0x02, 0x00, 0x20,
   0xfe, 0xff, 0x03, 0xff, 0xff, 0x7f, 0x02, 0x00, 0x02, 0x02, 0x00, 0x20,
   0xfe, 0xff, 0x03, 0xff, 0xff, 0x7f, 0x00, 0x00, 0x00, 0x00, 0x00, 0x00};

