#define printer.xbm_width 16
#define printer.xbm_height 16
static char printer.xbm_bits[] = {
   0xe0, 0x03, 0x30, 0x02, 0x28, 0x02, 0x3c, 0x02, 0x04, 0xfe, 0x08, 0xc6,
   0x0c, 0xac, 0xf2, 0x93, 0xfe, 0x8f, 0x09, 0xca, 0x05, 0x6a, 0xff, 0x3f,
   0xfe, 0x1f, 0x01, 0x06, 0xff, 0x03, 0x00, 0x00};

