#define emacs_width 64
#define emacs_height 38
static char emacs_bits[] = {
  0x00, 0x00, 0x00, 0x00, 0x02, 0x00, 0x00, 0x00, 0x00, 0x00, 0x00, 0x00, 
  0x00, 0x00, 0x00, 0x00, 0x00, 0x00, 0x00, 0xc0, 0x00, 0x00, 0x00, 0x00, 
  0x00, 0x00, 0x00, 0x00, 0x0f, 0x00, 0x02, 0x00, 0x00, 0x00, 0x00, 0x00, 
  0xf0, 0x00, 0x00, 0x00, 0x00, 0x00, 0x00, 0xc0, 0x59, 0x1f, 0xc7, 0x01, 
  0x00, 0x00, 0x00, 0x21, 0xaa, 0xe0, 0x28, 0x02, 0x00, 0xfc, 0xff, 0xe0, 
  0xab, 0xbc, 0xc7, 0x00, 0x00, 0x06, 0x00, 0x20, 0xa8, 0xa2, 0x38, 0x01, 
  0x00, 0x02, 0x00, 0x38, 0xaa, 0xa2, 0x28, 0x02, 0x00, 0x02, 0x00, 0xc0, 
  0x89, 0x3c, 0xc7, 0x01, 0x00, 0x02, 0x00, 0x00, 0x06, 0x18, 0x00, 0x00, 
  0x00, 0x02, 0x00, 0x00, 0x78, 0xe0, 0x00, 0x00, 0x00, 0x02, 0x00, 0x00, 
  0x80, 0x03, 0x00, 0x00, 0x00, 0x02, 0x00, 0xc6, 0x59, 0x1c, 0xc7, 0x01, 
  0x00, 0x03, 0x00, 0x38, 0xaa, 0xa0, 0x28, 0x02, 0x80, 0x1c, 0x80, 0xe1, 
  0xab, 0xbc, 0xc0, 0x00, 0x40, 0xe0, 0x01, 0x3e, 0xa8, 0xa2, 0x00, 0x01, 
  0x20, 0x00, 0x0f, 0x60, 0xaa, 0xa2, 0x28, 0x02, 0x10, 0xe0, 0x19, 0xc0, 
  0x89, 0x3c, 0xc7, 0x01, 0x08, 0x00, 0x0f, 0x06, 0x0e, 0x07, 0x00, 0x00, 
  0x04, 0x00, 0x38, 0x18, 0x70, 0x78, 0x00, 0x00, 0x02, 0x80, 0x87, 0x03, 
  0x00, 0x00, 0x00, 0x00, 0x01, 0x00, 0x38, 0xc4, 0x59, 0x1c, 0xc7, 0x01, 
  0x00, 0x00, 0xc0, 0x30, 0xaa, 0xa0, 0x28, 0x02, 0x00, 0x00, 0x80, 0xe3, 
  0xab, 0xbc, 0xc0, 0x00, 0x00, 0x00, 0x00, 0x26, 0xa8, 0xa2, 0x00, 0x01, 
  0x00, 0x00, 0xfe, 0x21, 0xaa, 0xa2, 0x28, 0x02, 0x00, 0x00, 0x81, 0xc7, 
  0x89, 0x3c, 0xc7, 0x01, 0x00, 0x00, 0xf1, 0x00, 0x00, 0x40, 0x00, 0x00, 
  0x00, 0x00, 0x07, 0x00, 0x00, 0x00, 0x00, 0x00, 0x00, 0x00, 0x00, 0x02, 
  0x00, 0x00, 0x00, 0x00, 0x00, 0x00, 0x80, 0xc1, 0x59, 0x1c, 0xc7, 0x01, 
  0x00, 0x00, 0x60, 0x20, 0xaa, 0xa0, 0x28, 0x02, 0x00, 0x00, 0x18, 0xe0, 
  0xab, 0xbc, 0xc0, 0x00, 0xf8, 0xff, 0x0f, 0x20, 0xa8, 0xa2, 0x00, 0x01, 
  0x0e, 0x00, 0x00, 0x21, 0xaa, 0xa2, 0x28, 0x02, 0x01, 0x00, 0x00, 0xc8, 
  0x89, 0x3c, 0xc7, 0x01, };
