#define file_text_width 16
#define file_text_height 16
static char file_text_bits[] = {
   0x00, 0x00, 0x00, 0x00, 0xfc, 0x0f, 0x04, 0x14, 0xf4, 0x25, 0x04, 0x7c,
   0xf4, 0x41, 0x04, 0x40, 0xf4, 0x5f, 0x04, 0x40, 0xf4, 0x5f, 0x04, 0x40,
   0xfc, 0x7f, 0x00, 0x00, 0x00, 0x00, 0x00, 0x00};
