#define file_bin_width 16
#define file_bin_height 16
static char file_bin_bits[] = {
   0x00, 0x00, 0x00, 0x00, 0xfe, 0x7f, 0x02, 0x40, 0x4a, 0x44, 0xaa, 0x4a,
   0x4a, 0x44, 0x02, 0x40, 0x02, 0x40, 0x92, 0x52, 0xaa, 0x4a, 0x92, 0x52,
   0x02, 0x40, 0xfe, 0x7f, 0x00, 0x00, 0x00, 0x00};
