#define file_movie_width 16
#define file_movie_height 16
static char file_movie_bits[] = {
   0x00, 0x00, 0x00, 0x00, 0x38, 0x00, 0xfc, 0x01, 0xe0, 0x0f, 0x00, 0x7f,
   0x00, 0x38, 0xfe, 0x3f, 0xfe, 0x33, 0x82, 0x31, 0xbe, 0x33, 0x96, 0x33,
   0xfe, 0x3f, 0x00, 0x00, 0x00, 0x00, 0x00, 0x00};
