#define file_pic_width 16
#define file_pic_height 16
static char file_pic_bits[] = {
   0x00, 0x00, 0x00, 0x00, 0x84, 0x21, 0xfa, 0x5f, 0x04, 0x20, 0xa4, 0x22,
   0x84, 0x20, 0x86, 0x60, 0x06, 0x60, 0xe4, 0x23, 0x04, 0x20, 0x04, 0x20,
   0xfa, 0x5f, 0x84, 0x21, 0x00, 0x00, 0x00, 0x00};
