#define file_tar_width 16
#define file_tar_height 16
static char file_tar_bits[] = {
   0x00, 0x00, 0x00, 0x00, 0x3f, 0x00, 0x51, 0x00, 0xf9, 0x01, 0x89, 0x02,
   0x89, 0x04, 0x89, 0x0f, 0x09, 0x08, 0x09, 0x08, 0x09, 0x08, 0x0f, 0x08,
   0x08, 0x08, 0xf8, 0x0f, 0x00, 0x00, 0x00, 0x00};
