#define file_text_width 16
#define file_text_height 16
static char file_text_bits[] = {
   0x00, 0x00, 0x00, 0x00, 0xe0, 0x7f, 0x50, 0x40, 0x48, 0x4c, 0x7c, 0x4e,
   0x04, 0x4f, 0x84, 0x4d, 0xc4, 0x4f, 0x64, 0x4c, 0x34, 0x48, 0x04, 0x40,
   0xfc, 0x7f, 0x00, 0x00, 0x00, 0x00, 0x00, 0x00};
