#define file_ctar_width 16
#define file_ctar_height 16
static char file_ctar_bits[] = {
   0x80, 0x03, 0x80, 0x03, 0xc0, 0x07, 0x80, 0x03, 0xff, 0x03, 0x01, 0x05,
   0xf9, 0x1f, 0x09, 0x28, 0x09, 0x48, 0x09, 0x78, 0x0f, 0x40, 0xf8, 0x7f,
   0x80, 0x03, 0xc0, 0x07, 0x80, 0x03, 0x80, 0x03};
