#define hexdump_width 48
#define hexdump_height 48
static char hexdump_bits[] = {
   0x00, 0x00, 0x00, 0x00, 0x00, 0x00, 0x00, 0x00, 0x00, 0x00, 0x00, 0x00,
   0x00, 0x00, 0x00, 0x00, 0x00, 0x00, 0x00, 0x00, 0x00, 0x00, 0x00, 0x00,
   0x00, 0x00, 0x00, 0x00, 0x00, 0x00, 0x00, 0x00, 0x00, 0x00, 0x00, 0x00,
   0x00, 0x00, 0x00, 0x00, 0x00, 0x00, 0x00, 0x00, 0x3e, 0x00, 0x00, 0x00,
   0x00, 0xe0, 0xc3, 0x01, 0x00, 0x00, 0x00, 0x30, 0x00, 0x06, 0x00, 0x00,
   0x00, 0x0c, 0x00, 0x18, 0x00, 0x00, 0x00, 0x02, 0x00, 0x10, 0x00, 0x00,
   0x80, 0x01, 0x00, 0x60, 0x00, 0x00, 0x80, 0x00, 0x00, 0x40, 0x00, 0x00,
   0x40, 0x00, 0x00, 0x80, 0x00, 0x00, 0x40, 0x00, 0x00, 0x80, 0x01, 0x00,
   0x40, 0x00, 0x00, 0x00, 0x03, 0x00, 0x20, 0x78, 0x0f, 0x00, 0x02, 0x00,
   0x20, 0x08, 0x01, 0x00, 0x02, 0x00, 0x30, 0x08, 0x01, 0x00, 0x06, 0x00,
   0x10, 0x38, 0x67, 0x03, 0x04, 0x00, 0x10, 0x08, 0x01, 0x00, 0x04, 0x00,
   0x10, 0x08, 0x01, 0x00, 0x04, 0x00, 0x10, 0x08, 0x01, 0x00, 0x04, 0x00,
   0x20, 0x00, 0x00, 0x00, 0x06, 0x00, 0x60, 0x00, 0x00, 0x00, 0x02, 0x00,
   0x40, 0x00, 0x00, 0x00, 0x03, 0x00, 0xc0, 0x00, 0x00, 0x00, 0x01, 0x00,
   0x80, 0x00, 0x00, 0x80, 0x01, 0x00, 0x00, 0x01, 0x00, 0xc0, 0x03, 0x00,
   0x00, 0x02, 0x00, 0x20, 0x03, 0x00, 0x00, 0x04, 0x00, 0x10, 0x06, 0x00,
   0x00, 0x18, 0x00, 0x08, 0x0c, 0x00, 0x00, 0x30, 0x00, 0x1e, 0x18, 0x00,
   0x00, 0xc0, 0x81, 0x19, 0x30, 0x00, 0x00, 0x00, 0xff, 0x30, 0x60, 0x00,
   0x00, 0x00, 0x00, 0x60, 0xc0, 0x00, 0x00, 0x00, 0x00, 0xc0, 0x80, 0x01,
   0x00, 0x00, 0x00, 0x80, 0x01, 0x03, 0x00, 0x00, 0x00, 0x80, 0x01, 0x06,
   0x00, 0x00, 0x00, 0x00, 0x03, 0x0c, 0x00, 0x00, 0x00, 0x00, 0x06, 0x18,
   0x00, 0x00, 0x00, 0x00, 0x0c, 0x10, 0x00, 0x00, 0x00, 0x00, 0x18, 0x10,
   0x00, 0x00, 0x00, 0x00, 0x30, 0x10, 0x00, 0x00, 0x00, 0x00, 0x60, 0x10,
   0x00, 0x00, 0x00, 0x00, 0xc0, 0x1c, 0x00, 0x00, 0x00, 0x00, 0x80, 0x07};
