#define texteditor.xbm_width 48
#define texteditor.xbm_height 48
static char texteditor.xbm_bits[] = {
   0x00, 0x00, 0x00, 0x00, 0x00, 0x00, 0x00, 0x00, 0x00, 0x00, 0x00, 0x00,
   0x00, 0x00, 0x00, 0x00, 0x00, 0x00, 0xfe, 0xff, 0xff, 0x01, 0x00, 0x00,
   0x02, 0x00, 0x00, 0x03, 0x00, 0x00, 0x82, 0xff, 0x7f, 0x05, 0x00, 0x18,
   0x02, 0x00, 0x00, 0x09, 0x00, 0x34, 0x02, 0x00, 0x00, 0x11, 0x00, 0x22,
   0xfa, 0xff, 0x7f, 0x21, 0x00, 0x15, 0x02, 0x00, 0x00, 0x41, 0x80, 0x0b,
   0x02, 0x00, 0x00, 0x81, 0x40, 0x07, 0xfa, 0xff, 0x7f, 0xff, 0xa1, 0x02,
   0x02, 0x00, 0x00, 0x00, 0x51, 0x01, 0x02, 0x00, 0x00, 0x00, 0xa9, 0x00,
   0xfa, 0xff, 0xff, 0x7f, 0x55, 0x00, 0x02, 0x00, 0x00, 0x00, 0x2b, 0x00,
   0x02, 0x00, 0x00, 0x00, 0x15, 0x00, 0xfa, 0xff, 0xff, 0xbf, 0x0a, 0x00,
   0x02, 0x00, 0x00, 0x40, 0x05, 0x00, 0x02, 0x00, 0x00, 0xa0, 0x02, 0x00,
   0xfa, 0x03, 0x00, 0x50, 0x01, 0x00, 0x02, 0x00, 0x00, 0xa8, 0x01, 0x00,
   0x02, 0x00, 0x00, 0x54, 0x01, 0x00, 0x82, 0xff, 0x7f, 0x2a, 0x01, 0x00,
   0x02, 0x00, 0x00, 0x15, 0x01, 0x00, 0x02, 0x00, 0x80, 0x0a, 0x01, 0x00,
   0xfa, 0xff, 0x4f, 0x05, 0x01, 0x00, 0x02, 0x00, 0xa0, 0x02, 0x01, 0x00,
   0x02, 0x00, 0x50, 0x01, 0x01, 0x00, 0xfa, 0xff, 0xab, 0x7c, 0x01, 0x00,
   0x02, 0x00, 0x48, 0x00, 0x01, 0x00, 0x02, 0x00, 0x34, 0x00, 0x01, 0x00,
   0xfa, 0xff, 0x8c, 0x7f, 0x01, 0x00, 0x02, 0x00, 0x02, 0x00, 0x01, 0x00,
   0x02, 0x00, 0x00, 0x00, 0x01, 0x00, 0xfa, 0x1f, 0x00, 0x00, 0x01, 0x00,
   0x02, 0x00, 0x00, 0x00, 0x01, 0x00, 0x02, 0x00, 0x00, 0x00, 0x01, 0x00,
   0x82, 0xff, 0xff, 0x7f, 0x01, 0x00, 0x02, 0x00, 0x00, 0x00, 0x01, 0x00,
   0x02, 0x00, 0x00, 0x00, 0x01, 0x00, 0xfa, 0xff, 0xff, 0x7f, 0x01, 0x00,
   0x02, 0x00, 0x00, 0x00, 0x01, 0x00, 0x02, 0x00, 0x00, 0x00, 0x01, 0x00,
   0xfa, 0xff, 0x3f, 0x00, 0x01, 0x00, 0x02, 0x00, 0x00, 0x00, 0x01, 0x00,
   0xfe, 0xff, 0xff, 0xff, 0x01, 0x00, 0x00, 0x00, 0x00, 0x00, 0x00, 0x00};

