#define hexdump_width 48
#define hexdump_height 48
static char hexdump_bits[] = {
   0x00, 0x00, 0x00, 0x00, 0x00, 0x00, 0x00, 0x00, 0x00, 0x00, 0x00, 0x00,
   0x00, 0x00, 0x00, 0x00, 0x00, 0x00, 0x00, 0x00, 0x00, 0x00, 0x00, 0x00,
   0x00, 0x00, 0x00, 0x00, 0x00, 0x00, 0x00, 0x00, 0x00, 0x00, 0x00, 0x00,
   0x00, 0x00, 0x00, 0x00, 0x00, 0x00, 0x00, 0x00, 0x00, 0x00, 0x00, 0x00,
   0x00, 0x00, 0x00, 0x00, 0x00, 0x00, 0x00, 0x00, 0x00, 0x00, 0x00, 0x00,
   0x00, 0x00, 0xc0, 0xff, 0x03, 0x00, 0x00, 0x00, 0xf8, 0x01, 0x1e, 0x00,
   0x00, 0x00, 0x0e, 0x00, 0x78, 0x00, 0x00, 0x00, 0x03, 0x38, 0xc0, 0x00,
   0x00, 0x80, 0x01, 0xee, 0x80, 0x03, 0x00, 0x80, 0x01, 0x83, 0x01, 0x02,
   0x00, 0x80, 0x01, 0x00, 0x00, 0x02, 0x00, 0x80, 0x01, 0x00, 0x00, 0x03,
   0x00, 0x80, 0x07, 0x00, 0x80, 0x03, 0x00, 0x80, 0x1e, 0x00, 0xe0, 0x02,
   0x00, 0x80, 0xf8, 0x00, 0x7c, 0x02, 0x00, 0x80, 0xc0, 0xff, 0x1f, 0x02,
   0x00, 0x80, 0x00, 0xf0, 0x00, 0x02, 0x00, 0x80, 0x00, 0x00, 0x00, 0x02,
   0x00, 0x80, 0x10, 0x00, 0x20, 0x02, 0x00, 0x80, 0x11, 0x00, 0x20, 0x02,
   0x00, 0x80, 0x11, 0x02, 0x21, 0x02, 0x00, 0x80, 0x11, 0x02, 0x21, 0x03,
   0x00, 0x80, 0x11, 0x02, 0x21, 0x03, 0x00, 0x00, 0x11, 0x02, 0x21, 0x01,
   0x00, 0x00, 0x11, 0x02, 0x21, 0x01, 0x00, 0x00, 0x11, 0x02, 0x21, 0x01,
   0x00, 0x00, 0x11, 0x02, 0x21, 0x01, 0x00, 0x00, 0x11, 0x02, 0x21, 0x01,
   0x00, 0x00, 0x11, 0x02, 0x21, 0x01, 0x00, 0x00, 0x11, 0x02, 0x21, 0x01,
   0x00, 0x00, 0x11, 0x02, 0x21, 0x01, 0x00, 0x00, 0x11, 0x02, 0x21, 0x01,
   0x00, 0x00, 0x11, 0x02, 0x21, 0x01, 0x00, 0x00, 0x13, 0x02, 0x21, 0x01,
   0x00, 0x00, 0x03, 0x02, 0x01, 0x01, 0x00, 0x00, 0x02, 0x02, 0x81, 0x01,
   0x00, 0x00, 0x02, 0x00, 0x80, 0x00, 0x00, 0x00, 0x06, 0x00, 0xc0, 0x00,
   0x00, 0x00, 0x1c, 0x00, 0x60, 0x00, 0x00, 0x00, 0x30, 0x00, 0x38, 0x00,
   0x00, 0x00, 0xe0, 0x00, 0x0e, 0x00, 0x00, 0x00, 0x80, 0xff, 0x01, 0x00};
