#define xfm_tline_width 48
#define xfm_tline_height 48
static char xfm_tline_bits[] = {
   0x00, 0x00, 0x00, 0x00, 0x00, 0x00, 0x00, 0x00, 0x00, 0x00, 0x00, 0x00,
   0x00, 0x00, 0x00, 0x00, 0x00, 0x00, 0x00, 0x00, 0x00, 0x00, 0x00, 0x00,
   0x00, 0x00, 0x00, 0x00, 0x00, 0x00, 0x00, 0x00, 0x00, 0x00, 0x00, 0x00,
   0x00, 0x00, 0x00, 0x00, 0x00, 0x00, 0x00, 0x00, 0x00, 0x00, 0x00, 0x00,
   0x00, 0x00, 0x00, 0x00, 0x00, 0x00, 0x00, 0x00, 0x00, 0x00, 0x00, 0x00,
   0x00, 0x00, 0x00, 0x00, 0x00, 0x00, 0x00, 0x00, 0x00, 0x00, 0x00, 0x00,
   0x00, 0x00, 0x00, 0x00, 0x00, 0x00, 0x00, 0x00, 0x00, 0x00, 0x00, 0x00,
   0x00, 0x00, 0x00, 0x00, 0x00, 0x00, 0x00, 0x00, 0x00, 0x00, 0x00, 0x00,
   0xff, 0xff, 0xff, 0xff, 0xff, 0xff, 0x00, 0x00, 0x00, 0x00, 0x00, 0x00,
   0x00, 0x00, 0x00, 0x00, 0x00, 0x00, 0x00, 0x00, 0x00, 0x00, 0x00, 0x00,
   0x00, 0x00, 0x00, 0x00, 0x00, 0x00, 0x00, 0x00, 0x00, 0x00, 0x00, 0x00,
   0x00, 0x00, 0x00, 0x00, 0x00, 0x00, 0x00, 0x00, 0x00, 0x00, 0x00, 0x00,
   0x00, 0x00, 0x00, 0x00, 0x00, 0x00, 0xff, 0xff, 0x07, 0xe0, 0xff, 0xff,
   0xff, 0xff, 0x0f, 0xf0, 0xff, 0xff, 0x00, 0x00, 0x08, 0x30, 0x00, 0x00,
   0x00, 0x00, 0x08, 0x30, 0x00, 0x00, 0x00, 0x00, 0x08, 0x30, 0x00, 0x00,
   0x00, 0x00, 0x08, 0x30, 0x00, 0x00, 0x00, 0x00, 0x08, 0x30, 0x00, 0x00,
   0x00, 0x00, 0x08, 0x30, 0x00, 0x00, 0x00, 0x00, 0x08, 0x30, 0x00, 0x00,
   0x00, 0x00, 0x08, 0x30, 0x00, 0x00, 0x00, 0x00, 0x08, 0x30, 0x00, 0x00,
   0x00, 0x00, 0x08, 0x30, 0x00, 0x00, 0x00, 0x00, 0x08, 0x30, 0x00, 0x00,
   0x00, 0x00, 0x08, 0x30, 0x00, 0x00, 0x00, 0x00, 0x08, 0x30, 0x00, 0x00,
   0x00, 0x00, 0x08, 0x30, 0x00, 0x00, 0x00, 0x00, 0x08, 0x30, 0x00, 0x00,
   0x00, 0x00, 0x08, 0x30, 0x00, 0x00, 0x00, 0x00, 0x08, 0x30, 0x00, 0x00,
   0x00, 0x00, 0x08, 0x30, 0x00, 0x00, 0x00, 0x00, 0x08, 0x30, 0x00, 0x00,
   0x00, 0x00, 0x08, 0x30, 0x00, 0x00, 0x00, 0x00, 0x08, 0x30, 0x00, 0x00};
