#define xfm_fline_width 48
#define xfm_fline_height 48
static char xfm_fline_bits[] = {
   0x00, 0x00, 0x08, 0x30, 0x00, 0x00, 0x00, 0x00, 0x08, 0x30, 0x00, 0x00,
   0x00, 0x00, 0x08, 0x30, 0x00, 0x00, 0x00, 0x00, 0x08, 0x30, 0x00, 0x00,
   0x00, 0x00, 0x08, 0x30, 0x00, 0x00, 0x00, 0x00, 0x08, 0x30, 0x00, 0x00,
   0x00, 0x00, 0x08, 0x30, 0x00, 0x00, 0x00, 0x00, 0x08, 0x30, 0x00, 0x00,
   0x00, 0x00, 0x08, 0x30, 0x00, 0x00, 0x00, 0x00, 0x08, 0x30, 0x00, 0x00,
   0x00, 0x00, 0x08, 0x30, 0x00, 0x00, 0x00, 0x00, 0x08, 0x30, 0x00, 0x00,
   0x00, 0x00, 0x08, 0x30, 0x00, 0x00, 0x00, 0x00, 0x08, 0x30, 0x00, 0x00,
   0x00, 0x00, 0x08, 0x30, 0x00, 0x00, 0x00, 0x00, 0x08, 0x30, 0x00, 0x00,
   0x00, 0x00, 0x08, 0x30, 0x00, 0x00, 0x00, 0x00, 0x08, 0x30, 0x00, 0x00,
   0x00, 0x00, 0x08, 0xe0, 0xff, 0xff, 0x00, 0x00, 0x08, 0x00, 0x00, 0x00,
   0x00, 0x00, 0x08, 0x00, 0x00, 0x00, 0x00, 0x00, 0x08, 0x00, 0x00, 0x00,
   0x00, 0x00, 0x08, 0x00, 0x00, 0x00, 0x00, 0x00, 0x08, 0x00, 0x00, 0x00,
   0x00, 0x00, 0x08, 0x00, 0x00, 0x00, 0x00, 0x00, 0x08, 0x00, 0x00, 0x00,
   0x00, 0x00, 0x08, 0x00, 0x00, 0x00, 0x00, 0x00, 0x08, 0x00, 0x00, 0x00,
   0x00, 0x00, 0x08, 0xe0, 0xff, 0xff, 0x00, 0x00, 0x08, 0xf0, 0xff, 0xff,
   0x00, 0x00, 0x08, 0x30, 0x00, 0x00, 0x00, 0x00, 0x08, 0x30, 0x00, 0x00,
   0x00, 0x00, 0x08, 0x30, 0x00, 0x00, 0x00, 0x00, 0x08, 0x30, 0x00, 0x00,
   0x00, 0x00, 0x08, 0x30, 0x00, 0x00, 0x00, 0x00, 0x08, 0x30, 0x00, 0x00,
   0x00, 0x00, 0x08, 0x30, 0x00, 0x00, 0x00, 0x00, 0x08, 0x30, 0x00, 0x00,
   0x00, 0x00, 0x08, 0x30, 0x00, 0x00, 0x00, 0x00, 0x08, 0x30, 0x00, 0x00,
   0x00, 0x00, 0x08, 0x30, 0x00, 0x00, 0x00, 0x00, 0x08, 0x30, 0x00, 0x00,
   0x00, 0x00, 0x08, 0x30, 0x00, 0x00, 0x00, 0x00, 0x08, 0x30, 0x00, 0x00,
   0x00, 0x00, 0x08, 0x30, 0x00, 0x00, 0x00, 0x00, 0x08, 0x30, 0x00, 0x00,
   0x00, 0x00, 0x08, 0x30, 0x00, 0x00, 0x00, 0x00, 0x08, 0x30, 0x00, 0x00};
