#define tex_width 32
#define tex_height 32
static unsigned char tex_bits[] = {
  0xf8, 0xff, 0x7f, 0x00, 0x08, 0x00, 0xc0, 0x00, 0x08, 0x00, 0x40, 0x01,
  0x08, 0x00, 0x40, 0x02, 0x08, 0x00, 0x40, 0x04, 0x08, 0x00, 0x40, 0x08,
  0x08, 0x00, 0xc0, 0x1f, 0x08, 0x00, 0x00, 0x18, 0x08, 0x00, 0x00, 0x18,
  0x08, 0x00, 0x00, 0x18, 0x08, 0x00, 0x00, 0x18, 0xe8, 0x0f, 0xfc, 0x1b,
  0x28, 0x09, 0x98, 0x19, 0x28, 0x09, 0x90, 0x18, 0x08, 0x01, 0x90, 0x18,
  0x08, 0xf9, 0x63, 0x18, 0x08, 0x11, 0x62, 0x18, 0x08, 0x11, 0x90, 0x18,
  0x08, 0x11, 0x91, 0x18, 0x08, 0xf1, 0x99, 0x19, 0x88, 0x13, 0xfd, 0x1b,
  0x08, 0x10, 0x00, 0x18, 0x08, 0x10, 0x00, 0x18, 0x08, 0x10, 0x02, 0x18,
  0x08, 0xf8, 0x03, 0x18, 0x08, 0x00, 0x00, 0x18, 0x08, 0x00, 0x00, 0x18,
  0x08, 0x00, 0x00, 0x18, 0x08, 0x00, 0x00, 0x18, 0x08, 0x00, 0x00, 0x18,
  0xf8, 0xff, 0xff, 0x1f, 0xf0, 0xff, 0xff, 0x1f, };
