/* XPM */
static char*gnuchess[]={
"16 16 3 1",
"a c #c0c0c0",
"# c #303030",
". c None",
"................",
".......#........",
"....####........",
"....######......",
"....#.######....",
"...#######.##...",
"..#########.#...",
".#.####.###.#...",
".####..####..#..",
"..##...#####.#..",
"......######.#..",
"...aa#######.#..",
"....########..#.",
"....#########.#.",
"....#########.#.",
"................"};
