/* XPM */
static char * xcdroast2_xpm[] = {
"48 48 319 2",
"  	c None",
". 	c #186118611861",
"X 	c #000000000000",
"o 	c #000004100000",
"O 	c #9E79A2899E79",
"+ 	c #F7DEFBEEF7DE",
"@ 	c #FFFFFFFFFFFF",
"# 	c #CF3CD34CCF3C",
"$ 	c #104014511040",
"% 	c #861782078617",
"& 	c #B6DAB6DAB6DA",
"* 	c #104010401040",
"= 	c #D75CD34CD75C",
"- 	c #E79DEBADE79D",
"; 	c #28A22CB228A2",
": 	c #514455555144",
"> 	c #79E779E779E7",
", 	c #30C230C230C2",
"< 	c #EFBEF3CEEFBE",
"1 	c #F7DEF7DEF7DE",
"2 	c #28A230C228A2",
"3 	c #410345144103",
"4 	c #618569A66185",
"5 	c #86178A288617",
"6 	c #CF3CCF3CCF3C",
"7 	c #DF7DDF7DDF7D",
"8 	c #18611C711861",
"9 	c #A699A699A699",
"0 	c #B6DAB2CAB6DA",
"q 	c #08200C300820",
"w 	c #D75CDB6CD75C",
"e 	c #79E77DF779E7",
"r 	c #FFFFFBEEFFFF",
"t 	c #F7DEFFFFF7DE",
"y 	c #69A669A669A6",
"u 	c #30C234D330C2",
"i 	c #E79DE79DE79D",
"p 	c #71C679E771C6",
"a 	c #69A66DB669A6",
"s 	c #965882070000",
"d 	c #CF3CBAEA0000",
"f 	c #F7DEEBAD0820",
"g 	c #F7DEEFBE28A2",
"h 	c #F7DEEBAD30C2",
"j 	c #F7DEEBAD38E3",
"k 	c #F7DEEBAD4924",
"l 	c #F7DED75C28A2",
"z 	c #F7DED34C1861",
"x 	c #F7DEE79D38E3",
"c 	c #F7DEE79D28A2",
"v 	c #F7DEDB6C0820",
"b 	c #F7DED34C0000",
"n 	c #D75CB2CA0000",
"m 	c #AEBAAEBAAEBA",
"M 	c #082008200820",
"N 	c #8E3875D60000",
"B 	c #DF7DBAEA0000",
"V 	c #F7DECB2B1040",
"C 	c #F7DEBEFB1861",
"Z 	c #F7DECB2B28A2",
"A 	c #F7DEDF7D30C2",
"S 	c #F7DEEBAD4103",
"D 	c #F7DEF3CE4924",
"F 	c #F7DED75C30C2",
"G 	c #F7DEE38D28A2",
"H 	c #F7DED75C1040",
"J 	c #F7DECF3C1861",
"K 	c #F7DEC71B2081",
"L 	c #F7DED34C28A2",
"P 	c #F7DEDB6C30C2",
"I 	c #F7DEE38D38E3",
"U 	c #EFBED75C0000",
"Y 	c #EFBEEFBEEFBE",
"T 	c #9E7992480000",
"R 	c #E79DD75C0000",
"E 	c #F7DEE38D0820",
"W 	c #F7DED34C0820",
"Q 	c #F7DEEFBE4103",
"! 	c #F7DEDB6C38E3",
"~ 	c #F7DED34C1040",
"^ 	c #F7DECB2B1861",
"/ 	c #F7DEDF7D38E3",
"( 	c #F7DEE79D4924",
") 	c #F7DEE79D4103",
"_ 	c #F7DEEFBE38E3",
"` 	c #514451445144",
"' 	c #410341034103",
"] 	c #D75CC71B0000",
"[ 	c #F7DEE79D0000",
"{ 	c #F7DEF3CE0000",
"} 	c #E79DF3CE0000",
"| 	c #F7DEC30B1861",
" .	c #F7DED34C2081",
"..	c #F7DECB2B2081",
"X.	c #514459655144",
"o.	c #A699A289A699",
"O.	c #E79DF3CE0820",
"+.	c #EFBEF3CE1040",
"@.	c #F7DECF3C28A2",
"#.	c #F7DEE38D2081",
"$.	c #EFBEEBAD30C2",
"%.	c #8E388E388E38",
"&.	c #C71BCB2BC71B",
"*.	c #AEBAB2CAAEBA",
"=.	c #D75CD75CD75C",
"-.	c #E79DF3CE1040",
";.	c #F7DEEFBE1861",
":.	c #F7DEDF7D2081",
">.	c #F7DEC71B1861",
",.	c #71C66DB61040",
"<.	c #F7DEDF7D0820",
"1.	c #DF7DF3CE0000",
"2.	c #F7DEF3CE1861",
"3.	c #F7DEDF7D1861",
"4.	c #F7DEDB6C28A2",
"5.	c #F7DEE79D30C2",
"6.	c #F7DEDB6C1861",
"7.	c #CF3CBEFB0820",
"8.	c #71C675D671C6",
"9.	c #F7DEC71B1040",
"0.	c #EFBEF3CE0000",
"q.	c #F7DED34C30C2",
"w.	c #F7DEDB6C4103",
"e.	c #F7DEE38D30C2",
"r.	c #F7DED75C1861",
"t.	c #DF7DD34C1861",
"y.	c #96588E380000",
"u.	c #F7DEEFBE1040",
"i.	c #F7DED75C4924",
"p.	c #F7DEDF7D28A2",
"a.	c #F7DECF3C2081",
"s.	c #F7DEEFBE4924",
"d.	c #C71BBAEA1861",
"f.	c #EFBEE38D0000",
"g.	c #F7DEE38D4103",
"h.	c #79E77DF728A2",
"j.	c #EFBEEBAD1861",
"k.	c #F7DEDB6C1040",
"l.	c #F7DEF3CE0820",
"z.	c #EFBEDF7D28A2",
"x.	c #DF7DCF3C4924",
"c.	c #CF3CC30B6185",
"v.	c #BEFBB6DA71C6",
"b.	c #BEFBBAEA79E7",
"n.	c #C71BC30B71C6",
"m.	c #E79DDF7D4924",
"M.	c #F7DEF3CE4103",
"N.	c #514451444924",
"B.	c #EFBEEBAD28A2",
"V.	c #EFBEDB6C2081",
"C.	c #CF3CC71B5965",
"Z.	c #C71BBEFB71C6",
"A.	c #CF3CC71B6185",
"S.	c #CF3CC71B5144",
"D.	c #CF3CCB2B5965",
"F.	c #CF3CC71B79E7",
"G.	c #C71BC30B79E7",
"H.	c #BEFB86178617",
"J.	c #DF7DD34C4103",
"K.	c #C71BC30B5144",
"L.	c #9E7992484103",
"P.	c #69A66DB65144",
"I.	c #71C675D65144",
"U.	c #CF3CCF3C79E7",
"Y.	c #C71B8A288E38",
"T.	c #D75CDB6C71C6",
"R.	c #EFBEE79D38E3",
"E.	c #59655D755965",
"W.	c #49244D344924",
"Q.	c #EFBEEBAD2081",
"!.	c #EFBEF3CE4924",
"~.	c #F7DEF3CE5144",
"^.	c #EFBEF3CE5144",
"/.	c #EFBEF3CE5965",
"(.	c #DF7DD34C4924",
").	c #BEFB82078617",
"_.	c #CF3CC71B71C6",
"`.	c #CF3CC30B30C2",
"'.	c #69A669A66185",
"].	c #71C671C671C6",
"[.	c #B6DAAAAA30C2",
"{.	c #D75CD34C8617",
"}.	c #D75CD34C9658",
"|.	c #DF7DC71B71C6",
" X	c #71C66DB64103",
".X	c #E79DE38D0000",
"XX	c #F7DEF3CE5965",
"oX	c #F7DEEBAD6185",
"OX	c #F7DEEFBE69A6",
"+X	c #EFBEF3CE6185",
"@X	c #F7DEF3CE6185",
"#X	c #EFBEE38D4924",
"$X	c #C71BBEFB8617",
"%X	c #C71BC30B8E38",
"&X	c #CF3CCB2B79E7",
"*X	c #CF3CC30B5144",
"=X	c #9E799A6930C2",
"-X	c #B6DAAAAA2081",
";X	c #D75CCB2B4103",
":X	c #CF3CCB2B71C6",
">X	c #CF3CCF3C8617",
",X	c #D75CE38D4924",
"<X	c #F7DECB2B0820",
"1X	c #F7DEBAEA0820",
"2X	c #F7DEB2CA0820",
"3X	c #F7DEB2CA1040",
"4X	c #F7DEBAEA1861",
"5X	c #F7DEBEFB2081",
"6X	c #96588E3830C2",
"7X	c #596559655965",
"8X	c #861775D60820",
"9X	c #E79DDF7D5965",
"0X	c #CF3C92489658",
"qX	c #D75CCF3C8E38",
"wX	c #BEFBC71B71C6",
"eX	c #D75CDB6C6185",
"rX	c #EFBEEBAD4924",
"tX	c #D75CF3CE1861",
"yX	c #C71BF3CE0000",
"uX	c #CF3CF3CE0000",
"iX	c #DF7DF3CE0820",
"pX	c #F7DEC71B0820",
"aX	c #F7DEAAAA0820",
"sX	c #A6999E7928A2",
"dX	c #EFBEE79D5965",
"fX	c #E79DD34C69A6",
"gX	c #DF7DD34C69A6",
"hX	c #DF7DD75C69A6",
"jX	c #DF7DCF3C5965",
"kX	c #E79DBEFB28A2",
"lX	c #CF3CF3CE0820",
"zX	c #EFBEF3CE30C2",
"xX	c #EFBEF3CE28A2",
"cX	c #CF3CF3CE1040",
"vX	c #F7DEF3CE1040",
"bX	c #F7DEDF7D1040",
"nX	c #F7DEA2890820",
"mX	c #9E79965828A2",
"MX	c #69A665951040",
"NX	c #BEFBF3CE0000",
"BX	c #D75CF3CE1040",
"VX	c #F7DEF3CE38E3",
"CX	c #D75CF3CE0000",
"ZX	c #F7DEEBAD1861",
"AX	c #F7DECF3C0820",
"SX	c #F7DEAAAA0000",
"DX	c #79E775D638E3",
"FX	c #CF3CC71B0820",
"GX	c #C71BF3CE0820",
"HX	c #DF7DF3CE1861",
"JX	c #F7DECF3C30C2",
"KX	c #E79DDF7D2081",
"LX	c #59655D754924",
"PX	c #F7DEAEBA0820",
"IX	c #F7DEE79D1040",
"UX	c #F7DEF3CE30C2",
"YX	c #E79DF3CE2081",
"TX	c #F7DED75C38E3",
"RX	c #B6DAAEBA1861",
"EX	c #618565956185",
"WX	c #DF7DF3CE2081",
"QX	c #EFBEF3CE0820",
"!X	c #E79DDB6C1861",
"~X	c #5965555538E3",
"^X	c #BEFBBAEA1861",
"/X	c #EFBEE38D2081",
"(X	c #71C66DB628A2",
")X	c #59655D754103",
"_X	c #EFBEE79D1861",
"`X	c #71C675D628A2",
"'X	c #51444D344924",
"]X	c #596559655144",
"[X	c #DF7DD75C2081",
"{X	c #F7DEBEFB0820",
"}X	c #F7DEEBAD2081",
"|X	c #E79DDF7D0820",
" o	c #69A6659528A2",
".o	c #59655D755144",
"Xo	c #EFBEE79D30C2",
"oo	c #F7DEC30B28A2",
"Oo	c #EFBEE79D2081",
"+o	c #A6999E791861",
"@o	c #51444D3438E3",
"#o	c #D75CCB2B1861",
"$o	c #F7DEEFBE5144",
"%o	c #B6DAAEBA1040",
"&o	c #5965596530C2",
"*o	c #69A669A65144",
"=o	c #CF3CC71B2081",
"-o	c #F7DEEBAD5144",
";o	c #86177DF730C2",
":o	c #596559654924",
">o	c #71C671C669A6",
",o	c #69A665955144",
"<o	c #861779E738E3",
"1o	c #D75CCF3C1040",
"2o	c #D75CCF3C1861",
"3o	c #BEFBB2CA2081",
"4o	c #AEBAA28928A2",
"5o	c #618561856185",
"6o	c #492449244924",
"7o	c #FFFFFBEEF7DE",
"8o	c #28A228A228A2",
"9o	c #9E799E799E79",
"0o	c #208120812081",
"qo	c #C71BC30BC71B",
"wo	c #CF3CCB2BCF3C",
"eo	c #F7DEF3CEF7DE",
"ro	c #9E799A699E79",
"to	c #38E338E338E3",
"yo	c #AEBAAAAAAEBA",
"uo	c #E79DE38DE79D",
"io	c #208124922081",
"po	c #DF7DDB6CDF7D",
"ao	c #965892489658",
"so	c #965896589658",
"do	c #861786178617",
"fo	c #38E33CF338E3",
"go	c #EFBEEBADEFBE",
". X X o O + + + + + + @ @ # $ %                                                                 ",
"& o X X * = + + + + + @ - ; : +                                                                 ",
"@ > X X X , < + + + + 1 : 2 - @                                                                 ",
"@ 1 3 X X X 4 + + + + 5 $ 6 @ @                                                                 ",
"@ @ 7 8 X X X 9 + + 0 * 9 @ @ @                                                                 ",
"@ @ @ 0 o X X q w = . e @ @ @ @                                                                 ",
"r t @ + > X X X y u 3 < @ @ @ @                                                                 ",
"@ @ @ + 1 3 X ; : . i @ @ @ @ @                                                                 ",
"r @ @ + + p $ a X X 9 @ @ @ @ @                       s d f g h j k l z x c v b n               ",
"@ @ @ + m o O M X X * # @ @ @ @               N B V C Z A S D S k F z x G H J K L P I U         ",
"@ @ @ # . e + e X X X u Y @ @ @         T R E E E W C K A D Q k ! z x G ~ ^ K L / ( ) S _       ",
"@ @ - u ` 1 + 1 ' X X X y + @ @     ] [ { { } } { E | Z x D S /  .x G ~ ....P ) ( S D D D D     ",
"@ 1 X.; - + + + 7 8 X X o o.@ @ b E { } } O.+.O.} E | @.S S )  .x #.~ ..L / ( ) Q D D D D D $.  ",
"@ %.* &.+ + + + + *.M X X * =.@ E { } -.;.:.:.;.} E >.P Q S  .x :.J ..P ) ) Q D D D D D D D D ,.",
"& q 9 + + + + + + + > X X X , < <.{ 1.2.:.L F 3.} <.K S ) 4.5.6.J L / S Q D D D D D D D D D D 7.",
". 8.+ + + + + + + + 1 3 X X X 4 9.E 0.+.:.q.w.:.} H F Q P e.r...F ) Q D D D D D D D Q S j D D t.",
"                y._ 5.5.P F Z K K >.<.0.u.F i.p.0.J S P e.r.a./ s.D D D D D s.S ) ) x 5.j D D d.",
"              f.D D D j 5.5.A F @.K >.<.0.#.i.p.{ 3.G :.6.F ) s.D D D S ) I g.( ) S S D D D D h.",
"            j.D D D D D D D S x e.P L ..k.l.z.x.c.v.b.b.n.m.D D S I / ! I S Q M.D D D D D D D N.",
"          B.D D D D D D D D D D D D Q e.V.C.Z.A.S.D.F.G.H.G.x I I S s.D D D D D D D D D D D d.: ",
"        h D D D D D D D D D D D D D _ J.v.A.K.L.P.I.A.U.Y.T.D D D D D D D D D D D D D D D R.E.W.",
"      Q.!.~.~.^./././.^.^.^.^.~.~.Q (.)._.`.'.].'.[.{.}.|.! ! / I I I x x j M.D D D D D s. Xy   ",
"    .XXXoXoXoXoXOXoXoX+X@XXXXXXX^.#X$X%X&X*X=X-X;X:X>X,XE <X1X2X3X4X5XZ @.q.P e.5.M.D ~.6Xy 7X  ",
"  8XD D ~.^.^.!.!.!.D D D k ( ( ( 9XY.0XqX&X_.:XwXeXrXtXyXuXiXu.k.pX2XaX3XC K q.P j ~.sXa E.    ",
"  B.D D D D D D D D ( ( ( ( s.^./.+XdXfXgXhXjXkXiXlXzXk xXcXyXyX1.vXbX<X2XnX4XK A s.mXa E.      ",
"MXD D D D D D M.S ( k D !.^./.@X~.s.P 4.F S L 2XO.NXBXVX( zXBXyXNXCXO.ZXAXSX3XF Q DXa E.        ",
"FXD D D D D D D D D !.^.@X+X~.D Q F 4.l S I K 2XvXNXGXHXVX( zXBXyXNXCX+.6.2XJXKXLXy 7X          ",
"KXD D D D D D D D ~.@XoX~.!.s.) l 4.L ) Q P K PXIXCXNXGXHXUXS YXlXNXCX+.z TXRX7XEX7X            ",
"KXD D D D D D ~.@XoX^.!.D S ) L 4.a.g.S j q.K PXk.O.uXNXyXBXWXHXGXyXQXe.!X~XE.E.:               ",
"^XD D D D D @XoX^.D D D Q g. .p.a./ S D e.q.K aX<X;.O.CXuXyXyXyXCXxX/X(X: 7X: W.                ",
")XD D !.!.XX~.!.!.D Q S / a.4.a.P k Q D e.F K 3XaX~ u.vXQXQX+.xX_X`X'X7X: `                     ",
"]X[X!.!.!.!.!.D D S ) P a.p.a.P k S D D G F Z C aXaX{X9.a.}X|X o` : ` ` 3                       ",
"` .oXoD D D D M.) ( F J 6.^ l ) ) Q D D 5.A F @.Z ool Oo+o@o` ` W.` 3                           ",
"' EX'.#o$oD Q ) ) L J H J l g.k j D D D D S S j Q.%o&o: : ` ` ` 3                               ",
"  7XEX].*o=oR.-oTXZ a.^ L I k S s.~.~.s.B.#o;o:o7X7X: ` ` W.'                                   ",
"    7XEXy ].>o,o<omXd.1ot.2o#o3o4o<o*o'.a y 5oE.E.: ` 6o                                        ",
"@ @ @ @ r r r r r @ @ @ @ r r 7o1 1 r r @ r r r @ @ @ @ @ @ @ @ @ @ @ @ @ @ @ @ @ @ @ @ @ @ @ @ ",
"@ @ @ @ @ @ @ @ @ @ @ @ @ @ @ @ @ @ @ @ @ @ @ @ @ @ @ @ @ @ @ @ @ @ @ @ @ @ @ @ @ @ @ @ @ @ @ @ ",
"@ @ a 8 8 8 8o9o@ @ @ @ r % 0o8 ; m @ @ @ @ @ 1 ; u i @ @ @ @ @ qou 8 ' 7 @ @ @ o.8 8 8 8 8 wo@ ",
"@ @ 7X$ 0 0 3 8 eo@ @ @ roo E.o.toM wo@ @ @ @ & X X 9 @ @ @ @ Y 8oEXyo, 3 r @ @ uo0 e X 9o0 Y @ ",
"@ @ 7X8 @ @ y . Y @ @ @ u ' 1 @ uoq > @ @ @ @ EXioio: @ @ @ @ po* 9oY woaor @ @ @ @ & X uo@ @ @ ",
"@ @ 7Xq y 5oo ao@ @ @ @ X so@ @ @ 6o, r @ @ 1 8 a % 0o1 @ @ @ r : M 8 7Xqo@ @ @ @ @ & X uo@ @ @ ",
"@ @ 7Xq y 5oM do@ @ @ @ M do@ @ @ fo' r @ @ qoX 9 9 q qo@ @ @ @ Y = 9oto$ po@ @ @ @ & X uo@ @ @ ",
"@ @ 7X8 @ @ toto@ @ @ @ ` 8 uo@ & X so@ @ @ e X X X X 5o@ @ @ qofo=.@ qoX 0 @ @ @ @ & X uo@ @ @ ",
"@ @ 7X8 @ @ toto@ @ @ @ 6 . M foX u go@ @ eou 7X@ @ 5o0ogo@ @ eo6o8 7X* for @ @ @ @ & X uo@ @ @ ",
"@ @ 9 do@ @ m do1 @ @ @ @ poe 8.aoY @ @ @ uo> 6 @ @ =.> = @ @ @ eo9o8.m Y @ @ @ @ @ =.8.Y @ @ @ ",
"@ @ @ @ @ @ @ @ @ @ @ @ @ @ @ @ @ @ @ @ @ @ @ @ @ @ @ @ @ @ @ @ @ @ @ @ @ @ @ @ @ @ @ @ @ @ @ @ ",
"@ @ @ @ @ @ @ @ @ @ @ @ @ @ @ @ @ @ @ @ @ @ @ @ @ @ @ @ @ @ @ @ @ @ @ @ @ @ @ @ @ @ @ @ @ @ @ @ "};
