/* XPM */
static char *xcdroast[] = {
/* width height num_colors chars_per_pixel */
"    16    16       46            1",
/* colors */
". c None s None",
"# c #202400",
"a c #966d00",
"b c #dfb651",
"c c #dfb600",
"d c #b6b600",
"e c #dfdb51",
"f c #ffb651",
"g c #969251",
"h c #b69251",
"i c #b6b651",
"j c #b69200",
"k c #969200",
"l c #696d00",
"m c #494900",
"n c #96b600",
"o c #dfdb00",
"p c #df9251",
"q c #df9200",
"r c #492400",
"s c #ffb600",
"t c #ff9200",
"u c #ffdb51",
"v c #ffdb00",
"w c #b60000",
"x c #dfff51",
"y c #ffff51",
"z c #690000",
"A c #960000",
"B c #ff6d00",
"C c #df0000",
"D c #494951",
"E c #694900",
"F c #202451",
"G c #200000",
"H c #ff4900",
"I c #204951",
"J c #ffdbae",
"K c #4992ae",
"L c #dfdbae",
"M c #ffffae",
"N c #ffffff",
"O c #dfdbff",
"P c #b6ff00",
"Q c #b6ff51",
"R c #699200",
/* pixels */
"................",
"...acba.........",
"..ddhbbii.......",
".btscibiddc.....",
".xffuhcbcpie....",
".eyuffbcbpbhi...",
".eevyukhucedpu..",
".uuyyuF.#miihn..",
".uxuuy#..#ysqbh.",
"..bcbbb##.hyfuf.",
"...pdbbumDhysuf.",
"...icccbibyyuyup",
"....ccbbhuLyxyy.",
".....eippbJJyxe.",
".......ijpuboxe.",
".......G.huugR.."
};
