#define xcdricon_width 48
#define xcdricon_height 48
static unsigned char xcdricon_bits[] = {
  0x07, 0x80, 0x01, 0x00, 0x00, 0x00, 0x0f, 0xc0, 0x00, 0x00, 0x00, 0x00,
  0x1f, 0x60, 0x00, 0x00, 0x00, 0x00, 0x3e, 0x30, 0x00, 0x00, 0x00, 0x00,
  0x7c, 0x18, 0x00, 0x00, 0x00, 0x00, 0xf8, 0x0c, 0x00, 0x00, 0x00, 0x00,
  0xf0, 0x06, 0x00, 0x00, 0x00, 0x00, 0xe0, 0x03, 0x00, 0x00, 0x00, 0x00,
  0x60, 0x07, 0x00, 0x18, 0x10, 0x01, 0xb0, 0x0f, 0x80, 0x00, 0x41, 0x08,
  0x18, 0x1f, 0x10, 0x02, 0x00, 0x20, 0x0c, 0x3e, 0x04, 0x08, 0x04, 0x00,
  0x06, 0x7c, 0x01, 0x00, 0x90, 0x00, 0x03, 0xf8, 0x20, 0x40, 0x00, 0x80,
  0x01, 0xf0, 0x00, 0x02, 0x00, 0x00, 0x00, 0xe0, 0x00, 0x00, 0x01, 0x00,
  0x00, 0x02, 0x44, 0x00, 0x00, 0x04, 0x00, 0x00, 0x00, 0x12, 0x00, 0x80,
  0x40, 0x00, 0x00, 0x00, 0x10, 0x80, 0x00, 0x00, 0x20, 0x29, 0x00, 0x80,
  0x00, 0x00, 0x88, 0x02, 0x00, 0xc0, 0x04, 0x00, 0x40, 0x03, 0x01, 0x60,
  0x00, 0x00, 0x48, 0x40, 0x90, 0x70, 0x02, 0x44, 0x04, 0x08, 0x04, 0x38,
  0x00, 0x00, 0x80, 0x00, 0x40, 0x1c, 0x21, 0x00, 0x00, 0x20, 0x11, 0x0c,
  0x00, 0x00, 0x10, 0x02, 0x00, 0x07, 0x00, 0x00, 0x80, 0x00, 0x84, 0x03,
  0x00, 0x00, 0x02, 0x08, 0xe0, 0x01, 0x01, 0x41, 0x80, 0xa0, 0xf8, 0x00,
  0x01, 0x04, 0x00, 0x00, 0x3e, 0x00, 0x01, 0x10, 0x40, 0x82, 0x1f, 0x00,
  0x07, 0x00, 0x01, 0xe0, 0x07, 0x00, 0x06, 0x00, 0x00, 0xfe, 0x01, 0x00,
  0x38, 0x10, 0xc0, 0x7f, 0x00, 0x00, 0xf0, 0x87, 0xff, 0x0f, 0x00, 0x00,
  0x00, 0xfc, 0x0f, 0x00, 0x00, 0x00, 0x00, 0x00, 0x00, 0x00, 0x00, 0x00,
  0x7c, 0xc0, 0x01, 0x03, 0x0e, 0x3f, 0xcc, 0xe0, 0x03, 0x03, 0x1f, 0x3f,
  0xcc, 0x30, 0x86, 0x07, 0x03, 0x0c, 0x7c, 0x30, 0x86, 0x04, 0x0e, 0x0c,
  0xfc, 0x30, 0x86, 0x04, 0x18, 0x0c, 0xcc, 0x30, 0xc6, 0x0f, 0x19, 0x0c,
  0xcc, 0xe0, 0xc3, 0x0c, 0x1f, 0x0c, 0xcc, 0xc0, 0xc1, 0x0c, 0x0e, 0x0c,
  0x00, 0x00, 0x00, 0x00, 0x00, 0x00, 0x00, 0x00, 0x00, 0x00, 0x00, 0x00,
  };
