#define timer4_width 16
#define timer4_height 16
#define timer_x_hot 7
#define timer_y_hot 8
static unsigned char timer4_bits[] = {
  0x00, 0x30, 0xe0, 0x73, 0xf8, 0xef, 0x1c, 0xdc, 0x06, 0x30, 0x06, 0x34,
  0x03, 0x62, 0x03, 0x61, 0x83, 0x60, 0x83, 0x60, 0x83, 0x60, 0x86, 0x30,
  0x86, 0x30, 0x1c, 0x1c, 0xf8, 0x0f, 0xe0, 0x03, };



